<?xml version="1.0" encoding="utf-8"?>
<!--

    Copyright (c) 2019-2020 Red Hat, Inc.
    This program and the accompanying materials are made
    available under the terms of the Eclipse Public License 2.0
    which is available at https://www.eclipse.org/legal/epl-2.0/

    SPDX-License-Identifier: EPL-2.0

    Contributors:
      Red Hat, Inc. - initial API and implementation

-->
<svg
   xmlns:dc="http://purl.org/dc/elements/1.1/"
   xmlns:cc="http://creativecommons.org/ns#"
   xmlns:svg="http://www.w3.org/2000/svg"
   xmlns="http://www.w3.org/2000/svg"
   xmlns:xlink="http://www.w3.org/1999/xlink" 
   enable-background="new"
   height="54"
   width="147.10211"
   version="1.1"
   viewBox="0 0 147.10211 54"
   data-name="Red Hat CodeReady Workspaces"
   id="CodeReady_Workspaces">
<style type="text/css">
	.st0{fill:#FFFFFF;}
</style>
<title  id="title146">Red Hat CodeReady Workspaces</title>
<g id="layer1">
</g>
<g>
	<path class="st0" d="M27.4,30.6l1,1c-1,1.1-2.5,1.7-4,1.7c-2.9,0-5.2-2.2-5.2-5.1s2.3-5.1,5.2-5.1c1.6,0,3.1,0.7,4,1.7l-1,1
		c-0.8-0.9-1.8-1.4-3-1.4c-2.1,0-3.7,1.6-3.7,3.7s1.6,3.7,3.7,3.7C25.6,31.9,26.7,31.4,27.4,30.6z"/>
	<path class="st0" d="M32.8,25.8c2.1,0,3.7,1.7,3.7,3.7c0,2.1-1.7,3.7-3.7,3.7s-3.7-1.7-3.7-3.7c0,0,0,0,0,0
		C29,27.5,30.7,25.8,32.8,25.8C32.7,25.8,32.8,25.8,32.8,25.8z M35.1,29.5c0-1.4-1-2.5-2.3-2.5c-1.3,0-2.4,1.1-2.4,2.5
		s1,2.5,2.4,2.5C34.1,32,35.1,30.9,35.1,29.5z"/>
	<path class="st0" d="M43.4,32.4c-0.6,0.5-1.4,0.8-2.2,0.8c-2,0-3.6-1.6-3.6-3.7s1.6-3.7,3.7-3.7c0.8,0,1.5,0.2,2.2,0.7v-3.3
		l1.4-0.3v10.2h-1.4V32.4z M41.4,32c0.8,0,1.5-0.3,2-0.9v-3.3c-0.5-0.6-1.2-0.9-2-0.8C40,27,39,28.1,39,29.5S40,32,41.4,32z"/>
	<path class="st0" d="M49.9,33.2c-2.1,0-3.8-1.6-3.8-3.7c0-2.1,1.6-3.7,3.6-3.7c2,0,3.5,1.6,3.5,3.8V30h-5.7
		c0.2,1.2,1.2,2.1,2.4,2.1c0.7,0,1.3-0.2,1.8-0.6l0.9,0.9C51.9,32.9,50.9,33.3,49.9,33.2z M47.6,28.9h4.3c-0.2-1.1-1.1-1.9-2.1-1.9
		C48.6,27,47.8,27.8,47.6,28.9z"/>
	<path class="st0" d="M54.7,23.2h4.5c2,0,3.3,1.2,3.3,2.9c0,1.3-0.8,2.3-2,2.7l2.2,4.3h-1.6l-2-4.1h-2.8v4.1h-1.5V23.2z M56.2,24.5
		v3.3h2.9c1.2,0,1.9-0.7,1.9-1.7s-0.8-1.7-1.9-1.7H56.2z"/>
	<path class="st0" d="M66.9,33.2c-2.1,0-3.8-1.6-3.8-3.7c0-2.1,1.6-3.7,3.6-3.7c2,0,3.5,1.6,3.5,3.8V30h-5.7
		c0.2,1.2,1.2,2.1,2.4,2.1c0.7,0,1.3-0.2,1.8-0.6l0.9,0.9C68.9,32.9,67.9,33.3,66.9,33.2z M64.5,28.9h4.3c-0.2-1.1-1.1-1.9-2.1-1.9
		C65.6,27,64.8,27.8,64.5,28.9z"/>
	<path class="st0" d="M71.1,31c0-1.4,1.1-2.2,2.9-2.2c0.7,0,1.3,0.1,2,0.4v-0.8c0-1-0.6-1.5-1.8-1.5c-0.7,0-1.3,0.2-2.2,0.6
		l-0.5-1.1c1.1-0.5,2-0.7,3-0.7c1.9,0,2.9,0.9,2.9,2.6v4.8H76v-0.6c-0.6,0.5-1.4,0.8-2.2,0.7C72.2,33.2,71.1,32.3,71.1,31z
		 M74.1,32.2c0.7,0,1.4-0.2,1.9-0.7v-1.2c-0.6-0.3-1.2-0.5-1.9-0.4c-1,0-1.7,0.5-1.7,1.2C72.5,31.7,73.1,32.2,74.1,32.2z"/>
	<path class="st0" d="M84.5,32.4c-0.6,0.5-1.4,0.8-2.2,0.8c-2,0-3.6-1.6-3.6-3.7s1.6-3.7,3.7-3.7c0.8,0,1.5,0.3,2.2,0.7v-3.3
		l1.4-0.3v10.2h-1.4V32.4z M82.5,32c0.8,0,1.5-0.3,2-0.9v-3.3c-0.5-0.6-1.2-0.9-2-0.8c-1.4,0-2.4,1.1-2.4,2.5S81.1,32,82.5,32z"/>
	<path class="st0" d="M89.6,33.1l-2.9-7.2h1.6l2.1,5.5l2.3-5.5h1.5L90.8,34c-0.7,1.5-1.4,2.1-2.8,2.1c-0.3,0-0.5,0-0.7-0.1v-1.2
		c0.2,0,0.4,0.1,0.6,0.1c0.7,0,1.1-0.3,1.4-1.1L89.6,33.1z"/>
	<path class="st0" d="M21.3,47.8l-2.1-9.9h1.1l1.7,8.2l2.4-8.2h1.1l2.4,8.1l1.7-8.1h1.1l-2.1,9.9h-1.1l-2.5-8.4l-2.5,8.4L21.3,47.8z
		"/>
	<path class="st0" d="M34.6,40.6c2,0,3.6,1.6,3.6,3.7s-1.6,3.7-3.6,3.7c-2,0-3.6-1.6-3.6-3.7C31,42.2,32.6,40.6,34.6,40.6z
		 M37.2,44.2c0-1.5-1.1-2.7-2.6-2.7c-1.4,0-2.6,1.2-2.6,2.7c0,1.5,1.1,2.8,2.6,2.8C36.1,47,37.2,45.8,37.2,44.2L37.2,44.2z"/>
	<path class="st0" d="M39.7,40.7h1v1c0.4-0.7,1.2-1.2,2-1.2c0.2,0,0.5,0,0.7,0.1v1c-0.2-0.1-0.5-0.1-0.7-0.1c-0.9,0-1.5,0.5-1.9,1.5
		v4.8h-1L39.7,40.7z"/>
	<path class="st0" d="M44.6,37.9l1-0.2v6.2l3.7-3.2h1.3l-3.9,3.4l4.1,3.7h-1.4l-3.7-3.4v3.4h-1V37.9z"/>
	<path class="st0" d="M51.4,46.1c0.6,0.6,1.4,0.9,2.3,1c1.1,0,1.9-0.5,1.9-1.3c0-0.6-0.4-1-1.3-1.1l-1.2-0.2
		c-1.4-0.2-2.1-0.8-2.1-1.9c0-1.2,1.1-2.1,2.7-2.1c1,0,2,0.3,2.8,0.9l-0.6,0.7c-0.8-0.5-1.5-0.8-2.3-0.8c-1,0-1.6,0.5-1.6,1.2
		c0,0.6,0.4,0.9,1.3,1l1.2,0.2c1.4,0.2,2.1,0.8,2.1,1.9c0,1.2-1.2,2.2-2.9,2.2c-1.2,0-2.2-0.4-3-1.1L51.4,46.1z"/>
	<path class="st0" d="M57.8,40.7h1v0.8c0.6-0.6,1.4-0.9,2.3-0.9c2,0,3.6,1.6,3.6,3.6c0,2-1.6,3.7-3.6,3.7c-0.8,0-1.6-0.3-2.3-0.8
		v3.6h-1V40.7z M58.8,42.5V46c0.5,0.6,1.3,1,2.2,1c1.5,0,2.6-1.2,2.6-2.7s-1.1-2.7-2.6-2.7C60.1,41.5,59.3,41.9,58.8,42.5L58.8,42.5
		z"/>
	<path class="st0" d="M65.8,45.8c0-1.3,1.1-2.2,2.8-2.2c0.7,0,1.4,0.2,2.1,0.5v-0.9c0-1.1-0.6-1.7-1.9-1.7c-0.7,0-1.4,0.2-2.2,0.6
		l-0.4-0.8c1-0.5,1.9-0.7,2.7-0.7c1.8,0,2.8,0.9,2.8,2.5v4.8h-1v-0.7c-0.6,0.5-1.5,0.8-2.3,0.8C66.8,47.9,65.8,47,65.8,45.8z
		 M68.6,47.1c0.8,0,1.5-0.3,2.1-0.8v-1.3c-0.6-0.4-1.2-0.6-2-0.6c-1.1,0-1.9,0.5-1.9,1.4C66.8,46.5,67.5,47.1,68.6,47.1z"/>
	<path class="st0" d="M78.8,46.1l0.6,0.7c-0.7,0.7-1.7,1.1-2.7,1.1c-2,0-3.6-1.6-3.6-3.7c0-2.1,1.6-3.7,3.6-3.7c1,0,2,0.4,2.8,1.1
		l-0.7,0.8c-0.5-0.6-1.3-0.9-2.1-0.9c-1.5,0-2.6,1.2-2.6,2.7c0,1.5,1.1,2.7,2.6,2.7C77.5,47,78.2,46.7,78.8,46.1z"/>
	<path class="st0" d="M83.7,47.9c-2,0-3.6-1.6-3.6-3.6c0,0,0-0.1,0-0.1c0-2,1.5-3.6,3.5-3.6c1.9,0,3.3,1.6,3.3,3.6v0.3h-5.8
		c0.2,1.4,1.3,2.4,2.7,2.4c0.7,0,1.5-0.2,1.9-0.6l0.6,0.7C85.6,47.6,84.7,47.9,83.7,47.9z M81.2,43.7h4.7c-0.2-1.3-1.2-2.2-2.3-2.2
		C82.3,41.5,81.4,42.4,81.2,43.7L81.2,43.7z"/>
	<path class="st0" d="M88.4,46.1c0.6,0.6,1.4,0.9,2.3,1c1.1,0,1.9-0.5,1.9-1.3c0-0.6-0.4-1-1.3-1.1l-1.2-0.2
		c-1.4-0.2-2.1-0.8-2.1-1.9c0-1.2,1.1-2.1,2.7-2.1c1,0,2,0.3,2.8,0.9l-0.5,0.7c-0.8-0.5-1.5-0.8-2.3-0.8c-1,0-1.6,0.5-1.6,1.2
		c0,0.6,0.4,0.9,1.3,1l1.2,0.2c1.4,0.2,2.1,0.8,2.1,1.9c0,1.2-1.2,2.2-2.9,2.2c-1.2,0-2.2-0.4-3-1.1L88.4,46.1z"/>
	<path class="st0" d="M67.6,16.1c0,1.6,1,2.4,2.7,2.4c0.5,0,1.1-0.1,1.6-0.2v-1.9c-0.3,0.1-0.7,0.2-1,0.2c-0.7,0-1-0.2-1-0.9v-2.9
		H72v-1.9h-2.1V8.4l-2.3,0.5v1.9H66v1.9h1.5L67.6,16.1z M60.4,16.1c0-0.5,0.5-0.7,1.3-0.7c0.5,0,0.9,0.1,1.4,0.2v1
		c-0.4,0.2-0.9,0.4-1.4,0.4C60.8,16.9,60.4,16.6,60.4,16.1 M61.1,18.5c0.8,0,1.5-0.2,2.1-0.6v0.5h2.3v-4.8c0-1.8-1.2-2.9-3.3-2.9
		c-1.2,0-2.3,0.3-3.5,0.8l0.8,1.7c0.9-0.4,1.6-0.6,2.3-0.6c1,0,1.4,0.4,1.4,1.1v0.4c-0.6-0.1-1.1-0.2-1.7-0.2
		c-1.9,0-3.1,0.8-3.1,2.3C58.3,17.5,59.4,18.5,61.1,18.5 M48.5,18.4H51v-3.9h4.1v3.9h2.5v-10h-2.5v3.8H51V8.4h-2.5L48.5,18.4z
		 M39.1,14.6c0-1.1,0.9-1.9,2-1.9c0.6,0,1.2,0.2,1.6,0.6v2.6c-0.4,0.4-1,0.6-1.6,0.6C40,16.5,39.1,15.7,39.1,14.6 M42.8,18.4H45V7.9
		l-2.3,0.5v2.8c-0.6-0.3-1.3-0.5-1.9-0.5c-2.2,0-3.9,1.7-3.9,3.9c0,2.1,1.7,3.9,3.8,3.9c0,0,0,0,0.1,0c0.7,0,1.4-0.2,2-0.7
		L42.8,18.4z M32.3,12.6c0.7,0,1.3,0.5,1.6,1.2h-3.2C30.9,13,31.5,12.6,32.3,12.6 M28.4,14.6c0,2.2,1.8,3.9,4.1,3.9
		c1.3,0,2.2-0.3,3.2-1.1L34.1,16c-0.4,0.4-0.9,0.6-1.5,0.6c-0.8,0-1.5-0.5-1.9-1.2h5.4v-0.6c0-2.4-1.6-4.1-3.8-4.1
		C30.2,10.7,28.4,12.4,28.4,14.6C28.4,14.6,28.4,14.6,28.4,14.6 M24.4,10.5c0.8,0,1.3,0.5,1.3,1.1c0,0.6-0.5,1.1-1.3,1.1H22v-2.3
		H24.4z M19.5,18.4H22v-3.6h1.9l1.9,3.6h2.7l-2.2-4c1.1-0.5,1.9-1.6,1.9-2.8c0-1.8-1.4-3.2-3.5-3.2h-5.1L19.5,18.4z"/>
</g>
</svg>
