<?xml version="1.0" encoding="utf-8"?>
<!--

    Copyright (c) 2018-2021 Red Hat, Inc.
    This program and the accompanying materials are made
    available under the terms of the Eclipse Public License 2.0
    which is available at https://www.eclipse.org/legal/epl-2.0/

    SPDX-License-Identifier: EPL-2.0

    Contributors:
      Red Hat, Inc. - initial API and implementation

-->
<svg version="1.1"
	 id="CodeReady_Workspaces" xmlns:cc="http://creativecommons.org/ns#" xmlns:dc="http://purl.org/dc/elements/1.1/" xmlns:svg="http://www.w3.org/2000/svg"
	 xmlns="http://www.w3.org/2000/svg" xmlns:xlink="http://www.w3.org/1999/xlink" x="0px" y="0px" viewBox="0 0 147.1 54"
	 style="enable-background:new 0 0 147.1 54;" xml:space="preserve">
<title  id="title146">Red Hat CodeReady Workspaces</title>
<g id="layer1">
</g>
<g>
	<path d="M26.7,29.1l0.9,0.9c-1,1-2.3,1.6-3.7,1.6c-2.7,0-4.8-2.1-4.8-4.8s2.1-4.8,4.8-4.8c1.4,0,2.8,0.6,3.7,1.6l-0.9,0.9
		c-0.7-0.8-1.7-1.3-2.8-1.3c-2,0-3.4,1.5-3.4,3.5s1.5,3.5,3.5,3.5C25,30.4,26,29.9,26.7,29.1z"/>
	<path d="M31.7,24.7c1.9,0,3.5,1.6,3.5,3.5s-1.6,3.5-3.5,3.5s-3.5-1.6-3.5-3.5c0,0,0,0,0,0C28.2,26.2,29.8,24.7,31.7,24.7
		C31.7,24.7,31.7,24.7,31.7,24.7z M33.9,28.1c0-1.3-1-2.3-2.2-2.3s-2.2,1-2.2,2.3c0,1.3,1,2.3,2.2,2.3C33,30.5,33.9,29.5,33.9,28.1z
		"/>
	<path d="M41.6,30.9c-0.6,0.5-1.3,0.7-2.1,0.7c-1.9,0-3.4-1.5-3.4-3.5s1.5-3.5,3.4-3.5c0.7,0,1.4,0.2,2,0.7v-3.1l1.3-0.3v9.5h-1.3
		V30.9z M39.8,30.5c0.7,0,1.4-0.3,1.9-0.8v-3c-0.5-0.5-1.2-0.8-1.9-0.8c-1.3,0-2.3,1-2.3,2.3C37.5,29.5,38.5,30.5,39.8,30.5z"/>
	<path d="M47.7,31.6c-2,0-3.5-1.5-3.5-3.5c0-1.9,1.5-3.5,3.4-3.5c1.8,0,3.2,1.5,3.2,3.5v0.4h-5.3c0.2,1.1,1.1,1.9,2.3,1.9
		c0.6,0,1.2-0.2,1.7-0.6l0.8,0.8C49.6,31.3,48.7,31.6,47.7,31.6z M45.5,27.6h4c-0.2-1-1-1.8-2-1.8C46.5,25.8,45.7,26.5,45.5,27.6z"
		/>
	<path d="M52.2,22.3h4.2c1.8,0,3.1,1.1,3.1,2.7c0,1.2-0.7,2.2-1.9,2.5l2.1,4h-1.5l-1.9-3.8h-2.6v3.8h-1.4V22.3z M53.6,23.5v3.1h2.7
		c1.1,0,1.8-0.6,1.8-1.5s-0.7-1.5-1.8-1.5H53.6z"/>
	<path d="M63.5,31.6c-2,0-3.5-1.5-3.5-3.5c0-1.9,1.5-3.5,3.4-3.5c1.8,0,3.2,1.5,3.2,3.5v0.4h-5.3c0.2,1.1,1.1,1.9,2.3,1.9
		c0.6,0,1.2-0.2,1.7-0.6l0.8,0.8C65.4,31.3,64.5,31.6,63.5,31.6z M61.3,27.6h4c-0.2-1-1-1.8-2-1.8C62.3,25.8,61.5,26.5,61.3,27.6z"
		/>
	<path d="M67.5,29.6c0-1.3,1-2,2.7-2c0.6,0,1.3,0.1,1.8,0.4v-0.7c0-0.9-0.6-1.4-1.6-1.4c-0.6,0-1.3,0.2-2.1,0.6l-0.5-1
		c1-0.5,1.9-0.7,2.8-0.7c1.7,0,2.7,0.9,2.7,2.4v4.4H72v-0.6c-0.6,0.5-1.3,0.7-2.1,0.7C68.5,31.6,67.5,30.8,67.5,29.6z M70.2,30.7
		c0.6,0,1.3-0.2,1.8-0.6v-1.2c-0.5-0.3-1.1-0.4-1.7-0.4c-1,0-1.6,0.4-1.6,1.1C68.7,30.2,69.3,30.7,70.2,30.7z"/>
	<path d="M79.9,30.9c-0.6,0.5-1.3,0.7-2.1,0.7c-1.9,0-3.4-1.5-3.4-3.5s1.5-3.5,3.4-3.5c0.7,0,1.4,0.2,2,0.7v-3.1l1.3-0.3v9.5h-1.3
		V30.9z M78.1,30.5c0.7,0,1.4-0.3,1.9-0.8v-3c-0.5-0.5-1.2-0.8-1.9-0.8c-1.3,0-2.3,1-2.3,2.3C75.8,29.5,76.8,30.5,78.1,30.5z"/>
	<path d="M84.7,31.5l-2.7-6.7h1.4l2,5.1l2.2-5.1h1.4l-3.2,7.5c-0.6,1.4-1.3,2-2.6,2c-0.2,0-0.5,0-0.7-0.1v-1.2
		c0.2,0,0.4,0.1,0.6,0.1c0.6,0,1-0.3,1.3-1L84.7,31.5z"/>
	<path d="M21,45.2L19,36h1l1.6,7.6l2.3-7.6h1l2.3,7.6l1.6-7.6h1l-2,9.2h-1l-2.3-7.8L22,45.2L21,45.2z"/>
	<path d="M33.5,38.5c1.9,0,3.4,1.5,3.4,3.4c0,1.9-1.5,3.4-3.4,3.4s-3.4-1.5-3.4-3.4S31.6,38.5,33.5,38.5z M35.9,41.9
		c0-1.4-1.1-2.6-2.4-2.6s-2.4,1.1-2.4,2.6c0,1.4,1.1,2.6,2.4,2.6S35.9,43.3,35.9,41.9L35.9,41.9z"/>
	<path d="M38.2,38.6h1v0.9c0.4-0.7,1.1-1.1,1.8-1.1c0.2,0,0.4,0,0.6,0.1v0.9c-0.2-0.1-0.5-0.1-0.7-0.1c-0.8,0-1.4,0.5-1.8,1.4v4.5
		h-1L38.2,38.6z"/>
	<path d="M42.7,36l1-0.2v5.8l3.5-3h1.2l-3.6,3.1l3.8,3.5h-1.3L43.7,42v3.2h-1V36z"/>
	<path d="M49.1,43.6c0.6,0.6,1.3,0.9,2.2,0.9c1.1,0,1.8-0.5,1.8-1.2c0-0.6-0.4-0.9-1.2-1l-1.1-0.2c-1.3-0.2-1.9-0.8-1.9-1.8
		c0-1.1,1-1.9,2.5-1.9c0.9,0,1.9,0.3,2.6,0.9L53.2,40c-0.7-0.5-1.4-0.7-2.1-0.7c-0.9,0-1.5,0.4-1.5,1.1c0,0.6,0.4,0.8,1.2,1l1.1,0.2
		c1.3,0.2,2,0.8,2,1.8c0,1.1-1.2,2-2.7,2c-1.1,0-2.1-0.4-2.8-1L49.1,43.6z"/>
	<path d="M55,38.6h1v0.7c0.6-0.5,1.3-0.8,2.1-0.8c1.9,0,3.3,1.5,3.3,3.4s-1.4,3.4-3.3,3.4c-0.8,0-1.5-0.3-2.1-0.8v3.4h-1V38.6z
		 M56,40.3v3.3c0.5,0.6,1.2,0.9,2,0.9c1.4,0,2.4-1.1,2.4-2.5c0-1.4-1.1-2.6-2.4-2.6C57.2,39.3,56.5,39.7,56,40.3L56,40.3z"/>
	<path d="M62.5,43.3c0-1.2,1-2,2.6-2c0.7,0,1.3,0.1,1.9,0.4v-0.9c0-1.1-0.6-1.6-1.8-1.6c-0.6,0-1.3,0.2-2.1,0.6l-0.4-0.8
		c0.9-0.5,1.7-0.7,2.5-0.7c1.7,0,2.6,0.8,2.6,2.3v4.4h-0.9v-0.6c-0.6,0.5-1.4,0.8-2.1,0.8C63.5,45.3,62.5,44.5,62.5,43.3z
		 M65.1,44.5c0.8,0,1.4-0.2,2-0.8v-1.2c-0.5-0.4-1.1-0.5-1.9-0.5c-1.1,0-1.7,0.5-1.7,1.3C63.4,44,64.1,44.5,65.1,44.5z"/>
	<path d="M74.7,43.6l0.6,0.7c-0.7,0.7-1.6,1-2.6,1.1c-1.9,0-3.4-1.5-3.4-3.4s1.5-3.4,3.4-3.4c1,0,1.9,0.4,2.6,1l-0.6,0.7
		c-0.5-0.5-1.2-0.8-1.9-0.9c-1.4,0-2.4,1.1-2.4,2.5c0,1.4,1.1,2.5,2.4,2.5C73.4,44.4,74.1,44.1,74.7,43.6z"/>
	<path d="M79.2,45.3c-1.9,0-3.4-1.5-3.4-3.3c0,0,0-0.1,0-0.1c0-1.9,1.4-3.4,3.3-3.4c1.8,0,3.1,1.5,3.1,3.4v0.3h-5.4
		c0.1,1.3,1.2,2.3,2.5,2.3c0.7,0,1.4-0.2,1.8-0.6l0.6,0.6C81,45,80.1,45.3,79.2,45.3z M76.8,41.4h4.4c-0.2-1.2-1.1-2.1-2.2-2.1
		C77.9,39.3,77,40.2,76.8,41.4L76.8,41.4z"/>
	<path d="M83.6,43.6c0.6,0.6,1.3,0.9,2.2,0.9c1.1,0,1.8-0.5,1.8-1.2c0-0.6-0.4-0.9-1.2-1l-1.1-0.2c-1.3-0.2-1.9-0.8-1.9-1.8
		c0-1.1,1-1.9,2.5-1.9c0.9,0,1.9,0.3,2.6,0.9L87.8,40c-0.7-0.5-1.4-0.7-2.1-0.7c-0.9,0-1.5,0.4-1.5,1.1c0,0.6,0.4,0.8,1.2,1l1.1,0.2
		c1.3,0.2,2,0.8,2,1.8c0,1.1-1.2,2-2.7,2c-1.1,0-2.1-0.4-2.8-1L83.6,43.6z"/>
	<path d="M64.2,15.6c0,1.5,0.9,2.2,2.6,2.2c0.5,0,1-0.1,1.5-0.2v-1.7c-0.3,0.1-0.6,0.1-1,0.1c-0.7,0-0.9-0.2-0.9-0.9v-2.7h2v-1.8h-2
		V8.5l-2.2,0.5v1.8h-1.4v1.8h1.4L64.2,15.6z M57.4,15.7c0-0.5,0.5-0.7,1.2-0.7c0.4,0,0.9,0.1,1.3,0.2v0.9c-0.4,0.2-0.9,0.3-1.3,0.3
		C57.9,16.4,57.4,16.1,57.4,15.7 M58.1,17.9c0.8,0,1.4-0.2,1.9-0.5v0.4h2.1v-4.5c0-1.7-1.2-2.7-3.1-2.7c-1.1,0-2.1,0.3-3.3,0.8
		l0.8,1.6c0.8-0.3,1.5-0.6,2.1-0.6c0.9,0,1.3,0.3,1.3,1.1v0.3c-0.5-0.1-1.1-0.2-1.6-0.2c-1.8,0-2.9,0.8-2.9,2.1
		C55.5,17,56.5,17.9,58.1,17.9 M46.4,17.8h2.3v-3.7h3.8v3.7h2.3V8.5h-2.3V12h-3.8V8.5h-2.3L46.4,17.8z M37.7,14.3
		c0-1,0.8-1.8,1.9-1.8c0.5,0,1.1,0.2,1.5,0.5v2.5c-0.4,0.4-0.9,0.6-1.5,0.6C38.5,16,37.7,15.3,37.7,14.3 M41,17.8h2.1V8L41,8.5v2.7
		c-0.5-0.3-1.2-0.5-1.8-0.5c-2.1,0-3.7,1.6-3.7,3.6c0,2,1.6,3.6,3.5,3.6c0,0,0,0,0.1,0c0.7,0,1.3-0.2,1.9-0.6L41,17.8z M31.3,12.4
		c0.7,0,1.3,0.4,1.5,1.1h-2.9C30,12.8,30.5,12.4,31.3,12.4 M27.6,14.3c0,2.1,1.7,3.7,3.8,3.7c1.2,0,2.1-0.3,2.9-1.1L33,15.6
		c-0.3,0.3-0.8,0.5-1.4,0.5c-0.8,0-1.4-0.4-1.7-1.1h5v-0.5c0-2.2-1.5-3.8-3.6-3.8C29.3,10.6,27.7,12.2,27.6,14.3
		C27.6,14.2,27.6,14.2,27.6,14.3 M23.9,10.4c0.8,0,1.2,0.5,1.2,1.1c0,0.6-0.4,1.1-1.2,1.1h-2.3v-2.1H23.9z M19.3,17.8h2.3v-3.4h1.7
		l1.8,3.4h2.6l-2.1-3.7c1.1-0.4,1.8-1.5,1.8-2.6c0-1.7-1.3-3-3.3-3h-4.8L19.3,17.8z"/>
</g>
</svg>
