<?xml version="1.0" encoding="utf-8"?>
<!--

    Copyright (c) 2018-2021 Red Hat, Inc.
    This program and the accompanying materials are made
    available under the terms of the Eclipse Public License 2.0
    which is available at https://www.eclipse.org/legal/epl-2.0/

    SPDX-License-Identifier: EPL-2.0

    Contributors:
      Red Hat, Inc. - initial API and implementation

-->
<svg version="1.1"
	 id="logo-top-left" xmlns:cc="http://creativecommons.org/ns#" xmlns:dc="http://purl.org/dc/elements/1.1/" xmlns:rdf="http://www.w3.org/1999/02/22-rdf-syntax-ns#" xmlns:svg="http://www.w3.org/2000/svg"
	 xmlns="http://www.w3.org/2000/svg" xmlns:xlink="http://www.w3.org/1999/xlink" x="0px" y="0px" viewBox="0 0 150 125"
	 style="enable-background:new 0 0 150 125;" xml:space="preserve">
<style type="text/css">
	.st0{fill:#FFFFFF;}
	.st1{fill:#CB2026;}
	.st2{fill:#EE0000;}
	.st3{fill:#820000;}
</style>
<g>
	<path class="st0" d="M48.9,67.8l1.5,1.5c-1.6,1.6-3.7,2.6-6,2.6c-4.4,0-7.8-3.4-7.8-7.7s3.4-7.7,7.8-7.7c2.3,0,4.6,1,6,2.6L49,60.6
		c-1.1-1.3-2.8-2.1-4.5-2.1c-3.2,0-5.5,2.4-5.5,5.6c0,3.2,2.4,5.6,5.6,5.6C46.2,69.8,47.8,69.1,48.9,67.8z"/>
	<path class="st0" d="M57.1,60.6c3.1,0,5.6,2.5,5.6,5.7c0,3.1-2.5,5.6-5.7,5.6c-3.1,0-5.6-2.5-5.6-5.7c0,0,0,0,0,0
		c0-3.1,2.4-5.6,5.5-5.6C57,60.6,57,60.6,57.1,60.6z M60.6,66.2c0-2.1-1.6-3.8-3.5-3.8s-3.6,1.6-3.6,3.8s1.6,3.8,3.6,3.8
		C59.1,70,60.6,68.3,60.6,66.2z"/>
	<path class="st0" d="M73.1,70.6c-0.9,0.8-2.1,1.2-3.3,1.2c-3.1,0-5.5-2.5-5.5-5.6c0-3.2,2.4-5.6,5.5-5.6c1.2,0,2.3,0.4,3.3,1.1v-5
		l2.1-0.5v15.4h-2.1V70.6z M70.1,70c1.1,0,2.2-0.4,3-1.3v-4.9c-0.8-0.8-1.9-1.3-3-1.3c-2.1,0-3.7,1.6-3.7,3.7S68,70,70.1,70z"/>
	<path class="st0" d="M83,71.8c-3.2,0-5.7-2.5-5.7-5.6c0-3.1,2.4-5.6,5.4-5.6c3,0,5.3,2.5,5.3,5.7v0.6h-8.6c0.3,1.8,1.8,3.1,3.7,3.1
		c1,0,2-0.3,2.8-0.9l1.4,1.3C86,71.4,84.5,71.9,83,71.8z M79.4,65.3h6.4c-0.3-1.7-1.6-2.9-3.2-2.9C81,62.4,79.7,63.6,79.4,65.3z"/>
	<path class="st0" d="M90.3,56.7h6.8c3,0,5,1.8,5,4.4c0,2-1.2,3.5-3.1,4.1l3.3,6.4h-2.5l-3.1-6.1h-4.2v6.1h-2.2V56.7z M92.5,58.7v5
		h4.4c1.7,0,2.9-1,2.9-2.5s-1.1-2.5-2.9-2.5H92.5z"/>
	<path class="st0" d="M108.6,71.8c-3.2,0-5.7-2.5-5.7-5.6c0-3.1,2.4-5.6,5.4-5.6c3,0,5.3,2.5,5.3,5.7v0.6h-8.6
		c0.3,1.8,1.8,3.1,3.7,3.1c1,0,2-0.3,2.7-0.9l1.4,1.3C111.7,71.4,110.2,71.9,108.6,71.8z M105.1,65.3h6.4c-0.3-1.7-1.6-2.9-3.2-2.9
		C106.7,62.4,105.4,63.6,105.1,65.3z"/>
	<path class="st0" d="M115,68.5c0-2.1,1.7-3.3,4.4-3.3c1,0,2,0.2,3,0.6v-1.2c0-1.5-0.9-2.3-2.6-2.3c-1,0-2,0.3-3.4,0.9l-0.8-1.6
		c1.6-0.8,3-1.1,4.5-1.1c2.8,0,4.4,1.4,4.4,3.9v7.2h-2.1v-0.9c-1,0.8-2.2,1.2-3.4,1.1C116.6,71.8,115,70.5,115,68.5z M119.5,70.3
		c1.1,0,2.1-0.3,2.9-1v-1.9c-0.9-0.5-1.8-0.7-2.8-0.7c-1.6,0-2.5,0.7-2.5,1.8C117,69.5,118,70.3,119.5,70.3z"/>
	<path class="st0" d="M135.2,70.6c-0.9,0.8-2.1,1.2-3.3,1.2c-3.1,0-5.5-2.5-5.5-5.6c0-3.2,2.4-5.6,5.5-5.6c1.2,0,2.3,0.4,3.3,1.1v-5
		l2.1-0.5v15.4h-2.1V70.6z M132.2,70c1.1,0,2.2-0.4,3-1.3v-4.9c-0.8-0.8-1.9-1.3-3-1.3c-2.1,0-3.7,1.6-3.7,3.7S130.1,70,132.2,70z"
		/>
	<path class="st0" d="M143,71.7l-4.3-10.9h2.3l3.2,8.3l3.5-8.3h2.3L144.7,73c-1,2.3-2.2,3.2-4.2,3.2c-0.4,0-0.8,0-1.1-0.1v-1.9
		c0.3,0.1,0.6,0.1,1,0.1c1,0,1.7-0.5,2.2-1.6L143,71.7z"/>
	<path class="st0" d="M39.7,93.8l-3.2-14.9h1.7l2.5,12.3l3.7-12.3H46l3.7,12.3l2.6-12.3h1.6l-3.2,14.9h-1.7l-3.8-12.7l-3.8,12.7
		L39.7,93.8z"/>
	<path class="st0" d="M59.9,82.9c3,0,5.4,2.4,5.4,5.5S62.9,94,59.9,94c-3,0-5.5-2.4-5.5-5.6S56.8,82.9,59.9,82.9z M63.8,88.5
		c0-2.3-1.7-4.1-3.9-4.1c-2.2,0-3.9,1.8-3.9,4.1s1.7,4.2,3.9,4.2S63.8,90.8,63.8,88.5L63.8,88.5z"/>
	<path class="st0" d="M67.5,83.1h1.6v1.5c0.6-1.1,1.7-1.8,3-1.8c0.3,0,0.7,0,1,0.1v1.5c-0.4-0.1-0.7-0.2-1.1-0.2
		c-1.3,0-2.3,0.8-2.9,2.2v7.3h-1.6L67.5,83.1z"/>
	<path class="st0" d="M74.9,78.9l1.6-0.4V88l5.6-4.8H84l-5.9,5.1l6.1,5.6h-2.2l-5.6-5.1v5.1h-1.6V78.9z"/>
	<path class="st0" d="M85.2,91.3c0.9,0.9,2.2,1.4,3.5,1.4c1.7,0,2.9-0.8,2.9-1.9c0-0.9-0.6-1.4-2-1.6L87.7,89
		c-2.1-0.3-3.2-1.3-3.2-2.9c0-1.8,1.7-3.1,4-3.1c1.5,0,3,0.5,4.2,1.4l-0.8,1.1c-1.2-0.8-2.3-1.2-3.5-1.2C87,84.3,86,85,86,86
		c0,0.9,0.6,1.4,2,1.6l1.8,0.3c2.1,0.3,3.2,1.3,3.2,2.9c0,1.9-1.9,3.3-4.3,3.3c-1.8,0-3.4-0.6-4.5-1.7L85.2,91.3z"/>
	<path class="st0" d="M94.8,83.1h1.6v1.2c0.9-0.9,2.2-1.4,3.5-1.3c3,0,5.4,2.4,5.4,5.5c0,3.1-2.3,5.5-5.4,5.5
		c-1.2,0-2.5-0.4-3.4-1.2v5.4h-1.6V83.1z M96.4,85.8v5.3c0.8,1,2,1.5,3.3,1.5c2.3,0,4-1.8,4-4.1s-1.7-4.1-4-4.1
		C98.4,84.3,97.2,84.9,96.4,85.8L96.4,85.8z"/>
	<path class="st0" d="M106.9,90.8c0-2,1.6-3.3,4.3-3.3c1.1,0,2.2,0.2,3.1,0.7v-1.4c0-1.7-1-2.6-2.8-2.6c-1,0-2.1,0.3-3.4,0.9
		l-0.6-1.2c1.5-0.7,2.8-1.1,4.1-1.1c2.7,0,4.2,1.3,4.2,3.7v7.2h-1.5v-1c-1,0.8-2.2,1.3-3.5,1.2C108.5,94,106.9,92.7,106.9,90.8z
		 M111.2,92.8c1.3,0,2.3-0.4,3.2-1.2v-2c-0.9-0.6-1.8-0.9-3.1-0.9c-1.7,0-2.8,0.8-2.8,2.1C108.5,91.9,109.6,92.8,111.2,92.8z"/>
	<path class="st0" d="M126.7,91.3l1,1.1c-1.1,1.1-2.6,1.7-4.1,1.7c-3.1,0-5.4-2.4-5.4-5.5s2.4-5.5,5.4-5.5c1.6,0,3.1,0.6,4.2,1.7
		l-1,1.2c-0.8-0.9-2-1.4-3.2-1.4c-2.2,0-3.9,1.8-3.9,4.1c0,2.3,1.7,4.1,3.9,4.1C124.7,92.6,125.7,92.1,126.7,91.3z"/>
	<path class="st0" d="M134.1,94c-3,0-5.5-2.4-5.5-5.4c0,0,0-0.1,0-0.1c0-3.1,2.3-5.5,5.3-5.5c2.8,0,5.1,2.4,5.1,5.5V89h-8.8
		c0.2,2.1,1.9,3.7,4,3.7c1.1,0,2.2-0.4,2.9-1l1,1C136.9,93.6,135.5,94,134.1,94z M130.2,87.7h7.1c-0.3-1.9-1.8-3.4-3.5-3.4
		C132,84.3,130.5,85.7,130.2,87.7L130.2,87.7z"/>
	<path class="st0" d="M141.1,91.3c0.9,0.9,2.2,1.4,3.5,1.4c1.7,0,2.9-0.8,2.9-1.9c0-0.9-0.6-1.4-2-1.6l-1.8-0.3
		c-2.1-0.3-3.2-1.3-3.2-2.9c0-1.8,1.7-3.1,4-3.1c1.5,0,3,0.5,4.2,1.4l-0.8,1.1c-1.2-0.8-2.3-1.2-3.5-1.2c-1.5,0-2.5,0.7-2.5,1.8
		c0,0.9,0.6,1.4,2,1.6l1.8,0.3c2.1,0.3,3.2,1.3,3.2,2.9c0,1.9-1.9,3.3-4.3,3.3c-1.8,0-3.4-0.6-4.5-1.7L141.1,91.3z"/>
	<path class="st0" d="M109.6,45.9c0,2.4,1.5,3.6,4.1,3.6c0.8,0,1.6-0.1,2.4-0.3v-2.8c-0.5,0.2-1,0.2-1.6,0.2c-1.1,0-1.5-0.3-1.5-1.4
		v-4.3h3.2V38h-3.2v-3.7l-3.5,0.8V38h-2.3v2.9h2.3L109.6,45.9z M98.7,46c0-0.8,0.8-1.1,1.9-1.1c0.7,0,1.4,0.1,2.1,0.3v1.5
		c-0.7,0.4-1.4,0.5-2.2,0.5C99.4,47.1,98.7,46.7,98.7,46 M99.8,49.6c1.2,0,2.2-0.3,3.2-0.9v0.7h3.5v-7.3c0-2.8-1.9-4.3-5-4.3
		c-1.7,0-3.5,0.4-5.3,1.3l1.3,2.6c1.3-0.6,2.5-0.9,3.5-0.9c1.4,0,2.2,0.6,2.2,1.7V43c-0.8-0.2-1.7-0.3-2.6-0.3
		c-2.9,0-4.7,1.2-4.7,3.4C95.7,48.1,97.3,49.6,99.8,49.6 M80.8,49.4h3.7v-5.9h6.2v5.9h3.7V34.3h-3.7v5.8h-6.2v-5.8h-3.7L80.8,49.4z
		 M66.7,43.7c0-1.6,1.3-2.9,3-2.9c0.9,0,1.8,0.3,2.4,0.9v4c-0.7,0.6-1.5,0.9-2.4,0.9C68,46.6,66.7,45.3,66.7,43.7 M72.1,49.4h3.5
		V33.5l-3.5,0.8v4.3c-0.9-0.5-1.9-0.8-2.9-0.8c-3.3,0-5.9,2.6-5.9,5.9c0,3.2,2.5,5.8,5.7,5.9c0,0,0.1,0,0.1,0c1.1,0,2.2-0.3,3.1-1
		L72.1,49.4z M56.3,40.6c1.1,0,2,0.7,2.4,1.8h-4.8C54.3,41.3,55.1,40.6,56.3,40.6 M50.4,43.7c0,3.3,2.7,5.9,6.2,5.9
		c1.9,0,3.3-0.5,4.8-1.7l-2.3-2.1c-0.5,0.6-1.3,0.9-2.3,0.9c-1.2,0-2.3-0.7-2.8-1.8h8.1V44c0-3.6-2.4-6.2-5.8-6.2
		c-3.2,0-5.9,2.5-6,5.8C50.4,43.6,50.4,43.7,50.4,43.7 M44.4,37.5c1.2,0,1.9,0.8,1.9,1.7s-0.7,1.7-1.9,1.7h-3.7v-3.4H44.4z M37,49.4
		h3.7v-5.5h2.8l2.9,5.5h4.1l-3.3-6c1.7-0.7,2.9-2.4,2.9-4.3c0-2.7-2.1-4.8-5.3-4.8H37L37,49.4z"/>
	<g>
		<path class="st1" d="M29.4,39.9c0.1,0,0.1,0,0.2,0C29.5,40,29.4,40,29.4,39.9C29.4,39.9,29.4,39.9,29.4,39.9z"/>
		<path class="st1" d="M29.6,40C29.6,40,29.6,40,29.6,40C29.6,40,29.6,40,29.6,40C29.6,40,29.6,40,29.6,40z"/>
		<path class="st2" d="M18.6,45.1c-0.8,0.2-1.7,0.4-2.5,0.7c-0.4,0.1-0.8,0.2-1.2,0.2c-1.5,0-2.8-0.7-3.5-1.8c0,0,0,0,0,0
			c0,0,0,0,0-0.1c0,0,0,0,0,0c0,0,0,0,0,0c0,0,0,0,0-0.1c0,0,0,0,0,0c-0.4-0.7-0.7-1.5-0.7-2.3c0-0.1,0-0.1,0-0.2
			c-0.3,3.4,1.3,6.6,3.8,8.5c1.3,1,3,1.7,4.7,1.8c5.1,0.5,9.7-3.1,10.4-8.2c0-0.1,0-0.2,0-0.3C25.9,43.5,22.2,44.2,18.6,45.1z"/>
		<path class="st3" d="M19.2,51.7c-1.8-0.2-3.4-0.8-4.7-1.8c-2.6-1.9-4.1-5.1-3.8-8.5c0-0.3,0-0.5,0.1-0.8c0.4-1.9,2.2-3.4,4.2-3.4
			c0.6,0,1.1,0.1,1.6,0.3c0.7,0.2,1.4,0.4,2.1,0.6c3.5,0.9,7.1,1.5,10.7,1.8c0,0,0,0,0,0c-5-0.5-9.7-2.4-13.4-5.7l0,0
			c-0.2-0.1-0.3-0.3-0.5-0.4c-1.6-1.2-3.6-1.9-5.7-1.9c-5.3,0-9.6,4.3-9.6,9.5c0,0,0,0,0,0c0,0,0,0,0,0v0c0,8.2,6.6,14.8,14.8,14.8
			h0c7.5,0,13.7-5.6,14.6-12.8C28.9,48.6,24.3,52.2,19.2,51.7z"/>
		<path class="st2" d="M14.9,26.8L14.9,26.8c-1.6,0-3.1,0.2-4.5,0.7C4.5,29.4,0.2,35,0.2,41.5c0-5.3,4.3-9.5,9.6-9.5
			c2.1,0,4.1,0.7,5.7,1.9l0.5,0.4c3.8,3.2,8.5,5.2,13.4,5.7c0.1,0,0.1,0,0.2,0c0,0,0,0,0,0c0,0,0,0,0,0
			C28.8,32.6,22.5,26.8,14.9,26.8z"/>
	</g>
</g>
</svg>
