<?xml version="1.0" encoding="utf-8"?>
<!--

    Copyright (c) 2018-2021 Red Hat, Inc.
    This program and the accompanying materials are made
    available under the terms of the Eclipse Public License 2.0
    which is available at https://www.eclipse.org/legal/epl-2.0/

    SPDX-License-Identifier: EPL-2.0

    Contributors:
      Red Hat, Inc. - initial API and implementation

-->
<svg version="1.1" id="logo-top-left" xmlns="http://www.w3.org/2000/svg" xmlns:xlink="http://www.w3.org/1999/xlink" x="0px"
	 y="0px" viewBox="0 0 150 125" style="enable-background:new 0 0 150 125;" xml:space="preserve">
<style type="text/css">
	.st0{fill:#FFFFFF;}
</style>
<g>
	<path class="st0" d="M41,64l1.1,1.1c-1.2,1.3-2.9,2-4.6,2c-3.4,0-6-2.6-6-5.9s2.6-5.9,6-5.9c1.8,0,3.5,0.8,4.6,2L41,58.4
		c-0.9-1-2.1-1.6-3.5-1.6c-2.4,0-4.3,1.9-4.3,4.3c0,2.5,1.9,4.3,4.3,4.3C38.9,65.5,40.1,65,41,64z"/>
	<path class="st0" d="M47.2,58.4c2.4,0,4.3,2,4.3,4.3c0,2.4-2,4.3-4.3,4.3c-2.4,0-4.3-2-4.3-4.3c0,0,0,0,0,0c0-2.4,1.9-4.3,4.2-4.3
		C47.2,58.4,47.2,58.4,47.2,58.4z M50,62.8c0-1.6-1.2-2.9-2.7-2.9c-1.5,0-2.7,1.3-2.7,2.9s1.2,2.9,2.7,2.9
		C48.7,65.7,50,64.4,50,62.8z"/>
	<path class="st0" d="M59.6,66.2c-0.7,0.6-1.6,0.9-2.6,0.9c-2.4,0-4.2-1.9-4.2-4.3c0-2.4,1.9-4.3,4.3-4.3c0.9,0,1.8,0.3,2.5,0.8
		v-3.8l1.6-0.4v11.8h-1.6V66.2z M57.2,65.6c0.9,0,1.7-0.3,2.3-1v-3.8c-0.6-0.6-1.4-1-2.3-1c-1.6,0-2.8,1.2-2.8,2.9
		S55.6,65.6,57.2,65.6z"/>
	<path class="st0" d="M67.1,67.1c-2.5,0-4.4-1.9-4.4-4.3c0-2.4,1.8-4.3,4.2-4.3c2.3,0,4,1.9,4,4.4v0.5h-6.6c0.2,1.4,1.4,2.4,2.8,2.4
		c0.8,0,1.5-0.2,2.1-0.7l1,1C69.4,66.7,68.3,67.1,67.1,67.1z M64.4,62.1h5c-0.2-1.3-1.2-2.2-2.4-2.2C65.6,59.8,64.6,60.7,64.4,62.1z
		"/>
	<path class="st0" d="M72.7,55.5h5.2c2.3,0,3.8,1.4,3.8,3.4c0,1.5-0.9,2.7-2.4,3.2l2.6,4.9H80l-2.4-4.7h-3.2v4.7h-1.7V55.5z
		 M74.4,57v3.8h3.3c1.3,0,2.2-0.8,2.2-1.9c0-1.1-0.9-1.9-2.2-1.9H74.4z"/>
	<path class="st0" d="M86.8,67.1c-2.5,0-4.4-1.9-4.4-4.3c0-2.4,1.8-4.3,4.2-4.3c2.3,0,4,1.9,4,4.4v0.5h-6.6c0.2,1.4,1.4,2.4,2.8,2.4
		c0.8,0,1.5-0.2,2.1-0.7l1,1C89.2,66.7,88,67.1,86.8,67.1z M84.1,62.1h5c-0.2-1.3-1.2-2.2-2.4-2.2C85.4,59.8,84.3,60.7,84.1,62.1z"
		/>
	<path class="st0" d="M91.7,64.5c0-1.6,1.3-2.5,3.4-2.5c0.8,0,1.6,0.2,2.3,0.5v-0.9c0-1.2-0.7-1.8-2-1.8c-0.8,0-1.6,0.2-2.6,0.7
		l-0.6-1.2c1.2-0.6,2.3-0.9,3.4-0.9c2.2,0,3.4,1.1,3.4,3v5.5h-1.6v-0.7c-0.7,0.6-1.7,0.9-2.6,0.9C93,67.1,91.7,66.1,91.7,64.5z
		 M95.2,65.9c0.8,0,1.6-0.3,2.2-0.8v-1.4c-0.7-0.4-1.4-0.5-2.1-0.5c-1.2,0-1.9,0.5-1.9,1.4C93.3,65.3,94,65.9,95.2,65.9z"/>
	<path class="st0" d="M107.3,66.2c-0.7,0.6-1.6,0.9-2.6,0.9c-2.4,0-4.2-1.9-4.2-4.3c0-2.4,1.9-4.3,4.3-4.3c0.9,0,1.8,0.3,2.5,0.8
		v-3.8l1.6-0.4v11.8h-1.6V66.2z M104.9,65.6c0.9,0,1.7-0.3,2.3-1v-3.8c-0.6-0.6-1.4-1-2.3-1c-1.6,0-2.8,1.2-2.8,2.9
		S103.3,65.6,104.9,65.6z"/>
	<path class="st0" d="M113.2,67l-3.3-8.4h1.8l2.4,6.4l2.7-6.4h1.8l-4,9.4c-0.8,1.8-1.7,2.5-3.2,2.5c-0.3,0-0.6,0-0.9-0.1v-1.4
		c0.2,0,0.5,0.1,0.7,0.1c0.8,0,1.3-0.4,1.7-1.2L113.2,67z"/>
	<path class="st0" d="M33.9,84l-2.5-11.5h1.3l2,9.5l2.8-9.5h1.2l2.8,9.5l2-9.5h1.2L42.2,84H41l-2.9-9.7L35.1,84H33.9z"/>
	<path class="st0" d="M49.4,75.6c2.3,0,4.2,1.9,4.2,4.3c0,2.4-1.9,4.3-4.2,4.3c-2.3,0-4.2-1.9-4.2-4.3S47,75.6,49.4,75.6z
		 M52.4,79.9c0-1.8-1.3-3.2-3-3.2c-1.7,0-3,1.4-3,3.2c0,1.8,1.3,3.2,3,3.2S52.4,81.6,52.4,79.9L52.4,79.9z"/>
	<path class="st0" d="M55.3,75.8h1.2v1.2c0.5-0.8,1.3-1.4,2.3-1.3c0.3,0,0.5,0,0.8,0.1v1.1c-0.3-0.1-0.6-0.1-0.9-0.1
		c-1,0-1.8,0.6-2.2,1.7V84h-1.2L55.3,75.8z"/>
	<path class="st0" d="M60.9,72.5l1.2-0.3v7.3l4.3-3.7h1.5l-4.5,3.9l4.7,4.3h-1.7L62.1,80V84h-1.2V72.5z"/>
	<path class="st0" d="M68.8,82.1c0.7,0.7,1.7,1.1,2.7,1.1c1.3,0,2.2-0.6,2.2-1.5c0-0.7-0.5-1.1-1.5-1.2l-1.4-0.2
		c-1.6-0.2-2.4-1-2.4-2.2c0-1.4,1.3-2.4,3.1-2.4c1.2,0,2.3,0.4,3.2,1.1L74,77.5c-0.9-0.6-1.8-0.9-2.7-0.9c-1.1,0-1.9,0.6-1.9,1.4
		c0,0.7,0.4,1.1,1.5,1.2l1.4,0.2c1.6,0.2,2.5,1,2.5,2.2c0,1.4-1.4,2.5-3.3,2.5c-1.4,0-2.6-0.5-3.5-1.3L68.8,82.1z"/>
	<path class="st0" d="M76.2,75.8h1.2v0.9c0.7-0.7,1.7-1,2.7-1c2.3,0,4.1,1.9,4.1,4.2c0,2.4-1.8,4.3-4.2,4.3c-1,0-1.9-0.3-2.6-0.9
		v4.2h-1.2V75.8z M77.4,77.8v4.1c0.6,0.7,1.6,1.2,2.5,1.1c1.7,0,3.1-1.4,3.1-3.2s-1.3-3.2-3.1-3.2C79,76.7,78.1,77.1,77.4,77.8
		L77.4,77.8z"/>
	<path class="st0" d="M85.5,81.6c0-1.5,1.3-2.5,3.3-2.5c0.8,0,1.7,0.2,2.4,0.6v-1.1c0-1.3-0.8-2-2.2-2c-0.8,0-1.6,0.2-2.6,0.7
		L86,76.4c1.2-0.6,2.1-0.8,3.2-0.8c2.1,0,3.2,1,3.2,2.9V84h-1.2v-0.8c-0.7,0.6-1.7,1-2.7,0.9C86.8,84.1,85.5,83.1,85.5,81.6z
		 M88.8,83.2c1,0,1.8-0.3,2.4-0.9v-1.5c-0.7-0.5-1.4-0.7-2.4-0.7c-1.3,0-2.1,0.6-2.1,1.6C86.7,82.5,87.6,83.2,88.8,83.2z"/>
	<path class="st0" d="M100.7,82l0.8,0.8c-0.9,0.8-2,1.3-3.2,1.3c-2.3,0-4.2-1.9-4.2-4.3s1.8-4.3,4.2-4.3c1.2,0,2.4,0.5,3.2,1.3
		l-0.8,0.9c-0.6-0.7-1.5-1.1-2.4-1.1c-1.7,0-3,1.4-3,3.2c0,1.8,1.3,3.2,3,3.2C99.2,83,100,82.7,100.7,82z"/>
	<path class="st0" d="M106.4,84.1c-2.3,0-4.2-1.8-4.2-4.1c0,0,0-0.1,0-0.1c0-2.4,1.8-4.2,4.1-4.2c2.2,0,3.9,1.9,3.9,4.2v0.4h-6.7
		c0.2,1.6,1.5,2.8,3.1,2.8c0.9,0,1.7-0.3,2.3-0.8l0.8,0.8C108.6,83.8,107.5,84.1,106.4,84.1z M103.4,79.3h5.5
		c-0.2-1.5-1.3-2.6-2.7-2.6C104.8,76.7,103.6,77.8,103.4,79.3L103.4,79.3z"/>
	<path class="st0" d="M111.8,82.1c0.7,0.7,1.7,1.1,2.7,1.1c1.3,0,2.2-0.6,2.2-1.5c0-0.7-0.5-1.1-1.5-1.2l-1.4-0.2
		c-1.6-0.2-2.4-1-2.4-2.2c0-1.4,1.3-2.4,3.1-2.4c1.2,0,2.3,0.4,3.2,1.1l-0.6,0.8c-0.9-0.6-1.8-0.9-2.7-0.9c-1.1,0-1.9,0.6-1.9,1.4
		c0,0.7,0.4,1.1,1.5,1.2l1.4,0.2c1.6,0.2,2.5,1,2.5,2.2c0,1.4-1.4,2.5-3.3,2.5c-1.4,0-2.6-0.5-3.5-1.3L111.8,82.1z"/>
	<path class="st0" d="M87.6,47.2c0,1.9,1.1,2.8,3.2,2.8c0.6,0,1.3-0.1,1.9-0.3v-2.2c-0.4,0.1-0.8,0.2-1.2,0.2
		c-0.8,0-1.2-0.3-1.2-1.1v-3.3h2.5v-2.2h-2.5v-2.8l-2.7,0.6v2.3h-1.8v2.2h1.8L87.6,47.2z M79.2,47.2c0-0.6,0.6-0.9,1.5-0.9
		c0.5,0,1.1,0.1,1.6,0.2v1.1c-0.5,0.3-1.1,0.4-1.7,0.4C79.8,48.1,79.2,47.8,79.2,47.2 M80.1,50c0.9,0,1.7-0.2,2.4-0.7v0.5h2.7v-5.6
		c0-2.1-1.4-3.3-3.9-3.3c-1.3,0-2.7,0.3-4.1,1l1,2c1-0.4,1.9-0.7,2.7-0.7c1.1,0,1.7,0.4,1.7,1.3v0.4c-0.7-0.2-1.3-0.3-2-0.2
		c-2.3,0-3.6,0.9-3.6,2.6C76.9,48.8,78.1,50,80.1,50 M65.5,49.9h2.9v-4.6h4.8v4.5H76V38.2h-2.8v4.5h-4.8v-4.5h-2.9L65.5,49.9z
		 M54.6,45.5c0-1.3,1-2.2,2.3-2.2c0.7,0,1.3,0.2,1.9,0.7V47c-0.5,0.5-1.2,0.7-1.9,0.7C55.6,47.7,54.6,46.7,54.6,45.5 M58.8,49.8h2.7
		V37.7l-2.7,0.6v3.3c-0.7-0.4-1.5-0.6-2.2-0.6c-2.6,0-4.6,2-4.6,4.5c0,2.5,1.9,4.5,4.4,4.5c0,0,0.1,0,0.1,0c0.8,0,1.7-0.3,2.4-0.8
		L58.8,49.8z M46.6,43.1c0.8,0,1.6,0.5,1.8,1.4h-3.7C45.1,43.6,45.7,43.1,46.6,43.1 M42.1,45.5c0,2.6,2.1,4.5,4.8,4.5
		c1.5,0,2.6-0.4,3.7-1.3l-1.8-1.6c-0.4,0.4-1,0.7-1.8,0.7c-0.9,0-1.8-0.5-2.2-1.4h6.3v-0.7c0-2.8-1.9-4.8-4.4-4.8
		c-2.5,0-4.5,2-4.6,4.4C42.1,45.4,42.1,45.4,42.1,45.5 M37.5,40.7c0.9,0,1.5,0.6,1.5,1.3s-0.5,1.3-1.5,1.3h-2.8v-2.6H37.5z
		 M31.8,49.8h2.9v-4.2h2.2l2.2,4.2h3.2l-2.6-4.6c1.3-0.5,2.2-1.8,2.2-3.3c0-2.1-1.6-3.7-4.1-3.7h-5.9L31.8,49.8z"/>
</g>
</svg>
