<?xml version="1.0" encoding="UTF-8" standalone="no"?>
<svg
   xmlns:dc="http://purl.org/dc/elements/1.1/"
   xmlns:cc="http://creativecommons.org/ns#"
   xmlns:svg="http://www.w3.org/2000/svg"
   xmlns="http://www.w3.org/2000/svg"
   xml:space="preserve"
   enable-background="new 0 0 500 120"
   viewBox="-130 0 500 120"
   y="0px"
   x="0px"
   id="logo-buildinfo"
   version="1.1">
   <defs
   id="defs330" />


<g
   id="g622"
   transform="matrix(0.194425,0,0,0.194425,-212.61845,-36.909536)"><path
     id="path612"
     d="m 1156.53,521.18 c 0.77,0.07 1.54,0.13 2.31,0.2 -0.78,-0.07 -1.55,-0.14 -2.31,-0.2 0,0 0,0 0,0 z"
     style="fill:#cb2026" /><path
     id="path614"
     d="m 1159.47,521.43 c 0,0 0,0 0,0 -0.06,-0.01 -0.13,-0.01 -0.19,-0.02 0.06,0.01 0.13,0.02 0.19,0.02 z"
     style="fill:#cb2026" /><path
     id="path616"
     d="m 1013.89,589.14 c -11.11,2.77 -22.19,5.7 -33.24,8.77 -4.92,1.37 -10.1,2.1 -15.46,2.1 -19.38,0 -36.52,-9.57 -46.96,-24.25 -0.04,-0.06 -0.08,-0.12 -0.12,-0.17 -0.19,-0.27 -0.38,-0.55 -0.57,-0.83 -0.11,-0.17 -0.23,-0.33 -0.34,-0.5 -0.12,-0.18 -0.23,-0.35 -0.35,-0.53 -0.19,-0.28 -0.37,-0.57 -0.55,-0.86 -0.04,-0.07 -0.09,-0.14 -0.13,-0.21 -5.47,-8.82 -8.64,-19.22 -8.64,-30.36 0,-0.67 0.02,-1.34 0.04,-2.01 -3.87,45.22 16.61,87.05 50.67,112.36 17.77,13.2 39.22,21.91 62.85,24.26 67.99,6.75 128.74,-41.67 137.82,-108.84 0.2,-1.51 0.38,-3.02 0.54,-4.53 -49.03,4.67 -97.61,13.65 -145.56,25.6 z"
     style="fill:#cb2026" /><path
     id="path618"
     d="m 1021.1,676.9 c -23.63,-2.35 -45.08,-11.06 -62.85,-24.26 -34.07,-25.31 -54.54,-67.14 -50.67,-112.36 0.12,-3.64 0.59,-7.2 1.36,-10.64 5.76,-25.76 28.76,-45.01 56.26,-45.01 7.6,0 14.85,1.47 21.49,4.14 9.2,2.88 18.45,5.56 27.75,8.05 46.48,12.46 94.09,20.23 142.1,24.35 0,0 0,0 0,-0.01 -65.67,-6.01 -127.88,-32.24 -178.04,-75.11 l 0.01,0.02 c -2.19,-1.87 -4.43,-3.67 -6.74,-5.38 -21.06,-15.66 -47.16,-24.93 -75.42,-24.93 -69.84,0 -126.46,56.59 -126.52,126.41 0,0.05 0,0.1 0,0.15 0,0.03 0,0.05 0,0.08 v 0 c 0,107.91 87.48,195.39 195.39,195.39 v 0 c 99.22,0 181.16,-73.95 193.72,-169.74 -9.11,67.18 -69.85,115.6 -137.84,108.85 z"
     style="fill:#88171a" /><path
     id="path620"
     d="m 965.2,347.01 v 0 c -20.76,0 -40.76,3.24 -59.53,9.24 -78.73,25.16 -135.76,98.87 -135.86,185.93 0.06,-69.83 56.68,-126.41 126.52,-126.41 28.26,0 54.36,9.27 75.42,24.93 l 6.73,5.36 c 50.16,42.87 112.38,69.1 178.04,75.11 0.77,0.07 1.54,0.14 2.31,0.2 0.15,0.01 0.3,0.03 0.45,0.04 0.06,0.01 0.13,0.01 0.19,0.01 -10.46,-98.04 -93.45,-174.41 -194.27,-174.41 z"
     style="fill:#cb2026" /></g><path
   style="fill:#ffffff;fill-opacity:1;stroke-width:1.48720682"
   class="cls-1"
   d="M 45.699149,51.716286 42.263701,44.62231 h -2.320042 v 7.093976 h -5.68113 V 30.702054 h 9.369403 a 13.771535,13.771535 0 0 1 3.331343,0.371802 7.1385926,7.1385926 0 0 1 2.58774,1.174893 5.3539445,5.3539445 0 0 1 1.635927,2.141578 7.7780916,7.7780916 0 0 1 0.580011,3.167751 6.8114071,6.8114071 0 0 1 -1.011301,3.866737 6.4396054,6.4396054 0 0 1 -2.766204,2.290299 l 4.208795,8.016044 z M 45.431452,36.070871 a 2.5877398,2.5877398 0 0 0 -1.963113,-0.624627 h -3.52468 v 4.580597 h 3.420575 a 2.840565,2.840565 0 0 0 2.052346,-0.594883 2.3646588,2.3646588 0 0 0 0.609755,-1.740032 2.3200426,2.3200426 0 0 0 -0.594883,-1.621055 z"
   id="path8" /><path
   style="fill:#ffffff;fill-opacity:1;stroke-width:1.48720682"
   class="cls-1"
   d="M 55.648563,51.716286 V 30.702054 H 71.74014 v 4.892911 H 61.448669 v 2.825693 h 6.18678 v 4.788806 h -6.18678 v 3.613912 h 10.559168 v 4.89291 z"
   id="path10" /><path
   style="fill:#ffffff;fill-opacity:1;stroke-width:1.48720682"
   class="cls-1"
   d="m 93.066686,46.079773 a 7.644243,7.644243 0 0 1 -2.15645,3.271855 8.7596481,8.7596481 0 0 1 -3.554424,1.814392 19.333688,19.333688 0 0 1 -4.892911,0.550266 H 75.666366 V 30.702054 h 7.33193 a 18.039818,18.039818 0 0 1 4.46162,0.505651 8.2986139,8.2986139 0 0 1 3.405704,1.695415 8.1647653,8.1647653 0 0 1 2.156449,3.197495 13.979744,13.979744 0 0 1 0.758476,4.952399 15.184381,15.184381 0 0 1 -0.713859,5.026759 z m -5.502665,-7.436034 a 4.3277718,4.3277718 0 0 0 -0.817964,-1.72516 3.4205756,3.4205756 0 0 0 -1.487207,-0.966685 7.1832088,7.1832088 0 0 0 -2.275426,-0.312313 h -1.487207 v 11.035074 h 1.264126 a 8.6852877,8.6852877 0 0 0 2.30517,-0.267697 3.5692963,3.5692963 0 0 0 1.576439,-0.93694 3.8072494,3.8072494 0 0 0 0.877452,-1.710288 11.035074,11.035074 0 0 0 0.267698,-2.632356 11.00533,11.00533 0 0 0 -0.223081,-2.439019 z"
   id="path12" /><path
   style="fill:#ffffff;fill-opacity:1;stroke-width:1.48720682"
   class="cls-1"
   d="m 118.42356,51.716286 v -8.283741 h -6.52884 v 8.283741 H 105.9459 V 30.702054 h 5.94882 v 7.659115 h 6.52884 v -7.659115 h 5.94883 v 21.014232 z"
   id="path14" /><path
   style="fill:#ffffff;fill-opacity:1;stroke-width:1.48720682"
   class="cls-1"
   d="m 142.12964,51.716286 -1.13028,-3.688272 h -6.29088 l -1.14515,3.688272 h -6.21653 l 7.59963,-21.014232 h 5.94883 l 7.59962,21.014232 z m -2.97442,-9.696588 c -0.19333,-0.684115 -0.34205,-1.278998 -0.4759,-1.769776 -0.13385,-0.490778 -0.2677,-0.951812 -0.3718,-1.353358 -0.10411,-0.401546 -0.22308,-0.773348 -0.29744,-1.100533 -0.0744,-0.327186 -0.14873,-0.669243 -0.20821,-1.026173 0,0.35693 -0.13385,0.698987 -0.20821,1.041045 -0.0744,0.342057 -0.17847,0.713859 -0.28257,1.115405 -0.10411,0.401546 -0.23796,0.847708 -0.3718,1.353358 -0.13385,0.50565 -0.29745,1.085661 -0.49078,1.740032 l -0.38668,1.383102 h 3.48007 z"
   id="path16" /><path
   style="fill:#ffffff;fill-opacity:1;stroke-width:1.48720682"
   class="cls-1"
   d="m 159.38124,35.77343 v 15.942856 h -5.81498 V 35.77343 h -5.8596 v -5.071376 h 17.53417 v 5.071376 z"
   id="path18" /><path
   style="fill:#ffffff;fill-opacity:1;stroke-width:1.48720682"
   class="cls-1"
   d="m 172.06711,33.631852 a 1.7846482,1.7846482 0 0 1 -0.43129,0.669243 2.2902985,2.2902985 0 0 1 -0.66924,0.446162 2.409275,2.409275 0 0 1 -1.66567,0 2.2902985,2.2902985 0 0 1 -0.66925,-0.446162 2.2456823,2.2456823 0 0 1 -0.43129,-0.669243 1.977985,1.977985 0 0 1 -0.16359,-0.832836 1.9333688,1.9333688 0 0 1 0.16359,-0.832836 1.9184968,1.9184968 0 0 1 0.47591,-0.669243 2.0374733,2.0374733 0 0 1 0.66924,-0.446162 2.2010661,2.2010661 0 0 1 1.66567,0 2.0374733,2.0374733 0 0 1 0.66925,0.446162 1.5764392,1.5764392 0 0 1 0.43129,0.669243 1.9482409,1.9482409 0 0 1 0.17846,0.832836 1.9928571,1.9928571 0 0 1 -0.22308,0.832836 z m -0.31231,-1.487207 a 1.5913113,1.5913113 0 0 0 -0.35693,-0.565139 1.8590085,1.8590085 0 0 0 -1.96312,-0.371801 1.4872068,1.4872068 0 0 0 -0.55026,0.371801 1.6210554,1.6210554 0 0 0 -0.3718,0.565139 1.8441364,1.8441364 0 0 0 -0.14872,0.698987 1.8441364,1.8441364 0 0 0 0.14872,0.698987 1.7697761,1.7697761 0 0 0 0.3718,0.565139 1.6359275,1.6359275 0 0 0 0.55026,0.371802 2.1118337,2.1118337 0 0 0 1.39798,0 2.0672175,2.0672175 0 0 0 0.56514,-0.371802 1.740032,1.740032 0 0 0 0.35693,-0.565139 1.5913113,1.5913113 0 0 0 0.14872,-0.698987 1.5913113,1.5913113 0 0 0 -0.14872,-0.743603 z m -0.80309,0.639499 a 0.68411513,0.68411513 0 0 1 -0.34206,0.237953 l 0.46103,0.93694 h -0.46103 l -0.44616,-0.951812 h -0.43129 v 0.907196 h -0.38668 V 31.60925 h 0.99643 0.28257 a 0.62462686,0.62462686 0 0 1 0.23795,0.133849 0.4164179,0.4164179 0 0 1 0.1636,0.223081 0.59488272,0.59488272 0 0 1 0,0.297441 0.6989872,0.6989872 0 0 1 -0.0744,0.475907 z m -0.35693,-0.669243 a 0.4164179,0.4164179 0 0 0 -0.2677,-0.08923 h -0.59488 v 0.654371 h 0.59488 a 0.52052238,0.52052238 0 0 0 0.2677,0 0.28256929,0.28256929 0 0 0 0.1041,-0.252825 0.26769722,0.26769722 0 0 0 -0.1041,-0.356929 z"
   id="path20" /><path
   style="fill:#ffffff;fill-opacity:1;stroke-width:1.48720682"
   class="cls-1"
   d="m 46.249416,63.941126 a 4.0303304,4.0303304 0 0 0 -3.88161,-2.30517 c -3.182623,0 -4.997015,2.795949 -4.997015,6.737047 0,3.941098 1.844136,6.737046 5.026759,6.737046 a 4.4616204,4.4616204 0 0 0 4.149307,-2.691844 l 3.569296,2.126706 a 8.0606609,8.0606609 0 0 1 -7.852452,4.788806 c -5.547281,0 -9.265298,-4.253412 -9.265298,-10.960714 0,-6.46935 3.88161,-10.960715 9.414019,-10.960715 a 8.0160447,8.0160447 0 0 1 7.76322,4.714446 z"
   id="path22" /><path
   style="fill:#ffffff;fill-opacity:1;stroke-width:1.48720682"
   class="cls-1"
   d="m 61.775855,79.333717 c -5.785235,0 -9.20581,-4.461621 -9.20581,-10.960714 0,-6.499094 3.420575,-10.960715 9.20581,-10.960715 5.785234,0 9.20581,4.461621 9.20581,10.960715 0,6.499093 -3.435448,10.960714 -9.20581,10.960714 z m 0,-17.697761 c -3.420576,0 -4.833422,2.974413 -4.833422,6.737047 0,3.762633 1.412846,6.737046 4.833422,6.737046 3.420575,0 4.848294,-2.974413 4.848294,-6.737046 0,-3.762634 -1.427719,-6.737047 -4.848294,-6.737047 z"
   id="path24" /><path
   style="fill:#ffffff;fill-opacity:1;stroke-width:1.48720682"
   class="cls-1"
   d="M 81.644937,79.006531 H 75.309436 V 57.754346 h 6.632943 c 6.052932,0 10.544296,2.855437 10.544296,10.618657 0,7.465778 -5.398561,10.633528 -10.841738,10.633528 z m 0.148721,-17.132622 h -2.245682 v 12.998187 h 2.096961 c 4.461621,0 6.46935,-2.617484 6.46935,-6.499093 0,-4.342644 -1.844136,-6.499094 -6.320629,-6.499094 z"
   id="path26" /><path
   style="fill:#ffffff;fill-opacity:1;stroke-width:1.48720682"
   class="cls-1"
   d="M 96.710342,79.006531 V 57.754346 h 14.723348 v 4.149307 h -10.41045 v 3.718017 h 6.08268 v 4.134435 h -6.14217 v 5.086247 h 10.93097 v 4.164179 z"
   id="path28" /><path
   style="fill:#ffffff;fill-opacity:1;stroke-width:1.48720682"
   class="cls-1"
   d="m 128.68529,79.006531 -3.77751,-7.659115 h -4.26828 v 7.659115 h -4.23854 V 57.754346 h 9.86018 c 4.00059,0 7.30219,2.215938 7.30219,6.737047 a 6.0380596,6.0380596 0 0 1 -4.06008,6.246268 l 4.06008,8.26887 z m -2.51338,-17.132622 h -5.53241 v 5.472921 h 5.53241 c 1.97798,0 2.97441,-0.922068 2.97441,-2.766205 0,-1.844136 -1.08566,-2.706716 -2.97441,-2.706716 z"
   id="path30" /><path
   style="fill:#ffffff;fill-opacity:1;stroke-width:1.48720682"
   class="cls-1"
   d="M 138.01008,79.006531 V 57.754346 h 14.72334 v 4.149307 h -10.41045 v 3.718017 h 6.09755 v 4.134435 h -6.09755 v 5.086247 h 10.93097 v 4.164179 z"
   id="path32" /><path
   style="fill:#ffffff;fill-opacity:1;stroke-width:1.48720682"
   class="cls-1"
   d="m 171.79941,79.006531 -1.63592,-4.744189 h -7.7781 l -1.66567,4.744189 h -4.53598 l 8.10528,-21.252185 h 4.11956 l 8.06066,21.252185 z m -4.46162,-12.641258 c -0.43129,-1.234381 -0.8477,-2.513379 -1.05591,-3.301599 -0.22308,0.78822 -0.6395,2.067218 -1.07079,3.301599 l -1.35336,3.866738 h 4.81855 z"
   id="path34" /><path
   style="fill:#ffffff;fill-opacity:1;stroke-width:1.48720682"
   class="cls-1"
   d="m 186.73097,79.006531 h -6.3355 V 57.754346 h 6.63294 c 6.05293,0 10.5443,2.855437 10.5443,10.618657 0,7.465778 -5.39856,10.633528 -10.84174,10.633528 z m 0.14872,-17.132622 h -2.24568 v 12.998187 h 2.09696 c 4.46162,0 6.48422,-2.617484 6.48422,-6.499093 0,-4.342644 -1.85901,-6.499094 -6.3355,-6.499094 z"
   id="path36" /><path
   style="fill:#ffffff;fill-opacity:1;stroke-width:1.48720682"
   class="cls-1"
   d="m 210.43705,70.588941 v 8.41759 h -4.23854 v -8.328358 l -8.03092,-12.923827 h 4.87804 l 2.97441,5.041631 c 0.75848,1.264126 1.90363,3.361087 2.2903,4.149307 0.40155,-0.78822 1.48721,-2.825693 2.30517,-4.149307 l 2.97441,-5.041631 h 4.80368 z"
   id="path38" /><path
   style="fill:#ffffff;fill-opacity:1;stroke-width:1.48720682"
   class="cls-1"
   d="M 51.96029,106.20754 H 47.810983 L 45.238115,95.276574 c -0.297441,-1.264126 -0.594883,-2.855437 -0.728731,-3.643657 -0.08923,0.78822 -0.386674,2.409275 -0.684115,3.643657 L 41.148296,106.20754 H 37.162582 L 32.730706,84.955358 h 4.46162 l 1.844137,10.410448 c 0.178464,1.041045 0.416418,2.617484 0.50565,3.494936 0.163593,-0.877452 0.490778,-2.453891 0.728731,-3.494936 L 42.75448,84.955358 h 3.6734 l 2.51338,10.410448 c 0.237953,1.041045 0.565139,2.617484 0.728731,3.494936 0.08923,-0.877452 0.327186,-2.483635 0.505651,-3.494936 l 1.844136,-10.410448 h 4.372388 z"
   id="path40" /><path
   style="fill:#ffffff;fill-opacity:1;stroke-width:1.48720682"
   class="cls-1"
   d="m 68.096484,106.5496 c -5.785235,0 -9.205811,-4.46162 -9.205811,-10.960713 0,-6.499094 3.420576,-10.960714 9.205811,-10.960714 5.785234,0 9.20581,4.46162 9.20581,10.960714 0,6.499093 -3.420576,10.960713 -9.20581,10.960713 z m 0,-17.69776 c -3.420576,0 -4.848295,2.974414 -4.848295,6.737047 0,3.762633 1.487207,6.737043 4.848295,6.737043 3.361087,0 4.848294,-2.97441 4.848294,-6.737043 0,-3.762633 -1.427719,-6.737047 -4.848294,-6.737047 z"
   id="path42" /><path
   style="fill:#ffffff;fill-opacity:1;stroke-width:1.48720682"
   class="cls-1"
   d="m 93.929266,106.20754 -3.792378,-7.644239 h -4.268283 v 7.644239 h -4.23854 V 84.955358 h 9.875054 c 4.000586,0 7.272441,2.215939 7.272441,6.737047 a 6.0678037,6.0678037 0 0 1 -4.060075,6.261141 l 4.060075,8.253994 z m -2.51338,-17.117747 h -5.547281 v 5.458049 h 5.547281 c 1.963113,0 2.974414,-0.907196 2.974414,-2.766204 0,-1.859009 -1.100533,-2.691845 -2.974414,-2.691845 z"
   id="path44" /><path
   style="fill:#ffffff;fill-opacity:1;stroke-width:1.48720682"
   class="cls-1"
   d="m 116.62404,106.20754 -5.75549,-10.261723 -3.39083,4.015458 v 6.246265 h -4.23854 V 84.955358 h 4.23854 v 6.03806 c 0,0.78822 0,2.706716 0,3.375959 a 25.490725,25.490725 0 0 1 1.66567,-2.156449 l 5.94883,-7.25757 h 5.11599 l -6.21652,7.346802 7.79296,13.90538 z"
   id="path46" /><path
   style="fill:#ffffff;fill-opacity:1;stroke-width:1.48720682"
   class="cls-1"
   d="m 131.12431,106.5496 a 9.8155649,9.8155649 0 0 1 -8.22426,-3.86674 l 2.97442,-2.721585 a 6.8857675,6.8857675 0 0 0 5.4283,2.424145 c 2.51338,0 3.68828,-0.69899 3.68828,-2.30517 0,-1.368229 -0.72874,-1.977983 -4.71445,-2.88518 -3.98571,-0.907196 -6.55858,-2.156449 -6.55858,-6.290884 0,-3.851866 3.39083,-6.216525 7.56988,-6.216525 a 10.113006,10.113006 0 0 1 7.7186,3.242111 l -3.04877,2.974414 a 6.4247334,6.4247334 0 0 0 -4.81855,-2.186194 c -2.26055,0 -2.97441,0.981556 -2.97441,1.918496 0,1.338486 0.90719,1.754904 4.26828,2.543124 3.36109,0.78822 7.0791,1.948241 7.0791,6.558582 -0.0595,4.074946 -2.60261,6.811406 -8.38784,6.811406 z"
   id="path48" /><path
   style="fill:#ffffff;fill-opacity:1;stroke-width:1.48720682"
   class="cls-1"
   d="m 152.83753,98.682277 h -4.65496 v 7.525263 h -4.23854 V 84.955358 h 9.2653 c 3.98571,0 7.28731,2.215939 7.28731,6.737047 0,4.922655 -3.27185,6.989872 -7.65911,6.989872 z m 0.20821,-9.592484 h -4.86317 v 5.458049 h 4.92265 c 1.97799,0 2.97442,-0.907196 2.97442,-2.766204 0,-1.859009 -1.14515,-2.691845 -3.0339,-2.691845 z"
   id="path50" /><path
   style="fill:#ffffff;fill-opacity:1;stroke-width:1.48720682"
   class="cls-1"
   d="m 176.39488,106.20754 -1.66567,-4.72931 h -7.74835 l -1.66567,4.72931 h -4.46162 l 8.03092,-21.252182 h 4.11956 l 8.06066,21.252182 z m -4.46162,-12.626382 c -0.43129,-1.249254 -0.84771,-2.51338 -1.07079,-3.316471 -0.20821,0.803091 -0.62462,2.067217 -1.05591,3.316471 l -1.35336,3.851865 h 4.83342 z"
   id="path52" /><path
   style="fill:#ffffff;fill-opacity:1;stroke-width:1.48720682"
   class="cls-1"
   d="m 196.3532,91.157011 a 4.0154584,4.0154584 0 0 0 -3.88161,-2.305171 c -3.18262,0 -4.99702,2.781077 -4.99702,6.737047 0,3.95597 1.84414,6.737043 5.02676,6.737043 a 4.4616204,4.4616204 0 0 0 4.14931,-2.706713 l 3.5693,2.126703 a 8.0755329,8.0755329 0 0 1 -7.83758,4.80368 c -5.53241,0 -9.2653,-4.25341 -9.2653,-10.960713 0,-6.46935 3.88161,-10.960714 9.41402,-10.960714 a 8.0011726,8.0011726 0 0 1 7.76322,4.699573 z"
   id="path54" /><path
   style="fill:#ffffff;fill-opacity:1;stroke-width:1.48720682"
   class="cls-1"
   d="M 204.51796,106.20754 V 84.955358 h 14.72335 v 4.164179 h -10.41045 v 3.673401 h 6.09755 v 4.060075 h -6.09755 v 5.130867 h 10.93097 v 4.16418 z"
   id="path56" /><path
   style="fill:#ffffff;fill-opacity:1;stroke-width:1.48720682"
   class="cls-1"
   d="m 230.9605,106.5496 a 9.845309,9.845309 0 0 1 -8.23913,-3.86674 l 3.06365,-2.721585 a 6.8708954,6.8708954 0 0 0 5.35395,2.424145 c 2.51337,0 3.70314,-0.69899 3.70314,-2.30517 0,-1.368229 -0.72873,-1.977983 -4.72932,-2.88518 -4.00058,-0.907196 -6.63294,-2.156449 -6.63294,-6.350373 0,-3.851865 3.39083,-6.216524 7.56988,-6.216524 a 10.083262,10.083262 0 0 1 7.77809,3.301599 l -2.97441,2.974414 a 6.4693496,6.4693496 0 0 0 -4.81855,-2.186194 c -2.27543,0 -2.97441,0.981556 -2.97441,1.918496 0,1.338486 0.90719,1.754904 4.26828,2.543124 3.36109,0.78822 7.09398,1.948241 7.09398,6.558582 -0.13385,4.074946 -2.67698,6.811406 -8.46221,6.811406 z"
   id="path58" /></svg>