<?xml version="1.0" encoding="UTF-8" standalone="no"?>
<svg
   xmlns:dc="http://purl.org/dc/elements/1.1/"
   xmlns:cc="http://creativecommons.org/ns#"
   xmlns:svg="http://www.w3.org/2000/svg"
   xmlns="http://www.w3.org/2000/svg"
   version="1.1"
   id="logo-buildinfo"
   x="0px"
   y="0px"
   viewBox="-130 0 500 120"
   enable-background="new 0 0 500 120"
   xml:space="preserve">
   <defs
   id="defs330" />

<g
   transform="matrix(0.194425,0,0,0.194425,-212.61845,-36.909536)"
   id="g622"><path
     style="fill:#cb2026"
     d="m 1156.53,521.18 c 0.77,0.07 1.54,0.13 2.31,0.2 -0.78,-0.07 -1.55,-0.14 -2.31,-0.2 0,0 0,0 0,0 z"
     id="path612" /><path
     style="fill:#cb2026"
     d="m 1159.47,521.43 c 0,0 0,0 0,0 -0.06,-0.01 -0.13,-0.01 -0.19,-0.02 0.06,0.01 0.13,0.02 0.19,0.02 z"
     id="path614" /><path
     style="fill:#cb2026"
     d="m 1013.89,589.14 c -11.11,2.77 -22.19,5.7 -33.24,8.77 -4.92,1.37 -10.1,2.1 -15.46,2.1 -19.38,0 -36.52,-9.57 -46.96,-24.25 -0.04,-0.06 -0.08,-0.12 -0.12,-0.17 -0.19,-0.27 -0.38,-0.55 -0.57,-0.83 -0.11,-0.17 -0.23,-0.33 -0.34,-0.5 -0.12,-0.18 -0.23,-0.35 -0.35,-0.53 -0.19,-0.28 -0.37,-0.57 -0.55,-0.86 -0.04,-0.07 -0.09,-0.14 -0.13,-0.21 -5.47,-8.82 -8.64,-19.22 -8.64,-30.36 0,-0.67 0.02,-1.34 0.04,-2.01 -3.87,45.22 16.61,87.05 50.67,112.36 17.77,13.2 39.22,21.91 62.85,24.26 67.99,6.75 128.74,-41.67 137.82,-108.84 0.2,-1.51 0.38,-3.02 0.54,-4.53 -49.03,4.67 -97.61,13.65 -145.56,25.6 z"
     id="path616" /><path
     style="fill:#88171a"
     d="m 1021.1,676.9 c -23.63,-2.35 -45.08,-11.06 -62.85,-24.26 -34.07,-25.31 -54.54,-67.14 -50.67,-112.36 0.12,-3.64 0.59,-7.2 1.36,-10.64 5.76,-25.76 28.76,-45.01 56.26,-45.01 7.6,0 14.85,1.47 21.49,4.14 9.2,2.88 18.45,5.56 27.75,8.05 46.48,12.46 94.09,20.23 142.1,24.35 0,0 0,0 0,-0.01 -65.67,-6.01 -127.88,-32.24 -178.04,-75.11 l 0.01,0.02 c -2.19,-1.87 -4.43,-3.67 -6.74,-5.38 -21.06,-15.66 -47.16,-24.93 -75.42,-24.93 -69.84,0 -126.46,56.59 -126.52,126.41 0,0.05 0,0.1 0,0.15 0,0.03 0,0.05 0,0.08 v 0 c 0,107.91 87.48,195.39 195.39,195.39 v 0 c 99.22,0 181.16,-73.95 193.72,-169.74 -9.11,67.18 -69.85,115.6 -137.84,108.85 z"
     id="path618" /><path
     style="fill:#cb2026"
     d="m 965.2,347.01 v 0 c -20.76,0 -40.76,3.24 -59.53,9.24 -78.73,25.16 -135.76,98.87 -135.86,185.93 0.06,-69.83 56.68,-126.41 126.52,-126.41 28.26,0 54.36,9.27 75.42,24.93 l 6.73,5.36 c 50.16,42.87 112.38,69.1 178.04,75.11 0.77,0.07 1.54,0.14 2.31,0.2 0.15,0.01 0.3,0.03 0.45,0.04 0.06,0.01 0.13,0.01 0.19,0.01 -10.46,-98.04 -93.45,-174.41 -194.27,-174.41 z"
     id="path620" /></g><g
   id="g123"
   transform="matrix(1.4856084,0,0,1.4856084,22.795984,28.32947)"><path
     d="M 15.3,15.6 13,10.9 h -1.6 v 4.8 H 7.6 V 1.5 h 6.3 c 0.8,0 1.5,0.1 2.2,0.2 0.6,0.1 1.2,0.4 1.7,0.8 0.6,0.4 1,0.9 1.2,1.5 0.3,0.7 0.4,1.4 0.4,2.1 0,0.9 -0.2,1.8 -0.7,2.6 -0.5,0.7 -1.1,1.2 -1.9,1.5 l 2.8,5.4 z M 15.1,5.1 C 14.7,4.8 14.3,4.6 13.8,4.7 h -2.4 v 3.1 h 2.3 c 0.5,0.1 1,-0.1 1.4,-0.4 0.3,-0.3 0.4,-0.7 0.4,-1.2 0,-0.4 -0.1,-0.8 -0.4,-1.1 z"
     id="path4" /><path
     d="M 22,15.6 V 1.5 h 10.8 v 3.3 h -6.9 v 1.9 h 4.2 v 3.2 h -4.2 v 2.4 H 33 v 3.3 z"
     id="path6" /><path
     d="m 47.2,11.9 c -0.3,0.8 -0.8,1.6 -1.5,2.2 -0.7,0.6 -1.5,1 -2.4,1.2 -1.1,0.3 -2.2,0.4 -3.3,0.4 H 35.4 V 1.5 h 4.9 c 1,0 2,0.1 3,0.3 0.9,0.3 1.7,0.6 2.4,1.2 0.6,0.6 1.1,1.3 1.5,2.2 0.4,1.1 0.5,2.2 0.5,3.3 0,1.1 -0.2,2.3 -0.5,3.4 z m -3.7,-5 C 43.4,6.5 43.2,6.1 43,5.7 42.7,5.4 42.4,5.2 42,5 41.5,4.8 41,4.8 40.5,4.8 h -1 v 7.4 h 0.8 c 0.5,0 1,-0.1 1.5,-0.2 0.4,-0.1 0.8,-0.3 1.1,-0.6 0.3,-0.3 0.5,-0.7 0.6,-1.1 C 43.6,9.7 43.7,9.1 43.7,8.5 43.6,8 43.6,7.4 43.5,6.9 Z"
     id="path8" /><path
     d="M 64.2,15.6 V 10 h -4.4 v 5.6 h -4 V 1.5 h 4 v 5.2 h 4.4 V 1.5 h 4 v 14.1 z"
     id="path10" /><path
     d="m 80.2,15.6 -0.8,-2.5 h -4.2 l -0.8,2.5 H 70.2 L 75.3,1.5 h 4 l 5.1,14.1 z m -2,-6.5 C 78.1,8.6 78,8.2 77.9,7.9 77.8,7.6 77.7,7.3 77.6,7 77.5,6.7 77.4,6.5 77.4,6.3 c 0,-0.2 -0.1,-0.4 -0.1,-0.7 0,0.2 -0.1,0.5 -0.1,0.7 0,0.2 -0.2,0.5 -0.3,0.7 -0.1,0.2 -0.1,0.6 -0.2,1 -0.1,0.4 -0.2,0.7 -0.3,1.2 l -0.3,0.9 h 2.3 z"
     id="path12" /><path
     d="M 91.8,4.9 V 15.6 H 87.9 V 4.9 H 84 V 1.5 h 11.8 v 3.4 z"
     id="path14" /><path
     d="M 100.3,3.5 C 100.2,3.7 100.1,3.8 100,4 99.9,4.1 99.7,4.2 99.6,4.3 99.2,4.4 98.8,4.4 98.5,4.3 98.3,4.2 98.2,4.1 98.1,4 98,3.9 97.9,3.7 97.8,3.5 97.7,3.3 97.7,3.1 97.7,2.9 c 0,-0.2 0,-0.4 0.1,-0.6 0,-0.1 0.1,-0.3 0.2,-0.4 0.1,-0.1 0.3,-0.2 0.4,-0.3 0.4,-0.1 0.8,-0.1 1.1,0 0.2,0.1 0.3,0.2 0.4,0.3 0.1,0.1 0.2,0.3 0.3,0.5 0.1,0.2 0.1,0.4 0.1,0.6 0.1,0.1 0.1,0.3 0,0.5 z m -0.2,-1 C 100,2.4 100,2.2 99.9,2.1 99.5,1.8 99,1.7 98.6,1.9 98.5,2 98.3,2 98.2,2.1 98.1,2.2 98,2.3 98,2.5 97.9,2.6 97.9,2.8 97.9,3 c 0,0.2 0,0.3 0.1,0.5 0.1,0.1 0.1,0.3 0.2,0.4 0.1,0.1 0.2,0.2 0.4,0.2 0.3,0.1 0.6,0.1 0.9,0 0.1,-0.1 0.3,-0.1 0.4,-0.2 0.1,-0.1 0.2,-0.2 0.2,-0.4 0.1,-0.1 0.1,-0.3 0.1,-0.5 0,-0.2 -0.1,-0.4 -0.1,-0.5 z M 99.5,2.9 C 99.4,3 99.4,3 99.3,3.1 l 0.3,0.6 H 99.3 L 99,3.1 H 98.7 V 3.7 H 98.4 V 2.1 h 0.7 0.2 c 0.1,0 0.1,0 0.2,0.1 0.1,0 0.1,0.1 0.1,0.2 0,0.1 0,0.1 0,0.2 0,0.1 0,0.2 -0.1,0.3 z M 99.3,2.5 c -0.1,0 -0.1,-0.1 -0.2,-0.1 h -0.4 v 0.4 h 0.4 c 0.1,0 0.1,0 0.2,0 0.1,0 0.1,-0.1 0.1,-0.2 0,0 0,-0.1 -0.1,-0.1 z"
     id="path16" /><path
     d="m 15.7,23.9 c -0.5,-1 -1.5,-1.6 -2.6,-1.5 -2.1,0 -3.4,1.9 -3.4,4.5 0,2.6 1.2,4.5 3.4,4.5 1.2,0 2.3,-0.7 2.8,-1.8 l 2.4,1.4 c -0.9,2.1 -3,3.4 -5.3,3.2 -3.7,0 -6.2,-2.9 -6.2,-7.4 0,-4.4 2.6,-7.4 6.3,-7.4 2.2,-0.1 4.3,1.1 5.2,3.2 z"
     id="path18" /><path
     d="m 26.1,34.2 c -3.9,0 -6.2,-3 -6.2,-7.4 0,-4.4 2.3,-7.4 6.2,-7.4 3.9,0 6.2,3 6.2,7.4 0,4.4 -2.3,7.4 -6.2,7.4 z m 0,-11.9 c -2.3,0 -3.2,2 -3.2,4.5 0,2.5 1,4.5 3.2,4.5 2.2,0 3.3,-2 3.3,-4.5 0,-2.5 -1,-4.5 -3.3,-4.5 z"
     id="path20" /><path
     d="M 39.5,34 H 35.2 V 19.7 h 4.5 c 4.1,0 7.1,1.9 7.1,7.1 0,5.1 -3.7,7.2 -7.3,7.2 z m 0.1,-11.5 h -1.5 v 8.7 h 1.4 c 3,0 4.3,-1.8 4.3,-4.4 0,-2.9 -1.2,-4.3 -4.2,-4.3 z"
     id="path22" /><path
     d="M 49.6,34 V 19.7 h 9.9 v 2.8 h -7 V 25 h 4.1 v 2.8 h -4.1 v 3.4 h 7.3 V 34 Z"
     id="path24" /><path
     d="M 71.1,34 68.6,28.9 H 65.7 V 34 H 62.9 V 19.7 h 6.6 c 2.7,0 4.9,1.5 4.9,4.5 0.2,1.9 -1,3.6 -2.7,4.2 L 74.4,34 Z M 69.4,22.5 h -3.7 v 3.7 h 3.7 c 1.3,0 2,-0.6 2,-1.9 0,-1.3 -0.7,-1.8 -2,-1.8 z"
     id="path26" /><path
     d="M 77.4,34 V 19.7 h 9.9 v 2.8 h -7 V 25 h 4.1 v 2.8 h -4.1 v 3.4 h 7.3 V 34 Z"
     id="path28" /><path
     d="M 100.1,34 99,30.8 H 93.8 L 92.7,34 H 89.6 L 95,19.7 h 2.8 l 5.4,14.3 z m -3,-8.5 c -0.3,-0.8 -0.6,-1.7 -0.7,-2.2 -0.2,0.5 -0.4,1.4 -0.7,2.2 l -0.9,2.6 H 98 Z"
     id="path30" /><path
     d="m 110.1,34 h -4.3 V 19.7 h 4.5 c 4.1,0 7.1,1.9 7.1,7.1 0,5.1 -3.6,7.2 -7.3,7.2 z m 0.1,-11.5 h -1.5 v 8.7 h 1.4 c 3,0 4.4,-1.8 4.4,-4.4 0,-2.9 -1.3,-4.3 -4.3,-4.3 z"
     id="path32" /><path
     d="M 126.1,28.3 V 34 h -2.8 v -5.6 l -5.4,-8.7 h 3.3 l 2,3.4 c 0.5,0.9 1.3,2.3 1.5,2.8 0.3,-0.5 1,-1.9 1.6,-2.8 l 2,-3.4 h 3.2 z"
     id="path34" /><path
     d="M 19.5,52.3 H 16.7 L 15,44.9 C 14.8,44.1 14.6,43 14.5,42.4 14.4,42.9 14.2,44 14,44.9 l -1.8,7.3 H 9.6 L 6.6,38 h 3 l 1.2,7 c 0.1,0.7 0.3,1.8 0.3,2.3 0.1,-0.6 0.3,-1.7 0.5,-2.3 l 1.7,-7 h 2.5 l 1.7,7 c 0.2,0.7 0.4,1.8 0.5,2.3 0.1,-0.6 0.2,-1.7 0.3,-2.3 l 1.2,-7 h 2.9 z"
     id="path36" /><path
     d="m 30.4,52.5 c -3.9,0 -6.2,-3 -6.2,-7.4 0,-4.4 2.3,-7.4 6.2,-7.4 3.9,0 6.2,3 6.2,7.4 0,4.4 -2.3,7.4 -6.2,7.4 z m 0,-11.9 c -2.3,0 -3.3,2 -3.3,4.5 0,2.5 1,4.5 3.3,4.5 2.3,0 3.3,-2 3.3,-4.5 0,-2.5 -1,-4.5 -3.3,-4.5 z"
     id="path38" /><path
     d="m 47.7,52.3 -2.5,-5.1 h -2.9 v 5.1 H 39.5 V 38 h 6.6 c 2.7,0 4.9,1.5 4.9,4.5 0.2,1.9 -1,3.6 -2.7,4.2 L 51,52.3 Z M 46,40.8 h -3.7 v 3.7 H 46 c 1.3,0 2,-0.6 2,-1.9 0,-1.3 -0.7,-1.8 -2,-1.8 z"
     id="path40" /><path
     d="m 63,52.3 -3.9,-6.9 -2.3,2.7 v 4.2 H 54 V 38 h 2.8 v 4.1 c 0,0.5 0,1.8 0,2.3 0.3,-0.5 0.7,-1 1.1,-1.5 l 4,-4.9 h 3.4 l -4.2,4.9 5.2,9.4 z"
     id="path42" /><path
     d="m 72.8,52.5 c -2.2,0.1 -4.2,-0.9 -5.5,-2.6 l 2,-1.8 c 0.9,1.1 2.2,1.7 3.7,1.6 1.7,0 2.5,-0.5 2.5,-1.5 0,-0.9 -0.5,-1.3 -3.2,-1.9 -2.7,-0.6 -4.4,-1.5 -4.4,-4.2 0,-2.6 2.3,-4.2 5.1,-4.2 2,-0.1 3.9,0.7 5.2,2.2 L 76,42 c -0.8,-0.9 -2,-1.5 -3.2,-1.5 -1.5,0 -2,0.7 -2,1.3 0,0.9 0.6,1.2 2.9,1.7 2.3,0.5 4.8,1.3 4.8,4.4 -0.2,2.8 -1.9,4.6 -5.7,4.6 z"
     id="path44" /><path
     d="m 87.3,47.2 h -3.1 v 5.1 H 81.4 V 38 h 6.2 c 2.7,0 4.9,1.5 4.9,4.5 0,3.3 -2.2,4.7 -5.2,4.7 z m 0.2,-6.4 h -3.3 v 3.7 h 3.3 c 1.3,0 2,-0.6 2,-1.9 0,-1.3 -0.7,-1.8 -2,-1.8 z"
     id="path46" /><path
     d="m 103.2,52.3 -1.1,-3.2 h -5.2 l -1.1,3.2 h -3 L 98.1,38 h 2.8 l 5.4,14.3 z m -3,-8.5 C 99.9,43 99.6,42.1 99.5,41.6 99.4,42.1 99.1,43 98.8,43.8 l -0.9,2.6 h 3.2 z"
     id="path48" /><path
     d="m 116.6,42.2 c -0.5,-1 -1.5,-1.6 -2.6,-1.5 -2.1,0 -3.4,1.9 -3.4,4.5 0,2.6 1.2,4.5 3.4,4.5 1.2,0 2.3,-0.7 2.8,-1.8 l 2.4,1.4 c -0.9,2.1 -3,3.4 -5.3,3.2 -3.7,0 -6.2,-2.9 -6.2,-7.4 0,-4.3 2.6,-7.4 6.3,-7.4 2.2,-0.1 4.3,1.1 5.2,3.2 z"
     id="path50" /><path
     d="M 122.1,52.3 V 38 h 9.9 v 2.8 h -7 v 2.5 h 4.1 V 46 H 125 v 3.5 h 7.4 v 2.8 z"
     id="path52" /><path
     d="m 139.9,52.5 c -2.2,0.1 -4.2,-0.9 -5.5,-2.6 l 2.1,-1.8 c 0.9,1.1 2.2,1.7 3.6,1.6 1.7,0 2.5,-0.5 2.5,-1.5 0,-0.9 -0.5,-1.3 -3.2,-1.9 -2.7,-0.6 -4.5,-1.5 -4.5,-4.3 0,-2.6 2.3,-4.2 5.1,-4.2 2,-0.1 3.9,0.8 5.2,2.2 l -2,2 c -0.8,-0.9 -2,-1.5 -3.2,-1.5 -1.5,0 -2,0.7 -2,1.3 0,0.9 0.6,1.2 2.9,1.7 2.3,0.5 4.8,1.3 4.8,4.4 -0.2,2.8 -1.9,4.6 -5.8,4.6 z"
     id="path54" /></g></svg>