<?xml version="1.0" encoding="UTF-8" standalone="no"?>
<svg
   xmlns:dc="http://purl.org/dc/elements/1.1/"
   xmlns:cc="http://creativecommons.org/ns#"
   xmlns:svg="http://www.w3.org/2000/svg"
   xmlns="http://www.w3.org/2000/svg"
   xml:space="preserve"
   enable-background="new 0 0 500 120"
   viewBox="-130 0 500 120"
   y="0px"
   x="0px"
   id="logo-buildinfo"
   version="1.1">
   <defs
   id="defs330" />

<g
   id="g622"
   transform="matrix(0.194425,0,0,0.194425,-212.61845,-36.909536)"><path
     id="path612"
     d="m 1156.53,521.18 c 0.77,0.07 1.54,0.13 2.31,0.2 -0.78,-0.07 -1.55,-0.14 -2.31,-0.2 0,0 0,0 0,0 z"
     style="fill:#cb2026" /><path
     id="path614"
     d="m 1159.47,521.43 c 0,0 0,0 0,0 -0.06,-0.01 -0.13,-0.01 -0.19,-0.02 0.06,0.01 0.13,0.02 0.19,0.02 z"
     style="fill:#cb2026" /><path
     id="path616"
     d="m 1013.89,589.14 c -11.11,2.77 -22.19,5.7 -33.24,8.77 -4.92,1.37 -10.1,2.1 -15.46,2.1 -19.38,0 -36.52,-9.57 -46.96,-24.25 -0.04,-0.06 -0.08,-0.12 -0.12,-0.17 -0.19,-0.27 -0.38,-0.55 -0.57,-0.83 -0.11,-0.17 -0.23,-0.33 -0.34,-0.5 -0.12,-0.18 -0.23,-0.35 -0.35,-0.53 -0.19,-0.28 -0.37,-0.57 -0.55,-0.86 -0.04,-0.07 -0.09,-0.14 -0.13,-0.21 -5.47,-8.82 -8.64,-19.22 -8.64,-30.36 0,-0.67 0.02,-1.34 0.04,-2.01 -3.87,45.22 16.61,87.05 50.67,112.36 17.77,13.2 39.22,21.91 62.85,24.26 67.99,6.75 128.74,-41.67 137.82,-108.84 0.2,-1.51 0.38,-3.02 0.54,-4.53 -49.03,4.67 -97.61,13.65 -145.56,25.6 z"
     style="fill:#cb2026" /><path
     id="path618"
     d="m 1021.1,676.9 c -23.63,-2.35 -45.08,-11.06 -62.85,-24.26 -34.07,-25.31 -54.54,-67.14 -50.67,-112.36 0.12,-3.64 0.59,-7.2 1.36,-10.64 5.76,-25.76 28.76,-45.01 56.26,-45.01 7.6,0 14.85,1.47 21.49,4.14 9.2,2.88 18.45,5.56 27.75,8.05 46.48,12.46 94.09,20.23 142.1,24.35 0,0 0,0 0,-0.01 -65.67,-6.01 -127.88,-32.24 -178.04,-75.11 l 0.01,0.02 c -2.19,-1.87 -4.43,-3.67 -6.74,-5.38 -21.06,-15.66 -47.16,-24.93 -75.42,-24.93 -69.84,0 -126.46,56.59 -126.52,126.41 0,0.05 0,0.1 0,0.15 0,0.03 0,0.05 0,0.08 v 0 c 0,107.91 87.48,195.39 195.39,195.39 v 0 c 99.22,0 181.16,-73.95 193.72,-169.74 -9.11,67.18 -69.85,115.6 -137.84,108.85 z"
     style="fill:#88171a" /><path
     id="path620"
     d="m 965.2,347.01 v 0 c -20.76,0 -40.76,3.24 -59.53,9.24 -78.73,25.16 -135.76,98.87 -135.86,185.93 0.06,-69.83 56.68,-126.41 126.52,-126.41 28.26,0 54.36,9.27 75.42,24.93 l 6.73,5.36 c 50.16,42.87 112.38,69.1 178.04,75.11 0.77,0.07 1.54,0.14 2.31,0.2 0.15,0.01 0.3,0.03 0.45,0.04 0.06,0.01 0.13,0.01 0.19,0.01 -10.46,-98.04 -93.45,-174.41 -194.27,-174.41 z"
     style="fill:#cb2026" /></g><g
   transform="translate(0.352101,-7.5716842)"
   id="g316"><path
     d="m 43.325,50.496 -2.743,-5.664 h -1.877 v 5.664 h -4.56 v -16.8 h 7.512 c 0.976,0 1.868,0.1 2.676,0.3 0.808,0.2 1.5,0.516 2.076,0.948 0.576,0.432 1.02,0.996 1.332,1.692 0.312,0.696 0.468,1.54 0.468,2.532 0,1.264 -0.272,2.296 -0.818,3.096 -0.545,0.8 -1.283,1.408 -2.213,1.824 l 3.367,6.408 z M 43.107,37.992 c -0.313,-0.336 -0.84,-0.504 -1.579,-0.504 h -2.822 v 3.672 h 2.75 c 0.771,0 1.317,-0.16 1.64,-0.48 0.321,-0.32 0.482,-0.784 0.482,-1.392 -0.001,-0.528 -0.157,-0.96 -0.471,-1.296 z"
     id="path264" /><path
     d="m 52.049,50.496 v -16.8 h 12.864 v 3.912 h -8.256 v 2.256 h 4.968 v 3.84 h -4.968 v 2.88 h 8.424 v 3.912 z"
     id="path266" /><path
     d="m 82.721,45.996 c -0.384,1.08 -0.96,1.952 -1.729,2.616 -0.768,0.664 -1.716,1.144 -2.844,1.44 -1.128,0.296 -2.436,0.444 -3.924,0.444 h -5.448 v -16.8 h 5.88 c 1.312,0 2.504,0.136 3.576,0.408 1.072,0.272 1.98,0.732 2.724,1.38 0.744,0.648 1.32,1.5 1.729,2.556 0.409,1.056 0.612,2.376 0.612,3.96 0,1.584 -0.192,2.916 -0.576,3.996 z M 78.317,40.08 C 78.181,39.52 77.961,39.064 77.657,38.712 77.353,38.36 76.953,38.1 76.457,37.932 75.961,37.764 75.353,37.68 74.634,37.68 h -1.152 v 8.832 h 1.008 c 0.721,0 1.336,-0.076 1.849,-0.228 0.512,-0.152 0.932,-0.4 1.26,-0.744 0.327,-0.344 0.563,-0.8 0.708,-1.368 0.144,-0.567 0.216,-1.268 0.216,-2.1 -0.002,-0.768 -0.071,-1.432 -0.206,-1.992 z"
     id="path268" /><path
     d="m 105.449,50.496 v -6.624 h -5.232 v 6.624 h -4.752 v -16.8 h 4.752 v 6.12 h 5.232 v -6.12 h 4.752 v 16.8 z"
     id="path270" /><path
     d="m 125.176,50.496 -0.912,-2.952 h -5.04 l -0.911,2.952 h -4.992 l 6.096,-16.8 h 4.704 l 6.096,16.8 z m -2.352,-7.752 c -0.145,-0.544 -0.272,-1.016 -0.384,-1.416 -0.112,-0.4 -0.213,-0.76 -0.301,-1.08 -0.088,-0.32 -0.164,-0.612 -0.228,-0.876 -0.064,-0.264 -0.12,-0.54 -0.168,-0.828 -0.048,0.288 -0.104,0.568 -0.168,0.84 -0.064,0.272 -0.141,0.568 -0.229,0.888 -0.088,0.32 -0.188,0.68 -0.3,1.08 -0.112,0.4 -0.24,0.864 -0.384,1.392 l -0.312,1.104 h 2.784 z"
     id="path272" /><path
     d="m 139.721,37.752 v 12.744 h -4.656 V 37.752 h -4.704 v -4.056 h 14.064 v 4.056 z"
     id="path274" /><path
     d="m 150.661,36.604 c -0.109,0.264 -0.262,0.493 -0.456,0.687 -0.193,0.194 -0.423,0.346 -0.687,0.456 -0.265,0.11 -0.55,0.165 -0.858,0.165 -0.308,0 -0.594,-0.055 -0.857,-0.165 -0.265,-0.11 -0.493,-0.262 -0.688,-0.456 -0.194,-0.194 -0.346,-0.423 -0.456,-0.687 -0.11,-0.264 -0.165,-0.55 -0.165,-0.858 0,-0.308 0.055,-0.594 0.165,-0.858 0.11,-0.264 0.262,-0.493 0.456,-0.687 0.194,-0.194 0.423,-0.346 0.688,-0.456 0.264,-0.11 0.55,-0.165 0.857,-0.165 0.309,0 0.594,0.055 0.858,0.165 0.264,0.11 0.493,0.262 0.687,0.456 0.194,0.194 0.347,0.423 0.456,0.687 0.11,0.264 0.165,0.55 0.165,0.858 0,0.308 -0.054,0.594 -0.165,0.858 z m -0.32,-1.575 c -0.093,-0.222 -0.221,-0.415 -0.385,-0.579 -0.164,-0.164 -0.356,-0.292 -0.579,-0.384 -0.222,-0.092 -0.461,-0.138 -0.717,-0.138 -0.26,0 -0.5,0.046 -0.72,0.138 -0.22,0.092 -0.412,0.22 -0.576,0.384 -0.164,0.164 -0.292,0.357 -0.384,0.579 -0.092,0.222 -0.138,0.461 -0.138,0.717 0,0.26 0.046,0.5 0.138,0.72 0.092,0.22 0.22,0.412 0.384,0.576 0.164,0.164 0.356,0.292 0.576,0.384 0.22,0.092 0.46,0.138 0.72,0.138 0.256,0 0.495,-0.046 0.717,-0.138 0.223,-0.092 0.415,-0.22 0.579,-0.384 0.164,-0.164 0.292,-0.356 0.385,-0.576 0.092,-0.22 0.138,-0.46 0.138,-0.72 0,-0.256 -0.046,-0.495 -0.138,-0.717 z m -0.834,0.663 c -0.092,0.116 -0.214,0.196 -0.366,0.24 l 0.486,0.954 h -0.473 l -0.46,-0.912 h -0.454 v 0.912 h -0.402 v -2.364 h 1.035 c 0.104,0 0.202,0.014 0.296,0.042 0.094,0.028 0.176,0.071 0.245,0.129 0.069,0.058 0.126,0.132 0.167,0.222 0.042,0.09 0.063,0.197 0.063,0.321 0.001,0.188 -0.045,0.34 -0.137,0.456 z m -0.372,-0.696 c -0.072,-0.056 -0.162,-0.084 -0.271,-0.084 h -0.624 v 0.672 h 0.624 c 0.108,0 0.198,-0.027 0.271,-0.081 0.071,-0.054 0.107,-0.139 0.107,-0.255 0,-0.112 -0.036,-0.196 -0.107,-0.252 z"
     id="path276" /><path
     d="m 48.077,79.74 c -1.368,0.768 -2.977,1.152 -4.824,1.152 -1.536,0 -2.934,-0.33 -4.193,-0.99 -1.261,-0.66 -2.335,-1.566 -3.223,-2.718 -0.888,-1.152 -1.572,-2.52 -2.052,-4.104 -0.48,-1.584 -0.72,-3.3 -0.72,-5.148 0,-1.872 0.252,-3.605 0.756,-5.202 0.504,-1.596 1.206,-2.97 2.106,-4.122 0.899,-1.152 1.985,-2.058 3.258,-2.718 1.271,-0.66 2.664,-0.99 4.176,-0.99 3.407,0 6.084,1.345 8.028,4.032 l -2.232,1.692 c -0.816,-1.104 -1.656,-1.908 -2.52,-2.412 -0.864,-0.504 -1.98,-0.756 -3.349,-0.756 -1.08,0 -2.076,0.258 -2.988,0.774 -0.912,0.517 -1.691,1.23 -2.34,2.142 -0.647,0.913 -1.158,2.004 -1.529,3.276 -0.373,1.272 -0.559,2.677 -0.559,4.212 0,1.537 0.186,2.947 0.559,4.23 0.371,1.284 0.894,2.388 1.565,3.312 0.672,0.924 1.464,1.645 2.376,2.16 0.912,0.517 1.896,0.774 2.952,0.774 1.368,0 2.544,-0.288 3.528,-0.864 0.983,-0.576 1.884,-1.392 2.7,-2.448 l 1.943,1.692 c -0.91,1.248 -2.049,2.256 -3.418,3.024 z"
     id="path278" /><path
     d="m 75.15,73.098 c -0.504,1.596 -1.219,2.97 -2.143,4.122 -0.924,1.152 -2.034,2.052 -3.33,2.7 -1.296,0.648 -2.724,0.972 -4.283,0.972 -1.561,0 -2.982,-0.318 -4.267,-0.954 -1.285,-0.636 -2.382,-1.53 -3.294,-2.682 -0.912,-1.152 -1.614,-2.52 -2.105,-4.104 -0.492,-1.584 -0.738,-3.324 -0.738,-5.22 0,-1.896 0.252,-3.642 0.756,-5.238 0.504,-1.596 1.212,-2.97 2.124,-4.122 0.912,-1.152 2.016,-2.052 3.312,-2.7 1.297,-0.648 2.724,-0.972 4.284,-0.972 1.56,0 2.982,0.318 4.267,0.954 1.283,0.636 2.381,1.53 3.294,2.682 0.911,1.152 1.62,2.52 2.124,4.104 0.504,1.584 0.756,3.324 0.756,5.22 -10e-4,1.896 -0.253,3.642 -0.757,5.238 z M 72.503,63.63 c -0.396,-1.283 -0.942,-2.388 -1.638,-3.312 -0.696,-0.923 -1.512,-1.631 -2.448,-2.124 -0.936,-0.492 -1.956,-0.738 -3.06,-0.738 -1.08,0 -2.083,0.247 -3.006,0.738 -0.925,0.492 -1.723,1.188 -2.395,2.088 -0.672,0.9 -1.2,1.992 -1.584,3.276 -0.384,1.284 -0.576,2.718 -0.576,4.302 0,1.584 0.198,3.019 0.594,4.302 0.396,1.284 0.937,2.388 1.62,3.312 0.685,0.924 1.494,1.632 2.431,2.124 0.936,0.492 1.955,0.738 3.06,0.738 1.08,0 2.088,-0.246 3.024,-0.738 0.936,-0.492 1.739,-1.188 2.412,-2.088 0.671,-0.9 1.199,-1.992 1.584,-3.276 0.383,-1.283 0.575,-2.718 0.575,-4.302 0,-1.584 -0.196,-3.018 -0.593,-4.302 z"
     id="path280" /><path
     d="m 98.675,73.566 c -0.612,1.62 -1.458,2.947 -2.538,3.978 -1.08,1.032 -2.353,1.782 -3.816,2.25 -1.464,0.468 -3.036,0.702 -4.716,0.702 h -6.156 v -25.2 h 6.66 c 1.656,0 3.187,0.24 4.59,0.72 1.404,0.48 2.616,1.23 3.637,2.25 1.02,1.021 1.817,2.31 2.394,3.87 0.577,1.56 0.864,3.42 0.864,5.58 -10e-4,2.28 -0.308,4.23 -0.919,5.85 z M 94.517,60.408 C 93.005,58.704 90.796,57.852 87.893,57.852 H 84.257 V 77.94 h 3.708 c 1.367,0 2.592,-0.186 3.672,-0.558 1.08,-0.372 2.003,-0.966 2.771,-1.782 0.769,-0.815 1.355,-1.866 1.765,-3.15 0.407,-1.284 0.611,-2.826 0.611,-4.626 0,-3.24 -0.755,-5.712 -2.267,-7.416 z"
     id="path282" /><path
     d="m 105.136,80.496 v -25.2 h 15.229 v 2.556 h -12.42 v 7.92 h 7.2 v 2.556 h -7.2 v 9.612 h 12.96 v 2.556 z"
     id="path284" /><path
     d="m 142.468,67.173 c -1.08,1.2 -2.52,1.992 -4.319,2.375 l 5.544,10.947 h -3.24 l -5.4,-10.728 h -5.976 v 10.728 h -2.809 v -25.2 h 9.973 c 1.104,0 2.136,0.144 3.096,0.432 0.96,0.288 1.788,0.726 2.484,1.314 0.695,0.588 1.247,1.326 1.655,2.213 0.408,0.887 0.612,1.943 0.612,3.167 0,1.969 -0.54,3.553 -1.62,4.752 z m -2.502,-8.156 c -0.876,-0.777 -2.154,-1.166 -3.834,-1.166 h -7.056 v 9.36 h 6.696 c 1.872,0 3.258,-0.388 4.157,-1.166 0.9,-0.776 1.351,-1.954 1.351,-3.532 0.001,-1.553 -0.438,-2.718 -1.314,-3.496 z"
     id="path286" /><path
     d="m 149.667,80.496 v -25.2 h 15.229 v 2.556 h -12.42 v 7.92 h 7.2 v 2.556 h -7.2 v 9.612 h 12.96 v 2.556 z"
     id="path288" /><path
     d="m 187.035,80.496 -2.16,-6.408 h -10.403 l -2.196,6.408 h -2.88 l 8.748,-25.2 h 3.096 l 8.748,25.2 z M 181.24,63.252 c -0.144,-0.408 -0.294,-0.852 -0.45,-1.332 -0.156,-0.479 -0.306,-0.941 -0.45,-1.386 -0.144,-0.444 -0.27,-0.864 -0.378,-1.26 -0.107,-0.396 -0.197,-0.726 -0.27,-0.99 -0.072,0.264 -0.162,0.588 -0.271,0.972 -0.107,0.384 -0.233,0.805 -0.378,1.26 -0.144,0.456 -0.3,0.93 -0.468,1.422 -0.168,0.492 -0.324,0.954 -0.468,1.386 l -2.772,8.208 h 8.677 z"
     id="path290" /><path
     d="m 212.434,73.566 c -0.612,1.62 -1.458,2.947 -2.538,3.978 -1.08,1.032 -2.353,1.782 -3.816,2.25 -1.464,0.468 -3.036,0.702 -4.716,0.702 h -6.156 v -25.2 h 6.66 c 1.656,0 3.187,0.24 4.59,0.72 1.404,0.48 2.616,1.23 3.637,2.25 1.02,1.021 1.817,2.31 2.394,3.87 0.577,1.56 0.864,3.42 0.864,5.58 -0.001,2.28 -0.307,4.23 -0.919,5.85 z m -4.158,-13.158 c -1.512,-1.704 -3.721,-2.556 -6.624,-2.556 h -3.636 V 77.94 h 3.708 c 1.368,0 2.592,-0.186 3.672,-0.558 1.08,-0.372 2.004,-0.966 2.772,-1.782 0.768,-0.815 1.355,-1.866 1.764,-3.15 0.407,-1.284 0.612,-2.826 0.612,-4.626 0,-3.24 -0.757,-5.712 -2.268,-7.416 z"
     id="path292" /><path
     d="m 227.175,70.488 v 10.008 h -2.808 v -9.972 l -8.64,-15.228 h 3.204 l 4.031,7.236 c 0.504,0.912 1.014,1.854 1.53,2.826 0.516,0.972 0.954,1.831 1.314,2.574 0.359,-0.744 0.797,-1.602 1.313,-2.574 0.516,-0.972 1.026,-1.914 1.53,-2.826 l 4.032,-7.236 h 3.132 z"
     id="path294" /><path
     d="M 54.558,110.496 H 51.39 L 47.43,94.368 C 47.333,93.961 47.225,93.504 47.106,93 c -0.12,-0.504 -0.234,-1.008 -0.342,-1.512 -0.108,-0.504 -0.211,-1.002 -0.307,-1.494 -0.096,-0.492 -0.18,-0.93 -0.252,-1.314 -0.072,0.384 -0.156,0.816 -0.252,1.296 -0.096,0.48 -0.198,0.972 -0.306,1.476 -0.108,0.504 -0.223,1.008 -0.342,1.512 -0.121,0.504 -0.229,0.973 -0.324,1.404 l -3.96,16.128 h -3.097 l -5.04,-25.2 h 2.809 l 2.952,16.2 c 0.071,0.408 0.149,0.876 0.233,1.404 0.084,0.528 0.168,1.05 0.252,1.565 0.084,0.517 0.168,1.008 0.252,1.477 0.084,0.468 0.15,0.858 0.198,1.17 0.048,-0.312 0.12,-0.696 0.216,-1.152 0.096,-0.455 0.198,-0.941 0.307,-1.458 0.107,-0.516 0.222,-1.031 0.342,-1.548 0.12,-0.516 0.228,-0.978 0.324,-1.386 l 3.996,-16.272 h 3.023 l 3.996,16.272 c 0.096,0.408 0.204,0.87 0.324,1.386 0.12,0.517 0.233,1.032 0.342,1.548 0.108,0.517 0.21,1.003 0.306,1.458 0.096,0.456 0.168,0.841 0.217,1.152 0.048,-0.312 0.113,-0.702 0.197,-1.17 0.084,-0.469 0.168,-0.96 0.252,-1.477 0.084,-0.516 0.168,-1.037 0.252,-1.565 0.084,-0.528 0.162,-0.996 0.234,-1.404 l 2.952,-16.2 h 2.736 z"
     id="path296" /><path
     d="m 83.61,103.097 c -0.504,1.597 -1.219,2.971 -2.143,4.122 -0.924,1.152 -2.034,2.053 -3.33,2.7 -1.296,0.648 -2.724,0.973 -4.283,0.973 -1.561,0 -2.982,-0.319 -4.267,-0.954 -1.284,-0.636 -2.382,-1.53 -3.294,-2.683 -0.912,-1.151 -1.614,-2.52 -2.105,-4.104 -0.492,-1.584 -0.738,-3.324 -0.738,-5.22 0,-1.896 0.252,-3.642 0.756,-5.238 0.504,-1.596 1.212,-2.97 2.124,-4.122 0.912,-1.152 2.016,-2.052 3.312,-2.7 1.297,-0.648 2.724,-0.972 4.284,-0.972 1.56,0 2.982,0.318 4.267,0.954 1.283,0.636 2.381,1.53 3.294,2.682 0.911,1.152 1.62,2.52 2.124,4.104 0.504,1.584 0.756,3.325 0.756,5.22 -0.001,1.898 -0.253,3.643 -0.757,5.238 z M 80.963,93.63 c -0.396,-1.283 -0.942,-2.388 -1.638,-3.312 -0.696,-0.923 -1.512,-1.631 -2.448,-2.124 -0.936,-0.492 -1.956,-0.738 -3.06,-0.738 -1.08,0 -2.083,0.247 -3.006,0.738 -0.925,0.492 -1.723,1.188 -2.395,2.088 -0.672,0.9 -1.2,1.992 -1.584,3.276 -0.384,1.285 -0.576,2.718 -0.576,4.302 0,1.584 0.198,3.019 0.594,4.302 0.396,1.284 0.937,2.389 1.62,3.312 0.685,0.925 1.494,1.633 2.431,2.124 0.936,0.492 1.955,0.738 3.06,0.738 1.08,0 2.088,-0.246 3.024,-0.738 0.936,-0.491 1.739,-1.188 2.412,-2.088 0.671,-0.899 1.199,-1.991 1.584,-3.275 0.383,-1.284 0.575,-2.718 0.575,-4.302 0,-1.584 -0.196,-3.019 -0.593,-4.303 z"
     id="path298" /><path
     d="m 106.109,97.173 c -1.08,1.2 -2.52,1.992 -4.32,2.376 l 5.545,10.946 h -3.24 l -5.4,-10.728 h -5.976 v 10.728 h -2.809 v -25.2 h 9.973 c 1.104,0 2.136,0.144 3.096,0.432 0.96,0.288 1.788,0.726 2.484,1.314 0.695,0.588 1.247,1.326 1.655,2.213 0.408,0.887 0.612,1.943 0.612,3.167 0,1.969 -0.54,3.553 -1.62,4.752 z m -2.502,-8.156 c -0.876,-0.777 -2.154,-1.166 -3.834,-1.166 h -7.056 v 9.36 h 6.695 c 1.872,0 3.259,-0.388 4.158,-1.165 0.9,-0.776 1.351,-1.954 1.351,-3.533 0,-1.553 -0.438,-2.718 -1.314,-3.496 z"
     id="path300" /><path
     d="m 128.358,110.496 -7.452,-13.428 -4.788,6.191 v 7.236 h -2.809 v -25.2 h 2.809 v 10.98 3.384 c 0.168,-0.239 0.401,-0.569 0.702,-0.99 0.3,-0.419 0.63,-0.869 0.989,-1.35 0.36,-0.479 0.714,-0.948 1.062,-1.404 0.348,-0.455 0.653,-0.852 0.918,-1.188 l 7.308,-9.433 h 3.061 l -7.38,9.469 8.784,15.731 h -3.204 z"
     id="path302" /><path
     d="m 150.263,106.644 c -0.373,0.863 -0.918,1.607 -1.639,2.231 -0.72,0.624 -1.596,1.116 -2.628,1.477 -1.032,0.359 -2.208,0.54 -3.527,0.54 -1.729,0 -3.318,-0.331 -4.771,-0.99 -1.452,-0.66 -2.682,-1.494 -3.689,-2.502 l 1.871,-2.088 c 0.96,0.912 1.992,1.644 3.097,2.195 1.104,0.553 2.304,0.828 3.6,0.828 1.68,0 3.006,-0.384 3.979,-1.151 0.972,-0.769 1.458,-1.824 1.458,-3.169 0,-0.575 -0.097,-1.104 -0.288,-1.584 -0.192,-0.479 -0.522,-0.923 -0.99,-1.332 -0.468,-0.407 -1.086,-0.81 -1.854,-1.205 -0.768,-0.396 -1.728,-0.798 -2.88,-1.206 -1.368,-0.479 -2.514,-0.966 -3.438,-1.458 -0.925,-0.492 -1.669,-1.02 -2.232,-1.584 -0.563,-0.563 -0.972,-1.193 -1.224,-1.891 -0.252,-0.696 -0.378,-1.5 -0.378,-2.412 0,-1.008 0.191,-1.908 0.576,-2.7 0.383,-0.792 0.918,-1.47 1.602,-2.034 0.684,-0.563 1.512,-0.99 2.484,-1.278 0.972,-0.288 2.046,-0.432 3.222,-0.432 1.68,0 3.114,0.24 4.302,0.72 1.188,0.48 2.31,1.14 3.366,1.98 l -1.8,2.196 c -0.912,-0.768 -1.83,-1.35 -2.754,-1.746 -0.925,-0.396 -2.022,-0.594 -3.294,-0.594 -0.864,0 -1.608,0.103 -2.232,0.306 -0.624,0.204 -1.134,0.474 -1.53,0.81 -0.396,0.336 -0.684,0.726 -0.863,1.17 -0.181,0.444 -0.271,0.918 -0.271,1.422 0,0.528 0.072,1.002 0.216,1.422 0.145,0.42 0.433,0.828 0.864,1.225 0.432,0.396 1.038,0.786 1.818,1.17 0.779,0.384 1.806,0.805 3.078,1.26 1.392,0.504 2.556,1.008 3.491,1.512 0.937,0.504 1.687,1.057 2.25,1.656 0.564,0.6 0.966,1.26 1.206,1.979 0.24,0.721 0.36,1.549 0.36,2.484 0,0.985 -0.187,1.909 -0.558,2.773 z"
     id="path304" /><path
     d="m 173.483,96.15 c -0.42,0.972 -1.002,1.788 -1.745,2.448 -0.745,0.66 -1.645,1.158 -2.7,1.493 -1.057,0.337 -2.209,0.504 -3.456,0.504 h -6.12 v 9.9 h -2.809 v -25.2 h 9.433 c 1.152,0 2.214,0.15 3.186,0.45 0.973,0.3 1.818,0.762 2.538,1.386 0.721,0.624 1.284,1.41 1.692,2.358 0.407,0.948 0.612,2.058 0.612,3.33 0,1.249 -0.211,2.359 -0.631,3.331 z m -3.546,-6.984 c -0.912,-0.876 -2.231,-1.314 -3.96,-1.314 h -6.516 V 98.04 h 6.156 c 3.791,0 5.688,-1.703 5.688,-5.112 0,-1.632 -0.456,-2.886 -1.368,-3.762 z"
     id="path306" /><path
     d="m 193.013,110.496 -2.16,-6.408 H 180.45 l -2.196,6.408 h -2.88 l 8.748,-25.2 h 3.096 l 8.748,25.2 z m -5.796,-17.244 c -0.144,-0.408 -0.294,-0.852 -0.45,-1.332 -0.156,-0.479 -0.306,-0.941 -0.45,-1.386 -0.144,-0.444 -0.27,-0.864 -0.378,-1.26 -0.107,-0.396 -0.197,-0.726 -0.27,-0.99 -0.072,0.264 -0.162,0.588 -0.271,0.972 -0.107,0.384 -0.233,0.805 -0.378,1.26 -0.144,0.456 -0.3,0.93 -0.468,1.422 -0.168,0.492 -0.324,0.954 -0.468,1.386 l -2.772,8.208 h 8.677 z"
     id="path308" /><path
     d="m 214.433,109.74 c -1.368,0.768 -2.977,1.152 -4.824,1.152 -1.536,0 -2.934,-0.331 -4.194,-0.99 -1.26,-0.66 -2.334,-1.566 -3.222,-2.718 -0.888,-1.152 -1.572,-2.521 -2.052,-4.104 -0.48,-1.584 -0.72,-3.3 -0.72,-5.147 0,-1.872 0.252,-3.605 0.756,-5.203 0.504,-1.596 1.206,-2.97 2.105,-4.122 0.9,-1.152 1.986,-2.058 3.258,-2.718 1.272,-0.66 2.664,-0.99 4.177,-0.99 3.407,0 6.084,1.345 8.027,4.032 l -2.231,1.692 c -0.816,-1.104 -1.656,-1.908 -2.521,-2.412 -0.863,-0.504 -1.979,-0.756 -3.348,-0.756 -1.08,0 -2.076,0.258 -2.988,0.774 -0.912,0.517 -1.691,1.23 -2.34,2.142 -0.647,0.913 -1.158,2.004 -1.53,3.276 -0.372,1.272 -0.558,2.677 -0.558,4.212 0,1.536 0.186,2.946 0.558,4.229 0.372,1.284 0.895,2.389 1.566,3.312 0.671,0.923 1.464,1.644 2.376,2.16 0.912,0.516 1.896,0.773 2.952,0.773 1.368,0 2.543,-0.288 3.527,-0.864 0.984,-0.575 1.885,-1.392 2.7,-2.447 l 1.944,1.691 c -0.91,1.25 -2.05,2.258 -3.418,3.026 z"
     id="path310" /><path
     d="m 223.108,110.496 v -25.2 h 15.229 v 2.556 h -12.42 v 7.92 h 7.2 v 2.556 h -7.2 v 9.612 h 12.96 v 2.556 z"
     id="path312" /><path
     d="m 258.731,106.644 c -0.373,0.863 -0.918,1.607 -1.639,2.231 -0.72,0.624 -1.596,1.116 -2.628,1.477 -1.032,0.359 -2.208,0.54 -3.527,0.54 -1.729,0 -3.318,-0.331 -4.771,-0.99 -1.452,-0.66 -2.682,-1.494 -3.689,-2.502 l 1.871,-2.088 c 0.96,0.912 1.992,1.644 3.097,2.195 1.104,0.553 2.304,0.828 3.6,0.828 1.68,0 3.006,-0.384 3.979,-1.151 0.972,-0.769 1.458,-1.824 1.458,-3.169 0,-0.575 -0.097,-1.104 -0.288,-1.584 -0.192,-0.479 -0.522,-0.923 -0.99,-1.332 -0.468,-0.407 -1.086,-0.81 -1.854,-1.205 -0.768,-0.396 -1.728,-0.798 -2.88,-1.206 -1.368,-0.479 -2.514,-0.966 -3.438,-1.458 -0.925,-0.492 -1.669,-1.02 -2.232,-1.584 -0.563,-0.563 -0.972,-1.193 -1.224,-1.891 -0.252,-0.696 -0.378,-1.5 -0.378,-2.412 0,-1.008 0.191,-1.908 0.576,-2.7 0.383,-0.792 0.918,-1.47 1.602,-2.034 0.684,-0.563 1.512,-0.99 2.484,-1.278 0.972,-0.288 2.046,-0.432 3.222,-0.432 1.68,0 3.114,0.24 4.302,0.72 1.188,0.48 2.31,1.14 3.366,1.98 l -1.8,2.196 c -0.912,-0.768 -1.83,-1.35 -2.754,-1.746 -0.925,-0.396 -2.022,-0.594 -3.294,-0.594 -0.864,0 -1.608,0.103 -2.232,0.306 -0.624,0.204 -1.134,0.474 -1.53,0.81 -0.396,0.336 -0.684,0.726 -0.863,1.17 -0.181,0.444 -0.271,0.918 -0.271,1.422 0,0.528 0.072,1.002 0.216,1.422 0.145,0.42 0.433,0.828 0.864,1.225 0.432,0.396 1.038,0.786 1.818,1.17 0.779,0.384 1.806,0.805 3.078,1.26 1.392,0.504 2.556,1.008 3.491,1.512 0.937,0.504 1.687,1.057 2.25,1.656 0.564,0.6 0.966,1.26 1.206,1.979 0.24,0.721 0.36,1.549 0.36,2.484 -10e-4,0.985 -0.187,1.909 -0.558,2.773 z"
     id="path314" /></g></svg>