<?xml version="1.0" encoding="UTF-8" standalone="no"?>
<svg
   xmlns:dc="http://purl.org/dc/elements/1.1/"
   xmlns:cc="http://creativecommons.org/ns#"
   xmlns:svg="http://www.w3.org/2000/svg"
   xmlns="http://www.w3.org/2000/svg"
   xml:space="preserve"
   enable-background="new 0 0 500 120"
   viewBox="-130 0 500 120"
   y="0px"
   x="0px"
   id="logo-buildinfo"
   version="1.1">
   <defs
   id="defs330" />

<g
   id="g622"
   transform="matrix(0.194425,0,0,0.194425,-212.61845,-36.909536)"><path
     id="path612"
     d="m 1156.53,521.18 c 0.77,0.07 1.54,0.13 2.31,0.2 -0.78,-0.07 -1.55,-0.14 -2.31,-0.2 0,0 0,0 0,0 z"
     style="fill:#cb2026" /><path
     id="path614"
     d="m 1159.47,521.43 c 0,0 0,0 0,0 -0.06,-0.01 -0.13,-0.01 -0.19,-0.02 0.06,0.01 0.13,0.02 0.19,0.02 z"
     style="fill:#cb2026" /><path
     id="path616"
     d="m 1013.89,589.14 c -11.11,2.77 -22.19,5.7 -33.24,8.77 -4.92,1.37 -10.1,2.1 -15.46,2.1 -19.38,0 -36.52,-9.57 -46.96,-24.25 -0.04,-0.06 -0.08,-0.12 -0.12,-0.17 -0.19,-0.27 -0.38,-0.55 -0.57,-0.83 -0.11,-0.17 -0.23,-0.33 -0.34,-0.5 -0.12,-0.18 -0.23,-0.35 -0.35,-0.53 -0.19,-0.28 -0.37,-0.57 -0.55,-0.86 -0.04,-0.07 -0.09,-0.14 -0.13,-0.21 -5.47,-8.82 -8.64,-19.22 -8.64,-30.36 0,-0.67 0.02,-1.34 0.04,-2.01 -3.87,45.22 16.61,87.05 50.67,112.36 17.77,13.2 39.22,21.91 62.85,24.26 67.99,6.75 128.74,-41.67 137.82,-108.84 0.2,-1.51 0.38,-3.02 0.54,-4.53 -49.03,4.67 -97.61,13.65 -145.56,25.6 z"
     style="fill:#cb2026" /><path
     id="path618"
     d="m 1021.1,676.9 c -23.63,-2.35 -45.08,-11.06 -62.85,-24.26 -34.07,-25.31 -54.54,-67.14 -50.67,-112.36 0.12,-3.64 0.59,-7.2 1.36,-10.64 5.76,-25.76 28.76,-45.01 56.26,-45.01 7.6,0 14.85,1.47 21.49,4.14 9.2,2.88 18.45,5.56 27.75,8.05 46.48,12.46 94.09,20.23 142.1,24.35 0,0 0,0 0,-0.01 -65.67,-6.01 -127.88,-32.24 -178.04,-75.11 l 0.01,0.02 c -2.19,-1.87 -4.43,-3.67 -6.74,-5.38 -21.06,-15.66 -47.16,-24.93 -75.42,-24.93 -69.84,0 -126.46,56.59 -126.52,126.41 0,0.05 0,0.1 0,0.15 0,0.03 0,0.05 0,0.08 v 0 c 0,107.91 87.48,195.39 195.39,195.39 v 0 c 99.22,0 181.16,-73.95 193.72,-169.74 -9.11,67.18 -69.85,115.6 -137.84,108.85 z"
     style="fill:#88171a" /><path
     id="path620"
     d="m 965.2,347.01 v 0 c -20.76,0 -40.76,3.24 -59.53,9.24 -78.73,25.16 -135.76,98.87 -135.86,185.93 0.06,-69.83 56.68,-126.41 126.52,-126.41 28.26,0 54.36,9.27 75.42,24.93 l 6.73,5.36 c 50.16,42.87 112.38,69.1 178.04,75.11 0.77,0.07 1.54,0.14 2.31,0.2 0.15,0.01 0.3,0.03 0.45,0.04 0.06,0.01 0.13,0.01 0.19,0.01 -10.46,-98.04 -93.45,-174.41 -194.27,-174.41 z"
     style="fill:#cb2026" /></g><path
   style="stroke-width:1.48560846"
   d="m 45.525793,51.504961 -3.4169,-6.982359 H 39.73192 v 7.13092 H 34.086608 V 30.557883 h 9.359333 c 1.188486,0 2.228412,0.14856 3.268338,0.297121 0.891365,0.148561 1.78273,0.594244 2.525535,1.188487 0.891365,0.594243 1.485608,1.337048 1.78273,2.228413 0.445682,1.039925 0.594243,2.079851 0.594243,3.119777 0,1.337048 -0.297122,2.674095 -1.039926,3.862582 -0.742804,1.039926 -1.634169,1.78273 -2.822656,2.228413 l 4.159704,8.022285 z M 45.228671,35.906073 C 44.634427,35.46039 44.040184,35.163269 43.29738,35.311829 h -3.56546 v 4.605387 h 3.416899 c 0.742804,0.14856 1.485608,-0.148561 2.079852,-0.594244 0.445682,-0.445682 0.594243,-1.039926 0.594243,-1.78273 0,-0.594243 -0.148561,-1.188487 -0.594243,-1.634169 z"
   id="path4" /><path
   style="stroke-width:1.48560846"
   d="M 55.479369,51.504961 V 30.557883 H 71.52394 V 35.46039 H 61.273242 v 2.822656 h 6.239555 v 4.753947 h -6.239555 v 3.56546 h 10.547819 v 4.902508 z"
   id="path6" /><path
   style="stroke-width:1.48560846"
   d="m 92.9167,46.00821 c -0.445682,1.188487 -1.188486,2.376973 -2.228412,3.268338 -1.039926,0.891365 -2.228413,1.485609 -3.56546,1.782731 -1.63417,0.445682 -3.268339,0.594243 -4.902508,0.594243 H 75.386521 V 30.557883 h 7.279482 c 1.485608,0 2.971216,0.14856 4.456825,0.445682 1.337047,0.445683 2.525534,0.891365 3.56546,1.78273 0.891365,0.891365 1.634169,1.931291 2.228412,3.268339 0.594244,1.634169 0.742805,3.268338 0.742805,4.902507 0,1.63417 -0.297122,3.4169 -0.742805,5.051069 z M 87.419949,38.580168 C 87.271389,37.985925 86.974267,37.391681 86.677145,36.797438 86.231463,36.351755 85.78578,36.054634 85.191537,35.757512 84.448733,35.46039 83.705928,35.46039 82.963124,35.46039 h -1.485608 v 10.993502 h 1.188487 c 0.742804,0 1.485608,-0.14856 2.228412,-0.297121 0.594243,-0.148561 1.188487,-0.445683 1.634169,-0.891365 0.445683,-0.445683 0.742805,-1.039926 0.891365,-1.634169 0.148561,-0.891366 0.297122,-1.782731 0.297122,-2.674096 -0.148561,-0.742804 -0.148561,-1.634169 -0.297122,-2.376973 z"
   id="path8" /><path
   style="stroke-width:1.48560846"
   d="m 118.17204,51.504961 v -8.319407 h -6.53667 v 8.319407 h -5.94244 V 30.557883 h 5.94244 v 7.725163 h 6.53667 v -7.725163 h 5.94244 v 20.947078 z"
   id="path10" /><path
   style="stroke-width:1.48560846"
   d="m 141.94178,51.504961 -1.18849,-3.714021 h -6.23955 l -1.18849,3.714021 h -6.23956 l 7.57661,-20.947078 h 5.94243 l 7.5766,20.947078 z m -2.97122,-9.656455 c -0.14856,-0.742804 -0.29712,-1.337047 -0.44568,-1.78273 -0.14856,-0.445682 -0.29712,-0.891365 -0.44568,-1.337047 -0.14857,-0.445683 -0.29713,-0.742804 -0.29713,-1.039926 0,-0.297122 -0.14856,-0.594243 -0.14856,-1.039926 0,0.297122 -0.14856,0.742804 -0.14856,1.039926 0,0.297122 -0.29712,0.742804 -0.44568,1.039926 -0.14856,0.297121 -0.14856,0.891365 -0.29712,1.485608 -0.14856,0.594244 -0.29712,1.039926 -0.44568,1.78273 l -0.44569,1.337048 h 3.4169 z"
   id="path12" /><path
   style="stroke-width:1.48560846"
   d="m 159.17484,35.608951 v 15.89601 h -5.79388 v -15.89601 h -5.79387 v -5.051068 h 17.53018 v 5.051068 z"
   id="path14" /><path
   style="stroke-width:1.48560846"
   d="m 171.80251,33.529099 c -0.14856,0.297122 -0.29713,0.445683 -0.44569,0.742805 -0.14856,0.14856 -0.44568,0.297121 -0.59424,0.445682 -0.59424,0.148561 -1.18849,0.148561 -1.63417,0 -0.29712,-0.148561 -0.44568,-0.297122 -0.59424,-0.445682 -0.14856,-0.148561 -0.29712,-0.445683 -0.44568,-0.742805 -0.14857,-0.297121 -0.14857,-0.594243 -0.14857,-0.891365 0,-0.297121 0,-0.594243 0.14857,-0.891365 0,-0.148561 0.14856,-0.445682 0.29712,-0.594243 0.14856,-0.148561 0.44568,-0.297122 0.59424,-0.445683 0.59424,-0.14856 1.18849,-0.14856 1.63417,0 0.29712,0.148561 0.44568,0.297122 0.59424,0.445683 0.14856,0.148561 0.29712,0.445682 0.44569,0.742804 0.14856,0.297122 0.14856,0.594244 0.14856,0.891365 0.14856,0.148561 0.14856,0.445683 0,0.742804 z m -0.29713,-1.485608 c -0.14856,-0.148561 -0.14856,-0.445683 -0.29712,-0.594243 -0.59424,-0.445683 -1.33704,-0.594244 -1.93129,-0.297122 -0.14856,0.148561 -0.44568,0.148561 -0.59424,0.297122 -0.14856,0.14856 -0.29712,0.297121 -0.29712,0.594243 -0.14856,0.148561 -0.14856,0.445683 -0.14856,0.742804 0,0.297122 0,0.445683 0.14856,0.742804 0.14856,0.148561 0.14856,0.445683 0.29712,0.594244 0.14856,0.148561 0.29712,0.297121 0.59424,0.297121 0.44568,0.148561 0.89137,0.148561 1.33705,0 0.14856,-0.14856 0.44568,-0.14856 0.59424,-0.297121 0.14856,-0.148561 0.29712,-0.297122 0.29712,-0.594244 0.14857,-0.14856 0.14857,-0.445682 0.14857,-0.742804 0,-0.297121 -0.14857,-0.594243 -0.14857,-0.742804 z m -0.89136,0.594243 c -0.14856,0.148561 -0.14856,0.148561 -0.29712,0.297122 l 0.44568,0.891365 h -0.44568 l -0.44568,-0.891365 h -0.44569 v 0.891365 h -0.44568 v -2.376973 h 1.03993 0.29712 c 0.14856,0 0.14856,0 0.29712,0.14856 0.14856,0 0.14856,0.148561 0.14856,0.297122 0,0.148561 0,0.148561 0,0.297122 0,0.148561 0,0.297122 -0.14856,0.445682 z m -0.29712,-0.594243 c -0.14856,0 -0.14856,-0.148561 -0.29712,-0.148561 h -0.59425 v 0.594244 h 0.59425 c 0.14856,0 0.14856,0 0.29712,0 0.14856,0 0.14856,-0.148561 0.14856,-0.297122 0,0 0,-0.148561 -0.14856,-0.148561 z"
   id="path16" /><path
   style="stroke-width:1.48560846"
   d="m 46.120036,63.835511 c -0.742804,-1.485609 -2.228413,-2.376974 -3.862582,-2.228413 -3.119778,0 -5.051069,2.822656 -5.051069,6.685238 0,3.862582 1.782731,6.685238 5.051069,6.685238 1.78273,0 3.416899,-1.039926 4.159704,-2.674095 l 3.56546,2.079851 c -1.337048,3.119778 -4.456825,5.051069 -7.873725,4.753947 -5.496751,0 -9.210772,-4.308264 -9.210772,-10.993502 0,-6.536677 3.862582,-10.993502 9.359333,-10.993502 3.268339,-0.148561 6.388116,1.634169 7.725164,4.753947 z"
   id="path18" /><path
   style="stroke-width:1.48560846"
   d="m 61.570363,79.137277 c -5.793873,0 -9.210772,-4.456825 -9.210772,-10.993502 0,-6.536677 3.416899,-10.993502 9.210772,-10.993502 5.793873,0 9.210772,4.456825 9.210772,10.993502 0,6.536677 -3.416899,10.993502 -9.210772,10.993502 z m 0,-17.67874 c -3.416899,0 -4.753947,2.971217 -4.753947,6.685238 0,3.714021 1.485609,6.685238 4.753947,6.685238 3.268339,0 4.902508,-2.971217 4.902508,-6.685238 0,-3.714021 -1.485608,-6.685238 -4.902508,-6.685238 z"
   id="path20" /><path
   style="stroke-width:1.48560846"
   d="M 81.477516,78.840156 H 75.0894 V 57.595955 h 6.685237 c 6.090995,0 10.54782,2.822656 10.54782,10.54782 0,7.576603 -5.496751,10.696381 -10.844941,10.696381 z m 0.148561,-17.084497 h -2.228413 v 12.924793 h 2.079852 c 4.456825,0 6.388116,-2.674095 6.388116,-6.536677 0,-4.308264 -1.78273,-6.388116 -6.239555,-6.388116 z"
   id="path22" /><path
   style="stroke-width:1.48560846"
   d="M 96.482161,78.840156 V 57.595955 h 14.707519 v 4.159704 h -10.39925 v 3.714021 h 6.09099 v 4.159704 h -6.09099 v 5.051068 h 10.84494 v 4.159704 z"
   id="path24" /><path
   style="stroke-width:1.48560846"
   d="m 128.42274,78.840156 -3.71402,-7.576603 h -4.30826 v 7.576603 h -4.15971 V 57.595955 h 9.80502 c 4.01114,0 7.27948,2.228413 7.27948,6.685238 0.29712,2.822656 -1.48561,5.348191 -4.01114,6.239556 l 4.01114,8.319407 z m -2.52553,-17.084497 h -5.49675 v 5.496751 h 5.49675 c 1.93129,0 2.97121,-0.891365 2.97121,-2.822656 0,-1.931291 -1.03992,-2.674095 -2.97121,-2.674095 z"
   id="path26" /><path
   style="stroke-width:1.48560846"
   d="M 137.78207,78.840156 V 57.595955 h 14.70753 v 4.159704 h -10.39926 v 3.714021 h 6.09099 v 4.159704 h -6.09099 v 5.051068 h 10.84494 v 4.159704 z"
   id="path28" /><path
   style="stroke-width:1.48560846"
   d="m 171.50538,78.840156 -1.63416,-4.753947 h -7.72517 l -1.63417,4.753947 h -4.60538 l 8.02228,-21.244201 h 4.15971 l 8.02228,21.244201 z m -4.45682,-12.627672 c -0.44568,-1.188487 -0.89137,-2.525534 -1.03993,-3.268338 -0.29712,0.742804 -0.59424,2.079851 -1.03992,3.268338 l -1.33705,3.862582 h 4.75395 z"
   id="path30" /><path
   style="stroke-width:1.48560846"
   d="m 186.36147,78.840156 h -6.38812 V 57.595955 h 6.68524 c 6.09099,0 10.54782,2.822656 10.54782,10.54782 0,7.576603 -5.34819,10.696381 -10.84494,10.696381 z m 0.14856,-17.084497 h -2.22841 v 12.924793 h 2.07985 c 4.45682,0 6.53668,-2.674095 6.53668,-6.536677 0,-4.308264 -1.9313,-6.388116 -6.38812,-6.388116 z"
   id="path32" /><path
   style="stroke-width:1.48560846"
   d="m 210.1312,70.372188 v 8.467968 h -4.1597 v -8.319407 l -8.02229,-12.924794 h 4.90251 l 2.97122,5.051069 c 0.7428,1.337048 1.93129,3.416899 2.22841,4.159704 0.44568,-0.742805 1.48561,-2.822656 2.37697,-4.159704 l 2.97122,-5.051069 h 4.75395 z"
   id="path34" /><path
   style="stroke-width:1.48560846"
   d="M 51.765348,106.02679 H 47.605644 L 45.08011,95.033287 C 44.782988,93.8448 44.485867,92.210631 44.337306,91.319266 44.188745,92.06207 43.891623,93.69624 43.594502,95.033287 L 40.920406,105.87823 H 37.057825 L 32.600999,84.782589 h 4.456826 l 1.78273,10.399259 c 0.148561,1.039926 0.445682,2.674095 0.445682,3.416899 0.148561,-0.891365 0.445683,-2.525534 0.742804,-3.416899 l 2.525535,-10.399259 h 3.714021 l 2.525534,10.399259 c 0.297122,1.039926 0.594243,2.674095 0.742804,3.416899 0.148561,-0.891365 0.297122,-2.525534 0.445683,-3.416899 l 1.78273,-10.399259 h 4.308264 z"
   id="path36" /><path
   style="stroke-width:1.48560846"
   d="m 67.958479,106.32391 c -5.793872,0 -9.210772,-4.45682 -9.210772,-10.993501 0,-6.536677 3.4169,-10.993502 9.210772,-10.993502 5.793873,0 9.210772,4.456825 9.210772,10.993502 0,6.536681 -3.416899,10.993501 -9.210772,10.993501 z m 0,-17.678739 c -3.416899,0 -4.902507,2.971217 -4.902507,6.685238 0,3.714021 1.485608,6.685241 4.902507,6.685241 3.4169,0 4.902508,-2.97122 4.902508,-6.685241 0,-3.714021 -1.485608,-6.685238 -4.902508,-6.685238 z"
   id="path38" /><path
   style="stroke-width:1.48560846"
   d="m 93.659505,106.02679 -3.714021,-7.576604 h -4.308265 v 7.576604 H 81.477516 V 84.782589 h 9.805015 c 4.011143,0 7.279481,2.228413 7.279481,6.685238 0.297122,2.822656 -1.485608,5.34819 -4.011142,6.239555 l 4.011142,8.319408 z M 91.13397,88.942293 h -5.496751 v 5.496751 h 5.496751 c 1.931291,0 2.971217,-0.891365 2.971217,-2.822656 0,-1.931291 -1.039926,-2.674095 -2.971217,-2.674095 z"
   id="path40" /><path
   style="stroke-width:1.48560846"
   d="m 116.38931,106.02679 -5.79387,-10.250699 -3.4169,4.011143 v 6.239556 h -4.1597 V 84.782589 h 4.1597 v 6.090995 c 0,0.742804 0,2.674095 0,3.416899 0.44568,-0.742804 1.03993,-1.485608 1.63417,-2.228413 l 5.94243,-7.279481 h 5.05107 l -6.23955,7.279481 7.72516,13.96472 z"
   id="path42" /><path
   style="stroke-width:1.48560846"
   d="m 130.94828,106.32391 c -3.26834,0.14856 -6.23956,-1.33705 -8.17085,-3.86258 l 2.97122,-2.674096 c 1.33704,1.634166 3.26833,2.525536 5.49675,2.376976 2.52553,0 3.71402,-0.74281 3.71402,-2.228415 0,-1.337048 -0.74281,-1.931291 -4.75395,-2.822656 -4.01114,-0.891365 -6.53668,-2.228413 -6.53668,-6.239555 0,-3.862582 3.4169,-6.239556 7.57661,-6.239556 2.97121,-0.14856 5.79387,1.039926 7.72516,3.268339 l -3.26834,2.822656 c -1.18848,-1.337048 -2.97121,-2.228413 -4.75394,-2.228413 -2.22842,0 -2.97122,1.039926 -2.97122,1.931291 0,1.337048 0.89136,1.78273 4.30826,2.525534 3.4169,0.742805 7.13092,1.931291 7.13092,6.536677 -0.29712,4.159708 -2.82265,6.833798 -8.46796,6.833798 z"
   id="path44" /><path
   style="stroke-width:1.48560846"
   d="m 152.4896,98.450186 h -4.60539 v 7.576604 h -4.1597 V 84.782589 h 9.21077 c 4.01114,0 7.27948,2.228413 7.27948,6.685238 0,4.902508 -3.26834,6.982359 -7.72516,6.982359 z m 0.29712,-9.507893 h -4.90251 v 5.496751 h 4.90251 c 1.93129,0 2.97122,-0.891365 2.97122,-2.822656 0,-1.931291 -1.03993,-2.674095 -2.97122,-2.674095 z"
   id="path46" /><path
   style="stroke-width:1.48560846"
   d="m 176.11077,106.02679 -1.63417,-4.75395 h -7.72516 l -1.63417,4.75395 h -4.45683 l 7.87373,-21.244201 h 4.1597 l 8.02229,21.244201 z m -4.45682,-12.627672 c -0.44569,-1.188487 -0.89137,-2.525534 -1.03993,-3.268339 -0.14856,0.742805 -0.59424,2.079852 -1.03993,3.268339 l -1.33704,3.862582 h 4.75394 z"
   id="path48" /><path
   style="stroke-width:1.48560846"
   d="m 196.01792,91.022144 c -0.7428,-1.485608 -2.22841,-2.376973 -3.86258,-2.228412 -3.11978,0 -5.05107,2.822656 -5.05107,6.685238 0,3.862582 1.78273,6.68524 5.05107,6.68524 1.78273,0 3.4169,-1.03993 4.15971,-2.674098 l 3.56546,2.079848 c -1.33705,3.11978 -4.45683,5.05107 -7.87373,4.75395 -5.49675,0 -9.21077,-4.30826 -9.21077,-10.993501 0,-6.388116 3.86258,-10.993502 9.35933,-10.993502 3.26834,-0.148561 6.38812,1.634169 7.72517,4.753947 z"
   id="path50" /><path
   style="stroke-width:1.48560846"
   d="M 204.18877,106.02679 V 84.782589 h 14.70752 v 4.159704 h -10.39926 v 3.714021 h 6.091 v 4.011142 h -6.091 v 5.199634 h 10.99351 v 4.1597 z"
   id="path52" /><path
   style="stroke-width:1.48560846"
   d="m 230.6326,106.32391 c -3.26834,0.14856 -6.23956,-1.33705 -8.17085,-3.86258 l 3.11978,-2.674096 c 1.33705,1.634166 3.26834,2.525536 5.34819,2.376976 2.52554,0 3.71402,-0.74281 3.71402,-2.228415 0,-1.337048 -0.7428,-1.931291 -4.75395,-2.822656 -4.01114,-0.891365 -6.68523,-2.228413 -6.68523,-6.388116 0,-3.862582 3.4169,-6.239555 7.5766,-6.239555 2.97122,-0.148561 5.79387,1.188486 7.72516,3.268338 l -2.97121,2.971217 c -1.18849,-1.337048 -2.97122,-2.228413 -4.75395,-2.228413 -2.22841,0 -2.97122,1.039926 -2.97122,1.931291 0,1.337048 0.89137,1.78273 4.30827,2.525534 3.4169,0.742805 7.13092,1.931291 7.13092,6.536677 -0.29712,4.159708 -2.82266,6.833798 -8.61653,6.833798 z"
   id="path54" /></svg>