<?xml version="1.0" encoding="UTF-8" standalone="no"?>
<svg
   xmlns:dc="http://purl.org/dc/elements/1.1/"
   xmlns:cc="http://creativecommons.org/ns#"
   xmlns:svg="http://www.w3.org/2000/svg"
   xmlns="http://www.w3.org/2000/svg"
   version="1.1"
   id="logo-buildinfo"
   x="0px"
   y="0px"
   viewBox="-130 0 500 120"
   enable-background="new 0 0 500 120"
   xml:space="preserve">
   <defs
   id="defs330" />


<g
   transform="matrix(0.194425,0,0,0.194425,-212.61845,-36.909536)"
   id="g622"><path
     style="fill:#cb2026"
     d="m 1156.53,521.18 c 0.77,0.07 1.54,0.13 2.31,0.2 -0.78,-0.07 -1.55,-0.14 -2.31,-0.2 0,0 0,0 0,0 z"
     id="path612" /><path
     style="fill:#cb2026"
     d="m 1159.47,521.43 c 0,0 0,0 0,0 -0.06,-0.01 -0.13,-0.01 -0.19,-0.02 0.06,0.01 0.13,0.02 0.19,0.02 z"
     id="path614" /><path
     style="fill:#cb2026"
     d="m 1013.89,589.14 c -11.11,2.77 -22.19,5.7 -33.24,8.77 -4.92,1.37 -10.1,2.1 -15.46,2.1 -19.38,0 -36.52,-9.57 -46.96,-24.25 -0.04,-0.06 -0.08,-0.12 -0.12,-0.17 -0.19,-0.27 -0.38,-0.55 -0.57,-0.83 -0.11,-0.17 -0.23,-0.33 -0.34,-0.5 -0.12,-0.18 -0.23,-0.35 -0.35,-0.53 -0.19,-0.28 -0.37,-0.57 -0.55,-0.86 -0.04,-0.07 -0.09,-0.14 -0.13,-0.21 -5.47,-8.82 -8.64,-19.22 -8.64,-30.36 0,-0.67 0.02,-1.34 0.04,-2.01 -3.87,45.22 16.61,87.05 50.67,112.36 17.77,13.2 39.22,21.91 62.85,24.26 67.99,6.75 128.74,-41.67 137.82,-108.84 0.2,-1.51 0.38,-3.02 0.54,-4.53 -49.03,4.67 -97.61,13.65 -145.56,25.6 z"
     id="path616" /><path
     style="fill:#88171a"
     d="m 1021.1,676.9 c -23.63,-2.35 -45.08,-11.06 -62.85,-24.26 -34.07,-25.31 -54.54,-67.14 -50.67,-112.36 0.12,-3.64 0.59,-7.2 1.36,-10.64 5.76,-25.76 28.76,-45.01 56.26,-45.01 7.6,0 14.85,1.47 21.49,4.14 9.2,2.88 18.45,5.56 27.75,8.05 46.48,12.46 94.09,20.23 142.1,24.35 0,0 0,0 0,-0.01 -65.67,-6.01 -127.88,-32.24 -178.04,-75.11 l 0.01,0.02 c -2.19,-1.87 -4.43,-3.67 -6.74,-5.38 -21.06,-15.66 -47.16,-24.93 -75.42,-24.93 -69.84,0 -126.46,56.59 -126.52,126.41 0,0.05 0,0.1 0,0.15 0,0.03 0,0.05 0,0.08 v 0 c 0,107.91 87.48,195.39 195.39,195.39 v 0 c 99.22,0 181.16,-73.95 193.72,-169.74 -9.11,67.18 -69.85,115.6 -137.84,108.85 z"
     id="path618" /><path
     style="fill:#cb2026"
     d="m 965.2,347.01 v 0 c -20.76,0 -40.76,3.24 -59.53,9.24 -78.73,25.16 -135.76,98.87 -135.86,185.93 0.06,-69.83 56.68,-126.41 126.52,-126.41 28.26,0 54.36,9.27 75.42,24.93 l 6.73,5.36 c 50.16,42.87 112.38,69.1 178.04,75.11 0.77,0.07 1.54,0.14 2.31,0.2 0.15,0.01 0.3,0.03 0.45,0.04 0.06,0.01 0.13,0.01 0.19,0.01 -10.46,-98.04 -93.45,-174.41 -194.27,-174.41 z"
     id="path620" /></g><g
   style="fill:#ffffff;fill-opacity:1"
   id="g125"
   transform="matrix(1.4872068,0,0,1.4872068,22.930013,28.4415)"><path
     style="fill:#ffffff;fill-opacity:1"
     class="cls-1"
     d="M 15.31,15.65 13,10.88 h -1.56 v 4.77 H 7.62 V 1.52 h 6.3 A 9.26,9.26 0 0 1 16.16,1.77 4.8,4.8 0 0 1 17.9,2.56 3.6,3.6 0 0 1 19,4 a 5.23,5.23 0 0 1 0.39,2.13 4.58,4.58 0 0 1 -0.68,2.6 4.33,4.33 0 0 1 -1.86,1.54 l 2.83,5.39 z M 15.13,5.13 A 1.74,1.74 0 0 0 13.81,4.71 h -2.37 v 3.08 h 2.3 a 1.91,1.91 0 0 0 1.38,-0.4 1.59,1.59 0 0 0 0.41,-1.17 1.56,1.56 0 0 0 -0.4,-1.09 z"
     id="path8" /><path
     style="fill:#ffffff;fill-opacity:1"
     class="cls-1"
     d="M 22,15.65 V 1.52 H 32.82 V 4.81 H 25.9 v 1.9 h 4.16 V 9.93 H 25.9 v 2.43 H 33 v 3.29 z"
     id="path10" /><path
     style="fill:#ffffff;fill-opacity:1"
     class="cls-1"
     d="m 47.16,11.86 a 5.14,5.14 0 0 1 -1.45,2.2 5.89,5.89 0 0 1 -2.39,1.22 13,13 0 0 1 -3.29,0.37 H 35.46 V 1.52 h 4.93 a 12.13,12.13 0 0 1 3,0.34 5.58,5.58 0 0 1 2.29,1.14 5.49,5.49 0 0 1 1.45,2.15 9.4,9.4 0 0 1 0.51,3.33 10.21,10.21 0 0 1 -0.48,3.38 z m -3.7,-5 A 2.91,2.91 0 0 0 42.91,5.7 2.3,2.3 0 0 0 41.91,5.05 4.83,4.83 0 0 0 40.38,4.84 h -1 v 7.42 h 0.85 a 5.84,5.84 0 0 0 1.55,-0.18 2.4,2.4 0 0 0 1.06,-0.63 2.56,2.56 0 0 0 0.59,-1.15 7.42,7.42 0 0 0 0.18,-1.77 7.4,7.4 0 0 0 -0.15,-1.64 z"
     id="path12" /><path
     style="fill:#ffffff;fill-opacity:1"
     class="cls-1"
     d="m 64.21,15.65 v -5.57 h -4.39 v 5.57 h -4 V 1.52 h 4 v 5.15 h 4.39 V 1.52 h 4 v 14.13 z"
     id="path14" /><path
     style="fill:#ffffff;fill-opacity:1"
     class="cls-1"
     d="m 80.15,15.65 -0.76,-2.48 h -4.23 l -0.77,2.48 H 70.21 L 75.32,1.52 h 4 l 5.11,14.13 z m -2,-6.52 C 78.02,8.67 77.92,8.27 77.83,7.94 77.74,7.61 77.65,7.3 77.58,7.03 77.51,6.76 77.43,6.51 77.38,6.29 77.33,6.07 77.28,5.84 77.24,5.6 c 0,0.24 -0.09,0.47 -0.14,0.7 -0.05,0.23 -0.12,0.48 -0.19,0.75 -0.07,0.27 -0.16,0.57 -0.25,0.91 -0.09,0.34 -0.2,0.73 -0.33,1.17 l -0.26,0.93 h 2.34 z"
     id="path16" /><path
     style="fill:#ffffff;fill-opacity:1"
     class="cls-1"
     d="M 91.75,4.93 V 15.65 H 87.84 V 4.93 H 83.9 V 1.52 h 11.79 v 3.41 z"
     id="path18" /><path
     style="fill:#ffffff;fill-opacity:1"
     class="cls-1"
     d="m 100.28,3.49 a 1.2,1.2 0 0 1 -0.29,0.45 1.54,1.54 0 0 1 -0.45,0.3 1.62,1.62 0 0 1 -1.12,0 A 1.54,1.54 0 0 1 97.97,3.94 1.51,1.51 0 0 1 97.68,3.49 1.33,1.33 0 0 1 97.57,2.93 1.3,1.3 0 0 1 97.68,2.37 1.29,1.29 0 0 1 98,1.92 a 1.37,1.37 0 0 1 0.45,-0.3 1.48,1.48 0 0 1 1.12,0 1.37,1.37 0 0 1 0.45,0.3 1.06,1.06 0 0 1 0.29,0.45 1.31,1.31 0 0 1 0.12,0.56 1.34,1.34 0 0 1 -0.15,0.56 z m -0.21,-1 a 1.07,1.07 0 0 0 -0.24,-0.38 1.25,1.25 0 0 0 -1.32,-0.25 1,1 0 0 0 -0.37,0.25 1.09,1.09 0 0 0 -0.25,0.38 1.24,1.24 0 0 0 -0.1,0.47 1.24,1.24 0 0 0 0.1,0.47 1.19,1.19 0 0 0 0.25,0.38 1.1,1.1 0 0 0 0.37,0.25 1.42,1.42 0 0 0 0.94,0 1.39,1.39 0 0 0 0.38,-0.25 1.17,1.17 0 0 0 0.24,-0.38 1.07,1.07 0 0 0 0.1,-0.47 1.07,1.07 0 0 0 -0.1,-0.5 z M 99.53,2.92 A 0.46,0.46 0 0 1 99.3,3.08 l 0.31,0.63 H 99.3 L 99,3.07 H 98.71 V 3.68 H 98.45 V 2.13 h 0.67 0.19 a 0.42,0.42 0 0 1 0.16,0.09 0.28,0.28 0 0 1 0.11,0.15 0.4,0.4 0 0 1 0,0.2 0.47,0.47 0 0 1 -0.05,0.32 z M 99.29,2.47 A 0.28,0.28 0 0 0 99.11,2.41 h -0.4 v 0.44 h 0.4 a 0.35,0.35 0 0 0 0.18,0 0.19,0.19 0 0 0 0.07,-0.17 0.18,0.18 0 0 0 -0.07,-0.24 z"
     id="path20" /><path
     style="fill:#ffffff;fill-opacity:1"
     class="cls-1"
     d="m 15.68,23.87 a 2.71,2.71 0 0 0 -2.61,-1.55 c -2.14,0 -3.36,1.88 -3.36,4.53 0,2.65 1.24,4.53 3.38,4.53 a 3,3 0 0 0 2.79,-1.81 L 18.28,31 A 5.42,5.42 0 0 1 13,34.22 c -3.73,0 -6.23,-2.86 -6.23,-7.37 0,-4.35 2.61,-7.37 6.33,-7.37 a 5.39,5.39 0 0 1 5.22,3.17 z"
     id="path22" /><path
     style="fill:#ffffff;fill-opacity:1"
     class="cls-1"
     d="m 26.12,34.22 c -3.89,0 -6.19,-3 -6.19,-7.37 0,-4.37 2.3,-7.37 6.19,-7.37 3.89,0 6.19,3 6.19,7.37 0,4.37 -2.31,7.37 -6.19,7.37 z m 0,-11.9 c -2.3,0 -3.25,2 -3.25,4.53 0,2.53 0.95,4.53 3.25,4.53 2.3,0 3.26,-2 3.26,-4.53 0,-2.53 -0.96,-4.53 -3.26,-4.53 z"
     id="path24" /><path
     style="fill:#ffffff;fill-opacity:1"
     class="cls-1"
     d="M 39.48,34 H 35.22 V 19.71 h 4.46 c 4.07,0 7.09,1.92 7.09,7.14 0,5.02 -3.63,7.15 -7.29,7.15 z m 0.1,-11.52 h -1.51 v 8.74 h 1.41 c 3,0 4.35,-1.76 4.35,-4.37 0,-2.92 -1.24,-4.37 -4.25,-4.37 z"
     id="path26" /><path
     style="fill:#ffffff;fill-opacity:1"
     class="cls-1"
     d="M 49.61,34 V 19.71 h 9.9 v 2.79 h -7 V 25 h 4.09 v 2.78 h -4.13 v 3.42 h 7.35 V 34 Z"
     id="path28" /><path
     style="fill:#ffffff;fill-opacity:1"
     class="cls-1"
     d="M 71.11,34 68.57,28.85 H 65.7 V 34 H 62.85 V 19.71 h 6.63 c 2.69,0 4.91,1.49 4.91,4.53 a 4.06,4.06 0 0 1 -2.73,4.2 L 74.39,34 Z M 69.42,22.48 H 65.7 v 3.68 h 3.72 c 1.33,0 2,-0.62 2,-1.86 0,-1.24 -0.73,-1.82 -2,-1.82 z"
     id="path30" /><path
     style="fill:#ffffff;fill-opacity:1"
     class="cls-1"
     d="M 77.38,34 V 19.71 h 9.9 v 2.79 h -7 V 25 h 4.1 v 2.78 h -4.1 v 3.42 h 7.35 V 34 Z"
     id="path32" /><path
     style="fill:#ffffff;fill-opacity:1"
     class="cls-1"
     d="M 100.1,34 99,30.81 H 93.77 L 92.65,34 H 89.6 l 5.45,-14.29 h 2.77 L 103.24,34 Z m -3,-8.5 c -0.29,-0.83 -0.57,-1.69 -0.71,-2.22 -0.15,0.53 -0.43,1.39 -0.72,2.22 l -0.91,2.6 H 98 Z"
     id="path34" /><path
     style="fill:#ffffff;fill-opacity:1"
     class="cls-1"
     d="m 110.14,34 h -4.26 V 19.71 h 4.46 c 4.07,0 7.09,1.92 7.09,7.14 0,5.02 -3.63,7.15 -7.29,7.15 z m 0.1,-11.52 h -1.51 v 8.74 h 1.41 c 3,0 4.36,-1.76 4.36,-4.37 0,-2.92 -1.25,-4.37 -4.26,-4.37 z"
     id="path36" /><path
     style="fill:#ffffff;fill-opacity:1"
     class="cls-1"
     d="M 126.08,28.34 V 34 h -2.85 v -5.6 l -5.4,-8.69 h 3.28 l 2,3.39 c 0.51,0.85 1.28,2.26 1.54,2.79 0.27,-0.53 1,-1.9 1.55,-2.79 l 2,-3.39 h 3.23 z"
     id="path38" /><path
     style="fill:#ffffff;fill-opacity:1"
     class="cls-1"
     d="M 19.52,52.29 H 16.73 L 15,44.94 c -0.2,-0.85 -0.4,-1.92 -0.49,-2.45 -0.06,0.53 -0.26,1.62 -0.46,2.45 l -1.8,7.35 H 9.57 L 6.59,38 h 3 l 1.24,7 c 0.12,0.7 0.28,1.76 0.34,2.35 0.11,-0.59 0.33,-1.65 0.49,-2.35 l 1.67,-7 h 2.47 l 1.69,7 c 0.16,0.7 0.38,1.76 0.49,2.35 0.06,-0.59 0.22,-1.67 0.34,-2.35 l 1.24,-7 h 2.94 z"
     id="path40" /><path
     style="fill:#ffffff;fill-opacity:1"
     class="cls-1"
     d="m 30.37,52.52 c -3.89,0 -6.19,-3 -6.19,-7.37 0,-4.37 2.3,-7.37 6.19,-7.37 3.89,0 6.19,3 6.19,7.37 0,4.37 -2.3,7.37 -6.19,7.37 z m 0,-11.9 c -2.3,0 -3.26,2 -3.26,4.53 0,2.53 1,4.53 3.26,4.53 2.26,0 3.26,-2 3.26,-4.53 0,-2.53 -0.96,-4.53 -3.26,-4.53 z"
     id="path42" /><path
     style="fill:#ffffff;fill-opacity:1"
     class="cls-1"
     d="m 47.74,52.29 -2.55,-5.14 h -2.87 v 5.14 H 39.47 V 38 h 6.64 C 48.8,38 51,39.49 51,42.53 a 4.08,4.08 0 0 1 -2.73,4.21 L 51,52.29 Z M 46.05,40.78 h -3.73 v 3.67 h 3.73 c 1.32,0 2,-0.61 2,-1.86 0,-1.25 -0.74,-1.81 -2,-1.81 z"
     id="path44" /><path
     style="fill:#ffffff;fill-opacity:1"
     class="cls-1"
     d="m 63,52.29 -3.87,-6.9 -2.28,2.7 v 4.2 H 54 V 38 h 2.85 v 4.06 c 0,0.53 0,1.82 0,2.27 a 17.14,17.14 0 0 1 1.12,-1.45 l 4,-4.88 h 3.44 l -4.18,4.94 5.24,9.35 z"
     id="path46" /><path
     style="fill:#ffffff;fill-opacity:1"
     class="cls-1"
     d="m 72.75,52.52 a 6.6,6.6 0 0 1 -5.53,-2.6 l 2,-1.83 a 4.63,4.63 0 0 0 3.65,1.63 c 1.69,0 2.48,-0.47 2.48,-1.55 0,-0.92 -0.49,-1.33 -3.17,-1.94 -2.68,-0.61 -4.41,-1.45 -4.41,-4.23 0,-2.59 2.28,-4.18 5.09,-4.18 A 6.8,6.8 0 0 1 78.05,40 L 76,42 a 4.32,4.32 0 0 0 -3.24,-1.47 c -1.52,0 -2,0.66 -2,1.29 0,0.9 0.61,1.18 2.87,1.71 2.26,0.53 4.76,1.31 4.76,4.41 -0.04,2.74 -1.75,4.58 -5.64,4.58 z"
     id="path48" /><path
     style="fill:#ffffff;fill-opacity:1"
     class="cls-1"
     d="m 87.35,47.23 h -3.13 v 5.06 H 81.37 V 38 h 6.23 c 2.68,0 4.9,1.49 4.9,4.53 0,3.31 -2.2,4.7 -5.15,4.7 z m 0.14,-6.45 h -3.27 v 3.67 h 3.31 c 1.33,0 2,-0.61 2,-1.86 0,-1.25 -0.77,-1.81 -2.04,-1.81 z"
     id="path50" /><path
     style="fill:#ffffff;fill-opacity:1"
     class="cls-1"
     d="m 103.19,52.29 -1.12,-3.18 h -5.21 l -1.12,3.18 h -3 L 98.14,38 h 2.77 l 5.42,14.29 z m -3,-8.49 c -0.29,-0.84 -0.57,-1.69 -0.72,-2.23 -0.14,0.54 -0.42,1.39 -0.71,2.23 l -0.91,2.59 h 3.25 z"
     id="path52" /><path
     style="fill:#ffffff;fill-opacity:1"
     class="cls-1"
     d="M 116.61,42.17 A 2.7,2.7 0 0 0 114,40.62 c -2.14,0 -3.36,1.87 -3.36,4.53 0,2.66 1.24,4.53 3.38,4.53 a 3,3 0 0 0 2.79,-1.82 l 2.4,1.43 a 5.43,5.43 0 0 1 -5.27,3.23 c -3.72,0 -6.23,-2.86 -6.23,-7.37 0,-4.35 2.61,-7.37 6.33,-7.37 a 5.38,5.38 0 0 1 5.22,3.16 z"
     id="path54" /><path
     style="fill:#ffffff;fill-opacity:1"
     class="cls-1"
     d="M 122.1,52.29 V 38 h 9.9 v 2.8 h -7 v 2.47 h 4.1 V 46 H 125 v 3.45 h 7.35 v 2.8 z"
     id="path56" /><path
     style="fill:#ffffff;fill-opacity:1"
     class="cls-1"
     d="m 139.88,52.52 a 6.62,6.62 0 0 1 -5.54,-2.6 l 2.06,-1.83 a 4.62,4.62 0 0 0 3.6,1.63 c 1.69,0 2.49,-0.47 2.49,-1.55 0,-0.92 -0.49,-1.33 -3.18,-1.94 -2.69,-0.61 -4.46,-1.45 -4.46,-4.27 0,-2.59 2.28,-4.18 5.09,-4.18 a 6.78,6.78 0 0 1 5.23,2.22 l -2,2 a 4.35,4.35 0 0 0 -3.24,-1.47 c -1.53,0 -2,0.66 -2,1.29 0,0.9 0.61,1.18 2.87,1.71 2.26,0.53 4.77,1.31 4.77,4.41 -0.09,2.74 -1.8,4.58 -5.69,4.58 z"
     id="path58" /></g></svg>