<svg id="svg" version="1.1" viewBox="0 50 400 100" xmlns="http://www.w3.org/2000/svg" xmlns:xlink="http://www.w3.org/1999/xlink" ><g id="svgg"><path id="path0" d="M265.084 68.077 C 265.027 68.293,264.859 68.470,264.709 68.470 C 264.559 68.470,264.437 68.603,264.437 68.765 C 264.437 68.929,264.262 69.061,264.043 69.061 C 263.676 69.061,263.650 69.192,263.650 71.028 C 263.650 72.864,263.676 72.996,264.043 72.996 C 264.306 72.996,264.437 73.127,264.437 73.389 C 264.437 73.611,264.568 73.783,264.738 73.783 C 264.904 73.783,265.090 73.915,265.153 74.078 C 265.313 74.494,268.137 74.505,268.296 74.090 C 268.356 73.934,268.657 73.751,268.966 73.683 C 269.392 73.590,269.559 73.413,269.662 72.945 C 269.736 72.606,269.919 72.207,270.068 72.058 C 270.445 71.681,270.427 70.066,270.044 69.919 C 269.882 69.856,269.749 69.645,269.749 69.449 C 269.749 68.911,269.538 68.470,269.280 68.470 C 269.153 68.470,268.898 68.293,268.713 68.077 C 268.427 67.743,268.132 67.683,266.781 67.683 C 265.352 67.683,265.176 67.724,265.084 68.077 M131.038 79.390 L 131.038 90.310 134.678 90.310 L 138.318 90.310 138.318 86.670 C 138.318 83.161,138.332 83.030,138.711 83.030 C 138.930 83.030,139.105 83.161,139.105 83.325 C 139.105 83.487,139.238 83.620,139.400 83.620 C 139.606 83.620,139.695 83.828,139.695 84.309 C 139.695 84.790,139.784 84.998,139.990 84.998 C 140.189 84.998,140.285 85.196,140.285 85.606 C 140.285 86.049,140.392 86.243,140.679 86.318 C 140.974 86.395,141.072 86.586,141.072 87.086 C 141.072 87.547,141.163 87.752,141.367 87.752 C 141.566 87.752,141.663 87.951,141.663 88.361 C 141.663 88.804,141.770 88.997,142.056 89.072 C 142.336 89.145,142.450 89.341,142.450 89.747 L 142.450 90.318 146.335 90.265 C 150.199 90.212,150.222 90.209,150.284 89.768 C 150.322 89.502,150.224 89.277,150.038 89.206 C 149.853 89.135,149.729 88.852,149.729 88.500 C 149.729 88.077,149.619 87.883,149.336 87.809 C 149.040 87.732,148.942 87.541,148.942 87.041 C 148.942 86.580,148.852 86.375,148.647 86.375 C 148.450 86.375,148.352 86.177,148.352 85.778 C 148.352 85.430,148.230 85.135,148.057 85.069 C 147.895 85.006,147.762 84.735,147.762 84.466 C 147.762 84.142,147.629 83.942,147.368 83.874 C 147.073 83.797,146.975 83.606,146.975 83.105 C 146.975 82.643,146.884 82.440,146.678 82.440 C 146.431 82.440,146.422 82.374,146.627 82.046 C 146.762 81.830,147.006 81.651,147.170 81.649 C 147.509 81.645,148.352 80.821,148.352 80.494 C 148.352 80.374,148.485 80.275,148.647 80.275 C 148.844 80.275,148.942 80.079,148.942 79.685 C 148.942 79.357,149.117 78.920,149.336 78.701 C 149.689 78.348,149.729 78.046,149.729 75.750 C 149.729 73.455,149.689 73.152,149.336 72.799 C 149.120 72.582,148.942 72.149,148.942 71.836 C 148.942 71.512,148.816 71.218,148.647 71.154 C 148.485 71.091,148.352 70.905,148.352 70.739 C 148.352 70.573,148.241 70.438,148.104 70.438 C 147.968 70.438,147.746 70.261,147.611 70.044 C 147.472 69.822,147.152 69.651,146.875 69.651 C 146.570 69.651,146.385 69.539,146.385 69.356 C 146.385 69.137,146.154 69.061,145.493 69.061 C 144.882 69.061,144.566 68.968,144.488 68.765 C 144.391 68.511,143.453 68.470,137.706 68.470 L 131.038 68.470 131.038 79.390 M152.287 79.390 L 152.287 90.310 160.944 90.310 L 169.602 90.310 169.602 87.359 L 169.602 84.407 164.289 84.407 L 158.977 84.407 158.977 83.030 L 158.977 81.653 162.032 81.653 L 165.087 81.653 165.032 78.751 L 164.978 75.848 161.977 75.794 L 158.977 75.740 158.977 75.056 L 158.977 74.373 163.980 74.373 C 168.266 74.373,169.028 74.329,169.292 74.064 C 169.737 73.619,169.739 69.541,169.295 68.908 L 168.989 68.470 160.638 68.470 L 152.287 68.470 152.287 79.390 M171.766 79.390 L 171.766 90.310 177.281 90.310 C 182.002 90.310,182.813 90.267,182.910 90.015 C 182.994 89.796,183.342 89.720,184.260 89.720 C 185.178 89.720,185.526 89.644,185.610 89.424 C 185.672 89.262,185.955 89.129,186.239 89.129 C 186.591 89.129,186.789 89.003,186.859 88.736 C 186.915 88.519,187.121 88.342,187.315 88.342 C 187.750 88.342,189.080 87.084,189.080 86.673 C 189.080 86.509,189.213 86.375,189.375 86.375 C 189.581 86.375,189.670 86.167,189.670 85.686 C 189.670 85.205,189.759 84.998,189.966 84.998 C 190.188 84.998,190.261 84.760,190.261 84.037 C 190.261 83.241,190.328 83.058,190.654 82.973 C 191.029 82.875,191.048 82.705,191.048 79.390 C 191.048 76.076,191.029 75.905,190.654 75.807 C 190.317 75.719,190.261 75.539,190.261 74.540 C 190.261 73.688,190.182 73.346,189.966 73.263 C 189.803 73.201,189.670 73.035,189.670 72.894 C 189.670 72.565,188.669 71.028,188.455 71.028 C 188.366 71.028,188.293 70.895,188.293 70.733 C 188.293 70.550,188.108 70.438,187.803 70.438 C 187.526 70.438,187.206 70.267,187.067 70.044 C 186.922 69.811,186.608 69.651,186.299 69.651 C 186.012 69.651,185.727 69.518,185.664 69.356 C 185.584 69.147,185.259 69.061,184.561 69.061 C 183.812 69.061,183.571 68.989,183.571 68.765 C 183.571 68.510,182.784 68.470,177.668 68.470 L 171.766 68.470 171.766 79.390 M203.050 79.390 L 203.050 90.310 206.394 90.310 L 209.739 90.310 209.739 86.375 L 209.739 82.440 212.395 82.440 L 215.052 82.440 215.052 86.375 L 215.052 90.310 218.692 90.310 L 222.332 90.310 222.332 79.390 L 222.332 68.470 218.692 68.470 L 215.052 68.470 215.052 72.110 L 215.052 75.750 212.395 75.750 L 209.739 75.750 209.739 72.110 L 209.739 68.470 206.394 68.470 L 203.050 68.470 203.050 79.390 M231.120 68.601 C 231.048 68.674,230.989 69.116,230.989 69.585 C 230.989 70.212,230.910 70.438,230.694 70.438 C 230.482 70.438,230.398 70.653,230.398 71.194 C 230.398 71.701,230.268 72.068,230.005 72.307 C 229.788 72.503,229.609 72.893,229.605 73.174 C 229.602 73.454,229.469 73.856,229.310 74.066 C 229.151 74.276,229.021 74.741,229.021 75.099 C 229.021 75.547,228.929 75.750,228.726 75.750 C 228.504 75.750,228.431 75.988,228.431 76.711 C 228.431 77.506,228.363 77.689,228.037 77.775 C 227.718 77.858,227.644 78.043,227.644 78.760 C 227.644 79.364,227.550 79.679,227.349 79.756 C 227.164 79.827,227.054 80.128,227.054 80.564 C 227.054 81.051,226.965 81.259,226.758 81.259 C 226.542 81.259,226.463 81.484,226.463 82.097 C 226.463 82.722,226.363 82.998,226.070 83.181 C 225.786 83.358,225.676 83.640,225.676 84.191 C 225.676 84.689,225.573 84.995,225.381 85.069 C 225.173 85.149,225.086 85.473,225.086 86.172 C 225.086 87.031,225.034 87.162,224.693 87.162 C 224.384 87.162,224.299 87.293,224.299 87.766 C 224.299 88.099,224.161 88.508,223.993 88.676 C 223.812 88.857,223.712 89.233,223.747 89.597 L 223.807 90.212 227.398 90.265 C 230.506 90.312,230.989 90.278,230.989 90.019 C 230.989 89.854,231.121 89.720,231.284 89.720 C 231.506 89.720,231.579 89.482,231.579 88.759 C 231.579 87.963,231.647 87.780,231.972 87.695 C 232.259 87.620,232.366 87.427,232.366 86.983 L 232.366 86.375 234.629 86.375 C 237.283 86.375,237.678 86.579,237.678 87.947 C 237.678 88.519,237.785 88.799,238.072 88.978 C 238.311 89.128,238.465 89.437,238.465 89.767 L 238.465 90.310 242.105 90.310 L 245.745 90.310 245.743 89.474 C 245.739 88.353,245.560 87.752,245.230 87.752 C 245.039 87.752,244.958 87.488,244.958 86.861 C 244.958 86.250,244.865 85.933,244.663 85.856 C 244.487 85.788,244.368 85.492,244.368 85.122 C 244.368 84.715,244.233 84.418,243.974 84.256 C 243.688 84.077,243.581 83.797,243.581 83.225 C 243.581 82.658,243.499 82.440,243.286 82.440 C 243.063 82.440,242.991 82.199,242.991 81.456 C 242.991 80.713,242.919 80.472,242.696 80.472 C 242.505 80.472,242.399 80.280,242.398 79.931 C 242.394 79.089,242.184 78.505,241.886 78.505 C 241.708 78.505,241.613 78.275,241.613 77.840 C 241.613 77.475,241.481 77.065,241.318 76.931 C 241.149 76.790,241.023 76.361,241.023 75.923 C 241.023 75.291,240.955 75.160,240.630 75.160 C 240.288 75.160,240.236 75.029,240.236 74.170 C 240.236 73.471,240.149 73.147,239.941 73.067 C 239.751 72.994,239.646 72.690,239.646 72.212 C 239.646 71.792,239.518 71.363,239.351 71.225 C 239.188 71.090,239.056 70.739,239.056 70.444 C 239.056 70.150,238.879 69.748,238.662 69.552 C 238.446 69.357,238.269 69.033,238.269 68.833 C 238.269 68.463,231.479 68.243,231.120 68.601 M243.778 71.422 L 243.778 74.373 246.729 74.373 L 249.680 74.373 249.680 82.341 L 249.680 90.310 253.025 90.310 L 256.370 90.310 256.370 82.341 L 256.370 74.373 259.321 74.373 L 262.273 74.373 262.273 71.422 L 262.273 68.470 253.025 68.470 L 243.778 68.470 243.778 71.422 M142.056 74.766 C 142.273 74.983,142.450 75.293,142.450 75.455 C 142.450 75.617,142.582 75.750,142.745 75.750 C 142.907 75.750,143.040 75.841,143.040 75.953 C 143.040 76.065,142.907 76.207,142.745 76.269 C 142.582 76.332,142.450 76.550,142.450 76.755 C 142.450 76.996,142.311 77.127,142.056 77.127 C 141.837 77.127,141.663 77.259,141.663 77.423 C 141.663 77.662,141.346 77.718,139.990 77.718 L 138.318 77.718 138.318 76.045 L 138.318 74.373 139.990 74.373 C 141.400 74.373,141.724 74.435,142.056 74.766 M180.691 74.668 C 180.766 74.863,181.074 74.963,181.597 74.963 C 182.259 74.963,182.391 75.028,182.391 75.357 C 182.391 75.575,182.522 75.750,182.686 75.750 C 182.848 75.750,182.981 75.882,182.981 76.044 C 182.981 76.205,183.158 76.448,183.374 76.583 C 183.733 76.807,183.768 77.042,183.768 79.241 C 183.768 81.390,183.725 81.696,183.374 82.046 C 183.158 82.263,182.981 82.573,182.981 82.735 C 182.981 82.897,182.848 83.030,182.686 83.030 C 182.522 83.030,182.391 83.205,182.391 83.424 C 182.391 83.765,182.259 83.817,181.407 83.817 C 180.663 83.817,180.423 83.889,180.423 84.112 C 180.423 84.318,180.215 84.407,179.734 84.407 L 179.046 84.407 179.046 79.390 L 179.046 74.373 179.812 74.373 C 180.311 74.373,180.617 74.476,180.691 74.668 M235.425 80.208 C 236.067 80.454,235.745 81.062,234.973 81.063 L 234.235 81.063 234.305 79.946 C 234.343 79.332,234.498 78.706,234.649 78.555 C 234.800 78.404,234.941 78.131,234.962 77.950 C 234.983 77.768,235.031 78.177,235.070 78.859 C 235.118 79.711,235.229 80.133,235.425 80.208 M275.329 96.114 C 275.250 96.322,274.926 96.409,274.239 96.409 C 273.633 96.409,273.151 96.521,272.967 96.704 C 272.805 96.867,272.457 97.000,272.195 97.000 C 271.932 97.000,271.540 97.177,271.323 97.393 C 271.107 97.609,270.797 97.787,270.635 97.787 C 270.472 97.787,270.339 97.919,270.339 98.082 C 270.339 98.244,270.207 98.377,270.044 98.377 C 269.882 98.377,269.572 98.554,269.356 98.770 C 269.139 98.987,268.874 99.164,268.765 99.164 C 268.657 99.164,268.569 99.239,268.569 99.330 C 268.569 99.422,268.392 99.701,268.175 99.951 C 267.959 100.200,267.782 100.568,267.782 100.768 C 267.782 101.000,267.640 101.131,267.388 101.131 C 267.166 101.131,266.995 101.263,266.995 101.433 C 266.995 101.598,266.862 101.785,266.699 101.847 C 266.531 101.912,266.404 102.205,266.404 102.530 C 266.404 102.901,266.303 103.099,266.113 103.099 C 265.953 103.099,265.770 103.342,265.706 103.640 C 265.643 103.938,265.464 104.416,265.309 104.703 C 265.154 104.990,265.027 105.632,265.027 106.130 C 265.027 106.802,264.951 107.034,264.732 107.034 C 264.477 107.034,264.437 107.778,264.437 112.549 C 264.437 117.270,264.479 118.081,264.732 118.178 C 264.939 118.257,265.027 118.580,265.027 119.260 C 265.027 119.940,265.115 120.263,265.322 120.342 C 265.489 120.406,265.617 120.699,265.617 121.018 C 265.617 121.378,265.758 121.655,266.011 121.790 C 266.241 121.914,266.404 122.202,266.404 122.486 C 266.404 122.786,266.517 122.971,266.699 122.971 C 266.862 122.971,266.995 123.141,266.995 123.348 C 266.995 123.935,267.207 124.348,267.508 124.348 C 267.658 124.348,267.782 124.484,267.782 124.650 C 267.782 124.815,267.914 125.002,268.077 125.064 C 268.239 125.126,268.372 125.301,268.372 125.451 C 268.372 125.602,268.505 125.726,268.667 125.726 C 268.829 125.726,268.962 125.858,268.962 126.021 C 268.962 126.183,269.129 126.316,269.333 126.316 C 269.538 126.316,269.749 126.492,269.806 126.709 C 269.881 126.996,270.075 127.103,270.518 127.103 C 270.928 127.103,271.126 127.199,271.126 127.398 C 271.126 127.592,271.321 127.693,271.694 127.693 C 272.096 127.693,272.291 127.808,272.364 128.087 C 272.445 128.398,272.632 128.480,273.258 128.480 C 273.699 128.480,274.180 128.611,274.345 128.775 C 274.582 129.012,275.243 129.070,277.710 129.070 C 280.257 129.070,280.799 129.020,280.893 128.775 C 280.955 128.613,281.240 128.479,281.526 128.477 C 282.349 128.473,282.932 128.261,282.932 127.965 C 282.932 127.793,283.151 127.693,283.528 127.693 C 283.877 127.693,284.172 127.570,284.238 127.398 C 284.300 127.236,284.483 127.103,284.644 127.103 C 284.804 127.103,284.982 126.926,285.039 126.709 C 285.096 126.493,285.264 126.316,285.414 126.316 C 285.564 126.316,285.686 126.230,285.686 126.124 C 285.686 126.019,285.951 125.796,286.274 125.629 C 286.597 125.462,286.916 125.105,286.984 124.837 C 287.051 124.568,287.229 124.348,287.380 124.348 C 287.531 124.348,287.654 124.215,287.654 124.053 C 287.654 123.891,287.787 123.758,287.949 123.758 C 288.132 123.758,288.244 123.572,288.244 123.268 C 288.244 122.991,288.415 122.671,288.637 122.532 C 288.854 122.397,289.031 122.124,289.031 121.926 C 289.031 121.728,289.164 121.433,289.326 121.270 C 289.488 121.108,289.621 120.672,289.621 120.301 C 289.621 119.855,289.714 119.626,289.895 119.626 C 290.265 119.626,290.408 119.188,290.408 118.060 C 290.408 117.461,290.516 117.027,290.703 116.872 C 291.118 116.528,291.141 108.705,290.730 108.111 C 290.582 107.897,290.419 107.203,290.367 106.567 C 290.302 105.767,290.173 105.356,289.947 105.229 C 289.757 105.123,289.621 104.802,289.621 104.460 C 289.621 104.120,289.497 103.826,289.326 103.760 C 289.158 103.696,289.031 103.402,289.031 103.078 C 289.031 102.640,288.940 102.509,288.637 102.509 C 288.319 102.509,288.244 102.377,288.244 101.820 C 288.244 101.339,288.155 101.131,287.949 101.131 C 287.787 101.131,287.654 100.996,287.654 100.830 C 287.654 100.664,287.521 100.478,287.359 100.415 C 287.196 100.353,287.063 100.179,287.063 100.028 C 287.063 99.877,286.886 99.754,286.670 99.754 C 286.451 99.754,286.276 99.623,286.276 99.459 C 286.276 99.297,286.144 99.164,285.981 99.164 C 285.817 99.164,285.686 98.989,285.686 98.770 C 285.686 98.554,285.563 98.377,285.412 98.377 C 285.261 98.377,285.087 98.244,285.025 98.082 C 284.960 97.913,284.666 97.787,284.338 97.787 C 283.930 97.787,283.735 97.673,283.662 97.393 C 283.587 97.106,283.393 97.000,282.950 97.000 C 282.540 97.000,282.341 96.903,282.341 96.704 C 282.341 96.476,282.082 96.409,281.185 96.409 C 280.397 96.409,279.950 96.315,279.784 96.114 C 279.595 95.886,279.071 95.819,277.491 95.819 C 275.852 95.819,275.420 95.878,275.329 96.114 M131.086 112.395 L 131.136 128.382 137.577 128.434 C 143.847 128.484,144.023 128.475,144.264 128.089 C 144.455 127.784,144.723 127.693,145.427 127.693 C 146.059 127.693,146.378 127.602,146.456 127.398 C 146.522 127.226,146.817 127.103,147.164 127.103 C 147.546 127.103,147.847 126.962,148.004 126.709 C 148.140 126.493,148.406 126.316,148.596 126.316 C 148.787 126.316,148.942 126.183,148.942 126.021 C 148.942 125.857,149.117 125.726,149.336 125.726 C 149.555 125.726,149.729 125.594,149.729 125.430 C 149.729 125.268,149.849 125.135,149.994 125.135 C 150.350 125.135,150.910 124.494,150.910 124.087 C 150.910 123.889,151.067 123.758,151.303 123.758 C 151.566 123.758,151.697 123.627,151.697 123.364 C 151.697 123.146,151.828 122.971,151.992 122.971 C 152.167 122.971,152.287 122.790,152.287 122.526 C 152.287 122.282,152.464 121.971,152.681 121.836 C 152.932 121.679,153.074 121.377,153.074 121.002 C 153.074 120.610,153.173 120.413,153.369 120.413 C 153.581 120.413,153.665 120.197,153.665 119.647 C 153.665 119.148,153.767 118.842,153.960 118.768 C 154.192 118.679,154.255 118.276,154.255 116.878 C 154.255 115.363,154.313 115.043,154.648 114.707 C 155.312 114.044,155.208 109.788,154.529 109.788 C 154.313 109.788,154.255 109.372,154.255 107.821 C 154.255 106.203,154.202 105.853,153.960 105.853 C 153.757 105.853,153.665 105.650,153.665 105.202 C 153.665 104.844,153.535 104.379,153.376 104.169 C 153.217 103.959,153.084 103.633,153.081 103.443 C 153.077 103.254,152.897 102.922,152.681 102.705 C 152.464 102.489,152.287 102.179,152.287 102.017 C 152.287 101.854,152.154 101.722,151.992 101.722 C 151.830 101.722,151.697 101.589,151.697 101.426 C 151.697 101.263,151.522 101.131,151.303 101.131 C 151.011 101.131,150.910 101.000,150.910 100.622 C 150.910 100.238,150.766 100.059,150.320 99.891 C 149.995 99.768,149.729 99.554,149.729 99.416 C 149.729 99.277,149.552 99.164,149.336 99.164 C 149.074 99.164,148.942 99.033,148.942 98.770 C 148.942 98.480,148.811 98.377,148.444 98.377 C 148.170 98.377,147.895 98.244,147.833 98.082 C 147.764 97.902,147.467 97.787,147.075 97.787 C 146.596 97.787,146.404 97.686,146.328 97.393 C 146.243 97.069,146.056 96.998,145.272 96.993 C 144.748 96.990,144.147 96.857,143.937 96.698 C 143.620 96.458,142.495 96.409,137.295 96.409 L 131.036 96.409 131.086 112.395 M160.354 112.445 L 160.354 128.484 170.635 128.433 L 180.915 128.382 180.915 126.414 L 180.915 124.447 172.996 124.395 L 165.076 124.344 165.076 119.034 L 165.076 113.724 169.405 113.724 L 173.733 113.724 173.733 111.674 C 173.733 108.728,174.189 109.001,169.285 109.001 L 165.076 109.001 165.076 105.073 L 165.076 101.145 172.537 101.089 C 176.640 101.058,180.071 100.959,180.161 100.870 C 180.251 100.780,180.325 99.761,180.325 98.607 L 180.325 96.508 170.339 96.457 L 160.354 96.406 160.354 112.445 M184.358 97.598 C 184.358 98.403,184.455 98.896,184.653 99.094 C 184.818 99.258,184.948 99.739,184.948 100.180 C 184.948 100.806,185.031 100.993,185.342 101.074 C 185.668 101.160,185.735 101.343,185.735 102.138 C 185.735 102.861,185.808 103.099,186.030 103.099 C 186.250 103.099,186.326 103.330,186.326 104.003 C 186.326 104.741,186.398 104.925,186.719 105.009 C 187.045 105.095,187.113 105.278,187.113 106.073 C 187.113 106.796,187.186 107.034,187.408 107.034 C 187.631 107.034,187.703 107.274,187.703 108.018 C 187.703 108.761,187.775 109.001,187.998 109.001 C 188.218 109.001,188.293 109.233,188.293 109.905 C 188.293 110.644,188.365 110.828,188.687 110.912 C 189.011 110.997,189.080 111.180,189.080 111.955 C 189.080 112.609,189.170 112.929,189.375 113.008 C 189.579 113.086,189.670 113.404,189.670 114.031 C 189.670 114.775,189.742 114.960,190.064 115.044 C 190.382 115.127,190.457 115.312,190.457 116.015 C 190.457 116.606,190.552 116.920,190.753 116.997 C 190.953 117.074,191.048 117.389,191.048 117.981 C 191.048 118.573,191.142 118.888,191.343 118.965 C 191.505 119.027,191.639 119.312,191.641 119.598 C 191.645 120.421,191.857 121.003,192.153 121.003 C 192.348 121.003,192.425 121.281,192.425 121.987 C 192.425 122.731,192.497 122.971,192.720 122.971 C 192.925 122.971,193.015 123.177,193.015 123.644 C 193.015 124.510,193.185 124.939,193.528 124.939 C 193.721 124.939,193.802 125.197,193.802 125.814 C 193.802 126.366,193.906 126.748,194.082 126.847 C 194.235 126.934,194.390 127.314,194.426 127.693 L 194.491 128.382 197.098 128.437 C 199.550 128.488,199.705 128.469,199.705 128.116 C 199.705 127.910,199.838 127.631,200.000 127.496 C 200.162 127.362,200.295 126.940,200.295 126.559 C 200.295 126.158,200.425 125.773,200.603 125.642 C 200.773 125.518,200.961 125.045,201.022 124.590 C 201.083 124.136,201.255 123.663,201.403 123.540 C 201.556 123.413,201.672 122.944,201.672 122.455 C 201.672 121.821,201.750 121.594,201.968 121.594 C 202.190 121.594,202.263 121.356,202.263 120.633 C 202.263 119.838,202.330 119.654,202.656 119.569 C 202.978 119.485,203.050 119.301,203.050 118.562 C 203.050 117.890,203.125 117.659,203.345 117.659 C 203.568 117.659,203.640 117.418,203.640 116.675 C 203.640 115.965,203.716 115.691,203.914 115.691 C 204.255 115.691,204.427 115.264,204.427 114.417 C 204.427 114.020,204.542 113.722,204.722 113.652 C 204.923 113.575,205.017 113.261,205.017 112.669 C 205.017 112.076,205.112 111.762,205.312 111.685 C 205.511 111.609,205.607 111.296,205.607 110.727 C 205.607 110.096,205.707 109.821,206.001 109.637 C 206.300 109.451,206.394 109.179,206.394 108.508 C 206.394 107.854,206.471 107.624,206.690 107.624 C 206.913 107.624,206.985 107.384,206.985 106.640 C 206.985 105.897,207.057 105.657,207.280 105.657 C 207.503 105.657,207.575 105.416,207.575 104.673 C 207.575 103.820,207.627 103.689,207.969 103.689 C 208.310 103.689,208.362 103.558,208.362 102.705 C 208.362 101.962,208.434 101.722,208.657 101.722 C 208.879 101.722,208.952 101.484,208.952 100.761 C 208.952 99.965,209.020 99.782,209.346 99.697 C 209.656 99.616,209.739 99.429,209.739 98.813 C 209.739 98.347,209.862 97.929,210.044 97.778 C 210.214 97.637,210.323 97.299,210.290 97.016 L 210.231 96.508 207.673 96.508 L 205.116 96.508 205.053 97.393 C 205.017 97.900,204.870 98.345,204.708 98.436 C 204.523 98.539,204.427 98.927,204.427 99.567 C 204.427 100.265,204.350 100.541,204.155 100.541 C 203.859 100.541,203.647 101.124,203.643 101.946 C 203.641 102.232,203.507 102.517,203.345 102.580 C 203.144 102.657,203.050 102.971,203.050 103.564 C 203.050 104.156,202.955 104.470,202.755 104.547 C 202.556 104.624,202.459 104.936,202.459 105.505 C 202.459 106.136,202.360 106.411,202.066 106.595 C 201.783 106.772,201.672 107.054,201.672 107.602 C 201.672 108.038,201.547 108.467,201.377 108.608 C 201.197 108.757,201.082 109.189,201.082 109.714 C 201.082 110.316,201.000 110.576,200.810 110.576 C 200.520 110.576,200.306 111.144,200.292 111.953 C 200.287 112.223,200.153 112.617,199.994 112.827 C 199.835 113.037,199.705 113.491,199.705 113.835 C 199.705 114.180,199.572 114.573,199.410 114.707 C 199.234 114.853,199.115 115.283,199.115 115.770 C 199.115 116.362,199.006 116.666,198.721 116.872 C 198.432 117.080,198.328 117.381,198.328 118.003 C 198.328 118.576,198.232 118.888,198.032 118.965 C 197.829 119.043,197.737 119.361,197.737 119.993 C 197.737 120.696,197.646 120.966,197.344 121.155 C 196.990 121.376,196.950 121.351,196.950 120.907 C 196.950 120.599,196.839 120.413,196.655 120.413 C 196.434 120.413,196.360 120.178,196.360 119.477 C 196.360 118.753,196.271 118.484,195.967 118.295 C 195.671 118.110,195.573 117.836,195.573 117.189 C 195.573 116.665,195.458 116.234,195.278 116.085 C 195.110 115.945,194.983 115.516,194.983 115.091 C 194.983 114.679,194.864 114.224,194.720 114.079 C 194.575 113.934,194.404 113.422,194.339 112.940 C 194.275 112.459,194.083 111.964,193.914 111.840 C 193.719 111.697,193.606 111.311,193.606 110.794 C 193.606 110.246,193.507 109.935,193.310 109.860 C 193.110 109.783,193.015 109.468,193.015 108.876 C 193.015 108.284,192.921 107.969,192.720 107.892 C 192.528 107.818,192.425 107.512,192.425 107.011 C 192.425 106.487,192.300 106.136,192.031 105.906 C 191.755 105.669,191.638 105.326,191.638 104.749 C 191.638 104.201,191.540 103.890,191.343 103.815 C 191.139 103.737,191.048 103.419,191.048 102.791 C 191.048 102.047,190.976 101.863,190.654 101.779 C 190.328 101.693,190.261 101.510,190.261 100.715 C 190.261 99.992,190.188 99.754,189.966 99.754 C 189.743 99.754,189.670 99.514,189.670 98.770 C 189.670 98.046,189.596 97.787,189.388 97.787 C 189.213 97.787,189.082 97.543,189.043 97.147 L 188.982 96.508 186.670 96.452 L 184.358 96.397 184.358 97.598 M215.142 96.655 C 215.091 96.790,215.071 103.984,215.099 112.641 L 215.150 128.382 225.430 128.433 L 235.711 128.484 235.711 126.416 L 235.711 124.348 227.939 124.348 L 220.167 124.348 220.167 119.040 L 220.167 113.731 224.545 113.678 L 228.923 113.625 228.979 111.562 C 229.054 108.838,229.355 109.001,224.261 109.001 L 220.167 109.001 220.167 105.069 L 220.167 101.136 227.496 101.085 L 234.825 101.033 234.881 98.721 L 234.936 96.409 225.086 96.409 C 217.387 96.409,215.216 96.463,215.142 96.655 M241.114 96.655 C 241.062 96.790,241.043 103.984,241.071 112.641 L 241.121 128.382 251.058 128.382 L 260.994 128.382 260.994 126.414 L 260.994 124.447 253.369 124.395 L 245.745 124.344 245.745 110.376 L 245.745 96.409 243.476 96.409 C 241.843 96.409,241.181 96.478,241.114 96.655 M296.408 96.852 C 296.349 97.095,296.325 104.289,296.355 112.838 L 296.409 128.382 298.721 128.437 L 301.033 128.493 301.033 122.485 L 301.033 116.478 306.265 116.478 C 311.332 116.478,311.501 116.466,311.601 116.085 C 311.686 115.759,311.869 115.691,312.664 115.691 C 313.387 115.691,313.625 115.618,313.625 115.396 C 313.625 115.190,313.833 115.101,314.314 115.101 C 314.871 115.101,315.002 115.026,315.002 114.707 C 315.002 114.400,315.134 114.314,315.599 114.314 C 315.948 114.314,316.242 114.191,316.309 114.019 C 316.371 113.856,316.545 113.724,316.696 113.724 C 316.847 113.724,316.970 113.591,316.970 113.428 C 316.970 113.266,317.147 112.956,317.364 112.740 C 317.580 112.523,317.757 112.213,317.757 112.051 C 317.757 111.889,317.890 111.756,318.052 111.756 C 318.259 111.756,318.347 111.547,318.347 111.053 C 318.347 110.667,318.480 110.218,318.642 110.056 C 318.883 109.815,318.938 109.095,318.938 106.134 C 318.938 103.043,318.894 102.509,318.642 102.509 C 318.446 102.509,318.347 102.313,318.347 101.924 C 318.347 101.196,317.615 99.754,317.245 99.754 C 317.094 99.754,316.970 99.621,316.970 99.459 C 316.970 99.297,316.848 99.164,316.698 99.164 C 316.548 99.164,316.379 98.987,316.323 98.770 C 316.266 98.554,316.079 98.377,315.906 98.377 C 315.734 98.377,315.593 98.244,315.593 98.082 C 315.593 97.890,315.401 97.787,315.046 97.787 C 314.743 97.787,314.350 97.611,314.163 97.393 C 313.933 97.124,313.582 97.000,313.058 97.000 C 312.557 97.000,312.251 96.897,312.177 96.704 C 312.079 96.449,311.018 96.409,304.289 96.409 L 296.515 96.409 296.408 96.852 M323.708 112.395 L 323.758 128.382 334.038 128.433 L 344.319 128.484 344.319 126.416 L 344.319 124.348 336.350 124.348 L 328.382 124.348 328.382 119.036 L 328.382 113.724 332.625 113.724 C 337.873 113.724,337.629 113.828,337.629 111.587 C 337.629 108.940,337.749 109.001,332.550 109.001 L 328.382 109.001 328.382 105.066 L 328.382 101.131 335.819 101.131 C 344.524 101.131,343.728 101.393,343.728 98.534 L 343.728 96.409 333.693 96.409 L 323.657 96.409 323.708 112.395 M349.722 96.655 C 349.670 96.790,349.651 103.984,349.679 112.641 L 349.729 128.382 352.041 128.437 L 354.353 128.493 354.353 122.092 L 354.353 115.691 357.698 115.691 L 361.043 115.691 361.043 116.288 C 361.043 116.636,361.165 116.931,361.338 116.997 C 361.500 117.060,361.633 117.322,361.633 117.580 C 361.633 117.838,361.810 118.159,362.027 118.295 C 362.266 118.444,362.420 118.753,362.420 119.083 C 362.420 119.435,362.524 119.626,362.715 119.626 C 362.921 119.626,363.010 119.834,363.010 120.315 C 363.010 120.872,363.085 121.003,363.404 121.003 C 363.722 121.003,363.797 121.135,363.797 121.692 C 363.797 122.173,363.886 122.381,364.092 122.381 C 364.290 122.381,364.388 122.578,364.388 122.977 C 364.388 123.326,364.510 123.621,364.683 123.687 C 364.845 123.749,364.978 124.011,364.978 124.269 C 364.978 124.527,365.155 124.849,365.371 124.984 C 365.610 125.133,365.765 125.443,365.765 125.773 C 365.765 126.124,365.869 126.316,366.060 126.316 C 366.256 126.316,366.355 126.511,366.355 126.896 C 366.355 127.216,366.472 127.548,366.616 127.634 C 366.759 127.721,366.934 127.946,367.003 128.136 C 367.115 128.440,367.431 128.480,369.694 128.480 L 372.258 128.480 372.258 127.876 C 372.258 127.543,372.125 127.139,371.963 126.976 C 371.800 126.814,371.667 126.476,371.667 126.224 C 371.667 125.973,371.535 125.717,371.372 125.654 C 371.210 125.592,371.077 125.320,371.077 125.050 C 371.077 124.760,370.916 124.473,370.684 124.348 C 370.454 124.225,370.290 123.936,370.290 123.653 C 370.290 123.353,370.178 123.168,369.995 123.168 C 369.789 123.168,369.700 122.960,369.700 122.479 C 369.700 121.922,369.625 121.790,369.306 121.790 C 368.988 121.790,368.913 121.659,368.913 121.102 C 368.913 120.621,368.824 120.413,368.618 120.413 C 368.420 120.413,368.323 120.216,368.323 119.817 C 368.323 119.468,368.200 119.173,368.028 119.107 C 367.859 119.043,367.732 118.749,367.732 118.425 C 367.732 117.987,367.642 117.855,367.339 117.855 C 367.020 117.855,366.945 117.724,366.945 117.167 C 366.945 116.686,366.856 116.478,366.650 116.478 C 366.446 116.478,366.355 116.273,366.355 115.811 C 366.355 115.399,366.468 115.100,366.650 115.030 C 366.813 114.967,366.945 114.781,366.945 114.615 C 366.945 114.402,367.147 114.314,367.634 114.314 C 368.115 114.314,368.323 114.225,368.323 114.019 C 368.323 113.837,368.507 113.724,368.804 113.724 C 369.305 113.724,370.290 112.959,370.290 112.570 C 370.290 112.447,370.426 112.346,370.592 112.346 C 370.757 112.346,370.950 112.191,371.019 112.002 C 371.089 111.813,371.263 111.587,371.407 111.500 C 371.550 111.414,371.667 111.126,371.667 110.861 C 371.667 110.563,371.781 110.379,371.963 110.379 C 372.186 110.379,372.258 110.138,372.258 109.395 C 372.258 108.674,372.363 108.306,372.651 108.018 C 372.990 107.679,373.045 107.362,373.045 105.755 C 373.045 104.148,372.990 103.831,372.651 103.492 C 372.363 103.204,372.258 102.837,372.258 102.115 C 372.258 101.372,372.186 101.131,371.963 101.131 C 371.800 101.131,371.667 100.999,371.667 100.836 C 371.667 100.674,371.490 100.364,371.274 100.148 C 371.058 99.931,370.880 99.621,370.880 99.459 C 370.880 99.297,370.758 99.164,370.608 99.164 C 370.459 99.164,370.290 98.987,370.233 98.770 C 370.158 98.484,369.965 98.377,369.522 98.377 C 369.112 98.377,368.913 98.280,368.913 98.082 C 368.913 97.919,368.785 97.787,368.628 97.787 C 368.471 97.787,368.261 97.642,368.162 97.465 C 368.046 97.257,367.626 97.109,366.976 97.047 C 366.422 96.994,365.868 96.828,365.744 96.680 C 365.429 96.300,349.866 96.276,349.722 96.655 M279.632 100.738 C 279.778 100.971,280.091 101.131,280.400 101.131 C 280.687 101.131,280.973 101.264,281.035 101.426 C 281.098 101.589,281.275 101.722,281.429 101.722 C 281.583 101.722,281.760 101.854,281.822 102.017 C 281.885 102.179,282.071 102.312,282.237 102.312 C 282.403 102.312,282.538 102.445,282.538 102.607 C 282.538 102.769,282.671 102.902,282.833 102.902 C 282.996 102.902,283.128 103.038,283.128 103.203 C 283.128 103.369,283.261 103.556,283.424 103.618 C 283.586 103.680,283.719 103.857,283.719 104.011 C 283.719 104.166,283.842 104.339,283.992 104.397 C 284.142 104.454,284.317 104.761,284.380 105.079 C 284.447 105.415,284.621 105.657,284.796 105.657 C 285.008 105.657,285.096 105.859,285.096 106.345 C 285.096 106.826,285.185 107.034,285.391 107.034 C 285.620 107.034,285.686 107.296,285.686 108.208 C 285.686 109.180,285.754 109.417,286.080 109.592 C 286.443 109.786,286.473 110.004,286.473 112.404 C 286.473 114.793,286.441 115.026,286.080 115.252 C 285.759 115.452,285.686 115.711,285.686 116.655 C 285.686 117.503,285.607 117.844,285.391 117.927 C 285.189 118.004,285.096 118.320,285.096 118.931 C 285.096 119.692,285.038 119.823,284.702 119.823 C 284.476 119.823,284.309 119.954,284.309 120.132 C 284.309 120.302,284.176 120.574,284.014 120.736 C 283.851 120.899,283.719 121.202,283.719 121.411 C 283.719 121.620,283.586 121.790,283.424 121.790 C 283.261 121.790,283.128 121.923,283.128 122.086 C 283.128 122.250,282.953 122.381,282.735 122.381 C 282.473 122.381,282.341 122.512,282.341 122.774 C 282.341 122.991,282.219 123.168,282.070 123.168 C 281.921 123.168,281.689 123.301,281.554 123.463 C 281.420 123.625,281.099 123.758,280.842 123.758 C 280.557 123.758,280.374 123.874,280.374 124.053 C 280.374 124.301,279.950 124.348,277.739 124.348 C 275.578 124.348,275.083 124.295,274.990 124.053 C 274.924 123.881,274.629 123.758,274.281 123.758 C 273.882 123.758,273.684 123.660,273.684 123.463 C 273.684 123.301,273.557 123.168,273.402 123.168 C 273.247 123.168,273.064 122.991,272.996 122.774 C 272.927 122.558,272.744 122.381,272.589 122.381 C 272.434 122.381,272.307 122.248,272.307 122.086 C 272.307 121.923,272.174 121.790,272.012 121.790 C 271.849 121.790,271.717 121.649,271.717 121.477 C 271.717 121.304,271.540 121.117,271.323 121.060 C 271.044 120.988,270.930 120.792,270.930 120.390 C 270.930 120.017,270.829 119.823,270.635 119.823 C 270.428 119.823,270.339 119.615,270.339 119.134 C 270.339 118.653,270.250 118.446,270.044 118.446 C 269.839 118.446,269.749 118.240,269.749 117.773 C 269.749 116.906,269.580 116.478,269.236 116.478 C 268.733 116.478,268.846 108.971,269.356 108.510 C 269.631 108.260,269.749 107.904,269.749 107.320 C 269.749 106.760,269.846 106.449,270.044 106.373 C 270.217 106.306,270.339 106.012,270.339 105.663 C 270.339 105.264,270.437 105.066,270.635 105.066 C 270.841 105.066,270.930 104.859,270.930 104.378 C 270.930 103.820,271.005 103.689,271.323 103.689 C 271.542 103.689,271.717 103.558,271.717 103.394 C 271.717 103.232,271.849 103.099,272.012 103.099 C 272.176 103.099,272.307 102.924,272.307 102.705 C 272.307 102.443,272.438 102.312,272.700 102.312 C 272.919 102.312,273.094 102.181,273.094 102.017 C 273.094 101.854,273.260 101.722,273.463 101.722 C 273.667 101.722,273.934 101.599,274.058 101.450 C 274.182 101.301,274.549 101.126,274.874 101.061 C 275.199 100.996,275.516 100.808,275.579 100.643 C 275.775 100.134,279.307 100.216,279.632 100.738 M143.363 101.426 C 143.525 101.589,143.962 101.722,144.333 101.722 C 144.801 101.722,145.007 101.812,145.007 102.017 C 145.007 102.179,145.140 102.312,145.303 102.312 C 145.465 102.312,145.775 102.489,145.991 102.705 C 146.208 102.922,146.517 103.099,146.680 103.099 C 146.842 103.099,146.975 103.232,146.975 103.394 C 146.975 103.558,147.150 103.689,147.368 103.689 C 147.673 103.689,147.762 103.820,147.762 104.270 C 147.762 104.589,147.874 104.921,148.012 105.007 C 148.150 105.094,148.369 105.408,148.500 105.706 C 148.630 106.003,148.828 106.247,148.938 106.247 C 149.049 106.247,149.139 106.557,149.139 106.936 C 149.139 107.417,149.228 107.624,149.434 107.624 C 149.688 107.624,149.729 108.281,149.729 112.352 C 149.729 116.374,149.685 117.098,149.434 117.194 C 149.236 117.270,149.139 117.582,149.139 118.149 C 149.139 118.825,149.062 119.010,148.746 119.093 C 148.459 119.168,148.352 119.361,148.352 119.805 C 148.352 120.214,148.256 120.413,148.057 120.413 C 147.895 120.413,147.762 120.546,147.762 120.708 C 147.762 120.871,147.635 121.003,147.480 121.003 C 147.325 121.003,147.142 121.181,147.073 121.397 C 147.005 121.613,146.822 121.790,146.667 121.790 C 146.511 121.790,146.385 121.923,146.385 122.086 C 146.385 122.248,146.262 122.381,146.112 122.381 C 145.963 122.381,145.794 122.558,145.737 122.774 C 145.664 123.056,145.469 123.168,145.050 123.168 C 144.728 123.168,144.355 123.301,144.220 123.463 C 144.046 123.673,143.584 123.758,142.616 123.758 C 141.589 123.758,141.229 123.830,141.143 124.053 C 141.051 124.295,140.556 124.348,138.395 124.348 L 135.760 124.348 135.760 112.740 L 135.760 101.131 139.414 101.131 C 142.400 101.131,143.122 101.185,143.363 101.426 M311.264 101.426 C 311.399 101.589,311.720 101.722,311.977 101.722 C 312.262 101.722,312.445 101.837,312.445 102.017 C 312.445 102.179,312.577 102.312,312.740 102.312 C 312.902 102.312,313.035 102.447,313.035 102.613 C 313.035 102.779,313.162 102.963,313.318 103.023 C 313.474 103.083,313.658 103.390,313.727 103.706 C 313.796 104.021,313.979 104.279,314.133 104.279 C 314.545 104.279,314.541 108.374,314.129 108.532 C 313.973 108.592,313.789 108.899,313.720 109.215 C 313.651 109.530,313.468 109.788,313.314 109.788 C 313.161 109.788,313.035 109.921,313.035 110.084 C 313.035 110.246,312.902 110.379,312.740 110.379 C 312.576 110.379,312.445 110.554,312.445 110.772 C 312.445 111.075,312.313 111.166,311.875 111.166 C 311.551 111.166,311.258 111.293,311.193 111.461 C 311.096 111.713,310.340 111.756,306.056 111.756 L 301.033 111.756 301.033 106.444 L 301.033 101.131 306.026 101.131 C 310.224 101.131,311.058 101.178,311.264 101.426 M365.175 101.426 C 365.175 101.623,365.371 101.722,365.765 101.722 C 366.158 101.722,366.355 101.820,366.355 102.017 C 366.355 102.179,366.488 102.312,366.650 102.312 C 366.813 102.312,366.945 102.453,366.945 102.625 C 366.945 102.798,367.122 102.985,367.339 103.042 C 367.664 103.127,367.732 103.310,367.732 104.092 C 367.732 104.671,367.847 105.153,368.028 105.333 C 368.190 105.496,368.323 105.802,368.323 106.015 C 368.323 106.228,368.190 106.453,368.028 106.515 C 367.825 106.592,367.732 106.909,367.732 107.520 C 367.732 108.181,367.656 108.411,367.437 108.411 C 367.275 108.411,367.142 108.530,367.142 108.676 C 367.142 109.067,366.457 109.788,366.086 109.788 C 365.909 109.788,365.765 109.921,365.765 110.084 C 365.765 110.290,365.557 110.379,365.076 110.379 C 364.519 110.379,364.388 110.454,364.388 110.772 C 364.388 111.155,364.256 111.166,359.370 111.166 L 354.353 111.166 354.353 106.149 L 354.353 101.131 359.764 101.131 C 364.442 101.131,365.175 101.171,365.175 101.426 " stroke="none" fill="#fcfcfc" fill-rule="evenodd"></path><path id="path1" d="M27.469 101.543 L 26.937 101.962 26.995 106.965 C 27.044 111.153,27.102 111.998,27.349 112.154 C 27.514 112.258,29.831 112.342,32.615 112.343 L 37.586 112.346 37.534 106.788 L 37.482 101.230 32.741 101.177 C 28.163 101.126,27.983 101.139,27.469 101.543 M44.005 101.491 C 43.673 101.858,43.490 111.230,43.799 112.035 C 43.905 112.313,44.947 112.346,53.538 112.346 L 63.158 112.346 63.158 106.854 C 63.158 102.644,63.215 101.338,63.404 101.262 C 63.539 101.207,59.303 101.155,53.990 101.147 C 44.871 101.132,44.312 101.151,44.005 101.491 M36.591 118.360 C 36.184 119.430,36.351 128.047,36.783 128.278 C 37.039 128.415,40.465 128.467,47.064 128.433 L 56.960 128.382 57.016 123.561 C 57.046 120.910,57.022 118.542,56.963 118.298 L 56.854 117.855 46.819 117.855 L 36.783 117.855 36.591 118.360 M62.502 117.987 C 62.185 118.303,62.358 128.236,62.682 128.361 C 62.853 128.426,69.582 128.480,77.635 128.480 L 92.277 128.480 92.277 123.168 L 92.277 117.855 77.455 117.855 C 69.303 117.855,62.574 117.914,62.502 117.987 " stroke="none" fill="#189e9b" fill-rule="evenodd"></path><path id="path2" d="M36.603 68.851 C 36.182 69.637,36.341 78.656,36.780 78.891 C 37.188 79.110,46.754 79.186,47.303 78.976 C 47.576 78.871,47.614 78.217,47.614 73.663 L 47.614 68.470 42.211 68.470 C 37.069 68.470,36.797 68.489,36.603 68.851 M53.123 73.783 L 53.123 79.096 77.373 79.047 L 101.623 78.997 101.676 73.733 L 101.728 68.470 77.426 68.470 L 53.123 68.470 53.123 73.783 " stroke="none" fill="#b10404" fill-rule="evenodd"></path><path id="path3" d="M46.434 90.317 L 46.434 95.622 56.370 95.622 L 66.306 95.622 66.306 90.430 L 66.306 85.237 65.815 85.114 C 65.545 85.046,61.074 84.995,55.879 85.001 L 46.434 85.012 46.434 90.317 M72.405 90.310 L 72.405 95.622 91.687 95.622 L 110.969 95.622 110.969 90.310 L 110.969 84.998 91.687 84.998 L 72.405 84.998 72.405 90.310 M63.404 101.261 C 63.215 101.337,63.158 102.644,63.158 106.854 L 63.158 112.346 82.204 112.346 C 96.755 112.346,101.305 112.291,101.485 112.110 C 101.781 111.814,101.818 101.978,101.525 101.525 C 101.420 101.363,101.333 101.307,101.331 101.401 C 101.329 101.496,101.210 101.475,101.067 101.356 C 100.801 101.136,63.939 101.042,63.404 101.261 " stroke="none" fill="#caac06" fill-rule="evenodd"></path><path id="path4" d="" stroke="none" fill="#100bcbc" fill-rule="evenodd"></path></g></svg>