<?xml version="1.0" encoding="UTF-8" standalone="no"?>
<svg
   xmlns:dc="http://purl.org/dc/elements/1.1/"
   xmlns:cc="http://creativecommons.org/ns#"
   xmlns:rdf="http://www.w3.org/1999/02/22-rdf-syntax-ns#"
   xmlns:svg="http://www.w3.org/2000/svg"
   xmlns="http://www.w3.org/2000/svg"
   xmlns:sodipodi="http://sodipodi.sourceforge.net/DTD/sodipodi-0.dtd"
   xmlns:inkscape="http://www.inkscape.org/namespaces/inkscape"
   width="685.47632"
   height="685.47632"
   id="svg2809"
   sodipodi:version="0.32"
   inkscape:version="1.0.2 (e86c870879, 2021-01-15)"
   version="1.0"
   sodipodi:docname="lombok.svg"
   inkscape:output_extension="org.inkscape.output.svg.inkscape">
  <defs
     id="defs2811">
    <inkscape:perspective
       sodipodi:type="inkscape:persp3d"
       inkscape:vp_x="0 : 955.65741 : 1"
       inkscape:vp_y="0 : 1000 : 0"
       inkscape:vp_z="744.09448 : 955.65741 : 1"
       inkscape:persp3d-origin="372.04724 : 780.26371 : 1"
       id="perspective2817" />
  </defs>
  <sodipodi:namedview
     id="base"
     bordercolor="#666666"
     borderopacity="1.0"
     inkscape:pageopacity="0.0"
     inkscape:pageshadow="2"
     inkscape:zoom="0.98994949"
     inkscape:cx="386.90493"
     inkscape:cy="334.42964"
     inkscape:document-units="px"
     inkscape:current-layer="layer1"
     showgrid="false"
     inkscape:window-width="1280"
     inkscape:window-height="904"
     inkscape:window-x="645"
     inkscape:window-y="44"
     inkscape:document-rotation="0"
     fit-margin-top="0"
     fit-margin-left="0"
     fit-margin-right="0"
     fit-margin-bottom="0"
     inkscape:window-maximized="0" />
  <metadata
     id="metadata2814">
    <rdf:RDF>
      <cc:Work
         rdf:about="">
        <dc:format>image/svg+xml</dc:format>
        <dc:type
           rdf:resource="http://purl.org/dc/dcmitype/StillImage" />
        <dc:title></dc:title>
      </cc:Work>
    </rdf:RDF>
  </metadata>
  <g
     inkscape:label="Ebene 1"
     inkscape:groupmode="layer"
     id="layer1"
     transform="translate(-85.952252,-387.56109)">
    <g
       style="display:inline"
       id="g8198"
       transform="matrix(1.4248201,0.1395229,-0.1500716,1.3983461,160.45389,-219.25789)">
      <path
         sodipodi:nodetypes="cccccccccccccccccccccc"
         id="path7056"
         d="m 93.681663,642.08699 -12.121831,13.63706 -10.606601,21.71828 2.020304,29.29442 25.758891,23.7386 36.365494,5.05075 33.33503,-1.51523 31.06219,-13.63705 60.86169,-11.11168 68.43784,-6.56599 22.4759,-3.03046 82.8325,6.56599 31.8198,-1.51523 28.78935,-1.01015 6.81853,-4.79822 -0.25253,-10.85915 -12.62692,-8.08122 -94.44925,-33.84011 -82.83251,-17.17259 -87.88327,-8.08122 -82.57998,7.57615 z"
         style="fill:#622819;fill-opacity:1;fill-rule:evenodd;stroke:none;stroke-width:1px;stroke-linecap:butt;stroke-linejoin:miter;stroke-opacity:1" />
      <path
         sodipodi:nodetypes="ccccccccccccccccccccc"
         id="path4133"
         d="m 232.56696,623.89286 -84.79464,5.72321 43.78762,0.52294 55.68732,6.7648 -54.1601,-2.32668 -44.45219,0.26115 -38.92608,5.52113 -17.548176,5.78345 -17.15625,26.25 -1.03125,31.3125 28.281246,26.25 51.53125,3.03125 73.75,-22.21875 123.21875,-13.125 82.84375,7.0625 56.5625,-3.03125 7.0625,-6.0625 -3.03125,-10.09375 -76.75,-29.28125 -88.90625,-22.21875 z"
         style="fill:#b23b23;fill-opacity:1;fill-rule:evenodd;stroke:none;stroke-width:1;stroke-linecap:butt;stroke-linejoin:miter;stroke-miterlimit:4;stroke-dasharray:none;stroke-opacity:1" />
      <path
         sodipodi:nodetypes="cccccccccccccccccccccccccccccc"
         id="path5116"
         d="m 102.01542,659.51212 15.9099,-2.77791 5.55584,9.59644 11.11168,-5.55583 15.15229,-4.54569 -13.63706,7.57614 -3.53553,8.5863 5.55584,5.05076 14.64721,2.52538 16.16244,-3.03045 -20.70813,11.61675 -9.09137,1.01015 -2.02031,11.61676 -10.6066,12.6269 5.55584,10.60661 7.57614,2.52538 -11.61675,0.50507 -11.11168,-11.61675 -11.11168,-1.01015 -8.586293,4.54568 5.050763,-9.09137 -12.626907,-7.57614 -3.535534,-12.62691 -5.555839,-10.10153 v -8.08122 l 7.828682,9.34392 1.010152,-11.8693 4.924494,-8.33376 6.818532,-12.87944 z"
         style="opacity:0.5;fill:#76140e;fill-opacity:1;fill-rule:evenodd;stroke:none;stroke-width:1px;stroke-linecap:butt;stroke-linejoin:miter;stroke-opacity:1" />
      <path
         id="path7063"
         d="m 170.35714,628.57143 55,-2.14286 64.28571,6.42858 34.64286,6.07142 -69.64286,-6.07142 -52.85714,-3.21429 z"
         style="opacity:0.5;fill:#f5cfce;fill-opacity:1;fill-rule:evenodd;stroke:none;stroke-width:1px;stroke-linecap:butt;stroke-linejoin:miter;stroke-opacity:1" />
      <path
         sodipodi:nodetypes="ccccccccccc"
         id="path7065"
         d="m 111.13075,653.29059 21.20141,-10.31599 56.05167,-4.37763 105.9768,2.82125 57.77485,8.29567 51.34627,12.93854 -51.52484,-7.39013 -57.95342,-6.3187 -74.07034,-3.91807 -81.92786,2.61731 z"
         style="display:inline;opacity:0.65;fill:#f5cfce;fill-opacity:1;fill-rule:evenodd;stroke:none;stroke-width:1px;stroke-linecap:butt;stroke-linejoin:miter;stroke-opacity:1" />
      <g
         id="g7195">
        <path
           style="fill:#7c8f11;fill-opacity:1;fill-rule:evenodd;stroke:none;stroke-width:1px;stroke-linecap:butt;stroke-linejoin:miter;stroke-opacity:1"
           d="M 87.857143,673.57143 97.5,665 l 3.57143,-8.92857 11.07143,5 15,8.57143 13.92857,0.35715 -4.64286,16.07142 v 12.5 l 0.35714,12.85714 -16.42857,3.92857 -13.21428,10.71429 -4.28572,-8.92857 -11.071426,-8.57143 -10.714286,-3.21428 2.5,-14.28572 -4.285714,-11.78571 z"
           id="path7067" />
        <g
           id="g7188">
          <path
             sodipodi:nodetypes="ccccc"
             id="path7186"
             d="m 102.96317,716.26763 4.58582,7.15281 10.6924,-7.33131 -10.48936,4.76457 z"
             style="display:inline;fill:#626e28;fill-opacity:1;fill-rule:evenodd;stroke:none;stroke-width:1px;stroke-linecap:butt;stroke-linejoin:miter;stroke-opacity:1" />
          <path
             sodipodi:nodetypes="ccccc"
             id="path7184"
             d="m 134.61975,687.20372 4.99365,-15.23815 -18.17139,-2.02381 15.58003,3.06015 z"
             style="display:inline;opacity:0.85;fill:#626e28;fill-opacity:1;fill-rule:evenodd;stroke:none;stroke-width:1px;stroke-linecap:butt;stroke-linejoin:miter;stroke-opacity:1" />
          <path
             sodipodi:nodetypes="ccccc"
             id="path7182"
             d="m 113.00055,663.41369 -9.92934,-3.19533 -5.192234,10.58383 5.239974,-7.79334 z"
             style="display:inline;opacity:0.75;fill:#626e28;fill-opacity:1;fill-rule:evenodd;stroke:none;stroke-width:1px;stroke-linecap:butt;stroke-linejoin:miter;stroke-opacity:1" />
          <path
             id="path7180"
             d="m 124.77374,713.72385 10.50479,-4.16653 -0.0573,-15.41299 -1.70588,14.70993 z"
             style="display:inline;opacity:0.9;fill:#626e28;fill-opacity:1;fill-rule:evenodd;stroke:none;stroke-width:1px;stroke-linecap:butt;stroke-linejoin:miter;stroke-opacity:1" />
          <path
             sodipodi:nodetypes="cccccc"
             id="path7178"
             d="m 93.346449,670.33792 -4.26251,7.15247 -4.976796,25.54533 14.464286,7.49999 L 86.25,702.32143 Z"
             style="fill:#626e28;fill-opacity:1;fill-rule:evenodd;stroke:none;stroke-width:1px;stroke-linecap:butt;stroke-linejoin:miter;stroke-opacity:1" />
        </g>
        <path
           style="fill:#4c551f;fill-opacity:1;fill-rule:evenodd;stroke:none;stroke-width:1px;stroke-linecap:butt;stroke-linejoin:miter;stroke-opacity:1"
           d="m 102.01037,673.90149 9.03222,-0.24833 2.55689,-5.02555 -0.83995,-4.52046 3.14981,5.83893 -1.29971,5.46223 7.44021,6.97746 5.06841,-1.06592 5.66967,-6.59235 -2.51986,8.66423 -6.88426,3.76284 -0.92782,6.84489 5.28949,4.64045 7.01468,0.68502 -8.06187,0.87758 -6.33664,-1.80675 -0.0214,5.64082 -0.82286,3.55355 4.37428,4.13108 -4.0235,-1.37135 -5.75125,4.78885 -4.8297,1.50682 -3.07707,-4.58101 -4.99991,2.50437 3.53,-4.50366 -2.81218,-6.21984 -9.247746,-4.13955 1.98052,-15.06824 z"
           id="path7140"
           sodipodi:nodetypes="ccccccccccccccccccccccccccccc" />
      </g>
      <g
         id="g7217">
        <path
           style="fill:#748804;fill-opacity:1;fill-rule:evenodd;stroke:none;stroke-width:1px;stroke-linecap:butt;stroke-linejoin:miter;stroke-opacity:1"
           d="m 110.71429,675.89286 8.57142,8.92857 1.25,11.25 -6.60714,6.25 -8.92857,1.07143 -14.642857,-3.21429 -27.242205,-2.48205 -22.285535,-8.09173 -23.150832,-25.31907 1.428571,-39.82143 31.607144,-22.5 43.275561,15.27049 0.363489,5.84581 -6.656817,5.39149 -35.45649,-10.66352 -15.732235,11.85968 -3.995103,21.06399 13.558738,19.62492 15.697427,4.51024 22.515957,-1.55067 z"
           id="path7144"
           sodipodi:nodetypes="ccccccccccccccccccccc" />
        <path
           style="display:inline;opacity:0.5;fill:#544d25;fill-opacity:1;fill-rule:evenodd;stroke:none;stroke-width:1px;stroke-linecap:butt;stroke-linejoin:miter;stroke-opacity:1"
           d="m 19.941964,623.86161 -0.84375,0.59375 -1.40625,39.84375 23.125,25.3125 22.3125,8.09375 27.21875,2.46875 14.656246,3.21875 8.9375,-1.0625 6.59375,-6.25 -1.25,-11.25 -3.875,-4.03125 2.09375,8.84375 -3.5625,7.84375 -34.312496,-2.84375 -33.90625,-7.84375 -22.875,-25.375 z"
           id="path7151" />
        <path
           style="display:inline;opacity:0.75;fill:#544d25;fill-opacity:1;fill-rule:evenodd;stroke:none;stroke-width:1px;stroke-linecap:butt;stroke-linejoin:miter;stroke-opacity:1"
           d="m 66.772321,617.12946 -18.214285,-2.49553 -14.276786,12.51339 0.160714,13.43304 2.0625,-10.90625 15.75,-11.875 35.4375,10.6875 1,-0.8125 z"
           id="path7158"
           sodipodi:nodetypes="ccccccccc" />
        <path
           style="display:inline;opacity:0.5;fill:#dbd4ac;fill-opacity:1;fill-rule:evenodd;stroke:none;stroke-width:1px;stroke-linecap:butt;stroke-linejoin:miter;stroke-opacity:1"
           d="m 34.254464,653.23661 6.65625,16.625 14.125,6.5625 45.968746,0.5 10.96947,2.63738 4.01045,8.11708 -1.44867,-7.81696 -3.8125,-3.96875 -26.437496,-2.5625 -22.53125,1.53125 -15.6875,-4.5 z"
           id="path7167"
           sodipodi:nodetypes="cccccccccccc" />
        <path
           style="display:inline;opacity:0.5;fill:#dbd4ac;fill-opacity:1;fill-rule:evenodd;stroke:none;stroke-width:1px;stroke-linecap:butt;stroke-linejoin:miter;stroke-opacity:1"
           d="m 50.723214,601.95536 -30.3125,21.5625 5.3125,-1.375 18.375,-13.9375 9.84375,-3.75 35.53125,13.21875 2.84375,4.8125 -3.15625,4.8125 5.1875,-4.21875 -0.34375,-5.84375 z"
           id="path7174" />
        <path
           style="display:inline;opacity:0.1996;fill:#ede8c7;fill-opacity:1;fill-rule:evenodd;stroke:none;stroke-width:1px;stroke-linecap:butt;stroke-linejoin:miter;stroke-opacity:1"
           d="m 29.362243,653.61621 -1.312399,-21.81709 7.02136,-11.46303 10.002109,-7.26868 17.451985,-1.96539 24.94147,13.85786 -24.056693,-15.70865 -20.10274,1.62981 -17.982124,16.64416 0.401245,25.20708 16.667239,26.30977 30.932123,2.35516 34.691852,6.91717 -32.709786,-9.28963 -31.569337,-2.09684 z"
           id="path7176"
           sodipodi:nodetypes="cccccccccccccccc" />
      </g>
      <path
         sodipodi:nodetypes="ccccccc"
         id="path7225"
         d="m 168.69547,724.75894 67.17515,-30.80965 61.11423,3.03046 74.24621,-11.61676 -70.71068,15.15229 -61.6193,2.0203 z"
         style="fill:#803311;fill-opacity:1;fill-rule:evenodd;stroke:none;stroke-width:1px;stroke-linecap:butt;stroke-linejoin:miter;stroke-opacity:1" />
      <path
         sodipodi:nodetypes="ccccccc"
         id="path8196"
         d="m 395.47472,693.94929 42.17387,6.31345 41.16372,-3.53553 6.06091,-9.84899 -2.27284,12.62691 -48.9924,3.53554 z"
         style="fill:#803311;fill-opacity:1;fill-rule:evenodd;stroke:none;stroke-width:1px;stroke-linecap:butt;stroke-linejoin:miter;stroke-opacity:1" />
    </g>
  </g>
</svg>
