<svg id="Layer_1" data-name="Layer 1" xmlns="http://www.w3.org/2000/svg" viewBox="0 0 1192 350"><defs><style>.cls-1{fill:#e00;}</style></defs><title>Logo-Red_Hat-JBoss_Enterprise_Application_Platform-B-Standard-RGB</title><path d="M249.7,219.68c-13.32,0-23.4-7.18-27.67-19.76L232,196c3.43,9.25,9.36,13.73,17.78,13.73,10.61,0,17.68-7.6,17.68-19.14V145.73H278.4v45C278.4,208.34,267.07,219.68,249.7,219.68Z"/><path d="M323.33,145.73c14.25,0,23.61,7.6,23.61,19.24,0,7-3.85,12.59-10.09,15.71,8,3.12,12.9,9.26,12.9,17.16,0,12.48-9.88,20.7-25.07,20.7H291.82V145.73ZM302.74,155v21.63h20c8.21,0,13.41-4.16,13.41-10.81S330.92,155,322.71,155Zm36,42.33c0-7.18-5.82-12-14.87-12H302.74v23.92h21.11C332.9,209.28,338.72,204.6,338.72,197.32Z"/><path d="M385.52,164.56A27.51,27.51,0,1,1,358,192,27.17,27.17,0,0,1,385.52,164.56ZM402.79,192c0-10.3-7.7-18.31-17.27-18.31s-17.37,8-17.37,18.31,7.59,18.4,17.37,18.4C395.09,210.42,402.79,202.31,402.79,192Z"/><path d="M423.48,204.81c5.51,4.37,11.34,6.65,17.26,6.65,7.49,0,12.69-3.22,12.69-7.9,0-3.74-2.7-5.93-8.53-6.76l-9.56-1.35c-10.51-1.56-15.81-6.45-15.81-14.67,0-9.57,8.32-16,20.69-16a36.26,36.26,0,0,1,21.32,6.76l-5.3,6.86c-5.82-3.85-11.13-5.51-16.74-5.51-6.35,0-10.61,2.91-10.61,7.17,0,3.85,2.49,5.73,8.73,6.66l9.57,1.35c10.51,1.56,16,6.56,16,14.77,0,9.47-9.57,16.64-22.15,16.64-9.16,0-17.37-2.7-23.2-7.8Z"/><path d="M472.46,204.81c5.51,4.37,11.34,6.65,17.27,6.65,7.48,0,12.68-3.22,12.68-7.9,0-3.74-2.7-5.93-8.52-6.76l-9.57-1.35c-10.51-1.56-15.81-6.45-15.81-14.67,0-9.57,8.32-16,20.7-16a36.28,36.28,0,0,1,21.32,6.76l-5.31,6.86c-5.82-3.85-11.13-5.51-16.74-5.51-6.35,0-10.61,2.91-10.61,7.17,0,3.85,2.5,5.73,8.74,6.66l9.56,1.35c10.51,1.56,16,6.56,16,14.77,0,9.47-9.57,16.64-22.15,16.64-9.15,0-17.37-2.7-23.19-7.8Z"/><path d="M543.18,145.73h53.67v9.57H554.1v21.84h28.08v9.36H554.1V209h43.16v9.57H543.18Z"/><path d="M607.24,165.6h10.4v5.3a21.8,21.8,0,0,1,15.92-6.34c12.17,0,20.69,8.42,20.69,20.69v33.29h-10.4V187c0-8.32-5.09-13.41-13.1-13.41a15,15,0,0,0-13.11,6.86v38.07h-10.4Z"/><path d="M671,174.33H659.76V165.6H671V152.08l10.29-2.5v16h15.6v8.73h-15.6V203c0,5.41,2.19,7.38,7.8,7.38a20.57,20.57,0,0,0,7.6-1.24v8.73a34.33,34.33,0,0,1-9.89,1.56c-10.29,0-15.8-4.89-15.8-14Z"/><path d="M728.82,219.47c-15.6,0-27.77-12-27.77-27.45,0-15.29,11.65-27.25,26.52-27.25,14.56,0,25.59,12.06,25.59,27.66v3H711.35a17.85,17.85,0,0,0,17.89,15.18A20.57,20.57,0,0,0,742.65,206l6.66,6.55A31.54,31.54,0,0,1,728.82,219.47Zm-17.37-31.82h31.41c-1.56-8.11-7.8-14.15-15.49-14.15C719.36,173.5,713,179.22,711.45,187.65Z"/><path d="M763,165.6h10.4v6.76A16.56,16.56,0,0,1,788,164.45a13.07,13.07,0,0,1,5.3.84v9.36a17.71,17.71,0,0,0-6.13-1.15c-6.14,0-11,3.33-13.73,9.67v35.37H763Z"/><path d="M801.62,165.6h10.3v5.09a24.16,24.16,0,0,1,16.22-5.92c15,0,26.73,12,26.73,27.25s-11.75,27.35-26.94,27.35a26.72,26.72,0,0,1-15.91-5.2v25.89h-10.4ZM812,180.16v23.92c3.33,3.85,8.84,6.24,14.77,6.24,10.19,0,17.89-7.8,17.89-18.2s-7.8-18.31-17.89-18.31C820.76,173.81,815.45,176.1,812,180.16Z"/><path d="M864.75,165.6h10.4v6.76a16.56,16.56,0,0,1,14.56-7.91,13.07,13.07,0,0,1,5.3.84v9.36a17.71,17.71,0,0,0-6.13-1.15c-6.14,0-11,3.33-13.73,9.67v35.37h-10.4Z"/><path d="M902.19,150.62a6.39,6.39,0,0,1,6.34-6.45,6.45,6.45,0,1,1,0,12.9A6.39,6.39,0,0,1,902.19,150.62Zm11.54,67.92h-10.4V165.6h10.4Z"/><path d="M926.62,204.81c5.52,4.37,11.34,6.65,17.27,6.65,7.49,0,12.69-3.22,12.69-7.9,0-3.74-2.71-5.93-8.53-6.76l-9.57-1.35c-10.5-1.56-15.81-6.45-15.81-14.67,0-9.57,8.32-16,20.7-16a36.28,36.28,0,0,1,21.32,6.76l-5.31,6.86c-5.82-3.85-11.12-5.51-16.74-5.51-6.34,0-10.61,2.91-10.61,7.17,0,3.85,2.5,5.73,8.74,6.66l9.57,1.35c10.5,1.56,16,6.56,16,14.77,0,9.47-9.56,16.64-22.15,16.64-9.15,0-17.37-2.7-23.19-7.8Z"/><path d="M1000.26,219.47c-15.61,0-27.77-12-27.77-27.45,0-15.29,11.64-27.25,26.52-27.25,14.56,0,25.58,12.06,25.58,27.66v3H982.78a17.86,17.86,0,0,0,17.89,15.18,20.62,20.62,0,0,0,13.42-4.68l6.65,6.55A31.52,31.52,0,0,1,1000.26,219.47Zm-17.37-31.82h31.41c-1.56-8.11-7.8-14.15-15.5-14.15C990.79,173.5,984.45,179.22,982.89,187.65Z"/><path d="M250.53,253.73h12.79l29.75,72.81H281.21l-8.42-21.33H240.23l-8.52,21.33H220.37Zm18.72,42.44-12.69-31.93-12.69,31.93Z"/><path d="M299.3,273.6h10.3v5.09a24.19,24.19,0,0,1,16.23-5.92c15,0,26.72,12,26.72,27.25s-11.75,27.35-26.93,27.35a26.7,26.7,0,0,1-15.91-5.2v25.89H299.3Zm10.41,14.56v23.92c3.32,3.85,8.83,6.24,14.76,6.24,10.2,0,17.89-7.8,17.89-18.2s-7.8-18.31-17.89-18.31C318.44,281.81,313.14,284.1,309.71,288.16Z"/><path d="M362.43,273.6h10.3v5.09A24.18,24.18,0,0,1,389,272.77c15,0,26.73,12,26.73,27.25s-11.75,27.35-26.94,27.35a26.72,26.72,0,0,1-15.91-5.2v25.89h-10.4Zm10.4,14.56v23.92c3.33,3.85,8.84,6.24,14.77,6.24,10.19,0,17.89-7.8,17.89-18.2s-7.8-18.31-17.89-18.31C381.57,281.81,376.26,284.1,372.83,288.16Z"/><path d="M436,326.54h-10.4V253.73l10.4-2.28Z"/><path d="M447.08,258.62a6.4,6.4,0,0,1,6.35-6.45,6.45,6.45,0,0,1,0,12.9A6.39,6.39,0,0,1,447.08,258.62Zm11.55,67.92h-10.4V273.6h10.4Z"/><path d="M510.42,311.87l6.24,6.76a29.25,29.25,0,0,1-20.9,8.84,27.46,27.46,0,0,1,0-54.91,30,30,0,0,1,21.32,8.84l-6.55,7.07A19.7,19.7,0,0,0,496,281.81c-9.67,0-17.16,8-17.16,18.21,0,10.4,7.6,18.3,17.37,18.3C501.48,318.32,506.16,316.24,510.42,311.87Z"/><path d="M522.38,311.35c0-10,8.11-16.12,21.42-16.12a37.41,37.41,0,0,1,14.46,2.91v-5.61c0-7.49-4.47-11.24-12.9-11.24-4.88,0-9.88,1.36-16.43,4.48l-3.85-7.8c7.91-3.75,14.77-5.41,21.74-5.41,13.73,0,21.63,6.76,21.63,18.93v35.05H558.26V322a25.12,25.12,0,0,1-16.43,5.51C530.28,327.47,522.38,320.92,522.38,311.35Zm21.84,8.43a20.34,20.34,0,0,0,14-5v-9.15a27.51,27.51,0,0,0-13.62-3.22c-7.6,0-12.28,3.43-12.28,8.73C532.36,316.24,537.15,319.78,544.22,319.78Z"/><path d="M585.2,282.33H574V273.6H585.2V260.08l10.29-2.5v16h15.6v8.73h-15.6V311c0,5.41,2.19,7.38,7.8,7.38a20.57,20.57,0,0,0,7.6-1.24v8.73a34.37,34.37,0,0,1-9.88,1.56c-10.3,0-15.81-4.89-15.81-14Z"/><path d="M617.64,258.62a6.4,6.4,0,0,1,6.35-6.45,6.45,6.45,0,1,1,0,12.9A6.39,6.39,0,0,1,617.64,258.62Zm11.55,67.92h-10.4V273.6h10.4Z"/><path d="M666.63,272.56A27.51,27.51,0,1,1,639.07,300,27.16,27.16,0,0,1,666.63,272.56ZM683.89,300c0-10.3-7.69-18.31-17.26-18.31s-17.37,8-17.37,18.31,7.59,18.4,17.37,18.4C676.2,318.42,683.89,310.31,683.89,300Z"/><path d="M704,273.6h10.4v5.3a21.8,21.8,0,0,1,15.92-6.34c12.16,0,20.69,8.42,20.69,20.69v33.29h-10.4V295c0-8.32-5.09-13.41-13.1-13.41a15,15,0,0,0-13.11,6.86v38.07H704Z"/><path d="M785.91,253.73h33.7c14.25,0,23.82,8.84,23.82,21.84,0,12.8-9.68,21.64-23.82,21.64H796.83v29.33H785.91Zm10.92,9.57V288h21.64c8.52,0,13.93-4.78,13.93-12.38S827,263.3,818.47,263.3Z"/><path d="M863.81,326.54h-10.4V253.73l10.4-2.28Z"/><path d="M873.38,311.35c0-10,8.11-16.12,21.42-16.12a37.45,37.45,0,0,1,14.46,2.91v-5.61c0-7.49-4.48-11.24-12.9-11.24-4.89,0-9.88,1.36-16.43,4.48l-3.85-7.8c7.9-3.75,14.77-5.41,21.74-5.41,13.72,0,21.63,6.76,21.63,18.93v35.05H909.26V322a25.15,25.15,0,0,1-16.44,5.51C881.28,327.47,873.38,320.92,873.38,311.35Zm21.83,8.43a20.38,20.38,0,0,0,14-5v-9.15a27.55,27.55,0,0,0-13.63-3.22c-7.59,0-12.27,3.43-12.27,8.73C883.36,316.24,888.14,319.78,895.21,319.78Z"/><path d="M936.19,282.33H925V273.6h11.23V260.08l10.3-2.5v16h15.6v8.73h-15.6V311c0,5.41,2.18,7.38,7.8,7.38a20.55,20.55,0,0,0,7.59-1.24v8.73a34.32,34.32,0,0,1-9.88,1.56c-10.3,0-15.81-4.89-15.81-14Z"/><path d="M978.73,273.6v-8c0-11,6.34-17.06,18-17.06a27.49,27.49,0,0,1,7.49.94v9a20.79,20.79,0,0,0-6.56-.94c-5.72,0-8.52,2.6-8.52,8.22v7.8h15.08v8.73H989.13v44.21h-10.4V282.33H966.45V273.6Z"/><path d="M1035.09,272.56A27.51,27.51,0,1,1,1007.53,300,27.17,27.17,0,0,1,1035.09,272.56ZM1052.36,300c0-10.3-7.7-18.31-17.27-18.31s-17.36,8-17.36,18.31,7.59,18.4,17.36,18.4C1044.66,318.42,1052.36,310.31,1052.36,300Z"/><path d="M1072.43,273.6h10.4v6.76a16.56,16.56,0,0,1,14.56-7.91,13.07,13.07,0,0,1,5.3.84v9.36a17.71,17.71,0,0,0-6.13-1.15c-6.14,0-11,3.33-13.73,9.67v35.37h-10.4Z"/><path d="M1111,273.6h10.4v5a20.35,20.35,0,0,1,14.88-6c7.17,0,13,3.33,16.32,8.84a21.2,21.2,0,0,1,17.89-8.84c11.65,0,19.87,8.42,19.87,20.69v33.29H1180V295c0-8.32-4.68-13.41-12.17-13.41-5.2,0-9.36,2.39-12.38,7.07a22.14,22.14,0,0,1,.42,4.57v33.29h-10.3V295c0-8.32-4.68-13.41-12.17-13.41a13.87,13.87,0,0,0-12,6.44v38.49H1111Z"/><path class="cls-1" d="M128,84c12.51,0,30.61-2.58,30.61-17.46a14,14,0,0,0-.31-3.42l-7.45-32.36c-1.72-7.12-3.23-10.35-15.73-16.6C125.39,9.19,104.26,1,98,1c-5.82,0-7.55,7.54-14.45,7.54-6.68,0-11.64-5.6-17.89-5.6-6,0-9.91,4.09-12.93,12.5,0,0-8.41,23.72-9.49,27.16A6.43,6.43,0,0,0,43,44.54C43,53.76,79.33,84,128,84m32.55-11.42c1.73,8.19,1.73,9.05,1.73,10.13,0,14-15.74,21.77-36.43,21.77C79,104.47,38.08,77.1,38.08,59a18.45,18.45,0,0,1,1.51-7.33C22.77,52.52,1,55.54,1,74.72,1,106.2,75.59,145,134.65,145c45.28,0,56.7-20.48,56.7-36.65,0-12.72-11-27.16-30.83-35.78"/><path d="M160.52,72.57c1.73,8.19,1.73,9.05,1.73,10.13,0,14-15.74,21.77-36.43,21.77C79,104.47,38.08,77.1,38.08,59a18.45,18.45,0,0,1,1.51-7.33l3.66-9.06A6.43,6.43,0,0,0,43,44.54C43,53.76,79.33,84,128,84c12.51,0,30.61-2.58,30.61-17.46a14,14,0,0,0-.31-3.42Z"/><path d="M580.24,93.3c0,11.89,7.15,17.67,20.19,17.67a52.11,52.11,0,0,0,11.89-1.68V95.51a24.84,24.84,0,0,1-7.68,1.16c-5.37,0-7.36-1.68-7.36-6.73V68.8h15.56V54.6H597.28v-18l-17,3.68V54.6H569V68.8h11.25Zm-53,.32c0-3.68,3.69-5.47,9.26-5.47a43.12,43.12,0,0,1,10.1,1.26v7.15A21.51,21.51,0,0,1,536,99.19c-5.46,0-8.73-2.1-8.73-5.57m5.2,17.56c6,0,10.84-1.26,15.36-4.31v3.37h16.82V74.58c0-13.56-9.14-21-24.39-21-8.52,0-16.94,2-26,6.1l6.1,12.52c6.52-2.74,12-4.42,16.83-4.42,7,0,10.62,2.73,10.62,8.31v2.73a49.53,49.53,0,0,0-12.62-1.58c-14.31,0-22.93,6-22.93,16.73,0,9.78,7.78,17.24,20.19,17.24m-92.44-.94h18.09V81.42h30.29v28.82h18.09V36.62H488.43V64.91H458.14V36.62H440.05ZM371.12,82.37c0-8,6.31-14.1,14.62-14.1a17.22,17.22,0,0,1,11.78,4.32V92a16.36,16.36,0,0,1-11.78,4.42c-8.2,0-14.62-6.1-14.62-14.09m26.61,27.87h16.83V32.94l-17,3.68V57.55a28.3,28.3,0,0,0-14.2-3.68c-16.19,0-28.92,12.51-28.92,28.5A28.25,28.25,0,0,0,382.8,111a25.12,25.12,0,0,0,14.93-4.83Zm-77.19-42.7c5.36,0,9.88,3.47,11.67,8.83H309c1.68-5.57,5.89-8.83,11.57-8.83M291.83,82.47c0,16.2,13.25,28.82,30.28,28.82,9.36,0,16.2-2.53,23.25-8.42l-11.26-10c-2.63,2.74-6.52,4.21-11.14,4.21a14.39,14.39,0,0,1-13.68-8.83h39.65V84.05c0-17.67-11.88-30.39-28.08-30.39a28.57,28.57,0,0,0-29,28.81M262.49,52.08c6,0,9.36,3.78,9.36,8.31s-3.37,8.31-9.36,8.31H244.61V52.08Zm-36,58.16h18.09V83.42h13.77l13.89,26.82h20.19l-16.2-29.45a22.27,22.27,0,0,0,13.88-20.72c0-13.25-10.41-23.45-26-23.45H226.52Z"/></svg>
