<?xml version="1.0" encoding="UTF-8" standalone="no"?>
<svg
   xmlns:dc="http://purl.org/dc/elements/1.1/"
   xmlns:cc="http://creativecommons.org/ns#"
   xmlns:svg="http://www.w3.org/2000/svg"
   xmlns="http://www.w3.org/2000/svg"
   class="ng-scope"
   height="53.963001"
   xml:space="preserve"
   viewBox="0 0 303.80274 53.963001"
   width="147.00133"
   id="logo-top-left"
   version="1.1">
   <defs
   id="defs59" />

<g
   transform="matrix(1.0577157,0,0,1.0577157,-55.346667,-201.08462)"
   id="g325"><path
     class="cls-1"
     d="m 70.347934,192.25228 -4.774,-9.858 h -3.224 v 9.858 h -7.894667 v -29.202 h 13.020001 a 19.137333,19.137333 0 0 1 4.629333,0.51667 9.92,9.92 0 0 1 3.596,1.63266 7.44,7.44 0 0 1 2.273333,2.976 10.808667,10.808667 0 0 1 0.806,4.402 9.4653333,9.4653333 0 0 1 -1.405333,5.37334 8.9486667,8.9486667 0 0 1 -3.844,3.18266 l 5.848667,11.13934 z m -0.372,-21.74133 a 3.596,3.596 0 0 0 -2.728,-0.868 h -4.898 v 6.36533 h 4.753334 a 3.9473333,3.9473333 0 0 0 2.852,-0.82667 3.286,3.286 0 0 0 0.847333,-2.418 3.224,3.224 0 0 0 -0.826667,-2.25266 z"
     id="path148"
     style="stroke-width:2.0666666" /><path
     class="cls-1"
     d="m 84.173934,192.25228 v -29.202 h 22.361336 v 6.79933 H 92.233934 v 3.92667 h 8.597336 v 6.65467 h -8.597336 v 5.022 h 14.673336 v 6.79933 z"
     id="path150"
     style="stroke-width:2.0666666" /><path
     class="cls-1"
     d="m 136.17127,184.41961 a 10.622667,10.622667 0 0 1 -2.99667,4.54667 12.172667,12.172667 0 0 1 -4.93933,2.52133 26.866667,26.866667 0 0 1 -6.79934,0.76467 h -9.44466 v -29.202 h 10.18866 a 25.068667,25.068667 0 0 1 6.2,0.70267 11.532,11.532 0 0 1 4.73267,2.356 11.346,11.346 0 0 1 2.99667,4.44333 19.426667,19.426667 0 0 1 1.054,6.882 21.100667,21.100667 0 0 1 -0.992,6.98533 z m -7.64667,-10.33333 a 6.014,6.014 0 0 0 -1.13667,-2.39733 4.7533333,4.7533333 0 0 0 -2.06666,-1.34334 9.982,9.982 0 0 0 -3.162,-0.434 h -2.06667 v 15.33467 h 1.75667 a 12.069333,12.069333 0 0 0 3.20333,-0.372 4.96,4.96 0 0 0 2.19067,-1.302 5.2906667,5.2906667 0 0 0 1.21933,-2.37667 15.334667,15.334667 0 0 0 0.372,-3.658 15.293333,15.293333 0 0 0 -0.31,-3.38933 z"
     id="path152"
     style="stroke-width:2.0666666" /><path
     class="cls-1"
     d="m 171.40793,192.25228 v -11.51133 h -9.07266 v 11.51133 h -8.26667 v -29.202 h 8.26667 v 10.64333 h 9.07266 v -10.64333 h 8.26667 v 29.202 z"
     id="path154"
     style="stroke-width:2.0666666" /><path
     class="cls-1"
     d="m 204.3506,192.25228 -1.57067,-5.12533 h -8.742 l -1.59133,5.12533 h -8.63867 l 10.56067,-29.202 h 8.26667 l 10.56066,29.202 z m -4.13333,-13.47467 c -0.26867,-0.95066 -0.47534,-1.77733 -0.66134,-2.45933 -0.186,-0.682 -0.372,-1.32267 -0.51666,-1.88067 -0.14467,-0.558 -0.31,-1.07466 -0.41334,-1.52933 -0.10333,-0.45467 -0.20666,-0.93 -0.28933,-1.426 0,0.496 -0.186,0.97133 -0.28933,1.44667 -0.10334,0.47533 -0.248,0.992 -0.39267,1.55 -0.14467,0.558 -0.33067,1.178 -0.51667,1.88066 -0.186,0.70267 -0.41333,1.50867 -0.682,2.418 l -0.53733,1.922 h 4.836 z"
     id="path156"
     style="stroke-width:2.0666666" /><path
     class="cls-1"
     d="m 228.32393,170.09761 v 22.15467 h -8.08066 v -22.15467 h -8.14267 v -7.04733 h 24.366 v 7.04733 z"
     id="path158"
     style="stroke-width:2.0666666" /><path
     class="cls-1"
     d="m 245.9526,167.12161 a 2.48,2.48 0 0 1 -0.59933,0.93 3.1826667,3.1826667 0 0 1 -0.93,0.62 3.348,3.348 0 0 1 -2.31467,0 3.1826667,3.1826667 0 0 1 -0.93,-0.62 3.1206667,3.1206667 0 0 1 -0.59933,-0.93 2.7486667,2.7486667 0 0 1 -0.22734,-1.15733 2.6866667,2.6866667 0 0 1 0.22734,-1.15733 2.666,2.666 0 0 1 0.66133,-0.93 2.8313333,2.8313333 0 0 1 0.93,-0.62 3.0586667,3.0586667 0 0 1 2.31467,0 2.8313333,2.8313333 0 0 1 0.93,0.62 2.1906667,2.1906667 0 0 1 0.59933,0.93 2.7073333,2.7073333 0 0 1 0.248,1.15733 2.7693333,2.7693333 0 0 1 -0.31,1.15733 z m -0.434,-2.06666 a 2.2113333,2.2113333 0 0 0 -0.496,-0.78534 2.5833333,2.5833333 0 0 0 -2.728,-0.51666 2.0666667,2.0666667 0 0 0 -0.76467,0.51666 2.2526667,2.2526667 0 0 0 -0.51666,0.78534 2.5626667,2.5626667 0 0 0 -0.20667,0.97133 2.5626667,2.5626667 0 0 0 0.20667,0.97133 2.4593333,2.4593333 0 0 0 0.51666,0.78534 2.2733333,2.2733333 0 0 0 0.76467,0.51666 2.9346667,2.9346667 0 0 0 1.94267,0 2.8726667,2.8726667 0 0 0 0.78533,-0.51666 2.418,2.418 0 0 0 0.496,-0.78534 2.2113333,2.2113333 0 0 0 0.20667,-0.97133 2.2113333,2.2113333 0 0 0 -0.20667,-1.03333 z m -1.116,0.88866 a 0.95066667,0.95066667 0 0 1 -0.47533,0.33067 l 0.64066,1.302 h -0.64066 l -0.62,-1.32267 h -0.59934 v 1.26067 h -0.53733 v -3.20333 h 1.38467 0.39266 a 0.868,0.868 0 0 1 0.33067,0.186 0.57866667,0.57866667 0 0 1 0.22733,0.31 0.82666667,0.82666667 0 0 1 0,0.41333 0.97133333,0.97133333 0 0 1 -0.10333,0.66133 z m -0.496,-0.93 a 0.57866667,0.57866667 0 0 0 -0.372,-0.124 h -0.82667 v 0.90934 h 0.82667 a 0.72333333,0.72333333 0 0 0 0.372,0 0.39266667,0.39266667 0 0 0 0.14467,-0.35134 0.372,0.372 0 0 0 -0.14467,-0.496 z"
     id="path160"
     style="stroke-width:2.0666666" /><path
     class="cls-1"
     d="m 71.112601,209.24028 a 5.6006667,5.6006667 0 0 0 -5.394,-3.20333 c -4.422667,0 -6.944,3.88533 -6.944,9.362 0,5.47666 2.562666,9.362 6.985333,9.362 a 6.2,6.2 0 0 0 5.766,-3.74067 l 4.96,2.95533 a 11.201333,11.201333 0 0 1 -10.912,6.65467 c -7.708667,0 -12.875333,-5.91067 -12.875333,-15.23133 0,-8.99 5.394,-15.23134 13.082,-15.23134 a 11.139333,11.139333 0 0 1 10.788,6.55134 z"
     id="path162"
     style="stroke-width:2.0666666" /><path
     class="cls-1"
     d="m 92.688601,230.63028 c -8.039333,0 -12.792667,-6.2 -12.792667,-15.23133 0,-9.03134 4.753334,-15.23134 12.792667,-15.23134 8.039329,0 12.792669,6.2 12.792669,15.23134 0,9.03133 -4.774,15.23133 -12.792669,15.23133 z m 0,-24.59333 c -4.753333,0 -6.716667,4.13333 -6.716667,9.362 0,5.22866 1.963334,9.362 6.716667,9.362 4.753333,0 6.737333,-4.13334 6.737333,-9.362 0,-5.22867 -1.984,-9.362 -6.737333,-9.362 z"
     id="path164"
     style="stroke-width:2.0666666" /><path
     class="cls-1"
     d="m 120.29927,230.17561 h -8.804 v -29.53266 h 9.21733 c 8.41133,0 14.65267,3.968 14.65267,14.756 0,10.37466 -7.502,14.77666 -15.066,14.77666 z m 0.20666,-23.808 h -3.12066 v 18.06267 h 2.914 c 6.2,0 8.99,-3.63733 8.99,-9.03133 0,-6.03467 -2.56267,-9.03134 -8.78334,-9.03134 z"
     id="path166"
     style="stroke-width:2.0666666" /><path
     class="cls-1"
     d="m 141.2346,230.17561 v -29.53266 h 20.46 v 5.766 h -14.46667 v 5.16666 h 8.45267 v 5.74534 h -8.53533 v 7.068 h 15.19 v 5.78666 z"
     id="path168"
     style="stroke-width:2.0666666" /><path
     class="cls-1"
     d="m 185.66793,230.17561 -5.24933,-10.64333 h -5.93133 v 10.64333 h -5.89 v -29.53266 h 13.702 c 5.55933,0 10.14733,3.07933 10.14733,9.362 a 8.3906667,8.3906667 0 0 1 -5.642,8.68 l 5.642,11.49066 z m -3.49266,-23.808 h -7.688 v 7.60534 h 7.688 c 2.74866,0 4.13333,-1.28134 4.13333,-3.844 0,-2.56267 -1.50867,-3.76134 -4.13333,-3.76134 z"
     id="path170"
     style="stroke-width:2.0666666" /><path
     class="cls-1"
     d="m 198.62593,230.17561 v -29.53266 h 20.46 v 5.766 h -14.46666 v 5.16666 h 8.47333 v 5.74534 h -8.47333 v 7.068 h 15.19 v 5.78666 z"
     id="path172"
     style="stroke-width:2.0666666" /><path
     class="cls-1"
     d="m 245.5806,230.17561 -2.27333,-6.59266 H 232.4986 l -2.31467,6.59266 h -6.30333 l 11.26333,-29.53266 h 5.72467 l 11.20133,29.53266 z m -6.2,-17.56666 c -0.59933,-1.71534 -1.178,-3.49267 -1.46733,-4.588 -0.31,1.09533 -0.88867,2.87266 -1.488,4.588 l -1.88067,5.37333 h 6.696 z"
     id="path174"
     style="stroke-width:2.0666666" /><path
     class="cls-1"
     d="m 266.32993,230.17561 h -8.804 v -29.53266 h 9.21734 c 8.41133,0 14.65266,3.968 14.65266,14.756 0,10.37466 -7.502,14.77666 -15.066,14.77666 z m 0.20667,-23.808 h -3.12067 v 18.06267 h 2.914 c 6.2,0 9.01067,-3.63733 9.01067,-9.03133 0,-6.03467 -2.58333,-9.03134 -8.804,-9.03134 z"
     id="path176"
     style="stroke-width:2.0666666" /><path
     class="cls-1"
     d="m 299.2726,218.47828 v 11.69733 h -5.89 v -11.57333 l -11.16,-17.95933 h 6.77867 l 4.13333,7.006 c 1.054,1.75666 2.64533,4.67066 3.18267,5.766 0.558,-1.09534 2.06666,-3.92667 3.20333,-5.766 l 4.13333,-7.006 h 6.67534 z"
     id="path178"
     style="stroke-width:2.0666666" /><path
     class="cls-1"
     d="m 79.048601,267.97495 h -5.766 l -3.575333,-15.19 c -0.413334,-1.75667 -0.826667,-3.968 -1.012667,-5.06334 -0.124,1.09534 -0.537333,3.348 -0.950667,5.06334 l -3.72,15.19 h -5.538667 l -6.158666,-29.53267 h 6.2 l 2.562666,14.46667 c 0.248,1.44666 0.578667,3.63733 0.702667,4.85666 0.227333,-1.21933 0.682,-3.41 1.012667,-4.85666 l 3.451333,-14.46667 h 5.104667 l 3.492667,14.46667 c 0.330666,1.44666 0.785333,3.63733 1.012666,4.85666 0.124,-1.21933 0.454667,-3.45133 0.702667,-4.85666 l 2.562667,-14.46667 h 6.076 z"
     id="path180"
     style="stroke-width:2.0666666" /><path
     class="cls-1"
     d="m 101.47193,268.45028 c -8.039329,0 -12.792662,-6.2 -12.792662,-15.23133 0,-9.03134 4.753333,-15.23134 12.792662,-15.23134 8.03934,0 12.79267,6.2 12.79267,15.23134 0,9.03133 -4.75333,15.23133 -12.79267,15.23133 z m 0,-24.59333 c -4.753329,0 -6.737329,4.13333 -6.737329,9.362 0,5.22866 2.066667,9.362 6.737329,9.362 4.67067,0 6.73734,-4.13334 6.73734,-9.362 0,-5.22867 -1.984,-9.362 -6.73734,-9.362 z"
     id="path182"
     style="stroke-width:2.0666666" /><path
     class="cls-1"
     d="m 137.36993,267.97495 -5.27,-10.62267 h -5.93133 v 10.62267 h -5.89 v -29.53267 h 13.72267 c 5.55933,0 10.106,3.07933 10.106,9.362 a 8.432,8.432 0 0 1 -5.642,8.70067 l 5.642,11.47 z m -3.49266,-23.78734 h -7.70867 v 7.58467 h 7.70867 c 2.728,0 4.13333,-1.26067 4.13333,-3.844 0,-2.58333 -1.52933,-3.74067 -4.13333,-3.74067 z"
     id="path184"
     style="stroke-width:2.0666666" /><path
     class="cls-1"
     d="m 168.90727,267.97495 -7.998,-14.26 -4.712,5.58 v 8.68 h -5.89 v -29.53267 h 5.89 v 8.39067 c 0,1.09533 0,3.76133 0,4.69133 a 35.422667,35.422667 0 0 1 2.31466,-2.99667 l 8.26667,-10.08533 h 7.10933 l -8.63866,10.20933 10.82933,19.32334 z"
     id="path186"
     style="stroke-width:2.0666666" /><path
     class="cls-1"
     d="m 189.05727,268.45028 a 13.64,13.64 0 0 1 -11.42867,-5.37333 l 4.13333,-3.782 a 9.5686667,9.5686667 0 0 0 7.54334,3.36866 c 3.49266,0 5.12533,-0.97133 5.12533,-3.20333 0,-1.90133 -1.01267,-2.74867 -6.55133,-4.00933 -5.53867,-1.26067 -9.114,-2.99667 -9.114,-8.742 0,-5.35267 4.712,-8.63867 10.51933,-8.63867 a 14.053333,14.053333 0 0 1 10.726,4.50533 l -4.23667,4.13334 a 8.928,8.928 0 0 0 -6.696,-3.038 c -3.14133,0 -4.13333,1.364 -4.13333,2.666 0,1.86 1.26067,2.43866 5.93133,3.534 4.67067,1.09533 9.83734,2.70733 9.83734,9.114 -0.0827,5.66266 -3.61667,9.46533 -11.656,9.46533 z"
     id="path188"
     style="stroke-width:2.0666666" /><path
     class="cls-1"
     d="m 219.2306,257.51761 h -6.46867 v 10.45734 h -5.89 v -29.53267 h 12.87534 c 5.53866,0 10.12666,3.07933 10.12666,9.362 0,6.84067 -4.54666,9.71333 -10.64333,9.71333 z m 0.28933,-13.33 h -6.758 v 7.58467 h 6.84067 c 2.74867,0 4.13333,-1.26067 4.13333,-3.844 0,-2.58333 -1.59133,-3.74067 -4.216,-3.74067 z"
     id="path190"
     style="stroke-width:2.0666666" /><path
     class="cls-1"
     d="m 251.9666,267.97495 -2.31467,-6.572 H 238.8846 l -2.31467,6.572 h -6.2 l 11.16,-29.53267 h 5.72467 l 11.20133,29.53267 z m -6.2,-17.546 c -0.59933,-1.736 -1.178,-3.49267 -1.488,-4.60867 -0.28933,1.116 -0.868,2.87267 -1.46733,4.60867 l -1.88067,5.35266 h 6.71667 z"
     id="path192"
     style="stroke-width:2.0666666" /><path
     class="cls-1"
     d="m 279.70127,247.06028 a 5.58,5.58 0 0 0 -5.394,-3.20333 c -4.42267,0 -6.944,3.86466 -6.944,9.362 0,5.49733 2.56266,9.362 6.98533,9.362 a 6.2,6.2 0 0 0 5.766,-3.76134 l 4.96,2.95534 a 11.222,11.222 0 0 1 -10.89133,6.67533 c -7.688,0 -12.87534,-5.91067 -12.87534,-15.23133 0,-8.99 5.394,-15.23134 13.082,-15.23134 a 11.118667,11.118667 0 0 1 10.788,6.53067 z"
     id="path194"
     style="stroke-width:2.0666666" /><path
     class="cls-1"
     d="m 291.04727,267.97495 v -29.53267 h 20.46 v 5.78667 H 297.0406 v 5.10466 h 8.47333 v 5.642 h -8.47333 v 7.13 h 15.19 v 5.78667 z"
     id="path196"
     style="stroke-width:2.0666666" /><path
     class="cls-1"
     d="m 327.7926,268.45028 a 13.681333,13.681333 0 0 1 -11.44933,-5.37333 l 4.25733,-3.782 a 9.548,9.548 0 0 0 7.44,3.36866 c 3.49267,0 5.146,-0.97133 5.146,-3.20333 0,-1.90133 -1.01267,-2.74867 -6.572,-4.00933 -5.55933,-1.26067 -9.21733,-2.99667 -9.21733,-8.82467 0,-5.35267 4.712,-8.63867 10.51933,-8.63867 a 14.012,14.012 0 0 1 10.80867,4.588 l -4.13334,4.13334 a 8.99,8.99 0 0 0 -6.696,-3.038 c -3.162,0 -4.13333,1.364 -4.13333,2.666 0,1.86 1.26067,2.43866 5.93133,3.534 4.67067,1.09533 9.858,2.70733 9.858,9.114 -0.186,5.66266 -3.72,9.46533 -11.75933,9.46533 z"
     id="path198"
     style="stroke-width:2.0666666" /></g></svg>