<?xml version="1.0" encoding="UTF-8" standalone="no"?>
<svg
   xmlns:dc="http://purl.org/dc/elements/1.1/"
   xmlns:cc="http://creativecommons.org/ns#"
   xmlns:rdf="http://www.w3.org/1999/02/22-rdf-syntax-ns#"
   xmlns:svg="http://www.w3.org/2000/svg"
   xmlns="http://www.w3.org/2000/svg"
   version="1.1"
   id="logo-top-left"
   width="150"
   viewBox="0 0 310 125"
   xml:space="preserve"
   height="125"
   class="ng-scope">
   <defs
   id="defs59" />
<g
   id="g54"
   transform="matrix(0.9449055,0,0,0.9449055,64.601598,3.9801762)">
  <path
   d="m 43.325,50.496 -2.743,-5.664 h -1.877 v 5.664 h -4.56 V 33.695 h 7.512 c 0.976,0 1.868,0.101 2.676,0.301 0.808,0.199 1.5,0.516 2.076,0.947 0.576,0.432 1.02,0.996 1.332,1.692 0.312,0.696 0.468,1.54 0.468,2.532 0,1.264 -0.273,2.296 -0.818,3.096 -0.545,0.801 -1.283,1.408 -2.213,1.824 l 3.368,6.408 H 43.325 Z M 43.107,37.992 c -0.313,-0.336 -0.84,-0.504 -1.58,-0.504 h -2.822 v 3.672 h 2.75 c 0.771,0 1.318,-0.16 1.64,-0.48 0.322,-0.32 0.483,-0.783 0.483,-1.393 0,-0.527 -0.157,-0.959 -0.471,-1.295 z"
   id="path2"
   style="fill:#ffffff" />
  <path
   d="M 52.049,50.496 V 33.695 h 12.864 v 3.912 h -8.256 v 2.256 h 4.968 v 3.84 h -4.968 v 2.881 h 8.424 v 3.912 z"
   id="path4"
   style="fill:#ffffff" />
  <path
   d="m 82.721,45.996 c -0.384,1.08 -0.96,1.951 -1.728,2.615 -0.768,0.664 -1.716,1.145 -2.844,1.44 -1.128,0.295 -2.436,0.444 -3.924,0.444 h -5.448 v -16.8 h 5.88 c 1.312,0 2.504,0.137 3.576,0.408 1.072,0.272 1.98,0.732 2.724,1.38 0.744,0.648 1.32,1.5 1.728,2.556 0.408,1.057 0.612,2.377 0.612,3.961 0,1.584 -0.192,2.916 -0.576,3.996 z M 78.317,40.08 C 78.181,39.519 77.961,39.064 77.657,38.711 77.353,38.359 76.953,38.1 76.457,37.932 75.961,37.764 75.353,37.68 74.633,37.68 h -1.152 v 8.832 h 1.008 c 0.72,0 1.336,-0.076 1.848,-0.229 0.512,-0.151 0.932,-0.399 1.26,-0.744 0.328,-0.344 0.564,-0.799 0.708,-1.367 0.144,-0.568 0.216,-1.268 0.216,-2.1 0,-0.768 -0.068,-1.432 -0.204,-1.992 z"
   id="path6"
   style="fill:#ffffff" />
  <path
   d="m 105.448,50.496 v -6.625 h -5.232 v 6.625 H 95.464 V 33.695 h 4.752 v 6.12 h 5.232 v -6.12 h 4.752 v 16.801 z"
   id="path8"
   style="fill:#ffffff" />
  <path
   d="m 125.176,50.496 -0.912,-2.953 h -5.04 l -0.911,2.953 h -4.992 l 6.096,-16.801 h 4.704 l 6.096,16.801 z m -2.352,-7.752 c -0.145,-0.545 -0.272,-1.017 -0.384,-1.416 -0.112,-0.4 -0.213,-0.76 -0.301,-1.08 -0.088,-0.32 -0.164,-0.612 -0.228,-0.877 -0.064,-0.264 -0.12,-0.539 -0.168,-0.828 -0.048,0.289 -0.104,0.568 -0.168,0.841 -0.064,0.272 -0.141,0.567 -0.229,0.888 -0.088,0.321 -0.188,0.68 -0.3,1.08 -0.112,0.4 -0.24,0.864 -0.384,1.393 l -0.312,1.104 h 2.784 z"
   id="path10"
   style="fill:#ffffff" />
  <path
   d="m 139.721,37.752 v 12.744 h -4.656 V 37.752 h -4.704 v -4.057 h 14.064 v 4.057 z"
   id="path12"
   style="fill:#ffffff" />
  <path
   d="m 150.661,36.604 c -0.109,0.264 -0.262,0.493 -0.456,0.688 -0.193,0.193 -0.423,0.346 -0.687,0.455 -0.265,0.11 -0.55,0.166 -0.858,0.166 -0.308,0 -0.594,-0.056 -0.857,-0.166 -0.265,-0.109 -0.493,-0.262 -0.688,-0.455 -0.194,-0.194 -0.346,-0.424 -0.456,-0.688 -0.11,-0.264 -0.165,-0.55 -0.165,-0.857 0,-0.309 0.055,-0.594 0.165,-0.858 0.11,-0.264 0.262,-0.493 0.456,-0.687 0.194,-0.194 0.423,-0.346 0.688,-0.457 0.264,-0.109 0.55,-0.164 0.857,-0.164 0.309,0 0.594,0.055 0.858,0.164 0.264,0.111 0.493,0.263 0.687,0.457 0.194,0.193 0.347,0.422 0.456,0.687 0.11,0.265 0.165,0.55 0.165,0.858 0,0.307 -0.055,0.593 -0.165,0.857 z m -0.32,-1.575 c -0.093,-0.223 -0.221,-0.416 -0.385,-0.58 -0.164,-0.164 -0.356,-0.291 -0.579,-0.383 -0.222,-0.093 -0.461,-0.139 -0.717,-0.139 -0.26,0 -0.5,0.046 -0.72,0.139 -0.22,0.092 -0.412,0.219 -0.576,0.383 -0.164,0.164 -0.292,0.357 -0.384,0.58 -0.092,0.221 -0.138,0.461 -0.138,0.717 0,0.26 0.046,0.5 0.138,0.72 0.092,0.22 0.22,0.412 0.384,0.575 0.164,0.164 0.356,0.293 0.576,0.385 0.22,0.092 0.46,0.138 0.72,0.138 0.256,0 0.495,-0.046 0.717,-0.138 0.223,-0.092 0.415,-0.221 0.579,-0.385 0.164,-0.163 0.292,-0.355 0.385,-0.575 0.092,-0.22 0.138,-0.46 0.138,-0.72 0,-0.256 -0.046,-0.496 -0.138,-0.717 z m -0.834,0.663 c -0.092,0.116 -0.214,0.196 -0.366,0.24 l 0.486,0.954 h -0.473 l -0.46,-0.912 h -0.454 v 0.912 h -0.402 v -2.364 h 1.035 c 0.104,0 0.202,0.014 0.296,0.042 0.094,0.028 0.176,0.071 0.245,0.13 0.069,0.058 0.126,0.131 0.167,0.221 0.042,0.091 0.063,0.197 0.063,0.322 0.001,0.187 -0.045,0.339 -0.137,0.455 z m -0.372,-0.696 c -0.072,-0.057 -0.162,-0.084 -0.271,-0.084 h -0.624 v 0.672 h 0.624 c 0.108,0 0.198,-0.027 0.271,-0.081 0.071,-0.054 0.107,-0.14 0.107,-0.255 0,-0.112 -0.036,-0.196 -0.107,-0.252 z"
   id="path14"
   style="fill:#ffffff" />
  <path
   d="m 48.078,79.74 c -1.368,0.768 -2.977,1.151 -4.824,1.151 -1.536,0 -2.934,-0.33 -4.194,-0.99 -1.26,-0.659 -2.334,-1.565 -3.222,-2.718 -0.888,-1.152 -1.572,-2.52 -2.052,-4.104 -0.48,-1.584 -0.72,-3.301 -0.72,-5.148 0,-1.872 0.252,-3.605 0.756,-5.202 0.504,-1.596 1.206,-2.97 2.106,-4.122 0.9,-1.152 1.985,-2.058 3.258,-2.718 1.272,-0.659 2.664,-0.99 4.176,-0.99 3.408,0 6.084,1.345 8.028,4.032 l -2.232,1.691 c -0.816,-1.104 -1.656,-1.907 -2.52,-2.412 -0.864,-0.504 -1.98,-0.756 -3.348,-0.756 -1.08,0 -2.076,0.259 -2.988,0.774 -0.912,0.517 -1.692,1.23 -2.34,2.142 -0.648,0.913 -1.158,2.005 -1.53,3.276 -0.373,1.272 -0.558,2.677 -0.558,4.212 0,1.537 0.186,2.947 0.558,4.23 0.372,1.284 0.894,2.389 1.566,3.312 0.671,0.925 1.463,1.645 2.376,2.16 0.912,0.517 1.896,0.774 2.952,0.774 1.368,0 2.543,-0.289 3.528,-0.864 0.984,-0.576 1.884,-1.392 2.7,-2.448 l 1.944,1.692 c -0.913,1.25 -2.053,2.258 -3.42,3.026 z"
   id="path16"
   style="fill:#ffffff" />
  <path
   d="m 75.149,73.098 c -0.504,1.596 -1.218,2.97 -2.142,4.122 -0.924,1.151 -2.034,2.052 -3.33,2.7 -1.296,0.647 -2.724,0.972 -4.284,0.972 -1.561,0 -2.982,-0.318 -4.266,-0.954 -1.284,-0.636 -2.382,-1.529 -3.294,-2.682 -0.913,-1.152 -1.615,-2.52 -2.106,-4.104 -0.492,-1.584 -0.738,-3.323 -0.738,-5.22 0,-1.896 0.252,-3.642 0.756,-5.238 0.504,-1.596 1.212,-2.97 2.124,-4.121 0.912,-1.152 2.016,-2.053 3.312,-2.701 1.296,-0.647 2.724,-0.972 4.284,-0.972 1.56,0 2.982,0.318 4.266,0.954 1.284,0.637 2.381,1.53 3.294,2.682 0.912,1.152 1.62,2.521 2.124,4.104 0.504,1.583 0.756,3.324 0.756,5.22 0,1.896 -0.252,3.642 -0.756,5.238 z m -2.646,-9.469 c -0.396,-1.283 -0.942,-2.387 -1.638,-3.312 -0.696,-0.923 -1.512,-1.632 -2.448,-2.124 -0.936,-0.491 -1.957,-0.738 -3.06,-0.738 -1.08,0 -2.083,0.247 -3.006,0.738 -0.924,0.492 -1.723,1.188 -2.394,2.088 -0.672,0.9 -1.201,1.992 -1.584,3.276 -0.384,1.284 -0.576,2.718 -0.576,4.302 0,1.584 0.198,3.019 0.594,4.303 0.396,1.283 0.936,2.388 1.62,3.312 0.684,0.925 1.494,1.632 2.43,2.124 0.936,0.492 1.956,0.738 3.06,0.738 1.08,0 2.088,-0.246 3.024,-0.738 0.936,-0.492 1.74,-1.188 2.412,-2.088 0.671,-0.9 1.2,-1.992 1.584,-3.276 0.383,-1.283 0.576,-2.718 0.576,-4.302 0,-1.584 -0.198,-3.018 -0.594,-4.303 z"
   id="path18"
   style="fill:#ffffff" />
  <path
   d="m 98.675,73.566 c -0.612,1.62 -1.458,2.946 -2.538,3.978 -1.08,1.033 -2.353,1.783 -3.816,2.25 -1.464,0.469 -3.037,0.703 -4.716,0.703 H 81.449 V 55.295 h 6.66 c 1.656,0 3.186,0.24 4.59,0.721 1.404,0.481 2.616,1.23 3.636,2.25 1.02,1.021 1.818,2.311 2.394,3.87 0.576,1.56 0.864,3.42 0.864,5.58 0,2.28 -0.306,4.229 -0.918,5.85 z M 94.517,60.408 c -1.512,-1.705 -3.72,-2.557 -6.624,-2.557 H 84.257 V 77.94 h 3.708 c 1.368,0 2.592,-0.186 3.672,-0.558 1.08,-0.372 2.003,-0.966 2.772,-1.782 0.768,-0.815 1.355,-1.865 1.764,-3.15 0.408,-1.283 0.612,-2.826 0.612,-4.625 0,-3.241 -0.756,-5.714 -2.268,-7.417 z"
   id="path20"
   style="fill:#ffffff" />
  <path
   d="M 105.136,80.496 V 55.295 h 15.229 v 2.557 h -12.42 v 7.92 h 7.2 v 2.557 h -7.2 v 9.611 h 12.96 v 2.557 h -15.769 z"
   id="path22"
   style="fill:#ffffff" />
  <path
   d="m 142.468,67.174 c -1.08,1.199 -2.52,1.991 -4.319,2.375 l 5.544,10.947 h -3.24 l -5.4,-10.729 h -5.976 v 10.729 h -2.809 V 55.295 h 9.973 c 1.104,0 2.136,0.145 3.096,0.433 0.96,0.288 1.788,0.726 2.484,1.313 0.695,0.588 1.247,1.326 1.655,2.214 0.408,0.888 0.612,1.943 0.612,3.167 0,1.968 -0.54,3.552 -1.62,4.752 z m -2.502,-8.156 c -0.876,-0.777 -2.154,-1.166 -3.834,-1.166 h -7.056 v 9.359 h 6.696 c 1.872,0 3.258,-0.388 4.157,-1.165 0.9,-0.776 1.351,-1.954 1.351,-3.532 0,-1.554 -0.438,-2.719 -1.314,-3.496 z"
   id="path24"
   style="fill:#ffffff" />
  <path
   d="M 149.667,80.496 V 55.295 h 15.229 v 2.557 h -12.42 v 7.92 h 7.2 v 2.557 h -7.2 v 9.611 h 12.96 v 2.557 h -15.769 z"
   id="path26"
   style="fill:#ffffff" />
  <path
   d="m 187.035,80.496 -2.16,-6.408 h -10.403 l -2.196,6.408 h -2.88 l 8.748,-25.201 h 3.096 l 8.748,25.201 z m -5.796,-17.244 c -0.144,-0.408 -0.294,-0.852 -0.45,-1.332 -0.156,-0.48 -0.306,-0.941 -0.45,-1.387 -0.144,-0.443 -0.27,-0.863 -0.378,-1.26 -0.107,-0.396 -0.197,-0.726 -0.27,-0.99 -0.072,0.265 -0.162,0.589 -0.271,0.973 -0.107,0.384 -0.233,0.805 -0.378,1.26 -0.144,0.456 -0.3,0.93 -0.468,1.422 -0.168,0.492 -0.324,0.954 -0.468,1.387 l -2.772,8.207 h 8.677 z"
   id="path28"
   style="fill:#ffffff" />
  <path
   d="m 212.434,73.566 c -0.612,1.62 -1.458,2.946 -2.538,3.978 -1.08,1.033 -2.353,1.783 -3.816,2.25 -1.464,0.469 -3.036,0.703 -4.716,0.703 h -6.156 V 55.295 h 6.66 c 1.656,0 3.187,0.24 4.59,0.721 1.404,0.48 2.616,1.23 3.637,2.25 1.02,1.021 1.817,2.311 2.394,3.87 0.577,1.559 0.864,3.42 0.864,5.58 -0.001,2.28 -0.307,4.229 -0.919,5.85 z m -4.159,-13.158 c -1.512,-1.705 -3.721,-2.557 -6.624,-2.557 h -3.636 V 77.94 h 3.708 c 1.368,0 2.592,-0.186 3.672,-0.558 1.08,-0.372 2.004,-0.966 2.772,-1.782 0.768,-0.815 1.355,-1.865 1.764,-3.15 0.407,-1.283 0.612,-2.826 0.612,-4.625 0.001,-3.241 -0.756,-5.714 -2.268,-7.417 z"
   id="path30"
   style="fill:#ffffff" />
  <path
   d="m 227.175,70.488 v 10.008 h -2.808 v -9.973 l -8.64,-15.229 h 3.204 l 4.031,7.236 c 0.504,0.912 1.014,1.854 1.53,2.826 0.516,0.973 0.954,1.83 1.314,2.574 0.359,-0.744 0.797,-1.602 1.313,-2.574 0.516,-0.972 1.026,-1.914 1.53,-2.826 l 4.032,-7.236 h 3.132 z"
   id="path32"
   style="fill:#ffffff" />
  <path
   d="M 54.558,110.496 H 51.39 L 47.43,94.367 C 47.334,93.96 47.225,93.504 47.106,93 c -0.12,-0.504 -0.234,-1.008 -0.342,-1.512 -0.108,-0.505 -0.21,-1.002 -0.306,-1.494 -0.096,-0.492 -0.18,-0.93 -0.252,-1.314 -0.072,0.385 -0.156,0.816 -0.252,1.296 -0.096,0.48 -0.198,0.972 -0.306,1.476 -0.108,0.504 -0.222,1.008 -0.342,1.512 -0.121,0.505 -0.229,0.973 -0.324,1.404 l -3.96,16.129 h -3.096 l -5.04,-25.201 h 2.808 l 2.952,16.201 c 0.072,0.408 0.149,0.875 0.234,1.404 0.084,0.527 0.168,1.049 0.252,1.564 0.084,0.518 0.168,1.008 0.252,1.477 0.084,0.469 0.15,0.859 0.198,1.17 0.048,-0.311 0.12,-0.695 0.216,-1.152 0.096,-0.455 0.198,-0.941 0.306,-1.457 0.108,-0.516 0.222,-1.031 0.342,-1.549 0.12,-0.516 0.228,-0.977 0.324,-1.385 l 3.996,-16.273 h 3.024 l 3.996,16.273 c 0.096,0.408 0.204,0.869 0.324,1.385 0.12,0.518 0.234,1.033 0.342,1.549 0.108,0.516 0.209,1.002 0.306,1.457 0.096,0.457 0.168,0.842 0.216,1.152 0.048,-0.311 0.113,-0.701 0.198,-1.17 0.084,-0.469 0.168,-0.959 0.252,-1.477 0.084,-0.516 0.168,-1.037 0.252,-1.564 0.084,-0.529 0.162,-0.996 0.234,-1.404 l 2.952,-16.201 h 2.736 z"
   id="path34"
   style="fill:#ffffff" />
  <path
   d="m 83.609,103.098 c -0.504,1.596 -1.218,2.971 -2.142,4.121 -0.924,1.152 -2.034,2.053 -3.33,2.701 -1.296,0.648 -2.724,0.973 -4.284,0.973 -1.561,0 -2.982,-0.32 -4.266,-0.955 -1.284,-0.635 -2.382,-1.529 -3.294,-2.682 -0.913,-1.152 -1.615,-2.52 -2.106,-4.104 -0.492,-1.584 -0.738,-3.324 -0.738,-5.221 0,-1.896 0.252,-3.642 0.756,-5.238 0.504,-1.596 1.212,-2.97 2.124,-4.121 0.912,-1.152 2.016,-2.053 3.312,-2.701 1.296,-0.647 2.724,-0.972 4.284,-0.972 1.56,0 2.982,0.318 4.266,0.954 1.284,0.637 2.381,1.53 3.294,2.682 0.912,1.152 1.62,2.521 2.124,4.104 0.504,1.583 0.756,3.324 0.756,5.22 0,1.897 -0.252,3.643 -0.756,5.239 z m -2.646,-9.469 c -0.396,-1.283 -0.942,-2.387 -1.638,-3.312 -0.696,-0.923 -1.512,-1.632 -2.448,-2.124 -0.936,-0.491 -1.957,-0.738 -3.06,-0.738 -1.08,0 -2.083,0.247 -3.006,0.738 -0.924,0.492 -1.723,1.188 -2.394,2.088 -0.672,0.9 -1.201,1.992 -1.584,3.276 -0.384,1.284 -0.576,2.718 -0.576,4.302 0,1.584 0.198,3.02 0.594,4.303 0.396,1.283 0.936,2.389 1.62,3.311 0.684,0.926 1.494,1.633 2.43,2.125 0.936,0.492 1.956,0.738 3.06,0.738 1.08,0 2.088,-0.246 3.024,-0.738 0.936,-0.492 1.74,-1.188 2.412,-2.088 0.671,-0.9 1.2,-1.992 1.584,-3.275 0.383,-1.285 0.576,-2.719 0.576,-4.303 0,-1.584 -0.198,-3.018 -0.594,-4.303 z"
   id="path36"
   style="fill:#ffffff" />
  <path
   d="m 106.108,97.174 c -1.08,1.199 -2.52,1.991 -4.32,2.375 l 5.545,10.947 h -3.24 l -5.4,-10.729 h -5.976 v 10.729 H 89.909 V 85.295 h 9.972 c 1.104,0 2.136,0.145 3.096,0.433 0.96,0.288 1.788,0.726 2.484,1.313 0.695,0.588 1.247,1.326 1.655,2.214 0.408,0.888 0.612,1.943 0.612,3.167 0.001,1.968 -0.54,3.552 -1.62,4.752 z m -2.502,-8.156 c -0.876,-0.777 -2.154,-1.166 -3.834,-1.166 h -7.056 v 9.359 h 6.696 c 1.872,0 3.258,-0.388 4.158,-1.165 0.9,-0.776 1.351,-1.954 1.351,-3.532 0,-1.554 -0.439,-2.719 -1.315,-3.496 z"
   id="path38"
   style="fill:#ffffff" />
  <path
   d="m 128.357,110.496 -7.452,-13.429 -4.788,6.192 v 7.236 h -2.809 v -25.2 h 2.809 v 10.98 3.385 c 0.168,-0.24 0.401,-0.57 0.702,-0.99 0.3,-0.42 0.63,-0.87 0.989,-1.35 0.36,-0.48 0.714,-0.949 1.062,-1.404 0.348,-0.456 0.653,-0.852 0.918,-1.188 l 7.308,-9.433 h 3.061 l -7.38,9.469 8.784,15.732 z"
   id="path40"
   style="fill:#ffffff" />
  <path
   d="m 150.263,106.645 c -0.373,0.863 -0.918,1.607 -1.639,2.23 -0.72,0.625 -1.596,1.117 -2.628,1.477 -1.032,0.36 -2.208,0.541 -3.527,0.541 -1.729,0 -3.318,-0.332 -4.771,-0.99 -1.452,-0.66 -2.682,-1.494 -3.689,-2.502 l 1.871,-2.088 c 0.96,0.912 1.992,1.643 3.097,2.195 1.104,0.553 2.304,0.828 3.6,0.828 1.68,0 3.006,-0.385 3.979,-1.152 0.972,-0.768 1.458,-1.824 1.458,-3.168 0,-0.576 -0.097,-1.104 -0.288,-1.584 -0.192,-0.48 -0.522,-0.924 -0.99,-1.332 -0.468,-0.408 -1.086,-0.811 -1.854,-1.205 -0.768,-0.396 -1.728,-0.799 -2.88,-1.207 -1.368,-0.479 -2.514,-0.966 -3.438,-1.458 -0.925,-0.491 -1.669,-1.02 -2.232,-1.584 -0.563,-0.563 -0.972,-1.193 -1.224,-1.89 -0.252,-0.697 -0.378,-1.5 -0.378,-2.412 0,-1.008 0.191,-1.908 0.576,-2.7 0.383,-0.792 0.918,-1.47 1.602,-2.034 0.684,-0.563 1.512,-0.99 2.484,-1.277 0.972,-0.289 2.046,-0.433 3.222,-0.433 1.68,0 3.114,0.24 4.302,0.72 1.188,0.48 2.31,1.141 3.366,1.98 l -1.8,2.195 c -0.912,-0.768 -1.83,-1.35 -2.754,-1.745 -0.925,-0.396 -2.022,-0.595 -3.294,-0.595 -0.864,0 -1.608,0.104 -2.232,0.307 -0.624,0.204 -1.134,0.475 -1.53,0.811 -0.396,0.336 -0.684,0.726 -0.863,1.17 -0.181,0.443 -0.271,0.918 -0.271,1.422 0,0.527 0.072,1.002 0.216,1.422 0.145,0.42 0.433,0.828 0.864,1.224 0.431,0.396 1.038,0.786 1.818,1.17 0.779,0.384 1.806,0.805 3.078,1.261 1.392,0.504 2.556,1.008 3.491,1.512 0.937,0.504 1.687,1.057 2.25,1.656 0.564,0.6 0.966,1.26 1.206,1.979 0.24,0.721 0.36,1.549 0.36,2.484 -0.001,0.983 -0.187,1.906 -0.558,2.772 z"
   id="path42"
   style="fill:#ffffff" />
  <path
   d="m 173.482,96.15 c -0.42,0.972 -1.002,1.788 -1.745,2.448 -0.745,0.66 -1.645,1.158 -2.7,1.494 -1.057,0.336 -2.209,0.504 -3.456,0.504 h -6.12 v 9.9 h -2.809 V 85.295 h 9.433 c 1.152,0 2.214,0.15 3.186,0.451 0.973,0.3 1.818,0.762 2.538,1.386 0.721,0.624 1.284,1.41 1.692,2.358 0.407,0.947 0.612,2.058 0.612,3.33 0,1.248 -0.211,2.358 -0.631,3.33 z m -3.545,-6.984 c -0.912,-0.877 -2.231,-1.314 -3.96,-1.314 h -6.516 V 98.04 h 6.156 c 3.791,0 5.688,-1.703 5.688,-5.111 0,-1.633 -0.456,-2.887 -1.368,-3.763 z"
   id="path44"
   style="fill:#ffffff" />
  <path
   d="m 193.013,110.496 -2.16,-6.408 H 180.45 l -2.196,6.408 h -2.88 l 8.748,-25.201 h 3.096 l 8.748,25.201 z m -5.796,-17.244 c -0.144,-0.408 -0.294,-0.852 -0.45,-1.332 -0.156,-0.48 -0.306,-0.941 -0.45,-1.387 -0.144,-0.443 -0.27,-0.863 -0.378,-1.26 -0.107,-0.396 -0.197,-0.726 -0.27,-0.99 -0.072,0.265 -0.162,0.589 -0.271,0.973 -0.107,0.384 -0.233,0.805 -0.378,1.26 -0.144,0.456 -0.3,0.93 -0.468,1.422 -0.168,0.492 -0.324,0.954 -0.468,1.387 l -2.772,8.207 h 8.677 z"
   id="path46"
   style="fill:#ffffff" />
  <path
   d="m 214.433,109.74 c -1.368,0.768 -2.977,1.152 -4.824,1.152 -1.536,0 -2.934,-0.332 -4.194,-0.99 -1.26,-0.66 -2.334,-1.566 -3.222,-2.719 -0.888,-1.153 -1.572,-2.52 -2.052,-4.104 -0.48,-1.584 -0.72,-3.301 -0.72,-5.148 0,-1.872 0.252,-3.605 0.756,-5.202 0.504,-1.596 1.206,-2.97 2.105,-4.122 0.9,-1.152 1.986,-2.058 3.258,-2.718 1.272,-0.659 2.664,-0.99 4.177,-0.99 3.407,0 6.084,1.345 8.027,4.032 l -2.231,1.691 c -0.816,-1.104 -1.656,-1.907 -2.521,-2.412 -0.863,-0.504 -1.979,-0.756 -3.348,-0.756 -1.08,0 -2.076,0.259 -2.988,0.774 -0.912,0.517 -1.691,1.23 -2.34,2.142 -0.647,0.913 -1.158,2.005 -1.53,3.276 -0.372,1.272 -0.558,2.677 -0.558,4.212 0,1.537 0.186,2.947 0.558,4.23 0.372,1.283 0.895,2.389 1.566,3.312 0.671,0.923 1.464,1.643 2.376,2.16 0.912,0.516 1.896,0.773 2.952,0.773 1.368,0 2.543,-0.289 3.527,-0.865 0.984,-0.574 1.885,-1.391 2.7,-2.447 l 1.944,1.691 c -0.911,1.251 -2.05,2.261 -3.418,3.028 z"
   id="path48"
   style="fill:#ffffff" />
  <path
   d="M 223.107,110.496 V 85.295 h 15.229 v 2.557 h -12.42 v 7.92 h 7.2 v 2.557 h -7.2 v 9.611 h 12.96 v 2.557 h -15.769 z"
   id="path50"
   style="fill:#ffffff" />
  <path
   d="m 258.73,106.645 c -0.373,0.863 -0.918,1.607 -1.639,2.23 -0.72,0.625 -1.596,1.117 -2.628,1.477 -1.032,0.36 -2.208,0.541 -3.527,0.541 -1.729,0 -3.318,-0.332 -4.771,-0.99 -1.452,-0.66 -2.682,-1.494 -3.689,-2.502 l 1.871,-2.088 c 0.96,0.912 1.992,1.643 3.097,2.195 1.104,0.553 2.304,0.828 3.6,0.828 1.68,0 3.006,-0.385 3.979,-1.152 0.972,-0.768 1.458,-1.824 1.458,-3.168 0,-0.576 -0.097,-1.104 -0.288,-1.584 -0.192,-0.48 -0.522,-0.924 -0.99,-1.332 -0.468,-0.408 -1.086,-0.811 -1.854,-1.205 -0.768,-0.396 -1.728,-0.799 -2.88,-1.207 -1.368,-0.479 -2.514,-0.966 -3.438,-1.458 -0.925,-0.491 -1.669,-1.02 -2.232,-1.584 -0.563,-0.563 -0.972,-1.193 -1.224,-1.89 -0.252,-0.697 -0.378,-1.5 -0.378,-2.412 0,-1.008 0.191,-1.908 0.576,-2.7 0.383,-0.792 0.918,-1.47 1.602,-2.034 0.684,-0.563 1.512,-0.99 2.484,-1.277 0.972,-0.289 2.046,-0.433 3.222,-0.433 1.68,0 3.114,0.24 4.302,0.72 1.188,0.48 2.31,1.141 3.366,1.98 l -1.8,2.195 c -0.912,-0.768 -1.83,-1.35 -2.754,-1.745 -0.925,-0.396 -2.022,-0.595 -3.294,-0.595 -0.864,0 -1.608,0.104 -2.232,0.307 -0.624,0.204 -1.134,0.475 -1.53,0.811 -0.396,0.336 -0.684,0.726 -0.863,1.17 -0.181,0.443 -0.271,0.918 -0.271,1.422 0,0.527 0.072,1.002 0.216,1.422 0.145,0.42 0.433,0.828 0.864,1.224 0.431,0.396 1.038,0.786 1.818,1.17 0.779,0.384 1.806,0.805 3.078,1.261 1.392,0.504 2.556,1.008 3.491,1.512 0.937,0.504 1.687,1.057 2.25,1.656 0.564,0.6 0.966,1.26 1.206,1.979 0.24,0.721 0.36,1.549 0.36,2.484 0,0.983 -0.186,1.906 -0.558,2.772 z"
   id="path52"
   style="fill:#ffffff" />
</g>
<g
   transform="matrix(0.19139438,0,0,0.19139438,-146.70261,-31.569607)"
   id="g73"><path
     style="fill:#cb2026"
     d="m 1156.53,521.18 c 0.77,0.07 1.54,0.13 2.31,0.2 -0.78,-0.07 -1.55,-0.14 -2.31,-0.2 0,0 0,0 0,0 z"
     id="path63" /><path
     style="fill:#cb2026"
     d="m 1159.47,521.43 c 0,0 0,0 0,0 -0.06,-0.01 -0.13,-0.01 -0.19,-0.02 0.06,0.01 0.13,0.02 0.19,0.02 z"
     id="path65" /><path
     style="fill:#cb2026"
     d="m 1013.89,589.14 c -11.11,2.77 -22.19,5.7 -33.24,8.77 -4.92,1.37 -10.1,2.1 -15.46,2.1 -19.38,0 -36.52,-9.57 -46.96,-24.25 -0.04,-0.06 -0.08,-0.12 -0.12,-0.17 -0.19,-0.27 -0.38,-0.55 -0.57,-0.83 -0.11,-0.17 -0.23,-0.33 -0.34,-0.5 -0.12,-0.18 -0.23,-0.35 -0.35,-0.53 -0.19,-0.28 -0.37,-0.57 -0.55,-0.86 -0.04,-0.07 -0.09,-0.14 -0.13,-0.21 -5.47,-8.82 -8.64,-19.22 -8.64,-30.36 0,-0.67 0.02,-1.34 0.04,-2.01 -3.87,45.22 16.61,87.05 50.67,112.36 17.77,13.2 39.22,21.91 62.85,24.26 67.99,6.75 128.74,-41.67 137.82,-108.84 0.2,-1.51 0.38,-3.02 0.54,-4.53 -49.03,4.67 -97.61,13.65 -145.56,25.6 z"
     id="path67" /><path
     style="fill:#88171a"
     d="m 1021.1,676.9 c -23.63,-2.35 -45.08,-11.06 -62.85,-24.26 -34.07,-25.31 -54.54,-67.14 -50.67,-112.36 0.12,-3.64 0.59,-7.2 1.36,-10.64 5.76,-25.76 28.76,-45.01 56.26,-45.01 7.6,0 14.85,1.47 21.49,4.14 9.2,2.88 18.45,5.56 27.75,8.05 46.48,12.46 94.09,20.23 142.1,24.35 0,0 0,0 0,-0.01 -65.67,-6.01 -127.88,-32.24 -178.04,-75.11 l 0.01,0.02 c -2.19,-1.87 -4.43,-3.67 -6.74,-5.38 -21.06,-15.66 -47.16,-24.93 -75.42,-24.93 -69.84,0 -126.46,56.59 -126.52,126.41 0,0.05 0,0.1 0,0.15 0,0.03 0,0.05 0,0.08 v 0 c 0,107.91 87.48,195.39 195.39,195.39 v 0 c 99.22,0 181.16,-73.95 193.72,-169.74 -9.11,67.18 -69.85,115.6 -137.84,108.85 z"
     id="path69" /><path
     style="fill:#cb2026"
     d="m 965.2,347.01 v 0 c -20.76,0 -40.76,3.24 -59.53,9.24 -78.73,25.16 -135.76,98.87 -135.86,185.93 0.06,-69.83 56.68,-126.41 126.52,-126.41 28.26,0 54.36,9.27 75.42,24.93 l 6.73,5.36 c 50.16,42.87 112.38,69.1 178.04,75.11 0.77,0.07 1.54,0.14 2.31,0.2 0.15,0.01 0.3,0.03 0.45,0.04 0.06,0.01 0.13,0.01 0.19,0.01 -10.46,-98.04 -93.45,-174.41 -194.27,-174.41 z"
     id="path71" /></g></svg>