<?xml version="1.0" encoding="utf-8"?>
<!-- Generator: Adobe Illustrator 23.0.1, SVG Export Plug-In . SVG Version: 6.00 Build 0)  -->
<svg version="1.1" id="Layer_1" xmlns="http://www.w3.org/2000/svg" xmlns:xlink="http://www.w3.org/1999/xlink" x="0px" y="0px"
	 viewBox="0 0 1928.02 1084.97" enable-background="new 0 0 1928.02 1084.97" xml:space="preserve">
<g>
	<path fill="#CB2026" d="M1156.53,521.18c0.77,0.07,1.54,0.13,2.31,0.2C1158.06,521.31,1157.29,521.24,1156.53,521.18
		C1156.53,521.18,1156.53,521.18,1156.53,521.18z"/>
	<path fill="#CB2026" d="M1159.47,521.43C1159.47,521.43,1159.47,521.43,1159.47,521.43c-0.06-0.01-0.13-0.01-0.19-0.02
		C1159.34,521.42,1159.41,521.43,1159.47,521.43z"/>
	<path fill="#CB2026" d="M1013.89,589.14c-11.11,2.77-22.19,5.7-33.24,8.77c-4.92,1.37-10.1,2.1-15.46,2.1
		c-19.38,0-36.52-9.57-46.96-24.25c-0.04-0.06-0.08-0.12-0.12-0.17c-0.19-0.27-0.38-0.55-0.57-0.83c-0.11-0.17-0.23-0.33-0.34-0.5
		c-0.12-0.18-0.23-0.35-0.35-0.53c-0.19-0.28-0.37-0.57-0.55-0.86c-0.04-0.07-0.09-0.14-0.13-0.21c-5.47-8.82-8.64-19.22-8.64-30.36
		c0-0.67,0.02-1.34,0.04-2.01c-3.87,45.22,16.61,87.05,50.67,112.36c17.77,13.2,39.22,21.91,62.85,24.26
		c67.99,6.75,128.74-41.67,137.82-108.84c0.2-1.51,0.38-3.02,0.54-4.53C1110.42,568.21,1061.84,577.19,1013.89,589.14z"/>
	<path fill="#88171A" d="M1021.1,676.9c-23.63-2.35-45.08-11.06-62.85-24.26c-34.07-25.31-54.54-67.14-50.67-112.36
		c0.12-3.64,0.59-7.2,1.36-10.64c5.76-25.76,28.76-45.01,56.26-45.01c7.6,0,14.85,1.47,21.49,4.14c9.2,2.88,18.45,5.56,27.75,8.05
		c46.48,12.46,94.09,20.23,142.1,24.35c0,0,0,0,0-0.01c-65.67-6.01-127.88-32.24-178.04-75.11l0.01,0.02
		c-2.19-1.87-4.43-3.67-6.74-5.38c-21.06-15.66-47.16-24.93-75.42-24.93c-69.84,0-126.46,56.59-126.52,126.41c0,0.05,0,0.1,0,0.15
		c0,0.03,0,0.05,0,0.08v0c0,107.91,87.48,195.39,195.39,195.39h0c99.22,0,181.16-73.95,193.72-169.74
		C1149.83,635.23,1089.09,683.65,1021.1,676.9z"/>
	<path fill="#CB2026" d="M965.2,347.01L965.2,347.01c-20.76,0-40.76,3.24-59.53,9.24c-78.73,25.16-135.76,98.87-135.86,185.93
		c0.06-69.83,56.68-126.41,126.52-126.41c28.26,0,54.36,9.27,75.42,24.93l6.73,5.36c50.16,42.87,112.38,69.1,178.04,75.11
		c0.77,0.07,1.54,0.14,2.31,0.2c0.15,0.01,0.3,0.03,0.45,0.04c0.06,0.01,0.13,0.01,0.19,0.01
		C1149.01,423.38,1066.02,347.01,965.2,347.01z"/>
</g>
</svg>
