<svg id="Layer_1" xmlns="http://www.w3.org/2000/svg" viewBox="0 300 2036 400"><title>RHD_</title><path d="M778.62,607.09q-5.73,15.16-15.83,24.82a60.78,60.78,0,0,1-23.81,14,96.12,96.12,0,0,1-29.42,4.37h-38.4V493.13h41.54a88,88,0,0,1,28.63,4.49,58.35,58.35,0,0,1,22.68,14A65.86,65.86,0,0,1,779,535.8q5.39,14.6,5.39,34.81Q784.35,591.94,778.62,607.09ZM752.69,525q-14.14-15.94-41.32-15.94H688.69v125.3h23.13a70.1,70.1,0,0,0,22.9-3.48A42.29,42.29,0,0,0,752,619.78q7.18-7.63,11-19.65t3.82-28.86Q766.84,541,752.69,525Z"/><path d="M818.92,650.32V493.13h95v15.94H836.44v49.4h44.91v15.94H836.44v60h80.84v15.94Z"/><path d="M1012.94,650.32H993.63L940.19,493.13H958.6l35,107.56q1.12,3.59,2.58,8.08t2.81,8.87c.9,2.92,1.72,5.65,2.47,8.19s1.35,4.5,1.8,5.84q.67-2,1.79-6t2.58-8.42q1.46-4.5,2.92-9.1c1-3.06,1.83-5.73,2.58-8l35.25-107.11h18Z"/><path d="M1098.94,650.32V493.13h95v15.94h-77.47v49.4h44.91v15.94h-44.91v60h80.84v15.94Z"/><path d="M1230.76,650.32V493.13h17.52V634.38H1326v15.94Z"/><path d="M1473.28,604.18a78.29,78.29,0,0,1-13.36,25.71,61.81,61.81,0,0,1-20.77,16.84,62.2,62.2,0,0,1-53.33.11,59.83,59.83,0,0,1-20.55-16.73,78.14,78.14,0,0,1-13.14-25.6,109.3,109.3,0,0,1-4.6-32.56,108.1,108.1,0,0,1,4.71-32.67,79.46,79.46,0,0,1,13.25-25.71,60.63,60.63,0,0,1,20.66-16.84,62.17,62.17,0,0,1,53.33-.12A59.78,59.78,0,0,1,1460,513.35a79.65,79.65,0,0,1,13.25,25.6A106.77,106.77,0,0,1,1478,571.5,107.85,107.85,0,0,1,1473.28,604.18Zm-16.5-59.06a66.87,66.87,0,0,0-10.22-20.66,45.78,45.78,0,0,0-15.27-13.25,40.47,40.47,0,0,0-19.09-4.6,39.32,39.32,0,0,0-18.75,4.6,44.93,44.93,0,0,0-14.93,13,64.88,64.88,0,0,0-9.88,20.44A93.32,93.32,0,0,0,1365,571.5a90.92,90.92,0,0,0,3.7,26.83A68.23,68.23,0,0,0,1378.86,619,44.67,44.67,0,0,0,1394,632.25a40.4,40.4,0,0,0,19.09,4.61,39.9,39.9,0,0,0,18.86-4.61,44.47,44.47,0,0,0,15-13,64.94,64.94,0,0,0,9.88-20.44,93.51,93.51,0,0,0,3.59-26.83A91,91,0,0,0,1456.78,545.12Z"/><path d="M1617.56,560.84a42.78,42.78,0,0,1-10.89,15.27,46.09,46.09,0,0,1-16.84,9.32,70.83,70.83,0,0,1-21.56,3.14H1530.1v61.75h-17.52V493.13h58.84a67.32,67.32,0,0,1,19.87,2.8,43.41,43.41,0,0,1,15.83,8.65,40.08,40.08,0,0,1,10.56,14.7,57.58,57.58,0,0,1-.12,41.54Zm-22.12-43.56q-8.53-8.2-24.7-8.2H1530.1v63.55h38.4q35.47,0,35.48-31.89Q1604,525.47,1595.44,517.28Z"/><path d="M1651.35,650.32V493.13h95v15.94h-77.47v49.4h44.91v15.94h-44.91v60h80.84v15.94Z"/><path d="M1884.22,567.22q-10.11,11.23-26.94,14.82l34.58,68.28h-20.21L1838,583.4h-37.27v66.91h-17.52V493.13h62.21a66.89,66.89,0,0,1,19.31,2.69,42.73,42.73,0,0,1,15.5,8.2,39.24,39.24,0,0,1,10.33,13.8q3.82,8.31,3.82,19.75Q1894.33,556,1884.22,567.22Zm-15.61-50.88q-8.2-7.26-23.92-7.27h-44v58.39h41.77q17.52,0,25.93-7.27t8.42-22Q1876.81,523.62,1868.61,516.34Z"/><path d="M1370.39,366.24a12.52,12.52,0,0,1-7.13,7,15.18,15.18,0,0,1-10.7,0,12.5,12.5,0,0,1-7.13-7,15.32,15.32,0,0,1,0-11,12.5,12.5,0,0,1,7.13-7,15.27,15.27,0,0,1,10.7,0,12.52,12.52,0,0,1,7.13,7,15.32,15.32,0,0,1,0,11Zm-1.7-10.31a11,11,0,0,0-6.18-6.14,12.78,12.78,0,0,0-9.21,0,11,11,0,0,0-6.17,6.14,13.18,13.18,0,0,0,0,9.58,11.1,11.1,0,0,0,2.47,3.72,11.24,11.24,0,0,0,3.7,2.42,12.78,12.78,0,0,0,9.21,0,11,11,0,0,0,6.18-6.14,13.26,13.26,0,0,0,0-9.58Zm-5.73,4.15a4.63,4.63,0,0,1-2.51,1.46l3.33,6.4h-2.32l-3.22-6.25H1355v6.25h-2V353h6.07a5.47,5.47,0,0,1,3.41,1,3.83,3.83,0,0,1,1.38,3.25A4.1,4.1,0,0,1,1363,360.08Zm-1.8-4.68a3.26,3.26,0,0,0-2.17-.63h-4v5h3.75q3.14,0,3.14-2.51A2.37,2.37,0,0,0,1361.17,355.4Z"/><path d="M728.51,455.67l-17.06-35.34H699.76v35.34H671.17V350.86H718c24.55,0,40.87,9.28,40.87,34.14,0,15.72-7.34,25.45-18.87,30.69l21,40Zm-11.23-81.15H699.76v22.91h17.07c9.44,0,13.18-4.19,13.18-11.68C730,379.16,726.41,374.52,717.28,374.52Z"/><path d="M778.35,455.67V350.86H858.6v24.4H807.1v13.93h31v24.1h-31v18h52.55v24.41Z"/><path d="M912.19,455.67h-34V350.86h36.68c32.94,0,53.9,12.43,53.9,51.8S949.32,455.67,912.19,455.67Zm2.55-80h-7.19v55.1h6.29c18.12,0,25.15-6.89,25.15-27.7C939,383.8,932.85,375.72,914.74,375.72Z"/><path d="M1098,455.67V414.34h-32.64v41.32h-29.65V350.86h29.65V389H1098V350.86h29.64v104.8Z"/><path d="M1216.53,455.67l-5.69-18.41h-31.44l-5.69,18.41h-31.14l38-104.8h29.34l38,104.8Zm-14.67-48.36c-3.75-13.47-5.39-19.16-6.74-26.2-1.35,7-3,12.87-6.74,26.2l-1.95,6.88h17.37Z"/><path d="M1302.77,376.17v79.5h-29v-79.5h-29.35v-25.3h87.74v25.3Z"/><rect x="189.84" y="350.86" width="48.17" height="48.17"/><rect x="238.01" y="434.65" width="96.33" height="48.17"/><rect x="189.84" y="602.15" width="96.33" height="48.17"/><rect x="141.68" y="518.45" width="48.17" height="48.17"/><rect x="321.88" y="602.15" width="144.5" height="48.17"/><rect x="225.55" y="518.45" width="288.99" height="48.17"/><rect x="273.72" y="350.86" width="240.83" height="48.17"/><rect x="370.05" y="434.65" width="192.66" height="48.17"/></svg>