<?xml version="1.0" encoding="UTF-8" standalone="no"?>
<svg
   xmlns:dc="http://purl.org/dc/elements/1.1/"
   xmlns:cc="http://creativecommons.org/ns#"
   xmlns:rdf="http://www.w3.org/1999/02/22-rdf-syntax-ns#"
   xmlns:svg="http://www.w3.org/2000/svg"
   xmlns="http://www.w3.org/2000/svg"
   xmlns:sodipodi="http://sodipodi.sourceforge.net/DTD/sodipodi-0.dtd"
   xmlns:inkscape="http://www.inkscape.org/namespaces/inkscape"
   id="Layer_1"
   width="130"
   viewBox="120 300 1770 400"
   version="1.1"
   sodipodi:docname="RHD_full_logo_color_RGB_inverse.svg"
   inkscape:version="0.92.3 (2405546, 2018-03-11)">
  <metadata
     id="metadata4150">
    <rdf:RDF>
      <cc:Work
         rdf:about="">
        <dc:format>image/svg+xml</dc:format>
        <dc:type
           rdf:resource="http://purl.org/dc/dcmitype/StillImage" />
        <dc:title>RHD_Assets For Online Standards</dc:title>
      </cc:Work>
    </rdf:RDF>
  </metadata>
  <sodipodi:namedview
     pagecolor="#ffffff"
     bordercolor="#666666"
     borderopacity="1"
     objecttolerance="10"
     gridtolerance="10"
     guidetolerance="10"
     inkscape:pageopacity="0"
     inkscape:pageshadow="2"
     inkscape:window-width="1920"
     inkscape:window-height="996"
     id="namedview4148"
     showgrid="false"
     showguides="true"
     inkscape:guide-bbox="true"
     inkscape:zoom="11.440988"
     inkscape:cx="52.841108"
     inkscape:cy="194.56438"
     inkscape:window-x="0"
     inkscape:window-y="0"
     inkscape:window-maximized="1"
     inkscape:current-layer="Layer_1">
    <sodipodi:guide
       position="112.76029,188.99876"
       orientation="0,1"
       id="guide4846"
       inkscape:locked="false" />
    <sodipodi:guide
       position="552.02054,214.4623"
       orientation="1,0"
       id="guide4848"
       inkscape:locked="false" />
    <sodipodi:guide
       position="758.19,203.25588"
       orientation="0,1"
       id="guide1485"
       inkscape:locked="false" />
    <sodipodi:guide
       position="465.31082,196.31172"
       orientation="0,1"
       id="guide1487"
       inkscape:locked="false" />
    <sodipodi:guide
       position="529.5737,201.73083"
       orientation="0,1"
       id="guide1489"
       inkscape:locked="false" />
    <sodipodi:guide
       position="489.11189,194.30141"
       orientation="0,1"
       id="guide1491"
       inkscape:locked="false" />
  </sodipodi:namedview>
  <defs
     id="defs4087">
    <style
       id="style4085">.cls-1{fill:#820000;}.cls-2{fill:#ec7a08;}.cls-3{fill:#0088ce;}.cls-4{fill:#3f9c35;}.cls-5{fill:#c00;}.cls-6{fill:#f0ab00;}.cls-7{fill:#00b9e4;}.cls-8{fill:#92d400;}.cls-9{fill:#fff;}</style>
  </defs>
  <title
     id="title4089">RHD_Assets For Online Standards</title>
  <rect
     class="cls-1"
     x="189.84"
     y="350.86"
     width="48.17"
     height="48.17"
     id="rect4091" />
  <rect
     class="cls-2"
     x="238.01"
     y="434.65"
     width="96.33"
     height="48.17"
     id="rect4093" />
  <rect
     class="cls-3"
     x="189.84"
     y="602.15"
     width="96.33"
     height="48.17"
     id="rect4095" />
  <rect
     class="cls-4"
     x="141.67"
     y="518.45"
     width="48.17"
     height="48.17"
     id="rect4097" />
  <rect
     class="cls-1"
     x="273.72"
     y="350.86"
     width="96.33"
     height="48.17"
     id="rect4099" />
  <rect
     class="cls-2"
     x="370.05"
     y="434.65"
     width="48.17"
     height="48.17"
     id="rect4101" />
  <rect
     class="cls-3"
     x="321.88"
     y="602.15"
     width="48.17"
     height="48.17"
     id="rect4103" />
  <rect
     class="cls-4"
     x="225.55"
     y="518.45"
     width="96.33"
     height="48.17"
     id="rect4105" />
  <rect
     class="cls-5"
     x="370.05"
     y="350.86"
     width="144.5"
     height="48.17"
     id="rect4107" />
  <rect
     class="cls-6"
     x="418.21"
     y="434.65"
     width="144.5"
     height="48.17"
     id="rect4109" />
  <rect
     class="cls-7"
     x="370.05"
     y="602.15"
     width="96.33"
     height="48.17"
     id="rect4111" />
  <rect
     class="cls-8"
     x="321.88"
     y="518.45"
     width="192.66"
     height="48.17"
     id="rect4113" />
  <g
     id="g5662">
    <path
       id="path4133"
       d="M1370.39,366.24a12.52,12.52,0,0,1-7.13,7,15.18,15.18,0,0,1-10.7,0,12.5,12.5,0,0,1-7.13-7,15.32,15.32,0,0,1,0-11,12.5,12.5,0,0,1,7.13-7,15.27,15.27,0,0,1,10.7,0,12.52,12.52,0,0,1,7.13,7,15.32,15.32,0,0,1,0,11Zm-1.7-10.31a11,11,0,0,0-6.18-6.14,12.78,12.78,0,0,0-9.21,0,11,11,0,0,0-6.17,6.14,13.18,13.18,0,0,0,0,9.58,11.1,11.1,0,0,0,2.47,3.72,11.24,11.24,0,0,0,3.7,2.42,12.78,12.78,0,0,0,9.21,0,11,11,0,0,0,6.18-6.14,13.26,13.26,0,0,0,0-9.58Zm-5.73,4.15a4.63,4.63,0,0,1-2.51,1.46l3.33,6.4h-2.32l-3.22-6.25H1355v6.25h-2V353h6.07a5.47,5.47,0,0,1,3.41,1,3.83,3.83,0,0,1,1.38,3.25A4.1,4.1,0,0,1,1363,360.08Zm-1.8-4.68a3.26,3.26,0,0,0-2.17-.63h-4v5h3.75q3.14,0,3.14-2.51A2.37,2.37,0,0,0,1361.17,355.4Z"
       class="cls-9" />
    <path
       id="path4135"
       d="M728.51,455.67l-17.06-35.34H699.76v35.34H671.17V350.86H718c24.55,0,40.87,9.28,40.87,34.14,0,15.72-7.34,25.45-18.87,30.69l21,40Zm-11.23-81.15H699.76v22.91h17.07c9.44,0,13.18-4.19,13.18-11.68C730,379.16,726.41,374.52,717.28,374.52Z"
       class="cls-9" />
    <path
       id="path4137"
       d="M778.35,455.67V350.86H858.6v24.4H807.1v13.93h31v24.1h-31v18h52.55v24.41Z"
       class="cls-9" />
    <path
       id="path4139"
       d="M912.19,455.67h-34V350.86h36.68c32.94,0,53.9,12.43,53.9,51.8S949.32,455.67,912.19,455.67Zm2.55-80h-7.19v55.1h6.29c18.12,0,25.15-6.89,25.15-27.7C939,383.8,932.85,375.72,914.74,375.72Z"
       class="cls-9" />
    <path
       id="path4141"
       d="M1098,455.67V414.34h-32.64v41.32h-29.65V350.86h29.65V389H1098V350.86h29.64v104.8Z"
       class="cls-9" />
    <path
       id="path4143"
       d="M1216.53,455.67l-5.69-18.41h-31.44l-5.69,18.41h-31.14l38-104.8h29.34l38,104.8Zm-14.67-48.36c-3.75-13.47-5.39-19.16-6.74-26.2-1.35,7-3,12.87-6.74,26.2l-1.95,6.88h17.37Z"
       class="cls-9" />
    <path
       id="path4145"
       d="M1302.77,376.17v79.5h-29v-79.5h-29.35v-25.3h87.74v25.3Z"
       class="cls-9" />
  </g>
  <g
     transform="matrix(1.0251613,0,0,1.0251613,-10.087753,-29.261768)"
     style="display:inline;fill:#ffffff;fill-opacity:1"
     id="g4734">
    <path
       style="fill:#ffffff;fill-opacity:1;stroke-width:2.7384553"
       inkscape:connector-curvature="0"
       d="m 708.09858,562.93484 c -3.74621,2.10314 -8.15238,3.1547 -13.21031,3.1547 -4.20627,0 -8.03463,-0.90369 -11.48234,-2.71107 -3.45319,-1.80738 -6.3943,-4.28842 -8.82604,-7.44312 -2.43175,-3.1547 -4.30486,-6.90091 -5.61931,-11.23862 -1.31446,-4.33771 -1.97169,-9.0369 -1.97169,-14.09757 0,-5.12639 0.69009,-9.87213 2.07027,-14.24544 1.38018,-4.37058 3.30258,-8.13322 5.76719,-11.28792 2.46187,-3.1547 5.43583,-5.63574 8.92188,-7.44312 3.48058,-1.80738 7.29525,-2.71107 11.43579,-2.71107 9.32992,0 16.66077,3.68322 21.98432,11.04145 l -6.11223,4.63347 c -2.23458,-3.02325 -4.53488,-5.22497 -6.90091,-6.60515 -2.36602,-1.38019 -5.42214,-2.07028 -9.17108,-2.07028 -2.95753,0 -5.68504,0.70652 -8.18251,2.11957 -2.49747,1.41578 -4.63073,3.3683 -6.40798,5.86577 -1.77178,2.50021 -3.17113,5.48786 -4.1871,8.97118 -1.02145,3.48331 -1.5308,7.33084 -1.5308,11.53437 0,4.20901 0.50935,8.07023 1.5308,11.58367 1.01597,3.51618 2.44818,6.53943 4.28568,9.06976 1.84024,2.53034 4.0091,4.50476 6.50657,5.91507 2.49747,1.41578 5.19211,2.11956 8.08392,2.11956 3.74621,0 6.96663,-0.78867 9.66127,-2.36602 2.6919,-1.57735 5.15925,-3.81193 7.39383,-6.70374 l 5.32082,4.63346 c -2.49199,3.4176 -5.61109,6.17796 -9.36004,8.28109 z"
       id="path4505" />
    <path
       style="fill:#ffffff;fill-opacity:1;stroke-width:2.7384553"
       inkscape:connector-curvature="0"
       d="m 782.23678,544.74602 c -1.38018,4.37058 -3.33817,8.13322 -5.86851,11.28792 -2.53033,3.1547 -5.57001,5.61931 -9.11905,7.39383 -3.54904,1.77451 -7.45956,2.66177 -11.72881,2.66177 -4.27473,0 -8.16607,-0.87082 -11.68499,-2.61248 -3.51891,-1.74166 -6.523,-4.18984 -9.02047,-7.34454 -2.49747,-3.1547 -4.41987,-6.90091 -5.76445,-11.23862 -1.34732,-4.33771 -2.02098,-9.10263 -2.02098,-14.29474 0,-5.19211 0.69009,-9.97345 2.07027,-14.34403 1.38019,-4.37057 3.31901,-8.13321 5.81648,-11.28791 2.49748,-3.1547 5.52073,-5.61931 9.06977,-7.39383 3.55177,-1.77452 7.45955,-2.66178 11.73154,-2.66178 4.27199,0 8.16608,0.87083 11.68499,2.61249 3.51344,1.74166 6.52026,4.18983 9.02047,7.34454 2.49474,3.1547 4.4363,6.9009 5.81648,11.23862 1.38018,4.33771 2.07027,9.10262 2.07027,14.29473 -0.003,5.19211 -0.69283,9.97346 -2.07301,14.34403 z m -7.24869,-25.92769 c -1.08443,-3.51344 -2.57962,-6.53943 -4.48559,-9.06977 -1.90596,-2.52759 -4.14054,-4.46642 -6.70374,-5.81648 -2.56319,-1.34732 -5.35642,-2.02098 -8.37967,-2.02098 -2.95753,0 -5.7042,0.6764 -8.2318,2.02098 -2.53307,1.34732 -4.71836,3.25329 -6.5586,5.7179 -1.84024,2.46461 -3.28614,5.455 -4.33771,8.97118 -1.05157,3.51618 -1.57735,7.44312 -1.57735,11.78083 0,4.33772 0.54221,8.2674 1.62664,11.78084 1.08443,3.51618 2.56593,6.53943 4.4363,9.06976 1.87584,2.53034 4.09125,4.46916 6.65718,5.81648 2.5632,1.34732 5.35368,2.02098 8.37968,2.02098 2.95753,0 5.71789,-0.67366 8.28109,-2.02098 2.56319,-1.34732 4.76217,-3.25328 6.60515,-5.71789 1.8375,-2.46461 3.28341,-5.45501 4.33771,-8.97118 1.04883,-3.51344 1.57462,-7.44312 1.57462,-11.78084 0,-4.33771 -0.53674,-8.26466 -1.62391,-11.78083 z"
       id="path4507" />
    <path
       style="fill:#ffffff;fill-opacity:1;stroke-width:2.7384553"
       inkscape:connector-curvature="0"
       d="m 846.65895,546.02762 c -1.67594,4.4363 -3.99267,8.07023 -6.9502,10.89358 -2.95754,2.82608 -6.44359,4.87992 -10.44995,6.16152 -4.0091,1.2816 -8.31395,1.9224 -12.91455,1.9224 h -16.85794 v -69.00908 h 18.23812 c 4.53488,0 8.72745,0.65723 12.56951,1.97169 3.84479,1.31446 7.1638,3.3683 9.95976,6.16152 2.79322,2.79597 4.97577,6.32583 6.55586,10.59782 1.58009,4.272 2.36603,9.36552 2.36603,15.28059 -0.003,6.24367 -0.84345,11.58366 -2.51664,16.01996 z m -11.3865,-36.0326 c -4.14055,-4.66632 -10.18979,-6.99949 -18.13953,-6.99949 h -9.95702 v 55.01009 h 10.15419 c 3.74347,0 7.09808,-0.50935 10.05561,-1.52805 2.95753,-1.01871 5.48512,-2.64535 7.58826,-4.87993 2.10587,-2.23184 3.7106,-5.10996 4.83337,-8.62614 1.11455,-3.51617 1.6732,-7.73887 1.6732,-12.66809 0,-8.8726 -2.06754,-15.64206 -6.20808,-20.30839 z"
       id="path4509" />
    <path
       style="fill:#ffffff;fill-opacity:1;stroke-width:2.7384553"
       inkscape:connector-curvature="0"
       d="m 864.35211,565.00512 v -69.00908 h 41.70393 v 6.99949 h -34.01161 v 21.68857 h 19.71688 v 6.99949 h -19.71688 v 26.32203 h 35.49038 v 6.9995 z"
       id="path4511" />
    <path
       style="fill:#ffffff;fill-opacity:1;stroke-width:2.7384553"
       inkscape:connector-curvature="0"
       d="m 966.58412,528.52067 c -2.95753,3.28615 -6.9009,5.45501 -11.82738,6.50384 l 15.18199,29.97787 h -8.87259 l -14.78766,-29.37815 h -16.36501 v 29.37815 h -7.69232 V 495.9933 h 27.31061 c 3.02326,0 5.84934,0.39434 8.47826,1.18301 2.62892,0.78868 4.89636,1.98812 6.80232,3.59833 1.90323,1.61022 3.41486,3.6312 4.53215,6.06021 1.11729,2.42901 1.67593,5.32082 1.67593,8.67268 0,5.39202 -1.47876,9.72974 -4.4363,13.01314 z m -6.85161,-22.33484 c -2.39889,-2.12778 -5.89863,-3.19304 -10.49924,-3.19304 h -19.32254 v 25.63195 h 18.3367 c 5.12639,0 8.92188,-1.06252 11.38376,-3.19304 2.46461,-2.12504 3.69965,-5.35094 3.69965,-9.67223 0.003,-4.25282 -1.19944,-7.44312 -3.59833,-9.57364 z"
       id="path4513" />
    <path
       style="fill:#ffffff;fill-opacity:1;stroke-width:2.7384553"
       inkscape:connector-curvature="0"
       d="m 986.29826,565.00512 v -69.00908 h 41.70394 v 6.99949 h -34.01161 v 21.68857 h 19.71691 v 6.99949 h -19.71691 v 26.32203 h 35.49041 v 6.9995 z"
       id="path4515" />
    <path
       style="fill:#ffffff;fill-opacity:1;stroke-width:2.7384553"
       inkscape:connector-curvature="0"
       d="m 1088.6289,565.00512 -5.9151,-17.54803 h -28.4881 l -6.0137,17.54803 h -7.8867 l 23.956,-69.00908 h 8.4782 l 23.956,69.00908 z m -15.8694,-47.22193 c -0.3943,-1.11729 -0.8051,-2.33316 -1.2323,-3.64762 -0.4272,-1.31172 -0.838,-2.57689 -1.2323,-3.7955 -0.3943,-1.21588 -0.7394,-2.36603 -1.0351,-3.45045 -0.293,-1.08443 -0.5395,-1.98812 -0.7394,-2.71108 -0.1972,0.72296 -0.4436,1.61022 -0.7421,2.66178 -0.293,1.05157 -0.6381,2.20446 -1.0352,3.45046 -0.3943,1.24873 -0.8215,2.54676 -1.2816,3.89408 -0.46,1.34732 -0.8872,2.61249 -1.2816,3.7955 l -7.591,22.47724 h 23.7616 z"
       id="path4517" />
    <path
       style="fill:#ffffff;fill-opacity:1;stroke-width:2.7384553"
       inkscape:connector-curvature="0"
       d="m 1158.1829,546.02762 c -1.6759,4.4363 -3.9927,8.07023 -6.9502,10.89358 -2.9575,2.82608 -6.4436,4.87992 -10.45,6.16152 -4.009,1.2816 -8.3139,1.9224 -12.9145,1.9224 h -16.8579 v -69.00908 h 18.2381 c 4.5349,0 8.7274,0.65723 12.5695,1.97169 3.8448,1.31446 7.1638,3.3683 9.9597,6.16152 2.7933,2.79597 4.9758,6.32583 6.5559,10.59782 1.5801,4.272 2.366,9.36552 2.366,15.28059 0,6.24367 -0.8407,11.58366 -2.5166,16.01996 z m -11.3865,-36.0326 c -4.1405,-4.66632 -10.1898,-6.99949 -18.1395,-6.99949 h -9.9571 v 55.01009 h 10.1542 c 3.7462,0 7.0981,-0.50935 10.0556,-1.52805 2.9576,-1.01871 5.4879,-2.64535 7.591,-4.87993 2.1032,-2.23184 3.7107,-5.10996 4.8307,-8.62614 1.1145,-3.51617 1.6759,-7.73887 1.6759,-12.66809 0,-8.8726 -2.073,-15.64206 -6.2108,-20.30839 z"
       id="path4519" />
    <path
       style="fill:#ffffff;fill-opacity:1;stroke-width:2.7384553"
       inkscape:connector-curvature="0"
       d="m 1198.5505,537.59865 v 27.40647 h -7.6896 v -27.30788 l -23.6603,-41.7012 h 8.774 l 11.0388,19.81546 c 1.3801,2.49747 2.7767,5.0771 4.1898,7.73888 1.413,2.66178 2.6125,5.01411 3.5983,7.04878 0.9831,-2.03741 2.1826,-4.387 3.5956,-7.04878 1.4131,-2.66178 2.8097,-5.24141 4.1898,-7.73888 l 11.0415,-19.81546 h 8.5768 z"
       id="path4521" />
  </g>
  <g
     transform="matrix(1.0251613,0,0,1.0251613,-10.087753,-13.653208)"
     style="display:inline;fill:#ffffff;fill-opacity:1"
     id="g4746">
    <path
       style="fill:#ffffff;fill-opacity:1;stroke-width:2.7384553"
       inkscape:connector-curvature="0"
       d="m 725.84651,647.15878 h -8.67543 L 706.3268,602.99297 c -0.26563,-1.11455 -0.56138,-2.36603 -0.88726,-3.74621 -0.32861,-1.38018 -0.6408,-2.76036 -0.93655,-4.14054 -0.29575,-1.38018 -0.57782,-2.74393 -0.84071,-4.09125 -0.26289,-1.34732 -0.49292,-2.54677 -0.69009,-3.59834 -0.19717,1.05157 -0.4272,2.23458 -0.69009,3.54904 -0.26289,1.31446 -0.54221,2.66178 -0.83797,4.04196 -0.29575,1.38018 -0.61067,2.76037 -0.93655,4.14055 -0.33135,1.38018 -0.6271,2.66451 -0.88726,3.84479 l -10.84428,44.16581 h -8.481 L 666.49323,578.1497 h 7.69232 l 8.08392,44.36298 c 0.19443,1.11729 0.40803,2.39889 0.63806,3.84479 0.23003,1.44591 0.46006,2.87538 0.69009,4.28568 0.23003,1.41578 0.46006,2.76037 0.69009,4.0447 0.23003,1.2816 0.41077,2.3496 0.54221,3.20399 0.13145,-0.85439 0.32862,-1.90596 0.59151,-3.1547 0.26289,-1.24599 0.54222,-2.57688 0.84071,-3.99266 0.29301,-1.41305 0.60793,-2.82335 0.93655,-4.23913 0.32861,-1.41305 0.62437,-2.67821 0.88726,-3.7955 l 10.94287,-44.56015 h 8.27835 l 10.94286,44.56015 c 0.2629,1.11729 0.55865,2.38245 0.88726,3.7955 0.32862,1.41578 0.63806,2.82608 0.93656,4.23913 0.29575,1.41578 0.57507,2.74667 0.83796,3.99266 0.26289,1.24874 0.46006,2.30305 0.59425,3.1547 0.13144,-0.85439 0.30944,-1.92239 0.53947,-3.20399 0.23003,-1.28433 0.46006,-2.62892 0.69009,-4.0447 0.23003,-1.41304 0.46006,-2.83977 0.6901,-4.28568 0.23003,-1.4459 0.44362,-2.7275 0.64079,-3.84479 l 8.08392,-44.36298 h 7.49242 z"
       id="path4523" />
    <path
       style="fill:#ffffff;fill-opacity:1;stroke-width:2.7384553"
       inkscape:connector-curvature="0"
       d="m 805.40412,626.89695 c -1.38019,4.37331 -3.33818,8.13595 -5.86851,11.28791 -2.53034,3.1547 -5.57002,5.62205 -9.11906,7.39383 -3.54904,1.77452 -7.45955,2.66452 -11.7288,2.66452 -4.27473,0 -8.16608,-0.87357 -11.68499,-2.61249 -3.51618,-1.74166 -6.523,-4.18984 -9.02048,-7.34728 -2.49747,-3.15196 -4.41986,-6.9009 -5.76444,-11.23862 -1.34732,-4.33771 -2.02098,-9.10262 -2.02098,-14.29473 0,-5.19212 0.69009,-9.97346 2.07027,-14.34403 1.38018,-4.37058 3.31901,-8.13322 5.81648,-11.28792 2.49747,-3.1547 5.52072,-5.61931 9.06976,-7.39383 3.55178,-1.77452 7.45955,-2.66177 11.73154,-2.66177 4.27199,0 8.16608,0.87082 11.68499,2.61248 3.51344,1.74166 6.52027,4.18984 9.02048,7.34454 2.49473,3.1547 4.43629,6.90091 5.81647,11.23862 1.38019,4.33771 2.07028,9.10536 2.07028,14.29474 -0.003,5.19759 -0.69283,9.97619 -2.07301,14.34403 z m -7.2487,-25.92496 c -1.08442,-3.51344 -2.57962,-6.53943 -4.48559,-9.06977 -1.90596,-2.52759 -4.14054,-4.46642 -6.70373,-5.81647 -2.5632,-1.34732 -5.35642,-2.02098 -8.37968,-2.02098 -2.95753,0 -5.7042,0.67639 -8.23179,2.02098 -2.53308,1.34732 -4.71836,3.25328 -6.55861,5.71789 -1.84024,2.46461 -3.28614,5.455 -4.33771,8.97118 -1.05157,3.51892 -1.57735,7.44312 -1.57735,11.78084 0,4.33771 0.54222,8.26739 1.62664,11.78083 1.08443,3.51618 2.56594,6.54217 4.4363,9.06976 1.87584,2.53308 4.09125,4.4719 6.65719,5.81648 2.56319,1.34732 5.35368,2.02098 8.37967,2.02098 2.95753,0 5.71789,-0.67366 8.28109,-2.02098 2.56319,-1.34458 4.76217,-3.25328 6.60515,-5.71789 1.83751,-2.46187 3.28341,-5.45227 4.33772,-8.96844 1.04883,-3.51618 1.57461,-7.44312 1.57461,-11.78084 0,-4.33771 -0.53674,-8.26739 -1.62391,-11.78357 z"
       id="path4525" />
    <path
       style="fill:#ffffff;fill-opacity:1;stroke-width:2.7384553"
       inkscape:connector-curvature="0"
       d="m 867.01662,610.67434 c -2.95753,3.28614 -6.9009,5.455 -11.83012,6.50657 l 15.18473,29.97513 h -8.87259 l -14.78766,-29.37815 h -16.36501 v 29.37815 h -7.69232 v -69.00908 h 27.31061 c 3.02326,0 5.84934,0.39434 8.47826,1.18302 2.62892,0.78867 4.89636,1.98811 6.80232,3.59833 1.90323,1.61021 3.41486,3.63119 4.53215,6.0602 1.11729,2.42901 1.67593,5.32082 1.67593,8.67269 0,5.39202 -1.47876,9.72973 -4.4363,13.01314 z m -6.85161,-22.33485 c -2.39889,-2.12778 -5.89863,-3.19303 -10.49924,-3.19303 h -19.32254 v 25.63194 h 18.33396 c 5.12639,0 8.92462,-1.06252 11.3865,-3.1903 2.46461,-2.12504 3.69965,-5.35094 3.69965,-9.67497 0,-4.25282 -1.19944,-7.44312 -3.59833,-9.57364 z"
       id="path4527" />
    <path
       style="fill:#ffffff;fill-opacity:1;stroke-width:2.7384553"
       inkscape:connector-curvature="0"
       d="m 927.94452,647.15878 -20.40697,-36.77198 -13.11173,16.95378 v 19.81546 h -7.69232 v -69.00908 h 7.69232 v 30.06824 9.26694 c 0.46006,-0.65449 1.09812,-1.55818 1.9224,-2.71107 0.82154,-1.14742 1.72523,-2.37972 2.70833,-3.69692 0.98585,-1.31172 1.95526,-2.59605 2.90824,-3.84479 0.95298,-1.246 1.78821,-2.33316 2.5139,-3.25329 l 20.01264,-25.83185 h 8.38241 l -20.2098,25.93044 24.05459,43.07864 h -8.77401 z"
       id="path4529" />
    <path
       style="fill:#ffffff;fill-opacity:1;stroke-width:2.7384553"
       inkscape:connector-curvature="0"
       d="m 987.93038,636.61025 c -1.02144,2.36328 -2.5139,4.4007 -4.48832,6.10949 -1.97169,1.7088 -4.37058,3.05612 -7.19667,4.0447 -2.82608,0.98311 -6.0465,1.47877 -9.65853,1.47877 -4.73479,0 -9.08619,-0.90643 -13.06517,-2.71107 -3.97624,-1.80739 -7.34454,-4.09126 -10.10216,-6.85162 l 5.12365,-5.71789 c 2.62892,2.49747 5.455,4.50202 8.481,6.0109 3.02325,1.51437 6.3094,2.26745 9.85844,2.26745 4.6006,0 8.23179,-1.05157 10.89631,-3.15197 2.66178,-2.10587 3.99267,-4.99494 3.99267,-8.67816 0,-1.57461 -0.26563,-3.02326 -0.78868,-4.33771 -0.52578,-1.31173 -1.42947,-2.5276 -2.71107,-3.64763 -1.2816,-1.11455 -2.97396,-2.21815 -5.07709,-3.29984 -2.10314,-1.08442 -4.73206,-2.18528 -7.88676,-3.30257 -3.7462,-1.31172 -6.88447,-2.64535 -9.41481,-3.99267 -2.53307,-1.34732 -4.57048,-2.79323 -6.11223,-4.33771 -1.54175,-1.54176 -2.66178,-3.26698 -3.35187,-5.17842 -0.69009,-1.90597 -1.03513,-4.10769 -1.03513,-6.60516 0,-2.76036 0.52304,-5.22497 1.57735,-7.39383 1.04882,-2.16885 2.5139,-4.02553 4.387,-5.57002 1.87311,-1.54175 4.14055,-2.71107 6.80233,-3.49974 2.66177,-0.78868 5.60287,-1.18301 8.8233,-1.18301 4.6006,0 8.52755,0.65722 11.78083,1.97168 3.25329,1.31446 6.32584,3.12184 9.21764,5.42214 l -4.92922,6.01365 c -2.49747,-2.10313 -5.01137,-3.69691 -7.5417,-4.78134 -2.53307,-1.08443 -5.53716,-1.62664 -9.02047,-1.62664 -2.36603,0 -4.40344,0.28206 -6.11224,0.83796 -1.70879,0.55865 -3.1054,1.29803 -4.18983,2.21815 -1.08443,0.92012 -1.87311,1.98812 -2.36329,3.204 -0.49566,1.21587 -0.74212,2.5139 -0.74212,3.89408 0,1.4459 0.19717,2.74393 0.59151,3.89408 0.39707,1.15015 1.18575,2.26744 2.36602,3.35461 1.18301,1.08443 2.84252,2.15243 4.97851,3.20399 2.13326,1.05157 4.94565,2.20446 8.42897,3.45046 3.81193,1.38018 6.99949,2.76036 9.55995,4.14054 2.56593,1.38018 4.61977,2.89455 6.16152,4.53488 1.54449,1.64308 2.64535,3.45046 3.30258,5.41941 0.65723,1.97442 0.98584,4.24187 0.98584,6.80232 0,2.69738 -0.51209,5.22771 -1.52806,7.59374 z"
       id="path4531" />
    <path
       style="fill:#ffffff;fill-opacity:1;stroke-width:2.7384553"
       inkscape:connector-curvature="0"
       d="m 1051.5173,607.8729 c -1.1501,2.66178 -2.7439,4.89635 -4.7786,6.70374 -2.0401,1.80738 -4.5047,3.17113 -7.3938,4.08851 -2.8946,0.92286 -6.0493,1.38018 -9.4641,1.38018 h -16.7594 v 27.11071 h -7.6923 v -69.00908 h 25.8319 c 3.1547,0 6.0629,0.41077 8.7247,1.23231 2.6645,0.82153 4.9785,2.0867 6.9502,3.7955 1.9744,1.70879 3.5162,3.86122 4.6334,6.45728 1.1146,2.59605 1.676,5.63574 1.676,9.11905 0,3.42033 -0.5778,6.46002 -1.728,9.1218 z m -9.7105,-19.12538 c -2.4975,-2.39888 -6.1095,-3.59833 -10.8443,-3.59833 h -17.8438 v 27.89939 h 16.8579 c 10.3815,0 15.5764,-4.66359 15.5764,-13.99899 0,-4.46916 -1.2488,-7.90318 -3.7462,-10.30207 z"
       id="path4533" />
    <path
       style="fill:#ffffff;fill-opacity:1;stroke-width:2.7384553"
       inkscape:connector-curvature="0"
       d="m 1104.9994,647.15878 -5.9151,-17.54802 h -28.4882 l -6.0136,17.54802 h -7.8868 l 23.956,-69.00908 h 8.4783 l 23.956,69.00908 z m -15.8721,-47.22193 c -0.3944,-1.11729 -0.8051,-2.33316 -1.2323,-3.64762 -0.4272,-1.31172 -0.838,-2.57689 -1.2323,-3.7955 -0.3944,-1.21587 -0.7394,-2.36602 -1.0352,-3.45045 -0.293,-1.08443 -0.5395,-1.98812 -0.7394,-2.71107 -0.1971,0.72295 -0.4436,1.61021 -0.7421,2.66178 -0.293,1.05156 -0.638,2.20445 -1.0351,3.45045 -0.3944,1.24873 -0.8216,2.54676 -1.2816,3.89408 -0.4601,1.34732 -0.8873,2.61249 -1.2816,3.7955 l -7.591,22.47724 h 23.7616 z"
       id="path4535" />
    <path
       style="fill:#ffffff;fill-opacity:1;stroke-width:2.7384553"
       inkscape:connector-curvature="0"
       d="m 1163.6571,645.08851 c -3.7462,2.10313 -8.1524,3.1547 -13.2103,3.1547 -4.2063,0 -8.0347,-0.90643 -11.4851,-2.71107 -3.4505,-1.80739 -6.3916,-4.28843 -8.8233,-7.44313 -2.4318,-3.1547 -4.3049,-6.90364 -5.6193,-11.23862 -1.3145,-4.33771 -1.9717,-9.0369 -1.9717,-14.09483 0,-5.12639 0.6901,-9.87213 2.0702,-14.24818 1.3802,-4.37058 3.3026,-8.13321 5.7645,-11.28791 2.4646,-3.1547 5.4386,-5.63575 8.9219,-7.44313 3.4833,-1.80738 7.2952,-2.71107 11.4385,-2.71107 9.3299,0 16.6608,3.68323 21.9816,11.04146 l -6.1095,4.63346 c -2.2346,-3.02325 -4.5349,-5.22497 -6.9036,-6.60515 -2.3633,-1.38018 -5.4195,-2.07027 -9.1684,-2.07027 -2.9575,0 -5.685,0.70652 -8.1825,2.11956 -2.4975,1.41578 -4.6307,3.3683 -6.408,5.86577 -1.7718,2.50021 -3.1711,5.48787 -4.1898,8.97118 -1.0187,3.48332 -1.5281,7.33085 -1.5281,11.53438 0,4.20626 0.5094,8.06749 1.5281,11.58092 1.0187,3.51618 2.4509,6.54217 4.2884,9.06977 1.8375,2.52759 4.0091,4.50202 6.5066,5.91506 2.4974,1.41304 5.1921,2.11683 8.0839,2.11683 3.7462,0 6.9639,-0.78868 9.6585,-2.36603 2.6947,-1.57461 5.162,-3.81193 7.3939,-6.701 l 5.3235,4.63073 c -2.492,3.42307 -5.6138,6.18343 -9.36,8.28657 z"
       id="path4537" />
    <path
       style="fill:#ffffff;fill-opacity:1;stroke-width:2.7384553"
       inkscape:connector-curvature="0"
       d="M 1187.4132,647.15878 V 578.1497 h 41.7039 v 6.99949 h -34.0116 v 21.68857 h 19.7169 v 6.99949 h -19.7169 v 26.32204 h 35.4904 v 6.99949 z"
       id="path4539" />
    <path
       style="fill:#ffffff;fill-opacity:1;stroke-width:2.7384553"
       inkscape:connector-curvature="0"
       d="m 1284.9652,636.61025 c -1.0215,2.36328 -2.5139,4.4007 -4.4884,6.10949 -1.9717,1.7088 -4.3705,3.05612 -7.1966,4.0447 -2.8261,0.98311 -6.0465,1.47877 -9.6586,1.47877 -4.7347,0 -9.0862,-0.90643 -13.0651,-2.71107 -3.9763,-1.80739 -7.3446,-4.09126 -10.1022,-6.85162 l 5.1237,-5.71789 c 2.6289,2.49747 5.455,4.50202 8.481,6.0109 3.0232,1.51437 6.3094,2.26745 9.8584,2.26745 4.6006,0 8.2318,-1.05157 10.8963,-3.15197 2.6618,-2.10587 3.9927,-4.99494 3.9927,-8.67816 0,-1.57461 -0.2657,-3.02326 -0.7887,-4.33771 -0.5258,-1.31173 -1.4295,-2.5276 -2.7111,-3.64763 -1.2816,-1.11455 -2.9739,-2.21815 -5.0771,-3.29984 -2.1031,-1.08442 -4.732,-2.18528 -7.8867,-3.30257 -3.7462,-1.31172 -6.8845,-2.64535 -9.4148,-3.99267 -2.5331,-1.34732 -4.5705,-2.79323 -6.1123,-4.33771 -1.5417,-1.54176 -2.6617,-3.26698 -3.3518,-5.17842 -0.6901,-1.90597 -1.0352,-4.10769 -1.0352,-6.60516 0,-2.76036 0.5231,-5.22497 1.5774,-7.39383 1.0488,-2.16885 2.5139,-4.02553 4.387,-5.57002 1.8731,-1.54175 4.1405,-2.71107 6.8023,-3.49974 2.6618,-0.78868 5.6029,-1.18301 8.8233,-1.18301 4.6006,0 8.5276,0.65722 11.7809,1.97168 3.2532,1.31446 6.3258,3.12184 9.2176,5.42214 l -4.9292,6.01365 c -2.4975,-2.10313 -5.0114,-3.69691 -7.5417,-4.78134 -2.5331,-1.08443 -5.5372,-1.62664 -9.0205,-1.62664 -2.366,0 -4.4034,0.28206 -6.1122,0.83796 -1.7088,0.55865 -3.1054,1.29803 -4.1899,2.21815 -1.0844,0.92012 -1.8731,1.98812 -2.3633,3.204 -0.4956,1.21587 -0.7421,2.5139 -0.7421,3.89408 0,1.4459 0.1972,2.74393 0.5915,3.89408 0.3971,1.15015 1.1858,2.26744 2.3661,3.35461 1.183,1.08443 2.8425,2.15243 4.9785,3.20399 2.1332,1.05157 4.9456,2.20446 8.4289,3.45046 3.812,1.38018 6.9995,2.76036 9.56,4.14054 2.5659,1.38018 4.6198,2.89455 6.1615,4.53488 1.5445,1.64308 2.6453,3.45046 3.3026,5.41941 0.6572,1.97442 0.9858,4.24187 0.9858,6.80232 0,2.69738 -0.5121,5.22771 -1.528,7.59374 z"
       id="path4541" />
  </g>
</svg>
