<?xml version="1.0" encoding="utf-8"?>
<!-- Generator: Adobe Illustrator 19.1.0, SVG Export Plug-In . SVG Version: 6.00 Build 0)  -->
<svg version="1.0" id="Layer_1" xmlns="http://www.w3.org/2000/svg" xmlns:xlink="http://www.w3.org/1999/xlink" x="0px" y="0px"
	 viewBox="0 0 128 128" style="enable-background:new 0 0 128 128;" xml:space="preserve">
<style type="text/css">
	.st0{fill:#333333;}
	.st1{fill:#F7931E;}
	.st2{fill:#585858;}
	.st3{fill:#808080;}
</style>
<path class="st0" d="M112.4,127.9H15.7c-8.6,0-15.6-7-15.6-15.6V15.6c0-8.6,7-15.6,15.6-15.6h96.7c8.6,0,15.6,7,15.6,15.6v96.7
	C128,121,121,127.9,112.4,127.9z"/>
<g>
	<path class="st1" d="M103.3,71.5L70.5,57.7c-0.5-0.2-0.3-0.9,0.2-0.8l35.1,6.4c0.3,0,0.4,0.3,0.3,0.5l-2.2,7.5
		C103.8,71.5,103.6,71.6,103.3,71.5z"/>
	<path class="st2" d="M120.6,53.6l-48.6-0.1c-0.5,0-0.6-0.7-0.1-0.8L118.5,39c0.3-0.1,0.5,0.1,0.5,0.4l1.9,13.7
		C121,53.3,120.8,53.6,120.6,53.6z"/>
	<path class="st1" d="M24.8,71.2l32.8-13.8c0.5-0.2,0.3-0.9-0.2-0.8L22.3,63c-0.3,0-0.4,0.3-0.3,0.5l2.2,7.5
		C24.3,71.2,24.6,71.3,24.8,71.2z"/>
	<path class="st2" d="M7.6,53.6l48.6-0.1c0.5,0,0.6-0.7,0.1-0.8L9.6,39c-0.3-0.1-0.5,0.1-0.5,0.4L7.1,53.1
		C7.1,53.3,7.3,53.6,7.6,53.6z"/>
	<path class="st1" d="M64.3,78.1l2.1-1.1l-1.9,11.6c-0.1,0.5-0.8,0.5-0.8,0L61.8,77l2.1,1.1C64,78.2,64.1,78.2,64.3,78.1z"/>
	<polygon class="st3" points="60.6,68.8 60.5,68.9 60.4,68.7 	"/>
	<polygon class="st3" points="67.7,68.7 67.7,68.9 67.6,68.8 	"/>
	<path class="st1" d="M63.9,44.9l-6.5,3.4c-0.2,0.1-0.2,0.5,0,0.6l6.5,3.4c0.1,0.1,0.2,0.1,0.3,0l6.5-3.4c0.2-0.1,0.2-0.5,0-0.6
		l-6.5-3.4C64.1,44.8,64,44.8,63.9,44.9z"/>
	<path class="st1" d="M68.9,61.1C68.9,61.2,68.9,61.2,68.9,61.1l-0.1,0.8l-0.2,1.5L68,66.9l-2,1l-1.6,0.8l-0.1,0.1
		c-0.1,0.1-0.3,0.1-0.4,0l-0.1-0.1L62.2,68l-2-1l-0.6-3.5l-0.2-1.5l-0.1-0.7c0,0,0,0,0-0.1l0.8,0.4l1.6,0.8l2.3,1.2
		c0.1,0.1,0.3,0.1,0.4,0l2.3-1.2l1.6-0.8L68.9,61.1z"/>
	<path class="st2" d="M67.7,68.9l-0.2,1.5l-0.8,4.8l-2.4,1.2c-0.1,0.1-0.3,0.1-0.4,0l-2.4-1.2l-0.8-4.8l-0.2-1.5l0.1-0.1l1.6,0.8
		l1.7,0.9c0.1,0.1,0.3,0.1,0.4,0l1.7-0.9l1.6-0.8L67.7,68.9z"/>
</g>
</svg>
