<?xml version="1.0" encoding="UTF-8"?>
<!--

    Copyright (c) 2012-2018 Red Hat, Inc.
    All rights reserved. This program and the accompanying materials
    are made available under the terms of the Eclipse Public License v1.0
    which accompanies this distribution, and is available at
    http://www.eclipse.org/legal/epl-v10.html

    Contributors:
      Red Hat, Inc. - initial API and implementation

-->
<svg id="Layer_1" data-name="Layer 1" xmlns="http://www.w3.org/2000/svg" viewBox="0 0 512 512"><defs><style>.cls-1{fill:#656565;}.cls-2{fill:#3f9c35;}.cls-3{fill:#0088ce;}.cls-4{fill:#92d400;}</style></defs><title>thorntail_icon_rgb_512px</title><path class="cls-1" d="M444.32,406.46a59.28,59.28,0,0,0-6.67,4.37c-2.32,1.7-4.52,3.57-6.8,5.33-1.08.84-2.22,1.59-3.33,2.38.07.21.14.42.22.63,2.9,1.22,5.81,2.4,8.7,3.66,3.7,1.63,7.36,3.4,11.08,5,3,1.27,6.2,2.14,9.2,3.51a48.31,48.31,0,0,0,22,4.61c1.77-.07,2.45-1.45,2.87-2.74.2-.61-.68-2.08-1.4-2.66a76.52,76.52,0,0,0-9.33-6.92,64,64,0,0,1-11.81-9,37.32,37.32,0,0,0-11.83-7.76C446.32,406.47,445,406.08,444.32,406.46Z"/><path class="cls-1" d="M373.53,423c-1.39-1-2.89-1.75-4.21-2.8-2-1.58-3.82-3.38-5.81-5-1.75-1.38-3.62-2.57-5.73-4a45.31,45.31,0,0,0-9.23,8.39c-.74.92-1.37,1.94-2.14,2.82-1.16,1.34-1.17,1.9.5,2.85,4.47,2.55,9,5,13.5,7.5,5.38,3,10.86,5.7,16.13,8.89a18.59,18.59,0,0,0,10.4,3,32.32,32.32,0,0,1,7.49.18,4.31,4.31,0,0,0,4.74-1.51l-2.62-2.78c-.6-.64-1.2-1.28-1.77-2a14.16,14.16,0,0,0-1.77-2.17c-1.39-1.07-2.93-1.9-4.37-2.9C383.6,430.07,378.57,426.53,373.53,423Z"/><path d="M347.45,122.88a46.74,46.74,0,0,0,3,4.72c1.09,1.45,2.58,2.58,3.63,4,2.41,3.36,6,3.35,9.16,4.57.5.19,1.5-.74,1.94-1.4a2.18,2.18,0,0,0-.58-1.84,23.63,23.63,0,0,0-3.69-2.25c-4-2.05-6.42-5.72-8.56-9.48a54.9,54.9,0,0,1-4.09-9.78c-.71-2.14-1.55-4.44-.66-7,1.89,3.33,3.63,6.36,5.32,9.41,3.37,6,8.92,9.57,13.94,13.68a4.8,4.8,0,0,0,3.24,1.16,3.85,3.85,0,0,0,2.42-2.12c.26-.55-.33-2-.92-2.6-2.27-2.37-4.88-4.39-7-6.87a96.58,96.58,0,0,1-6.52-9,63.32,63.32,0,0,1-4.48-7.51A21.54,21.54,0,0,1,351,89.38a16.54,16.54,0,0,0-.3-4.19,13.4,13.4,0,0,0-1-2.58c-.78.53-1.57,1-2.34,1.59a.9.9,0,0,0-.26.47c-1.3,4.11-2.42,8.28-1.79,12.86.49,3.58.54,3.58-1.63,6.11,0-1.37,1.19-2.68-.31-4.12-.24.3-.49.49-.57.75A21,21,0,0,0,345,118.44C345.87,119.88,346.59,121.42,347.45,122.88Z"/><path d="M360.19,87.75c.24,1.55.12,3.16.51,4.67.65,2.56.88,5.34,3.1,7.33a2,2,0,0,1,.54,1.42c-.14,1.73.89,2.9,1.84,4.13a17.5,17.5,0,0,1,2.44,3.27c2,4.49,5.3,7.82,8.89,10.84a39.56,39.56,0,0,0,5.75,3.9c1.77,1,3.1.44,3.91-1.4.74-1.65-.36-2.94-1.47-3.82a38.83,38.83,0,0,1-8.56-9.6c-1.8-2.83-3.21-5.92-4.81-8.89a23.57,23.57,0,0,1-1.73-3c-1.57-4.37-2.94-8.81-4.55-13.17-1-2.82-2.37-5.53-3.7-8.58a13.33,13.33,0,0,0-1.7,1.24c-1.54,1.63-1.77,3.83-1.54,6.08C359.3,84,359.89,85.87,360.19,87.75Z"/><path d="M359.17,230.84a7.61,7.61,0,0,0-.33,2.85c-.18,2.68-.32,5.37-.48,8.05l.28,0,.06.58c.41,3.79.42,3.79,3.91,4.83.28.08.52.4.79.45a3.17,3.17,0,0,0,1.63.09c2.75-1.12,3-4,3.13-6.59.13-3.4-1.3-6.65-3.07-9.66C363.68,229.06,360.34,228.68,359.17,230.84Z"/><path d="M437.84,227.32a2.69,2.69,0,0,1,.53,1.41c.23,1.76,1.34,2.67,2.73,1.92,3-1.62,3.93-2.49,3.52-6.27-.07-.7-.13-1.4-.2-2.1,0-2.53-.41-4.72-3.25-5.78-1.7-.63-2.42-.62-2.34,1.17.09,2.26-.93,3.9-1.71,5.69A3.22,3.22,0,0,0,437.84,227.32Z"/><path class="cls-2" d="M305.16,349.53c1.28-1.92,2.63-3.78,3.81-5.77a24.55,24.55,0,0,0,1.81-4.08c.78-2.09,1.37-4.27,2.19-6.34,1-2.43,2.48-4.73,0-7.49-.15-.18-.16-.5-.29-.72-2.32-4-4.78-8-8.38-10.87-2.77-2.23-5.66-4.31-8.6-6.24a35.56,35.56,0,0,1-10.9-11.23c-1.31-2.11-2.91-4-4.38-6.05l-.46.08c0,.66,0,1.31.1,2a24.25,24.25,0,0,1,.47,3.33c-.05,1.52-.44,3-.53,4.52-.13,2.19-.1,4.4-.16,6.61-.05,2-.28,4-.14,5.95.26,3.6.84,7.2,1.1,10.81.39,5.6.63,11.2.9,16.79.13,2.85,0,5.7.29,8.54.54,4.67,1.36,9.33,2.12,14,.26,1.57.72,3.12,1.05,4.69.91,4.28,1.79,8.56,2.77,13.25.23-.57.31-.73.36-.9a62.67,62.67,0,0,1,12.39-24.22A72,72,0,0,0,305.16,349.53Z"/><path class="cls-2" d="M474.64,305.11c-.19,4.23-.35,8.19-.55,12.14-.15,2.8-.43,5.58-.51,8.39s-1.32,5.46-.87,8.45c.09.57-.32,1.17-.4,1.78a12.33,12.33,0,0,0,0,1.72l.95.26c.6-1.45,1.13-2.93,1.8-4.33a52.78,52.78,0,0,0,2.71-5.36c.9-2.64,1.46-5.44,2.11-8.19a12.29,12.29,0,0,0-1.22-8.05c-.74-1.61-1.68-3.13-2.57-4.66C475.68,306.57,475.2,305.94,474.64,305.11Z"/><path class="cls-3" d="M281.52,378q-1.72-7.81-3.33-15.66c-.7-3.4-1.43-6.81-1.93-10.22-.34-2.41-.33-4.83-.44-7.25-.24-5.38-.38-10.75-.73-16.14-.23-3.61-.72-7.24-1.12-10.86a20.94,20.94,0,0,1-.49-4.15c.65-5.75-.54-11.52-1-17.29-.38-4.53-.59-9.07-1-13.6a7.64,7.64,0,0,0-1.11-3.51c-3.54-5.09-7.21-10.1-10.88-15.11-2.37-3.24-4.87-6.39-7.22-9.64-1.32-1.82-2.38-3.85-3.72-5.65-3.48-4.72-6.94-9.47-10.63-14s-6.35-9.56-10.49-13.55c-.81-.78-1.37-1.84-2.14-2.69-1.52-1.66-3.15-3.21-4.63-4.92-1.13-1.3-2-2.83-3.15-4.13-2-2.25-4.14-4.33-6.09-6.6-3.32-3.89-6.5-7.91-9.82-11.8-2.46-2.89-5.12-5.58-7.56-8.48-2.18-2.58-4.08-5.43-6.3-8-3.42-3.95-7.2-7.58-10.46-11.66-2.86-3.57-5.47-7.3-9-10.28-2.67-2.29-5.25-4.71-7.82-7.14-3.41-3.21-5.7-7.55-9.64-10.29-2-1.41-3.71-3.46-5.54-5.22.51,3.47,3.89,4.11,5.3,6.94S155.29,141,157,144s4.61,5.17,6.58,8c4.34,6.27,8.71,12.56,12.53,19.15,4.19,7.23,7.76,14.81,11.61,22.24,2.17,4.18,4.2,8.34,7.63,11.83a185.5,185.5,0,0,1,12.76,14.88,18.82,18.82,0,0,1,4,9.63c-1.4-.06-2.62-.12-3.84-.16-4-.13-6.57-2.79-8.86-6.09a56.85,56.85,0,0,0-5.13-6.58c-3.11-3.27-6.64-6.12-9.62-9.5a186.6,186.6,0,0,0-13.56-14.56c-6.58-6.05-12.79-12.57-19.87-18A89.47,89.47,0,0,1,138.86,164a65.66,65.66,0,0,0-6.54-6.49c-3.3-2.75-6.86-5.11-9.53-8.67a17.65,17.65,0,0,0-3-2.91,100.15,100.15,0,0,1-8.32-6.93c-2.73-2.75-6.13-4.74-9.21-7.1-4.17-3.2-8.27-6.54-12.52-9.61-4.06-2.94-8.17-5.86-12.46-8.36-6.78-4-14-6.36-21.45-8.51,2,1.68,3.92,3.4,5.93,5,1.44,1.16,3,2.11,4.45,3.26,2.22,1.77,4.37,3.65,6.58,5.44.74.59,1.63,1,2.38,1.54,2.54,1.93,5.07,3.87,7.55,5.89,1,.82,1.77,2,2.78,2.75s2.45,1.24,3.47,2.14c4.43,3.9,8.81,7.88,13.16,11.88,3.92,3.63,7.9,7.21,11.66,11,3.27,3.32,7.07,6,9.84,10,2.06,2.94,4.76,5.41,7.07,8.18,1.29,1.56,2.29,3.36,3.54,5,1.6,2,3.4,3.91,5,6,4.74,6.22,9.48,12.45,14.08,18.78,2.85,3.93,5.42,8.07,8.18,12.08a77.13,77.13,0,0,0,5.06,6.82c1.2,1.39,3,2.24,4.2,3.61a26.64,26.64,0,0,1,3.44,4.88,1.68,1.68,0,0,1-1.65,2.55,61.45,61.45,0,0,1-7.86-2.53c-1.92-.78-3.67-2.09-5.55-3.05-6.88-3.52-13.77-7-20.68-10.47-3.65-1.82-7.33-3.57-11.06-5.13s-7.32-2.52-10.88-4.07c-5.59-2.43-11.11-5.08-16.62-7.73-3.15-1.51-6.21-3.24-9.34-4.8-4.58-2.29-9.15-4.66-13.8-6.75-6.76-3-13.55-6.06-20.42-8.72C50.91,176.81,45.64,174.15,40,173A24.94,24.94,0,0,1,36.9,172l-.1.45c2,.78,4.11,1.44,6.09,2.38,3.59,1.71,7.13,3.57,10.67,5.41,4.16,2.17,8.28,4.41,12.43,6.59,2,1.06,4.08,2,6,3.12q6.45,3.83,12.78,7.87c6.13,3.89,12.14,8,18.36,11.73,4,2.37,7.52,5.39,11.46,7.76,2.58,1.55,5,3.35,7.52,5.11,4.08,2.9,8.18,5.77,12.18,8.81,5.74,4.36,11.47,8.75,17.08,13.32,4.36,3.55,8.54,7.37,12.76,11.11q8.29,7.36,16.53,14.8c1.28,1.15,2.41,2.5,3.75,3.55s2.84,1.71,4.16,2.72c5.75,4.45,11.57,8.82,17.17,13.49a154,154,0,0,1,14.64,13.22,208.52,208.52,0,0,1,13.71,17.1c4,5.33,7.52,11,11.52,16.35,3.41,4.54,7.27,8.72,10.79,13.18,3,3.88,6,7.82,8.77,11.93,3.6,5.41,6.84,11.08,10.41,16.53,2.27,3.47,4.83,6.73,7.27,10.08.9,1.24,1.82,2.47,2.73,3.7-.46-1.71-1.35-3.19-1.81-4.77C282.91,384.35,282.21,381.15,281.52,378Z"/><path class="cls-1" d="M495.3,259.58c-3.76-.66-7.64-.9-11.23-2.26-4-1.5-7.94-1.74-11.9-2.47-3.32-.62-6.67-.84-10-1.46s-6.79-1.6-10.19-2.32a33.23,33.23,0,0,0-5-.74c-4.39-.25-8.79-.56-13.14-.48-2.23,0-3,1.62-2.76,4,.2,1.78.49,3.55.74,5.32l-.26.15c.7,1.48,1.51,2.92,2.08,4.44.86,2.33,2.5,1.55,3.95,1.65.18,0,.36.11.54.11,3.65.13,7.31.38,10.95.36,5.15,0,10.27-.31,15.42-.37,4.23-.06,8.46.54,12.67-.49s9-1,13.54-1.46a29.4,29.4,0,0,0,4.92-.51c1.12-.32,2.93-1.38,2.84-2C498.2,259.57,496.54,259.8,495.3,259.58Z"/><path d="M503.54,256.9a15.8,15.8,0,0,0-3.7-1.11c-3.67-.87-7.35-1.69-11-2.53l-6.62-1.54a23.12,23.12,0,0,1,.47-4.06,20,20,0,0,0,1.16-7.68c-.2-2.81.84-5.57,1.06-8.47.5-6.57,1.12-13.09.07-19.8-.31-2-.56-4-1-6a37.83,37.83,0,0,0-4.07-11c-1.74-2.86-3.56-5.67-5.41-8.46-.85-1.29-1.9-2.45-2.81-3.71-2.73-3.79-5.19-7.83-8.21-11.34-4.32-5-9.11-9.58-13.56-14.48-3.29-3.62-6.32-7.5-9.56-11.18-1.61-1.82-3.4-3.49-5.18-5.14-1-.92-2.28-1.5-3.15-2.51-2.54-3-3.84-7.15-7.74-8.85-.24-.1-.4-.5-.56-.78-2.5-4.42-6.18-7.86-9.74-11.12a42.46,42.46,0,0,1-6.28-7.92c-2.24-3.31-4.3-6.76-6.32-10.21a58.49,58.49,0,0,1-3.73-7.2c-1.16-2.88-1.93-5.89-2.87-8.84-.61-1.9-1.34-3.78-1.77-5.7-1-4.58-1.89-9.18-2.9-13.76-.12-.57-.84-1.54-1.11-1.5a2.43,2.43,0,0,0-1.66,1.1,9.82,9.82,0,0,0-.66,2.56l-.24-.07c0-.72,0-1.44,0-2.16l-.59-.16a29.76,29.76,0,0,0-1.28,4.49c-.54,4-.85,8.11-1.31,12.15-.08.7-.67,1.32-.64,2,.08,1.75.36,3.52.58,5.28.07.56.48,1.37.27,1.63-1.05,1.28-.82,3-.61,4.37a105.93,105.93,0,0,0,2.48,11A3.2,3.2,0,0,0,386.8,106a2.22,2.22,0,0,1,1.6,2.09,11.84,11.84,0,0,0,.77,2.68c1.15,3,2.3,5.9,3.56,8.8a12.66,12.66,0,0,0,1.83,2.67,9.15,9.15,0,0,0,1.71,1.64c1.05.79.57,2.06,1,2.73a26.88,26.88,0,0,0,3.83,4.54c.2.23.73.33.75.5.27,2,2.11,3,3.16,3.72,4.3,2.88,7.69,6.78,11.41,10.31a9.1,9.1,0,0,0,3.49,2.16c2,.6,2.28.86,1.15,2.56,1.38,1,2.8,2,4.13,3.08,3.05,2.48,6.66,4.19,9,7.66a2.57,2.57,0,0,0,1.22.88,14.29,14.29,0,0,1,6.88,5.51,15.68,15.68,0,0,0,3.11,3.14c2.27,1.78,4.66,3.39,7,5.14a9,9,0,0,1,1.18,1.5,11.77,11.77,0,0,0,2,2.27c3.36,2.2,5.94,5.26,8.42,8.42,1,1.26,1.65,2.8,2.57,4.13,2.4,3.48,4.89,6.89,7.3,10.37a16.28,16.28,0,0,1,2.41,4c1.3,4.06,2.49,8.16,3.41,12.29a36.25,36.25,0,0,1,.54,7c.1,3.87.08,7.72.13,11.59a27.06,27.06,0,0,1-2.2,11.94,1.61,1.61,0,0,1-1.27.88c-3.16-.29-6.33-.63-9.5-1.11-2.79-.43-5.57-1.17-8.36-1.6s-5.84-.65-8.76-1c-1.25-.15-2.51-.4-3.75-.64-5-.91-9.94-2.49-14.49.71-3.43,2.42-6.67,5-6.91,9.69-.19,3.73.8,7.65,1.29,11.48a1.72,1.72,0,0,0,.49,1c2.48,1.91,4.8,4.19,8.1,4.05,5.28-.23,10.58-.34,15.87-.46,5.54-.12,11.07-.2,16.61-.29,1.77,0,3.55,0,5.48-.06a6,6,0,0,1,.28,1.77c-1,7.2-2,14.43-3.21,21.58-.73,4.27-2,8.4-2.8,12.65-.47,2.42-.55,5-.89,7.42-.57,4.21-1.2,8.4-1.84,12.59-.15,1-.58,2-.63,3.06-.27,4.79-.41,9.6-.67,14.39-.22,3.95-.35,7.92-.87,11.8-.44,3.32-1.41,6.51-2,9.79-.57,2.9-1,5.84-1.47,8.78-.27,1.77-.3,3.62-.63,5.37-.45,2.36-1.25,4.62-1.59,7-.73,5.12-1.24,10.3-1.92,15.44a5.61,5.61,0,0,1-1,1.84c-3.4-2.21-6.13-5.63-10.19-3.55-1.77.9-4,1.08-5.55,2.19-3.08,2.16-5.61,5.09-9.11,6.74-1.13.53-1.86,1.89-2.8,2.85-.57.58-1.09,1.44-1.8,1.62-4.25,1.09-8.53,2.11-12.85,3-2.9.57-5.87.87-8.83,1.2-2.28.25-4.58.44-6.9.49-3.2.08-6.41.06-9.63,0-2-.06-4.12-.32-6.18-.51-.89-.08-1.77-.2-2.66-.35a4.81,4.81,0,0,1-1.92-.47c-1.77-1.22-3.43-2.64-5.17-3.89-2.38-1.7-4.82-3.29-7.19-5a2.33,2.33,0,0,1-.79-1.36c-.28-1.88-.89-2.16-2.51-1.4-4.57,2.14-8.08,5.75-11.94,8.88-1.17,1-1.86,2.81-4,2.45-.38-.07-1.31,1.13-1.18,1.52.56,1.73-.64,2.43-1.14,3.6-.74,1.71-1.94,1.87-3.47,1.64-.66-.1-1.31-.3-2-.37l-13.59-1.39a6.84,6.84,0,0,0-1.6-.16c-4.11.53-7.71-1.88-11.43-3.37a37.78,37.78,0,0,1-6.77-4c-1.81-1.22-4-2-4.87-4.45-1.31-3.8-2.53-7.63-3.75-11.45a2.4,2.4,0,0,1,0-1.13c.56-3.29.92-6.67,1.77-9.85,1.37-5.08,2.72-10.12,5.43-14.64,3.08-5.13,6.07-10.23,10.05-14.62,2.32-2.54,4.22-5.52,6.33-8.28a5.17,5.17,0,0,1,1.26-1.21c2.83-1.86,3.61-5.25,4.71-8.26.69-1.89.34-4.29.53-6.44.36-4.15.39-8.31-1.18-12.42a13.42,13.42,0,0,0-1.7-2.76,21.23,21.23,0,0,0-1.39-1.62,86.06,86.06,0,0,0-5.75-6.69c-2.59-2.48-5.49-4.59-8.23-6.89q-4.38-3.69-8.72-7.43c-1-.86-2-1.73-2.91-2.64-1.92-1.86-3.95-3.63-5.7-5.66-2.44-2.82-5.59-5.15-6.54-9.12-.07-.27-.34-.72-.51-.74-2.09-.22-1.7-1.89-1.82-3.17-.18-1.84-.12-3.68-.35-5.51s-.77-3.74-1.06-5.61c-.13-.88.33-2,0-2.62-1.78-3.07-.18-6.17-1.26-9.45-1.25-3.82-.87-8.11-1.08-12.2-.14-2.68-.1-5.37,0-8,0-1.24.45-2.44.45-3.68,0-2.13-.47-4.32-.3-6.4a58.06,58.06,0,0,1,1.35-7c.84-4,1.59-8.06,2.59-12,.58-2.28,1.64-4.37,2.39-6.59a60.91,60.91,0,0,1,3-7.24c2.26-4.63,5.7-8.13,8.67-12.08a8.35,8.35,0,0,1,2.05-1.61c1.54-1.06,3.07-2.13,4.64-3.12a20.58,20.58,0,0,1,3.6-1.95c2.15-.79,4.33-1.4,5.79-3.4,2.72-3.72,6.83-5.61,10.44-8.1,3.06-2.11,6.5-3.61,9.68-5.54,2.78-1.69,5.39-3.64,8.14-5.39,1.67-1.05,3.44-1.94,5.18-2.88,2.19-1.19,4.39-2.36,6.27-3.37a8.24,8.24,0,0,1,1.43-1.69,27.5,27.5,0,0,1,3-1.39l5.07-2.27-.17-.47-3.86-1.36c.18-.6-.34-1.28-1.35-1.26-.53,0-1,.24-1.57.23-3.65-.06-7.26,0-10.26,2.28-.19.15-.54.1-.83.09a8.54,8.54,0,0,0-2.65-.11c-3.57,1.09-7.12,2.26-10.62,3.54-4.07,1.48-8.27,2.75-12.06,4.77a151.29,151.29,0,0,0-13.25,8.45c-3.23,2.18-6.34,4.54-9.48,6.86-1.95,1.43-3.85,2.93-5.78,4.39-3.35,2.52-5.6,6.07-7.47,9.86-.8,1.62-.66,3.84-2.64,4.66-.14.07-.15.43-.24.65a13.77,13.77,0,0,1-.92,2.15c-.68,1.08-1.55,2-2.21,3.11a16.41,16.41,0,0,0-1,2.47,15.47,15.47,0,0,0-1.09,2.39c-.44,1.3-.47,2.95-1.26,3.9-2,2.36-1.2,5.47-1.71,8.21-.38,2-.05,4.17-.26,6.22-.29,2.89-1.14,5.6-.46,8.75.51,2.31-.05,4.76.16,7.15.41,4.42,1.09,8.84,1.55,13.26.22,2.12.21,4.25.28,6.37a38.29,38.29,0,0,1,.07,4.41c-.29,3.48-1.07,6.82-.16,10.52.67,2.75.63,5.64.9,8.47l-.45.14c-1.86-2.86-3.77-5.7-5.57-8.6-2.06-3.3-4-6.67-6-10s-4.22-6.81-6.28-10.25c-1.35-2.24-2.29-4.88-4-6.73-2.31-2.51-3.95-5.52-6.28-8-1.19-1.28-2.59-2.41-3.7-3.8-.56-.7-1.11-1.42-1.6-2.17-1.18-1.79-2.2-3.7-3.51-5.39-2.39-3.09-5-6.06-7.44-9.08-.45-.55-.89-1.13-1.39-1.63-1.56-1.58-3.25-3-4.7-4.71-1.21-1.39-2-3.17-3.24-4.52-2.12-2.31-4.49-4.37-6.66-6.63-1.2-1.24-2.24-2.66-3.34-4a21.45,21.45,0,0,0-3-3.6,4.7,4.7,0,0,1-2-2.36c-.23-.66-1.25-1.07-1.92-1.59a3.62,3.62,0,0,1-.72-.62c-1.44-2-2.77-4-4.3-5.92-1.92-2.35-4.14-4.45-6-6.86-1.63-2.12-3.05-4.37-5.46-5.62-.28-.14-.41-.63-.62-1-1.15-1.73-1.71-3.83-3.67-5.07a25,25,0,0,1-3.65-3.49c-.63.29-1.48.4-1.61-1.26a1.54,1.54,0,0,0-.54-.94c-1.67-1.36-3.46-2.58-5-4-2.23-2-4.19-4.42-6.5-6.33s-5.13-3.62-7.73-5.38c-1.43-1-2.89-1.92-4.36-2.81-1.25-.76-2.56-2-3.81-2a5.1,5.1,0,0,1-4.08-2.57,3.27,3.27,0,0,0-3.46-1.43,3.49,3.49,0,0,1-1.26-.22c-.86-.27-1.71-.6-2.57-.9l.74-.73c-.84-.31-1.71-.57-2.53-.93-1.36-.61-2.69-1.32-4.05-1.91-2.13-.92-4-2.83-6.52-2.17l-1.21.33a4.76,4.76,0,0,0,.67,1.29c.89.84,1.94,1.5,2.78,2.38,2.85,2.94,5.63,6,8.45,8.92,3,3.16,6.36,6,8.81,9.72.55.84.86,1.86,1.45,2.65,2.34,3.1,4.76,6.13,7.12,9.21q5.13,6.71,10.23,13.44c2.68,3.52,5.64,6.86,7.95,10.61,2.94,4.78,5.36,9.89,8,14.86a8.38,8.38,0,0,1,.43,1.19c-2.41-1.8-4.85-3.49-7.15-5.38q-7.8-6.37-15.49-12.93c-3.07-2.61-6.05-5.37-9.06-8.07-5.21-4.68-10.39-9.39-15.63-14-3.68-3.27-7.36-6.56-11.19-9.62-5-4-10.07-7.8-15.16-11.59-4.09-3-8.13-6.19-12.42-8.84a129.79,129.79,0,0,0-22-11.11c-3.19-1.22-6.35-2.54-9.57-3.63s-6.14-2.07-9.2-3.15c-2.76-1-5.73-1.14-8-3.65-.16-.18-.56-.14-.85-.18-1.75-.24-3.59-.16-5.24-.79-2.53-1-4.93-2.46-7.41-3.68-1.06-.52-2.18-.93-3.27-1.39l-.34.59a8.68,8.68,0,0,0,1.7,1.85c4.07,2.38,8.16,4.73,12.31,6.95,3.44,1.85,7.08,2.94,10.07,6.1,3.21,3.4,7.17,6,10.74,9,2.35,2,4.58,4.16,6.91,6.16,4,3.4,8,6.67,12,10.13,4.15,3.68,8.25,7.43,12.21,11.34,2.52,2.5,4.62,5.49,7.12,8,4,4,8.14,7.78,12.13,11.76,3.13,3.12,6.23,6.28,9.1,9.65,1.93,2.26,3.32,5,5.17,7.39,2.31,2.94,4.9,5.65,7.26,8.54,4.81,5.89,9.94,11.51,14,18.05,1.37,2.22,2.88,4.36,4.57,6.9l-8.84-3.7c-5.16-2.16-10.36-4.24-15.48-6.52-3.87-1.72-7.63-3.8-11.5-5.55-4.19-1.89-8.48-3.53-12.69-5.39-7.41-3.27-14.83-6.53-22.19-10-5.52-2.59-11.29-4.2-16.82-6.86-4.49-2.16-9.36-3.32-14.1-4.62-4.21-1.16-8.48-1.92-12.73-2.79a27.17,27.17,0,0,0-3.2-.29l.44-.36c-2.72,0-5.45.11-8.18.07a27.59,27.59,0,0,1-4.61-.39,36.08,36.08,0,0,1-4-1.25c-3.1-1-6.19-2.19-9.41-2a18.41,18.41,0,0,0-2.55.58,52.23,52.23,0,0,0,4.76,3.47c4.47,2.53,9,5,13.51,7.33,6.62,3.37,13.32,6.5,19.94,9.87,7,3.58,14,7.3,21,11,3.17,1.67,6.41,3.22,9.47,5.14,5.38,3.37,10.67,6.94,16,10.49q5.92,4,11.76,8.1c3.94,2.78,7.8,5.69,11.73,8.48,3.31,2.34,6.73,4.51,10,6.9,2.74,2,5.36,4.17,8,6.31,4.41,3.58,8.86,7.11,13.19,10.81,6.06,5.19,12,10.5,18,15.78,5.35,4.72,10.66,9.5,16,14.17,2.61,2.26,5.34,4.36,8.07,6.45,3.88,3,7.81,5.85,11.7,8.8a57.21,57.21,0,0,1,5.63,4.53c2.73,2.68,5.27,5.56,7.86,8.39a96.12,96.12,0,0,1,6.43,7.26c2.4,3.23,4.39,6.78,6.69,10.1,2.92,4.21,5.91,8.38,9,12.47,1.89,2.52,3.92,4.94,6,7.29,3.44,3.88,7.13,7.53,10.4,11.55,3,3.69,5.62,7.75,8.42,11.64a29.59,29.59,0,0,1,2.66,3.63,60.86,60.86,0,0,0,8.32,12.28c2.33,2.69,4.56,5.47,6.81,8.23,1.34,1.65,2.57,3.41,4,5,3.93,4.34,8,8.53,11.87,12.95,2.24,2.57,4.18,5.43,6.18,8.22,3.3,4.6,8.06,6.89,12.59,9.38s9.74,3.26,14.77,3.78a27.69,27.69,0,0,0,2.84.31c3.65,0,7.28-.19,10.93,0,2.88.17,4.67-1.57,7-3,.22.12.74.33,1.21.63,4.07,2.6,7.86,5.67,12.25,7.68,5.38,2.47,10.59,5.45,16,7.93,3.71,1.72,7,4.48,11.35,4.7,4,.2,7.69,0,11.23-1.56,3.21-1.39,5.29-5.43,3.64-8.72-1.75-3.47-3.55-7.22-7.36-9.14a39.87,39.87,0,0,1-4.62-3.21l.21-.64c2.67,0,5.34-.09,8-.07a38.28,38.28,0,0,0,4.12.21,49.35,49.35,0,0,0,6.77-1.16c2.82-.7,5.54-1.76,8.37-2.44s5.48-2.21,8.65-.89c5.17,2.15,10.36,4.29,15.52,6.49,4.64,2,9.23,4.15,13.89,6,3.62,1.45,7.3,2.69,11,3.77a27.73,27.73,0,0,0,12.61.67c1.52-.26,2.83-1.47,4.17-2.35a15.78,15.78,0,0,0,2.38-2,1.66,1.66,0,0,0,.55-1.23c-.27-1.3-.39-2.84-1.14-3.82a32.66,32.66,0,0,0-7.56-7.37c-6.11-4.18-12.87-7.35-18.15-13.1,2-1.16,2-1.31,2.31-3.83a7.11,7.11,0,0,1,.2-.89c.75-3.08,1.6-6.13,2.23-9.26s.89-6.37,1.58-9.48c1.16-5.29,2.64-10.47,3.78-15.77a88.3,88.3,0,0,0,1.38-9.38c.42-4,.63-8.07,1-12.08.09-.93.31-2.36.87-2.57,2.25-.83,3.19-2.9,4.66-4.52,2.3-2.53,4.62-4.84,5.48-8.49.51-2.2,1.71-4.15,2.24-6.35.64-2.65.71-5.52,1.36-8.17.84-3.47-.9-6.48-2.07-9.54-.59-1.54-2.14-2.72-3.07-4.18-1.41-2.22-2.66-4.53-4-6.82a1.69,1.69,0,0,1-.23-.87c.15-2.31.34-4.62.52-6.93.43-5.93,2-11.66,1.15-17.8-.17-1.22.45-1.47,1.39-1.62,4-.66,8-1.24,12-2.12,2.79-.61,5.45-1.65,8.18-2.47.45-.14.95-.07,1.41-.18a37.82,37.82,0,0,0,5.08-1.3c1.76-.68,2.54-3.91,1.25-5.22A14.53,14.53,0,0,0,503.54,256.9ZM282.88,388.57c-2.44-3.35-5-6.61-7.27-10.08C272,373,268.8,367.37,265.2,362c-2.73-4.11-5.73-8-8.77-11.93-3.52-4.46-7.38-8.64-10.79-13.18-4-5.32-7.52-11-11.52-16.35a208.52,208.52,0,0,0-13.71-17.1,154,154,0,0,0-14.64-13.22c-5.6-4.67-11.42-9-17.17-13.49-1.32-1-2.86-1.69-4.16-2.72s-2.47-2.4-3.75-3.55q-8.25-7.43-16.53-14.8c-4.22-3.74-8.4-7.56-12.76-11.11-5.61-4.57-11.34-9-17.08-13.32-4-3-8.1-5.91-12.18-8.81-2.48-1.76-4.94-3.56-7.52-5.11-3.94-2.37-7.5-5.39-11.46-7.76-6.22-3.71-12.23-7.84-18.36-11.73q-6.33-4-12.78-7.87c-2-1.16-4-2.06-6-3.12-4.15-2.18-8.27-4.42-12.43-6.59-3.54-1.84-7.08-3.7-10.67-5.41-2-.94-4.06-1.6-6.09-2.38l.1-.45A24.94,24.94,0,0,0,40,173c5.63,1.11,10.9,3.77,16.29,5.85,6.87,2.66,13.66,5.68,20.42,8.72,4.65,2.09,9.22,4.46,13.8,6.75,3.13,1.56,6.19,3.29,9.34,4.8,5.51,2.65,11,5.3,16.62,7.73,3.56,1.55,7.29,2.58,10.88,4.07s7.41,3.31,11.06,5.13c6.91,3.43,13.8,6.95,20.68,10.47,1.88,1,3.63,2.27,5.55,3.05a61.45,61.45,0,0,0,7.86,2.53,1.68,1.68,0,0,0,1.65-2.55,26.64,26.64,0,0,0-3.44-4.88c-1.24-1.37-3-2.22-4.2-3.61a77.13,77.13,0,0,1-5.06-6.82c-2.76-4-5.33-8.15-8.18-12.08-4.6-6.33-9.34-12.56-14.08-18.78-1.57-2.06-3.37-3.93-5-6-1.25-1.6-2.25-3.4-3.54-5-2.31-2.77-5-5.24-7.07-8.18-2.77-4-6.57-6.64-9.84-10-3.76-3.81-7.74-7.39-11.66-11-4.35-4-8.73-8-13.16-11.88-1-.9-2.39-1.31-3.47-2.14s-1.79-1.93-2.78-2.75c-2.48-2-5-4-7.55-5.89-.75-.58-1.64-1-2.38-1.54-2.21-1.79-4.36-3.67-6.58-5.44-1.44-1.15-3-2.1-4.45-3.26-2-1.62-4-3.34-5.93-5,7.4,2.15,14.67,4.56,21.45,8.51,4.29,2.5,8.4,5.42,12.46,8.36,4.25,3.07,8.35,6.41,12.52,9.61,3.08,2.36,6.48,4.35,9.21,7.1a100.15,100.15,0,0,0,8.32,6.93,17.65,17.65,0,0,1,3,2.91c2.67,3.56,6.23,5.92,9.53,8.67a65.66,65.66,0,0,1,6.54,6.49,89.47,89.47,0,0,0,12.43,10.88c7.08,5.42,13.29,11.94,19.87,18a186.6,186.6,0,0,1,13.56,14.56c3,3.38,6.51,6.23,9.62,9.5a56.85,56.85,0,0,1,5.13,6.58c2.29,3.3,4.85,6,8.86,6.09,1.22,0,2.44.1,3.84.16a18.82,18.82,0,0,0-4-9.63,185.5,185.5,0,0,0-12.76-14.88c-3.43-3.49-5.46-7.65-7.63-11.83-3.85-7.43-7.42-15-11.61-22.24-3.82-6.59-8.19-12.88-12.53-19.15-2-2.84-4.88-5.06-6.58-8s-5-4.18-6.42-6.94-4.79-3.47-5.3-6.94c1.83,1.76,3.51,3.81,5.54,5.22,3.94,2.74,6.23,7.08,9.64,10.29,2.57,2.43,5.15,4.85,7.82,7.14,3.48,3,6.09,6.71,9,10.28,3.26,4.08,7,7.71,10.46,11.66,2.22,2.56,4.12,5.41,6.3,8,2.44,2.9,5.1,5.59,7.56,8.48,3.32,3.89,6.5,7.91,9.82,11.8,2,2.27,4.11,4.35,6.09,6.6,1.14,1.3,2,2.83,3.15,4.13,1.48,1.71,3.11,3.26,4.63,4.92.77.85,1.33,1.91,2.14,2.69,4.14,4,6.88,9.12,10.49,13.55s7.15,9.28,10.63,14c1.34,1.8,2.4,3.83,3.72,5.65,2.35,3.25,4.85,6.4,7.22,9.64,3.67,5,7.34,10,10.88,15.11a7.64,7.64,0,0,1,1.11,3.51c.42,4.53.63,9.07,1,13.6.49,5.77,1.68,11.54,1,17.29a20.94,20.94,0,0,0,.49,4.15c.4,3.62.89,7.25,1.12,10.86.35,5.39.49,10.76.73,16.14.11,2.42.1,4.84.44,7.25.5,3.41,1.23,6.82,1.93,10.22q1.62,7.84,3.33,15.66c.69,3.19,1.39,6.39,2.28,9.54.46,1.58,1.35,3.06,1.81,4.77C284.7,391,283.78,389.81,282.88,388.57Zm5.44-8.21c-.05.17-.13.33-.36.9-1-4.69-1.86-9-2.77-13.25-.33-1.57-.79-3.12-1.05-4.69-.76-4.65-1.58-9.31-2.12-14-.33-2.84-.16-5.69-.29-8.54-.27-5.59-.51-11.19-.9-16.79-.26-3.61-.84-7.21-1.1-10.81-.14-2,.09-4,.14-5.95.06-2.21,0-4.42.16-6.61.09-1.52.48-3,.53-4.52a24.25,24.25,0,0,0-.47-3.33c-.08-.66-.07-1.31-.1-2l.46-.08c1.47,2,3.07,3.94,4.38,6.05A35.56,35.56,0,0,0,295.73,308c2.94,1.93,5.83,4,8.6,6.24,3.6,2.91,6.06,6.85,8.38,10.87.13.22.14.54.29.72,2.45,2.76.93,5.06,0,7.49-.82,2.07-1.41,4.25-2.19,6.34a24.55,24.55,0,0,1-1.81,4.08c-1.18,2-2.53,3.85-3.81,5.77a72,72,0,0,1-4.45,6.61A62.67,62.67,0,0,0,288.32,380.36ZM393,436.48a14.16,14.16,0,0,1,1.77,2.17c.57.67,1.17,1.31,1.77,2l2.62,2.78a4.31,4.31,0,0,1-4.74,1.51,32.32,32.32,0,0,0-7.49-.18,18.59,18.59,0,0,1-10.4-3c-5.27-3.19-10.75-5.94-16.13-8.89-4.51-2.48-9-4.95-13.5-7.5-1.67-.95-1.66-1.51-.5-2.85.77-.88,1.4-1.9,2.14-2.82a45.31,45.31,0,0,1,9.23-8.39c2.11,1.48,4,2.67,5.73,4,2,1.57,3.82,3.37,5.81,5,1.32,1,2.82,1.83,4.21,2.8,5,3.51,10.07,7.05,15.11,10.56C390.08,434.58,391.62,435.41,393,436.48Zm66.08-21.88a64,64,0,0,0,11.81,9,76.52,76.52,0,0,1,9.33,6.92c.72.58,1.6,2.05,1.4,2.66-.42,1.29-1.1,2.67-2.87,2.74a48.31,48.31,0,0,1-22-4.61c-3-1.37-6.16-2.24-9.2-3.51-3.72-1.56-7.38-3.33-11.08-5-2.89-1.26-5.8-2.44-8.7-3.66-.08-.21-.15-.42-.22-.63,1.11-.79,2.25-1.54,3.33-2.38,2.28-1.76,4.48-3.63,6.8-5.33a59.28,59.28,0,0,1,6.67-4.37c.71-.38,2,0,2.94.38A37.32,37.32,0,0,1,459.09,414.6Zm19.55-102.68a12.29,12.29,0,0,1,1.22,8.05c-.65,2.75-1.21,5.55-2.11,8.19a52.78,52.78,0,0,1-2.71,5.36c-.67,1.4-1.2,2.88-1.8,4.33l-.95-.26a12.33,12.33,0,0,1,0-1.72c.08-.61.49-1.21.4-1.78-.45-3,.79-5.59.87-8.45s.36-5.59.51-8.39c.2-3.95.36-7.91.55-12.14.56.83,1,1.46,1.43,2.15C477,308.79,477.9,310.31,478.64,311.92Zm17-48.83a29.4,29.4,0,0,1-4.92.51c-4.53.44-9.2.4-13.54,1.46s-8.44.43-12.67.49c-5.15.06-10.27.34-15.42.37-3.64,0-7.3-.23-10.95-.36-.18,0-.36-.1-.54-.11-1.45-.1-3.09.68-3.95-1.65-.57-1.52-1.38-3-2.08-4.44l.26-.15c-.25-1.77-.54-3.54-.74-5.32-.28-2.42.53-4,2.76-4,4.35-.08,8.75.23,13.14.48a33.23,33.23,0,0,1,5,.74c3.4.72,6.79,1.68,10.19,2.32s6.67.84,10,1.46c4,.73,7.93,1,11.9,2.47,3.59,1.36,7.47,1.6,11.23,2.26,1.24.22,2.9,0,3.16,1.55C498.55,261.71,496.74,262.77,495.62,263.09Z"/><path class="cls-4" d="M353.73,134c1,0,1.53.66,1.35,1.26l3.86,1.36.17.47L354,139.35a27.5,27.5,0,0,0-3,1.39,8.24,8.24,0,0,0-1.43,1.69c-1.88,1-4.08,2.18-6.27,3.37-1.74.94-3.51,1.83-5.18,2.88-2.75,1.75-5.36,3.7-8.14,5.39-3.18,1.93-6.62,3.43-9.68,5.54-3.61,2.49-7.72,4.38-10.44,8.1-1.46,2-3.64,2.61-5.79,3.4a20.58,20.58,0,0,0-3.6,1.95c-1.57,1-3.1,2.06-4.64,3.12a8.35,8.35,0,0,0-2.05,1.61c-3,4-6.41,7.45-8.67,12.08a60.91,60.91,0,0,0-3,7.24c-.75,2.22-1.81,4.31-2.39,6.59-1,4-1.75,8-2.59,12a58.06,58.06,0,0,0-1.35,7c-.17,2.08.28,4.27.3,6.4,0,1.24-.42,2.44-.45,3.68-.06,2.67-.1,5.36,0,8,.21,4.09-.17,8.38,1.08,12.2,1.08,3.28-.52,6.38,1.26,9.45.38.65-.08,1.74,0,2.62.29,1.87.82,3.73,1.06,5.61s.17,3.67.35,5.51c.12,1.28-.27,3,1.82,3.17.17,0,.44.47.51.74.95,4,4.1,6.3,6.54,9.12,1.75,2,3.78,3.8,5.7,5.66.95.91,1.92,1.78,2.91,2.64q4.35,3.73,8.72,7.43c2.74,2.3,5.64,4.41,8.23,6.89a86.06,86.06,0,0,1,5.75,6.69,21.23,21.23,0,0,1,1.39,1.62,13.42,13.42,0,0,1,1.7,2.76c1.57,4.11,1.54,8.27,1.18,12.42-.19,2.15.16,4.55-.53,6.44-1.1,3-1.88,6.4-4.71,8.26a5.17,5.17,0,0,0-1.26,1.21c-2.11,2.76-4,5.74-6.33,8.28-4,4.39-7,9.49-10.05,14.62-2.71,4.52-4.06,9.56-5.43,14.64-.85,3.18-1.21,6.56-1.77,9.85a2.4,2.4,0,0,0,0,1.13c1.22,3.82,2.44,7.65,3.75,11.45.83,2.41,3.06,3.23,4.87,4.45a37.78,37.78,0,0,0,6.77,4c3.72,1.49,7.32,3.9,11.43,3.37a6.84,6.84,0,0,1,1.6.16l13.59,1.39c.66.07,1.31.27,2,.37,1.53.23,2.73.07,3.47-1.64.5-1.17,1.7-1.87,1.14-3.6-.13-.39.8-1.59,1.18-1.52,2.1.36,2.79-1.49,4-2.45,3.86-3.13,7.37-6.74,11.94-8.88,1.62-.76,2.23-.48,2.51,1.4a2.33,2.33,0,0,0,.79,1.36c2.37,1.71,4.81,3.3,7.19,5,1.74,1.25,3.4,2.67,5.17,3.89a4.81,4.81,0,0,0,1.92.47c.89.15,1.77.27,2.66.35,2.06.19,4.13.45,6.18.51,3.22.1,6.43.12,9.63,0,2.32-.05,4.62-.24,6.9-.49,3-.33,5.93-.63,8.83-1.2,4.32-.85,8.6-1.87,12.85-3,.71-.18,1.23-1,1.8-1.62.94-1,1.67-2.32,2.8-2.85,3.5-1.65,6-4.58,9.11-6.74,1.59-1.11,3.78-1.29,5.55-2.19,4.06-2.08,6.79,1.34,10.19,3.55a5.61,5.61,0,0,0,1-1.84c.68-5.14,1.19-10.32,1.92-15.44.34-2.38,1.14-4.64,1.59-7,.33-1.75.36-3.6.63-5.37.44-2.94.9-5.88,1.47-8.78.64-3.28,1.61-6.47,2-9.79.52-3.88.65-7.85.87-11.8.26-4.79.4-9.6.67-14.39.05-1,.48-2,.63-3.06.64-4.19,1.27-8.38,1.84-12.59.34-2.46.42-5,.89-7.42.83-4.25,2.07-8.38,2.8-12.65,1.22-7.15,2.18-14.38,3.21-21.58a6,6,0,0,0-.28-1.77c-1.93,0-3.71,0-5.48.06-5.54.09-11.07.17-16.61.29-5.29.12-10.59.23-15.87.46-3.3.14-5.62-2.14-8.1-4.05a1.72,1.72,0,0,1-.49-1c-.49-3.83-1.48-7.75-1.29-11.48.24-4.64,3.48-7.27,6.91-9.69,4.55-3.2,9.51-1.62,14.49-.71,1.24.24,2.5.49,3.75.64,2.92.36,5.84.57,8.76,1s5.57,1.17,8.36,1.6c3.17.48,6.34.82,9.5,1.11a1.61,1.61,0,0,0,1.27-.88,27.06,27.06,0,0,0,2.2-11.94c-.05-3.87,0-7.72-.13-11.59a36.25,36.25,0,0,0-.54-7c-.92-4.13-2.11-8.23-3.41-12.29a16.28,16.28,0,0,0-2.41-4c-2.41-3.48-4.9-6.89-7.3-10.37-.92-1.33-1.58-2.87-2.57-4.13-2.48-3.16-5.06-6.22-8.42-8.42a11.77,11.77,0,0,1-2-2.27,9,9,0,0,0-1.18-1.5c-2.31-1.75-4.7-3.36-7-5.14a15.68,15.68,0,0,1-3.11-3.14,14.29,14.29,0,0,0-6.88-5.51,2.57,2.57,0,0,1-1.22-.88c-2.34-3.47-5.95-5.18-9-7.66-1.33-1.09-2.75-2.06-4.13-3.08,1.13-1.7.88-2-1.15-2.56a9.1,9.1,0,0,1-3.49-2.16c-3.72-3.53-7.11-7.43-11.41-10.31-1-.7-2.89-1.76-3.16-3.72,0-.17-.55-.27-.75-.5a26.88,26.88,0,0,1-3.83-4.54c-.38-.67.1-1.94-1-2.73a9.15,9.15,0,0,1-1.71-1.64,12.66,12.66,0,0,1-1.83-2.67c-1.26-2.9-2.41-5.85-3.56-8.8a11.84,11.84,0,0,1-.77-2.68,2.22,2.22,0,0,0-1.6-2.09,3.2,3.2,0,0,1-1.56-1.88,105.93,105.93,0,0,1-2.48-11c-.21-1.35-.44-3.09.61-4.37.21-.26-.2-1.07-.27-1.63-.22-1.76-.5-3.53-.58-5.28,0-.68.56-1.3.64-2,.24-2.11.44-4.23.65-6.35-8.69.1-15.24,1.73-20.2,4.1.89,2,1.74,3.83,2.44,5.75,1.61,4.36,3,8.8,4.55,13.17a23.57,23.57,0,0,0,1.73,3c1.6,3,3,6.06,4.81,8.89a38.83,38.83,0,0,0,8.56,9.6c1.11.88,2.21,2.17,1.47,3.82-.81,1.84-2.14,2.41-3.91,1.4a39.56,39.56,0,0,1-5.75-3.9c-3.59-3-6.87-6.35-8.89-10.84a17.5,17.5,0,0,0-2.44-3.27c-.95-1.23-2-2.4-1.84-4.13a2,2,0,0,0-.54-1.42c-2.22-2-2.45-4.77-3.1-7.33-.39-1.51-.27-3.12-.51-4.67-.3-1.88-.89-3.74-1.08-5.61a14,14,0,0,1-.06-1.82A25.94,25.94,0,0,0,351,89.48a21.7,21.7,0,0,0,2.55,11.18,63.32,63.32,0,0,0,4.48,7.51,96.58,96.58,0,0,0,6.52,9c2.13,2.48,4.74,4.5,7,6.87.59.61,1.18,2.05.92,2.6a3.85,3.85,0,0,1-2.42,2.12,4.8,4.8,0,0,1-3.24-1.16c-5-4.11-10.57-7.63-13.94-13.68-1.69-3.05-3.43-6.08-5.32-9.41-.89,2.56-.05,4.86.66,7a54.9,54.9,0,0,0,4.09,9.78c2.14,3.76,4.6,7.43,8.56,9.48a23.63,23.63,0,0,1,3.69,2.25,2.18,2.18,0,0,1,.58,1.84c-.44.66-1.44,1.59-1.94,1.4-2.92-1.14-6.24-1.21-8.63-3.9a21,21,0,0,1-1.32,1.74A2.42,2.42,0,0,1,353.73,134Zm83.39,89.37c.78-1.79,1.8-3.43,1.71-5.69-.08-1.79.64-1.8,2.34-1.17,2.84,1.06,3.23,3.25,3.25,5.78.07.7.13,1.4.2,2.1.41,3.78-.5,4.65-3.52,6.27-1.39.75-2.5-.16-2.73-1.92a2.69,2.69,0,0,0-.53-1.41A3.22,3.22,0,0,1,437.12,223.36Zm-72,8.12c1.77,3,3.2,6.26,3.07,9.66-.1,2.59-.38,5.47-3.13,6.59a3.17,3.17,0,0,1-1.63-.09c-.27,0-.51-.37-.79-.45-3.49-1-3.5-1-3.91-4.83l-.06-.58-.28,0c.16-2.68.3-5.37.48-8.05a7.61,7.61,0,0,1,.33-2.85C360.34,228.68,363.68,229.06,365.09,231.48Z"/></svg>