<?xml version="1.0" encoding="UTF-8" standalone="no"?>
<!--

    Copyright (c) 2012-2018 Red Hat, Inc.
    This program and the accompanying materials are made
    available under the terms of the Eclipse Public License 2.0
    which is available at https://www.eclipse.org/legal/epl-2.0/

    SPDX-License-Identifier: EPL-2.0

    Contributors:
      Red Hat, Inc. - initial API and implementation

-->

<svg
   xmlns:dc="http://purl.org/dc/elements/1.1/"
   xmlns:cc="http://creativecommons.org/ns#"
   xmlns:rdf="http://www.w3.org/1999/02/22-rdf-syntax-ns#"
   xmlns:svg="http://www.w3.org/2000/svg"
   xmlns="http://www.w3.org/2000/svg"
   xmlns:sodipodi="http://sodipodi.sourceforge.net/DTD/sodipodi-0.dtd"
   xmlns:inkscape="http://www.inkscape.org/namespaces/inkscape"
   width="147px"
   height="20px"
   viewBox="0 0 147 20"
   version="1.1"
   id="svg164"
   sodipodi:docname="factory-contribute.svg"
   inkscape:version="0.92.2 (5c3e80d, 2017-08-06)">
  <metadata
     id="metadata170">
    <rdf:RDF>
      <cc:Work
         rdf:about="">
        <dc:format>image/svg+xml</dc:format>
        <dc:type
           rdf:resource="http://purl.org/dc/dcmitype/StillImage" />
      </cc:Work>
    </rdf:RDF>
  </metadata>
  <defs
     id="defs168" />
  <sodipodi:namedview
     pagecolor="#ffffff"
     bordercolor="#666666"
     borderopacity="1"
     objecttolerance="10"
     gridtolerance="10"
     guidetolerance="10"
     inkscape:pageopacity="0"
     inkscape:pageshadow="2"
     inkscape:window-width="1184"
     inkscape:window-height="810"
     id="namedview166"
     showgrid="false"
     inkscape:zoom="2.1768707"
     inkscape:cx="70.971083"
     inkscape:cy="-63.900129"
     inkscape:window-x="497"
     inkscape:window-y="261"
     inkscape:window-maximized="0"
     inkscape:current-layer="svg164" />
  <rect
     style="fill:#280b0b;fill-rule:nonzero;stroke:none;stroke-width:1"
     id="rect152"
     rx="4"
     height="20"
     width="117"
     y="0"
     x="0" />
  <rect
     style="fill:#851f00;fill-rule:nonzero;stroke:none;stroke-width:1;fill-opacity:1"
     rx="4"
     height="20"
     width="117"
     y="0"
     x="30"
     id="Rectangle-path" />
  <polygon
     style="fill:#851f00;fill-rule:nonzero;stroke:none;stroke-width:1;fill-opacity:1"
     points="34,20 30,20 30,0 34,0 "
     id="Shape" />
  <path
     style="fill:#ffffff;fill-rule:nonzero;stroke:none;stroke-width:1"
     inkscape:connector-curvature="0"
     id="Developer-Workspace"
     d="m 41.788,10.062 c 0,0.590336 -0.0935,1.127498 -0.2805,1.6115 -0.187001,0.484002 -0.450998,0.898332 -0.792,1.243 -0.341002,0.344668 -0.749831,0.611416 -1.2265,0.80025 C 39.012331,13.905584 38.484336,14 37.905,14 H 34.957 V 6.1185 h 2.948 c 0.579336,0 1.107331,0.094416 1.584,0.28325 0.476669,0.1888343 0.885498,0.4564983 1.2265,0.803 0.341002,0.3465017 0.604999,0.7617476 0.792,1.24575 0.187001,0.4840024 0.2805,1.0211637 0.2805,1.6115 z m -1.0945,0 c 0,-0.4840024 -0.066,-0.9166648 -0.198,-1.298 C 40.363499,8.3826648 40.176501,8.0600013 39.9345,7.796 39.692499,7.5319987 39.399168,7.330334 39.0545,7.191 38.709832,7.051666 38.326669,6.982 37.905,6.982 h -1.8755 v 6.1545 h 1.8755 c 0.421669,0 0.804832,-0.06967 1.1495,-0.209 0.344668,-0.139334 0.637999,-0.340082 0.88,-0.60225 0.242001,-0.262168 0.428999,-0.583915 0.561,-0.96525 0.132001,-0.381335 0.198,-0.813998 0.198,-1.298 z m 4.598,-1.7215 c 0.333668,0 0.641665,0.055916 0.924,0.16775 0.282335,0.1118339 0.526166,0.2731656 0.7315,0.484 0.205334,0.2108344 0.365749,0.4711651 0.48125,0.781 0.115501,0.309835 0.17325,0.662748 0.17325,1.05875 0,0.154001 -0.0165,0.256666 -0.0495,0.308 -0.033,0.05133 -0.09533,0.077 -0.187,0.077 h -3.707 c 0.0073,0.352002 0.055,0.658165 0.143,0.9185 0.088,0.260335 0.208999,0.477583 0.363,0.65175 0.154001,0.174168 0.337332,0.304333 0.55,0.3905 0.212668,0.08617 0.450999,0.12925 0.715,0.12925 0.245668,0 0.457416,-0.02842 0.63525,-0.08525 0.177834,-0.05683 0.330916,-0.11825 0.45925,-0.18425 0.128334,-0.066 0.235583,-0.127416 0.32175,-0.18425 0.08617,-0.05683 0.160416,-0.08525 0.22275,-0.08525 0.08067,0 0.143,0.03117 0.187,0.0935 l 0.275,0.3575 c -0.121001,0.146667 -0.265833,0.274083 -0.4345,0.38225 -0.168667,0.108167 -0.349249,0.197083 -0.54175,0.26675 -0.192501,0.06967 -0.391416,0.121917 -0.59675,0.15675 -0.205334,0.03483 -0.408832,0.05225 -0.6105,0.05225 -0.385002,0 -0.739748,-0.06508 -1.06425,-0.19525 -0.324502,-0.130167 -0.604999,-0.320832 -0.8415,-0.572 -0.236501,-0.251168 -0.420749,-0.561915 -0.55275,-0.93225 -0.132001,-0.370335 -0.198,-0.795664 -0.198,-1.276 0,-0.388669 0.05958,-0.751665 0.17875,-1.089 0.119167,-0.337335 0.290582,-0.6297488 0.51425,-0.87725 0.223668,-0.2475012 0.496832,-0.4418326 0.8195,-0.583 0.322668,-0.1411674 0.685665,-0.21175 1.089,-0.21175 z m 0.022,0.7205 c -0.473002,0 -0.845165,0.136582 -1.1165,0.40975 -0.271335,0.273168 -0.44,0.651748 -0.506,1.13575 h 3.0305 c 0,-0.227335 -0.03117,-0.435416 -0.0935,-0.62425 C 46.565666,9.7934157 46.474001,9.6302507 46.353,9.49275 46.231999,9.3552493 46.084417,9.248917 45.91025,9.17375 45.736083,9.098583 45.537168,9.061 45.3135,9.061 Z M 48.003,8.4285 h 0.803 c 0.077,0 0.141166,0.020167 0.1925,0.0605 0.05133,0.040333 0.088,0.088 0.11,0.143 l 1.4135,3.586 c 0.05133,0.132001 0.09167,0.263999 0.121,0.396 0.02933,0.132001 0.05683,0.262166 0.0825,0.3905 0.02933,-0.128334 0.0605,-0.258499 0.0935,-0.3905 0.033,-0.132001 0.07517,-0.263999 0.1265,-0.396 l 1.43,-3.586 C 52.3975,8.573333 52.43325,8.5247502 52.48275,8.48625 52.53225,8.44775 52.593666,8.4285 52.667,8.4285 h 0.7645 L 51.16,14 h -0.8855 z m 8.3985,-0.088 c 0.333668,0 0.641665,0.055916 0.924,0.16775 0.282335,0.1118339 0.526166,0.2731656 0.7315,0.484 0.205334,0.2108344 0.365749,0.4711651 0.48125,0.781 0.115501,0.309835 0.17325,0.662748 0.17325,1.05875 0,0.154001 -0.0165,0.256666 -0.0495,0.308 -0.033,0.05133 -0.09533,0.077 -0.187,0.077 h -3.707 c 0.0073,0.352002 0.055,0.658165 0.143,0.9185 0.088,0.260335 0.208999,0.477583 0.363,0.65175 0.154001,0.174168 0.337332,0.304333 0.55,0.3905 0.212668,0.08617 0.450999,0.12925 0.715,0.12925 0.245668,0 0.457416,-0.02842 0.63525,-0.08525 0.177834,-0.05683 0.330916,-0.11825 0.45925,-0.18425 0.128334,-0.066 0.235583,-0.127416 0.32175,-0.18425 0.08617,-0.05683 0.160416,-0.08525 0.22275,-0.08525 0.08067,0 0.143,0.03117 0.187,0.0935 l 0.275,0.3575 c -0.121001,0.146667 -0.265833,0.274083 -0.4345,0.38225 -0.168667,0.108167 -0.349249,0.197083 -0.54175,0.26675 -0.192501,0.06967 -0.391416,0.121917 -0.59675,0.15675 -0.205334,0.03483 -0.408832,0.05225 -0.6105,0.05225 -0.385002,0 -0.739748,-0.06508 -1.06425,-0.19525 -0.324502,-0.130167 -0.604999,-0.320832 -0.8415,-0.572 C 54.314249,13.058582 54.130001,12.747835 53.998,12.3775 53.865999,12.007165 53.8,11.581836 53.8,11.1015 c 0,-0.388669 0.05958,-0.751665 0.17875,-1.089 0.119167,-0.337335 0.290582,-0.6297488 0.51425,-0.87725 0.223668,-0.2475012 0.496832,-0.4418326 0.8195,-0.583 0.322668,-0.1411674 0.685665,-0.21175 1.089,-0.21175 z m 0.022,0.7205 c -0.473002,0 -0.845165,0.136582 -1.1165,0.40975 -0.271335,0.273168 -0.44,0.651748 -0.506,1.13575 h 3.0305 c 0,-0.227335 -0.03117,-0.435416 -0.0935,-0.62425 C 57.675666,9.7934157 57.584001,9.6302507 57.463,9.49275 57.341999,9.3552493 57.194417,9.248917 57.02025,9.17375 56.846083,9.098583 56.647168,9.061 56.4235,9.061 Z M 61.049,5.8985 V 14 H 60.07 V 5.8985 Z m 3.982,2.442 c 0.407002,0 0.774582,0.067833 1.10275,0.2035 0.328168,0.1356673 0.606832,0.3281654 0.836,0.5775 0.229168,0.2493346 0.405166,0.5509149 0.528,0.90475 0.122834,0.353835 0.18425,0.748915 0.18425,1.18525 0,0.440002 -0.06142,0.835998 -0.18425,1.188 -0.122834,0.352002 -0.298832,0.652665 -0.528,0.902 -0.229168,0.249335 -0.507832,0.440916 -0.836,0.57475 -0.328168,0.133834 -0.695748,0.20075 -1.10275,0.20075 -0.407002,0 -0.774582,-0.06692 -1.10275,-0.20075 -0.328168,-0.133834 -0.607749,-0.325415 -0.83875,-0.57475 -0.231001,-0.249335 -0.408833,-0.549998 -0.5335,-0.902 -0.124667,-0.352002 -0.187,-0.747998 -0.187,-1.188 0,-0.436335 0.06233,-0.831415 0.187,-1.18525 C 62.680667,9.6724149 62.858499,9.3708346 63.0895,9.1215 63.320501,8.8721654 63.600082,8.6796673 63.92825,8.544 64.256418,8.4083327 64.623998,8.3405 65.031,8.3405 Z m 0,4.972 c 0.550003,0 0.960665,-0.184248 1.232,-0.55275 0.271335,-0.368502 0.407,-0.882747 0.407,-1.54275 0,-0.66367 -0.135665,-1.180665 -0.407,-1.551 -0.271335,-0.3703352 -0.681997,-0.5555 -1.232,-0.5555 -0.278668,0 -0.520666,0.047666 -0.726,0.143 -0.205334,0.095334 -0.376749,0.2328324 -0.51425,0.4125 -0.137501,0.1796676 -0.240166,0.400582 -0.308,0.66275 -0.06783,0.262168 -0.10175,0.558248 -0.10175,0.88825 0,0.330002 0.03392,0.625165 0.10175,0.8855 0.06783,0.260335 0.170499,0.479416 0.308,0.65725 0.137501,0.177834 0.308916,0.314416 0.51425,0.40975 0.205334,0.09533 0.447332,0.143 0.726,0.143 z m 3.861,2.574 v -7.458 h 0.583 c 0.139334,0 0.227333,0.067833 0.264,0.2035 l 0.0825,0.66 c 0.238334,-0.2896681 0.510582,-0.5224991 0.81675,-0.6985 0.306168,-0.1760009 0.659081,-0.264 1.05875,-0.264 0.319002,0 0.608665,0.061416 0.869,0.18425 0.260335,0.122834 0.482166,0.3043321 0.6655,0.5445 0.183334,0.2401679 0.324499,0.5380816 0.4235,0.89375 0.099,0.355668 0.1485,0.764498 0.1485,1.2265 0,0.410669 -0.055,0.792915 -0.165,1.14675 -0.110001,0.353835 -0.267666,0.659999 -0.473,0.9185 -0.205334,0.258501 -0.457415,0.461999 -0.75625,0.6105 C 72.110415,14.002751 71.774002,14.077 71.4,14.077 c -0.344668,0 -0.638915,-0.05683 -0.88275,-0.1705 -0.243835,-0.113667 -0.459249,-0.274999 -0.64625,-0.484 v 2.464 z m 2.4805,-6.765 c -0.319002,0 -0.598582,0.073333 -0.83875,0.22 C 70.293582,9.4881674 70.072668,9.695332 69.871,9.963 v 2.695 c 0.179668,0.242001 0.376749,0.4125 0.59125,0.5115 0.214501,0.099 0.453749,0.1485 0.71775,0.1485 0.517003,0 0.914832,-0.185165 1.1935,-0.5555 0.278668,-0.370335 0.418,-0.89833 0.418,-1.584 0,-0.363002 -0.03208,-0.674665 -0.09625,-0.935 C 72.631083,9.9831654 72.538501,9.7695842 72.4175,9.60275 72.296499,9.4359158 72.148001,9.3140004 71.972,9.237 71.795999,9.1599996 71.596168,9.1215 71.3725,9.1215 Z m 5.797,-0.781 c 0.333668,0 0.641665,0.055916 0.924,0.16775 0.282335,0.1118339 0.526166,0.2731656 0.7315,0.484 0.205334,0.2108344 0.365749,0.4711651 0.48125,0.781 0.115501,0.309835 0.17325,0.662748 0.17325,1.05875 0,0.154001 -0.0165,0.256666 -0.0495,0.308 -0.033,0.05133 -0.09533,0.077 -0.187,0.077 h -3.707 c 0.0073,0.352002 0.055,0.658165 0.143,0.9185 0.088,0.260335 0.208999,0.477583 0.363,0.65175 0.154001,0.174168 0.337332,0.304333 0.55,0.3905 0.212668,0.08617 0.450999,0.12925 0.715,0.12925 0.245668,0 0.457416,-0.02842 0.63525,-0.08525 0.177834,-0.05683 0.330916,-0.11825 0.45925,-0.18425 0.128334,-0.066 0.235583,-0.127416 0.32175,-0.18425 0.08617,-0.05683 0.160416,-0.08525 0.22275,-0.08525 0.08067,0 0.143,0.03117 0.187,0.0935 l 0.275,0.3575 c -0.121001,0.146667 -0.265833,0.274083 -0.4345,0.38225 -0.168667,0.108167 -0.349249,0.197083 -0.54175,0.26675 -0.192501,0.06967 -0.391416,0.121917 -0.59675,0.15675 -0.205334,0.03483 -0.408832,0.05225 -0.6105,0.05225 -0.385002,0 -0.739748,-0.06508 -1.06425,-0.19525 -0.324502,-0.130167 -0.604999,-0.320832 -0.8415,-0.572 -0.236501,-0.251168 -0.420749,-0.561915 -0.55275,-0.93225 -0.132001,-0.370335 -0.198,-0.795664 -0.198,-1.276 0,-0.388669 0.05958,-0.751665 0.17875,-1.089 0.119167,-0.337335 0.290582,-0.6297488 0.51425,-0.87725 0.223668,-0.2475012 0.496832,-0.4418326 0.8195,-0.583 0.322668,-0.1411674 0.685665,-0.21175 1.089,-0.21175 z m 0.022,0.7205 c -0.473002,0 -0.845165,0.136582 -1.1165,0.40975 -0.271335,0.273168 -0.44,0.651748 -0.506,1.13575 h 3.0305 c 0,-0.227335 -0.03117,-0.435416 -0.0935,-0.62425 C 78.443666,9.7934157 78.352001,9.6302507 78.231,9.49275 78.109999,9.3552493 77.962417,9.248917 77.78825,9.17375 77.614082,9.098583 77.415168,9.061 77.1915,9.061 Z M 80.728,14 V 8.4285 h 0.561 c 0.106334,0 0.179666,0.020167 0.22,0.0605 0.04033,0.040333 0.06783,0.1099995 0.0825,0.209 l 0.066,0.869 C 81.848168,9.1783314 82.083749,8.8749178 82.36425,8.65675 82.644751,8.4385822 82.973831,8.3295 83.3515,8.3295 c 0.154001,0 0.293333,0.017417 0.418,0.05225 0.124667,0.034833 0.240166,0.083416 0.3465,0.14575 L 83.9895,9.259 C 83.96383,9.350667 83.907,9.3965 83.819,9.3965 83.76767,9.3965 83.688834,9.379084 83.5825,9.34425 83.476166,9.3094165 83.327668,9.292 83.137,9.292 c -0.341002,0 -0.626082,0.098999 -0.85525,0.297 -0.229168,0.198001 -0.420749,0.485831 -0.57475,0.8635 V 14 Z m 5.83,-7.8815 h 0.8855 c 0.09533,0 0.174166,0.023833 0.2365,0.0715 0.06233,0.047667 0.1045,0.1081663 0.1265,0.1815 l 1.628,5.478 c 0.02933,0.099 0.05592,0.205333 0.07975,0.319 0.02383,0.113667 0.04675,0.232833 0.06875,0.3575 0.02567,-0.124667 0.05133,-0.244749 0.077,-0.36025 0.02567,-0.115501 0.055,-0.220916 0.088,-0.31625 l 1.8535,-5.478 C 91.6235,6.309166 91.66658,6.2514169 91.73075,6.19825 91.79492,6.145083 91.872833,6.1185 91.9645,6.1185 h 0.308 c 0.09533,0 0.17325,0.023833 0.23375,0.0715 0.0605,0.047667 0.103583,0.1081663 0.12925,0.1815 l 1.8425,5.478 c 0.066,0.190668 0.124666,0.408832 0.176,0.6545 0.022,-0.121001 0.04217,-0.236499 0.0605,-0.3465 0.01833,-0.110001 0.04217,-0.212666 0.0715,-0.308 l 1.6335,-5.478 c 0.01833,-0.066 0.05958,-0.1246664 0.12375,-0.176 0.06417,-0.051334 0.142083,-0.077 0.23375,-0.077 h 0.8305 L 95.149,14 H 94.192 L 92.1955,7.9885 C 92.15517,7.8748328 92.1185,7.7428341 92.0855,7.5925 92.06717,7.665834 92.04975,7.7364163 92.03325,7.80425 92.01675,7.872084 91.99933,7.9334997 91.981,7.9885 L 89.9735,14 h -0.957 z m 14.014,2.222 c 0.407,0 0.77458,0.067833 1.10275,0.2035 0.32817,0.1356673 0.60683,0.3281654 0.836,0.5775 0.22917,0.2493346 0.40517,0.5509149 0.528,0.90475 0.12283,0.353835 0.18425,0.748915 0.18425,1.18525 0,0.440002 -0.0614,0.835998 -0.18425,1.188 -0.12283,0.352002 -0.29883,0.652665 -0.528,0.902 -0.22917,0.249335 -0.50783,0.440916 -0.836,0.57475 -0.32817,0.133834 -0.69575,0.20075 -1.10275,0.20075 -0.407,0 -0.774582,-0.06692 -1.10275,-0.20075 -0.328168,-0.133834 -0.607749,-0.325415 -0.83875,-0.57475 -0.231001,-0.249335 -0.408833,-0.549998 -0.5335,-0.902 -0.124667,-0.352002 -0.187,-0.747998 -0.187,-1.188 0,-0.436335 0.06233,-0.831415 0.187,-1.18525 C 98.221667,9.6724149 98.399499,9.3708346 98.6305,9.1215 98.861501,8.8721654 99.141082,8.6796673 99.46925,8.544 99.797418,8.4083327 100.165,8.3405 100.572,8.3405 Z m 0,4.972 c 0.55,0 0.96066,-0.184248 1.232,-0.55275 0.27133,-0.368502 0.407,-0.882747 0.407,-1.54275 0,-0.66367 -0.13567,-1.180665 -0.407,-1.551 -0.27134,-0.3703352 -0.682,-0.5555 -1.232,-0.5555 -0.27867,0 -0.52067,0.047666 -0.726,0.143 -0.205334,0.095334 -0.376749,0.2328324 -0.51425,0.4125 -0.137501,0.1796676 -0.240166,0.400582 -0.308,0.66275 -0.06783,0.262168 -0.10175,0.558248 -0.10175,0.88825 0,0.330002 0.03392,0.625165 0.10175,0.8855 0.06783,0.260335 0.170499,0.479416 0.308,0.65725 0.137501,0.177834 0.308916,0.314416 0.51425,0.40975 0.20533,0.09533 0.44733,0.143 0.726,0.143 z M 104.433,14 V 8.4285 h 0.561 c 0.10633,0 0.17967,0.020167 0.22,0.0605 0.0403,0.040333 0.0678,0.1099995 0.0825,0.209 l 0.066,0.869 c 0.19067,-0.3886686 0.42625,-0.6920822 0.70675,-0.91025 0.2805,-0.2181678 0.60958,-0.32725 0.98725,-0.32725 0.154,0 0.29333,0.017417 0.418,0.05225 0.12467,0.034833 0.24017,0.083416 0.3465,0.14575 l -0.1265,0.7315 c -0.0257,0.091667 -0.0825,0.1375 -0.1705,0.1375 -0.0513,0 -0.13017,-0.017416 -0.2365,-0.05225 C 107.18117,9.309416 107.03267,9.292 106.842,9.292 c -0.341,0 -0.62608,0.098999 -0.85525,0.297 -0.22917,0.198001 -0.42075,0.485831 -0.57475,0.8635 V 14 Z m 5.4505,-8.1015 v 4.7685 h 0.253 c 0.0733,0 0.13383,-0.01008 0.1815,-0.03025 0.0477,-0.02017 0.10083,-0.06142 0.1595,-0.12375 l 1.76,-1.8865 c 0.055,-0.058667 0.11,-0.1063331 0.165,-0.143 0.055,-0.036667 0.12833,-0.055 0.22,-0.055 h 0.891 l -2.0515,2.1835 c -0.0513,0.06233 -0.10175,0.117333 -0.15125,0.165 -0.0495,0.04767 -0.10542,0.08983 -0.16775,0.1265 0.066,0.044 0.12558,0.09442 0.17875,0.15125 0.0532,0.05683 0.10358,0.121916 0.15125,0.19525 l 2.178,2.75 h -0.88 c -0.0807,0 -0.14942,-0.01558 -0.20625,-0.04675 -0.0568,-0.03117 -0.11092,-0.07975 -0.16225,-0.14575 L 110.571,11.525 c -0.055,-0.077 -0.11,-0.127416 -0.165,-0.15125 -0.055,-0.02383 -0.1375,-0.03575 -0.2475,-0.03575 h -0.275 V 14 H 108.899 V 5.8985 Z M 117.82,9.347 c -0.044,0.080667 -0.11183,0.121 -0.2035,0.121 -0.055,0 -0.11733,-0.020167 -0.187,-0.0605 -0.0697,-0.040334 -0.15492,-0.08525 -0.25575,-0.13475 -0.10083,-0.0495 -0.22092,-0.095333 -0.36025,-0.1375 -0.13933,-0.042167 -0.30433,-0.06325 -0.495,-0.06325 -0.165,0 -0.3135,0.021083 -0.4455,0.06325 -0.132,0.042167 -0.24475,0.099916 -0.33825,0.17325 -0.0935,0.073334 -0.165,0.1585829 -0.2145,0.25575 -0.0495,0.097167 -0.0743,0.2025828 -0.0743,0.31625 0,0.143001 0.0413,0.262166 0.12375,0.3575 0.0825,0.09533 0.19158,0.177833 0.32725,0.2475 0.13567,0.06967 0.28967,0.131083 0.462,0.18425 0.17233,0.05317 0.34925,0.11 0.53075,0.1705 0.1815,0.0605 0.35842,0.127416 0.53075,0.20075 0.17233,0.07333 0.32633,0.164999 0.462,0.275 0.13567,0.110001 0.24475,0.244749 0.32725,0.40425 0.0825,0.159501 0.12375,0.351082 0.12375,0.57475 0,0.256668 -0.0458,0.494082 -0.1375,0.71225 -0.0917,0.218168 -0.22733,0.406999 -0.407,0.5665 -0.17967,0.159501 -0.39966,0.285083 -0.66,0.37675 -0.26033,0.09167 -0.561,0.1375 -0.902,0.1375 -0.38867,0 -0.74067,-0.06325 -1.056,-0.18975 -0.31533,-0.126501 -0.583,-0.288749 -0.803,-0.48675 l 0.231,-0.374 c 0.0293,-0.04767 0.0642,-0.08433 0.1045,-0.11 0.0403,-0.02567 0.0935,-0.0385 0.1595,-0.0385 0.066,0 0.13567,0.02567 0.209,0.077 0.0733,0.05133 0.16225,0.108166 0.26675,0.1705 0.1045,0.06233 0.231,0.119166 0.3795,0.1705 0.1485,0.05133 0.33458,0.077 0.55825,0.077 0.19067,0 0.3575,-0.02475 0.5005,-0.07425 0.143,-0.0495 0.26217,-0.116416 0.3575,-0.20075 0.0953,-0.08433 0.16592,-0.181499 0.21175,-0.2915 0.0458,-0.110001 0.0688,-0.227333 0.0688,-0.352 0,-0.154001 -0.0413,-0.281416 -0.12375,-0.38225 -0.0825,-0.100834 -0.19158,-0.187 -0.32725,-0.2585 -0.13567,-0.0715 -0.29058,-0.133833 -0.46475,-0.187 -0.17417,-0.05317 -0.352,-0.109083 -0.5335,-0.16775 -0.1815,-0.05867 -0.35933,-0.125583 -0.5335,-0.20075 -0.17417,-0.07517 -0.32908,-0.169583 -0.46475,-0.28325 -0.13567,-0.113667 -0.24475,-0.253916 -0.32725,-0.42075 -0.0825,-0.166834 -0.12375,-0.369415 -0.12375,-0.60775 0,-0.2126677 0.044,-0.4170823 0.132,-0.61325 0.088,-0.1961677 0.21633,-0.3684993 0.385,-0.517 0.16867,-0.1485007 0.37583,-0.2667496 0.6215,-0.35475 0.24567,-0.088 0.52617,-0.132 0.8415,-0.132 0.36667,0 0.69575,0.057749 0.98725,0.17325 0.2915,0.1155006 0.54358,0.2740823 0.75625,0.47575 z m 1.584,6.5395 v -7.458 h 0.583 c 0.13933,0 0.22733,0.067833 0.264,0.2035 l 0.0825,0.66 c 0.23833,-0.2896681 0.51058,-0.5224991 0.81675,-0.6985 0.30617,-0.1760009 0.65908,-0.264 1.05875,-0.264 0.319,0 0.60867,0.061416 0.869,0.18425 0.26034,0.122834 0.48217,0.3043321 0.6655,0.5445 0.18333,0.2401679 0.3245,0.5380816 0.4235,0.89375 0.099,0.355668 0.1485,0.764498 0.1485,1.2265 0,0.410669 -0.055,0.792915 -0.165,1.14675 -0.11,0.353835 -0.26767,0.659999 -0.473,0.9185 -0.20533,0.258501 -0.45742,0.461999 -0.75625,0.6105 -0.29883,0.148501 -0.63525,0.22275 -1.00925,0.22275 -0.34467,0 -0.63892,-0.05683 -0.88275,-0.1705 -0.24383,-0.113667 -0.45925,-0.274999 -0.64625,-0.484 v 2.464 z m 2.4805,-6.765 c -0.319,0 -0.59858,0.073333 -0.83875,0.22 -0.24017,0.1466674 -0.46108,0.353832 -0.66275,0.6215 v 2.695 c 0.17967,0.242001 0.37675,0.4125 0.59125,0.5115 0.2145,0.099 0.45375,0.1485 0.71775,0.1485 0.517,0 0.91483,-0.185165 1.1935,-0.5555 0.27867,-0.370335 0.418,-0.89833 0.418,-1.584 0,-0.363002 -0.0321,-0.674665 -0.0962,-0.935 C 123.1431,9.9831654 123.0505,9.7695842 122.9295,9.60275 122.8085,9.4359158 122.66,9.3140004 122.484,9.237 122.308,9.16 122.10817,9.1215 121.8845,9.1215 Z M 129.568,14 h -0.4345 c -0.0953,0 -0.17233,-0.01467 -0.231,-0.044 -0.0587,-0.02933 -0.0972,-0.09167 -0.1155,-0.187 l -0.11,-0.517 c -0.14667,0.132001 -0.28967,0.25025 -0.429,0.35475 -0.13933,0.104501 -0.286,0.1925 -0.44,0.264 -0.154,0.0715 -0.31808,0.125583 -0.49225,0.16225 -0.17417,0.03667 -0.36758,0.055 -0.58025,0.055 -0.21633,0 -0.41892,-0.03025 -0.60775,-0.09075 -0.18883,-0.0605 -0.35292,-0.151249 -0.49225,-0.27225 -0.13933,-0.121001 -0.25025,-0.274082 -0.33275,-0.45925 -0.0825,-0.185168 -0.12375,-0.404249 -0.12375,-0.65725 0,-0.220001 0.0605,-0.431749 0.1815,-0.63525 0.121,-0.203501 0.31625,-0.384082 0.58575,-0.54175 0.2695,-0.157668 0.62241,-0.286916 1.05875,-0.38775 0.43634,-0.100834 0.96983,-0.158583 1.6005,-0.17325 V 10.436 c 0,-0.432669 -0.0926,-0.7599156 -0.27775,-0.98175 -0.18517,-0.2218344 -0.45925,-0.33275 -0.82225,-0.33275 -0.23833,0 -0.43908,0.03025 -0.60225,0.09075 -0.16317,0.0605 -0.30433,0.128333 -0.4235,0.2035 -0.11917,0.075167 -0.22183,0.1429997 -0.308,0.2035 -0.0862,0.0605 -0.17142,0.09075 -0.25575,0.09075 -0.066,0 -0.12375,-0.017417 -0.17325,-0.05225 -0.0495,-0.034833 -0.0889,-0.077916 -0.11825,-0.12925 l -0.176,-0.3135 c 0.308,-0.2970015 0.63983,-0.5188326 0.9955,-0.6655 0.35567,-0.1466674 0.74983,-0.22 1.1825,-0.22 0.31167,0 0.5885,0.051333 0.8305,0.154 0.242,0.1026672 0.4455,0.2456658 0.6105,0.429 0.165,0.1833342 0.28967,0.4051654 0.374,0.6655 0.0843,0.2603346 0.1265,0.546332 0.1265,0.858 z m -2.541,-0.5995 c 0.17233,0 0.33,-0.01742 0.473,-0.05225 0.143,-0.03483 0.27775,-0.08433 0.40425,-0.1485 0.1265,-0.06417 0.2475,-0.142083 0.363,-0.23375 0.1155,-0.09167 0.22825,-0.196166 0.33825,-0.3135 V 11.492 c -0.451,0.01467 -0.83417,0.05042 -1.1495,0.10725 -0.31533,0.05683 -0.572,0.131083 -0.77,0.22275 -0.198,0.09167 -0.34192,0.199833 -0.43175,0.3245 -0.0898,0.124667 -0.13475,0.263999 -0.13475,0.418 0,0.146667 0.0238,0.273166 0.0715,0.3795 0.0477,0.106334 0.11183,0.193416 0.1925,0.26125 0.0807,0.06783 0.176,0.117333 0.286,0.1485 0.11,0.03117 0.22917,0.04675 0.3575,0.04675 z m 7.8265,-3.982 c -0.0293,0.040334 -0.0587,0.0715 -0.088,0.0935 -0.0293,0.022 -0.0715,0.033 -0.1265,0.033 -0.055,0 -0.11458,-0.022916 -0.17875,-0.06875 C 134.39605,9.430416 134.3145,9.38 134.2155,9.325 134.1165,9.27 133.99642,9.2195836 133.85525,9.17375 133.71408,9.127916 133.54083,9.105 133.3355,9.105 c -0.27134,0 -0.5115,0.048583 -0.7205,0.14575 -0.209,0.097167 -0.38408,0.2374158 -0.52525,0.42075 -0.14117,0.1833343 -0.2475,0.405165 -0.319,0.6655 -0.0715,0.260335 -0.10725,0.551832 -0.10725,0.8745 0,0.337335 0.0385,0.637082 0.1155,0.89925 0.077,0.262168 0.18517,0.482166 0.3245,0.66 0.13933,0.177834 0.30892,0.3135 0.50875,0.407 0.19983,0.0935 0.42441,0.14025 0.67375,0.14025 0.23833,0 0.4345,-0.02842 0.5885,-0.08525 0.154,-0.05683 0.28233,-0.120083 0.385,-0.18975 0.10267,-0.06967 0.187,-0.132916 0.253,-0.18975 0.066,-0.05683 0.132,-0.08525 0.198,-0.08525 0.0843,0 0.14667,0.03117 0.187,0.0935 l 0.275,0.3575 c -0.242,0.297002 -0.5445,0.514249 -0.9075,0.65175 -0.363,0.137501 -0.74617,0.20625 -1.1495,0.20625 -0.34834,0 -0.67191,-0.06417 -0.97075,-0.1925 -0.29884,-0.128334 -0.55825,-0.314415 -0.77825,-0.55825 -0.22,-0.243835 -0.39325,-0.543582 -0.51975,-0.89925 -0.1265,-0.355668 -0.18975,-0.760831 -0.18975,-1.2155 0,-0.414335 0.0577,-0.797498 0.17325,-1.1495 0.1155,-0.3520018 0.28417,-0.6554154 0.506,-0.91025 0.22183,-0.2548346 0.49591,-0.4537493 0.82225,-0.59675 0.32633,-0.1430007 0.70033,-0.2145 1.122,-0.2145 0.38867,0 0.73333,0.063249 1.034,0.18975 0.30067,0.1265006 0.5665,0.3052488 0.7975,0.53625 z m 3.542,-1.078 c 0.33367,0 0.64166,0.055916 0.924,0.16775 0.28233,0.1118339 0.52617,0.2731656 0.7315,0.484 0.20533,0.2108344 0.36575,0.4711651 0.48125,0.781 0.1155,0.309835 0.17325,0.662748 0.17325,1.05875 0,0.154001 -0.0165,0.256666 -0.0495,0.308 -0.033,0.05133 -0.0953,0.077 -0.187,0.077 h -3.707 c 0.007,0.352002 0.055,0.658165 0.143,0.9185 0.088,0.260335 0.209,0.477583 0.363,0.65175 0.154,0.174168 0.33733,0.304333 0.55,0.3905 0.21267,0.08617 0.451,0.12925 0.715,0.12925 0.24567,0 0.45742,-0.02842 0.63525,-0.08525 0.17783,-0.05683 0.33092,-0.11825 0.45925,-0.18425 0.12833,-0.066 0.23558,-0.127416 0.32175,-0.18425 0.0862,-0.05683 0.16042,-0.08525 0.22275,-0.08525 0.0807,0 0.143,0.03117 0.187,0.0935 l 0.275,0.3575 c -0.121,0.146667 -0.26583,0.274083 -0.4345,0.38225 -0.16867,0.108167 -0.34925,0.197083 -0.54175,0.26675 -0.1925,0.06967 -0.39142,0.121917 -0.59675,0.15675 -0.20533,0.03483 -0.40883,0.05225 -0.6105,0.05225 -0.385,0 -0.73975,-0.06508 -1.06425,-0.19525 -0.3245,-0.130167 -0.605,-0.320832 -0.8415,-0.572 -0.2365,-0.251168 -0.42075,-0.561915 -0.55275,-0.93225 -0.132,-0.370335 -0.198,-0.795664 -0.198,-1.276 0,-0.388669 0.0596,-0.751665 0.17875,-1.089 0.11917,-0.337335 0.29058,-0.6297488 0.51425,-0.87725 0.22367,-0.2475012 0.49683,-0.4418326 0.8195,-0.583 0.32267,-0.1411674 0.68566,-0.21175 1.089,-0.21175 z m 0.022,0.7205 c -0.473,0 -0.84517,0.136582 -1.1165,0.40975 -0.27134,0.273168 -0.44,0.651748 -0.506,1.13575 h 3.0305 c 0,-0.227335 -0.0312,-0.435416 -0.0935,-0.62425 -0.0623,-0.1888343 -0.154,-0.3519993 -0.275,-0.4895 -0.121,-0.1375007 -0.26858,-0.243833 -0.44275,-0.319 C 138.84008,9.098583 138.64117,9.061 138.4175,9.061 Z" />
  <g
     transform="matrix(0.04667735,0,0,0.04667735,-29.674564,-15.168672)"
     id="g12">
    <path
       style="fill:#cb2026"
       inkscape:connector-curvature="0"
       d="m 1156.53,521.18 c 0.77,0.07 1.54,0.13 2.31,0.2 -0.78,-0.07 -1.55,-0.14 -2.31,-0.2 0,0 0,0 0,0 z"
       id="path2" />
    <path
       style="fill:#cb2026"
       inkscape:connector-curvature="0"
       d="m 1159.47,521.43 c 0,0 0,0 0,0 -0.06,-0.01 -0.13,-0.01 -0.19,-0.02 0.06,0.01 0.13,0.02 0.19,0.02 z"
       id="path4" />
    <path
       style="fill:#cb2026"
       inkscape:connector-curvature="0"
       d="m 1013.89,589.14 c -11.11,2.77 -22.19,5.7 -33.24,8.77 -4.92,1.37 -10.1,2.1 -15.46,2.1 -19.38,0 -36.52,-9.57 -46.96,-24.25 -0.04,-0.06 -0.08,-0.12 -0.12,-0.17 -0.19,-0.27 -0.38,-0.55 -0.57,-0.83 -0.11,-0.17 -0.23,-0.33 -0.34,-0.5 -0.12,-0.18 -0.23,-0.35 -0.35,-0.53 -0.19,-0.28 -0.37,-0.57 -0.55,-0.86 -0.04,-0.07 -0.09,-0.14 -0.13,-0.21 -5.47,-8.82 -8.64,-19.22 -8.64,-30.36 0,-0.67 0.02,-1.34 0.04,-2.01 -3.87,45.22 16.61,87.05 50.67,112.36 17.77,13.2 39.22,21.91 62.85,24.26 67.99,6.75 128.74,-41.67 137.82,-108.84 0.2,-1.51 0.38,-3.02 0.54,-4.53 -49.03,4.67 -97.61,13.65 -145.56,25.6 z"
       id="path6" />
    <path
       style="fill:#88171a"
       inkscape:connector-curvature="0"
       d="m 1021.1,676.9 c -23.63,-2.35 -45.08,-11.06 -62.85,-24.26 -34.07,-25.31 -54.54,-67.14 -50.67,-112.36 0.12,-3.64 0.59,-7.2 1.36,-10.64 5.76,-25.76 28.76,-45.01 56.26,-45.01 7.6,0 14.85,1.47 21.49,4.14 9.2,2.88 18.45,5.56 27.75,8.05 46.48,12.46 94.09,20.23 142.1,24.35 0,0 0,0 0,-0.01 -65.67,-6.01 -127.88,-32.24 -178.04,-75.11 l 0.01,0.02 c -2.19,-1.87 -4.43,-3.67 -6.74,-5.38 -21.06,-15.66 -47.16,-24.93 -75.42,-24.93 -69.84,0 -126.46,56.59 -126.52,126.41 0,0.05 0,0.1 0,0.15 0,0.03 0,0.05 0,0.08 v 0 c 0,107.91 87.48,195.39 195.39,195.39 v 0 c 99.22,0 181.16,-73.95 193.72,-169.74 -9.11,67.18 -69.85,115.6 -137.84,108.85 z"
       id="path8" />
    <path
       style="fill:#cb2026"
       inkscape:connector-curvature="0"
       d="m 965.2,347.01 v 0 c -20.76,0 -40.76,3.24 -59.53,9.24 -78.73,25.16 -135.76,98.87 -135.86,185.93 0.06,-69.83 56.68,-126.41 126.52,-126.41 28.26,0 54.36,9.27 75.42,24.93 l 6.73,5.36 c 50.16,42.87 112.38,69.1 178.04,75.11 0.77,0.07 1.54,0.14 2.31,0.2 0.15,0.01 0.3,0.03 0.45,0.04 0.06,0.01 0.13,0.01 0.19,0.01 -10.46,-98.04 -93.45,-174.41 -194.27,-174.41 z"
       id="path10" />
  </g>
</svg>
