<svg id="CodeReady_Workspaces" data-name="Red Hat CodeReady Workspaces" xmlns="http://www.w3.org/2000/svg" viewBox="0 0 150 54"><defs><style>.cls-1{fill:#fff;}</style></defs><title>Red Hat CodeReady Workspaces</title><path class="cls-1" d="M15.31,15.65,13,10.88H11.44v4.77H7.62V1.52h6.3a9.26,9.26,0,0,1,2.24.25,4.8,4.8,0,0,1,1.74.79A3.6,3.6,0,0,1,19,4a5.23,5.23,0,0,1,.39,2.13,4.58,4.58,0,0,1-.68,2.6,4.33,4.33,0,0,1-1.86,1.54l2.83,5.39ZM15.13,5.13a1.74,1.74,0,0,0-1.32-.42H11.44V7.79h2.3a1.91,1.91,0,0,0,1.38-.4,1.59,1.59,0,0,0,.41-1.17A1.56,1.56,0,0,0,15.13,5.13Z"/><path class="cls-1" d="M22,15.65V1.52H32.82V4.81H25.9v1.9h4.16V9.93H25.9v2.43H33v3.29Z"/><path class="cls-1" d="M47.16,11.86a5.14,5.14,0,0,1-1.45,2.2,5.89,5.89,0,0,1-2.39,1.22,13,13,0,0,1-3.29.37H35.46V1.52h4.93a12.13,12.13,0,0,1,3,.34A5.58,5.58,0,0,1,45.68,3a5.49,5.49,0,0,1,1.45,2.15,9.4,9.4,0,0,1,.51,3.33A10.21,10.21,0,0,1,47.16,11.86Zm-3.7-5a2.91,2.91,0,0,0-.55-1.16,2.3,2.3,0,0,0-1-.65,4.83,4.83,0,0,0-1.53-.21h-1v7.42h.85a5.84,5.84,0,0,0,1.55-.18,2.4,2.4,0,0,0,1.06-.63,2.56,2.56,0,0,0,.59-1.15,7.42,7.42,0,0,0,.18-1.77A7.4,7.4,0,0,0,43.46,6.89Z"/><path class="cls-1" d="M64.21,15.65V10.08H59.82v5.57h-4V1.52h4V6.67h4.39V1.52h4V15.65Z"/><path class="cls-1" d="M80.15,15.65l-.76-2.48H75.16l-.77,2.48H70.21L75.32,1.52h4l5.11,14.13Zm-2-6.52c-.13-.46-.23-.86-.32-1.19s-.18-.64-.25-.91-.15-.52-.2-.74-.1-.45-.14-.69c0,.24-.09.47-.14.7s-.12.48-.19.75-.16.57-.25.91-.2.73-.33,1.17l-.26.93h2.34Z"/><path class="cls-1" d="M91.75,4.93V15.65H87.84V4.93H83.9V1.52H95.69V4.93Z"/><path class="cls-1" d="M100.28,3.49a1.2,1.2,0,0,1-.29.45,1.54,1.54,0,0,1-.45.3,1.62,1.62,0,0,1-1.12,0,1.54,1.54,0,0,1-.45-.3,1.51,1.51,0,0,1-.29-.45,1.33,1.33,0,0,1-.11-.56,1.3,1.3,0,0,1,.11-.56A1.29,1.29,0,0,1,98,1.92a1.37,1.37,0,0,1,.45-.3,1.48,1.48,0,0,1,1.12,0,1.37,1.37,0,0,1,.45.3,1.06,1.06,0,0,1,.29.45,1.31,1.31,0,0,1,.12.56A1.34,1.34,0,0,1,100.28,3.49Zm-.21-1a1.07,1.07,0,0,0-.24-.38,1.25,1.25,0,0,0-1.32-.25,1,1,0,0,0-.37.25,1.09,1.09,0,0,0-.25.38,1.24,1.24,0,0,0-.1.47,1.24,1.24,0,0,0,.1.47,1.19,1.19,0,0,0,.25.38,1.1,1.1,0,0,0,.37.25,1.42,1.42,0,0,0,.94,0,1.39,1.39,0,0,0,.38-.25,1.17,1.17,0,0,0,.24-.38,1.07,1.07,0,0,0,.1-.47A1.07,1.07,0,0,0,100.07,2.46Zm-.54.43a.46.46,0,0,1-.23.16l.31.63H99.3L99,3.07h-.29v.61h-.26V2.13h.67l.19,0a.42.42,0,0,1,.16.09.28.28,0,0,1,.11.15.4.4,0,0,1,0,.2A.47.47,0,0,1,99.53,2.89Zm-.24-.45a.28.28,0,0,0-.18-.06h-.4v.44h.4a.35.35,0,0,0,.18,0,.19.19,0,0,0,.07-.17A.18.18,0,0,0,99.29,2.44Z"/><path class="cls-1" d="M15.68,23.87a2.71,2.71,0,0,0-2.61-1.55c-2.14,0-3.36,1.88-3.36,4.53s1.24,4.53,3.38,4.53a3,3,0,0,0,2.79-1.81L18.28,31A5.42,5.42,0,0,1,13,34.22c-3.73,0-6.23-2.86-6.23-7.37,0-4.35,2.61-7.37,6.33-7.37a5.39,5.39,0,0,1,5.22,3.17Z"/><path class="cls-1" d="M26.12,34.22c-3.89,0-6.19-3-6.19-7.37s2.3-7.37,6.19-7.37,6.19,3,6.19,7.37S30,34.22,26.12,34.22Zm0-11.9c-2.3,0-3.25,2-3.25,4.53s.95,4.53,3.25,4.53,3.26-2,3.26-4.53S28.42,22.32,26.12,22.32Z"/><path class="cls-1" d="M39.48,34H35.22V19.71h4.46c4.07,0,7.09,1.92,7.09,7.14C46.77,31.87,43.14,34,39.48,34Zm.1-11.52H38.07v8.74h1.41c3,0,4.35-1.76,4.35-4.37C43.83,23.93,42.59,22.48,39.58,22.48Z"/><path class="cls-1" d="M49.61,34V19.71h9.9V22.5h-7V25h4.09v2.78H52.47V31.2h7.35V34Z"/><path class="cls-1" d="M71.11,34l-2.54-5.15H65.7V34H62.85V19.71h6.63c2.69,0,4.91,1.49,4.91,4.53a4.06,4.06,0,0,1-2.73,4.2L74.39,34ZM69.42,22.48H65.7v3.68h3.72c1.33,0,2-.62,2-1.86S70.69,22.48,69.42,22.48Z"/><path class="cls-1" d="M77.38,34V19.71h9.9V22.5h-7V25h4.1v2.78h-4.1V31.2h7.35V34Z"/><path class="cls-1" d="M100.1,34,99,30.81H93.77L92.65,34H89.6l5.45-14.29h2.77L103.24,34Zm-3-8.5c-.29-.83-.57-1.69-.71-2.22-.15.53-.43,1.39-.72,2.22l-.91,2.6H98Z"/><path class="cls-1" d="M110.14,34h-4.26V19.71h4.46c4.07,0,7.09,1.92,7.09,7.14C117.43,31.87,113.8,34,110.14,34Zm.1-11.52h-1.51v8.74h1.41c3,0,4.36-1.76,4.36-4.37C114.5,23.93,113.25,22.48,110.24,22.48Z"/><path class="cls-1" d="M126.08,28.34V34h-2.85V28.4l-5.4-8.69h3.28l2,3.39c.51.85,1.28,2.26,1.54,2.79.27-.53,1-1.9,1.55-2.79l2-3.39h3.23Z"/><path class="cls-1" d="M19.52,52.29H16.73L15,44.94c-.2-.85-.4-1.92-.49-2.45-.06.53-.26,1.62-.46,2.45l-1.8,7.35H9.57L6.59,38h3l1.24,7c.12.7.28,1.76.34,2.35.11-.59.33-1.65.49-2.35l1.67-7H15.8l1.69,7c.16.7.38,1.76.49,2.35.06-.59.22-1.67.34-2.35l1.24-7H22.5Z"/><path class="cls-1" d="M30.37,52.52c-3.89,0-6.19-3-6.19-7.37s2.3-7.37,6.19-7.37,6.19,3,6.19,7.37S34.26,52.52,30.37,52.52Zm0-11.9c-2.3,0-3.26,2-3.26,4.53s1,4.53,3.26,4.53,3.26-2,3.26-4.53S32.67,40.62,30.37,40.62Z"/><path class="cls-1" d="M47.74,52.29l-2.55-5.14H42.32v5.14H39.47V38h6.64C48.8,38,51,39.49,51,42.53a4.08,4.08,0,0,1-2.73,4.21L51,52.29ZM46.05,40.78H42.32v3.67h3.73c1.32,0,2-.61,2-1.86S47.31,40.78,46.05,40.78Z"/><path class="cls-1" d="M63,52.29l-3.87-6.9-2.28,2.7v4.2H54V38h2.85v4.06c0,.53,0,1.82,0,2.27a17.14,17.14,0,0,1,1.12-1.45l4-4.88h3.44l-4.18,4.94,5.24,9.35Z"/><path class="cls-1" d="M72.75,52.52a6.6,6.6,0,0,1-5.53-2.6l2-1.83a4.63,4.63,0,0,0,3.65,1.63c1.69,0,2.48-.47,2.48-1.55,0-.92-.49-1.33-3.17-1.94S67.77,44.78,67.77,42c0-2.59,2.28-4.18,5.09-4.18A6.8,6.8,0,0,1,78.05,40L76,42a4.32,4.32,0,0,0-3.24-1.47c-1.52,0-2,.66-2,1.29,0,.9.61,1.18,2.87,1.71s4.76,1.31,4.76,4.41C78.35,50.68,76.64,52.52,72.75,52.52Z"/><path class="cls-1" d="M87.35,47.23H84.22v5.06H81.37V38H87.6c2.68,0,4.9,1.49,4.9,4.53C92.5,45.84,90.3,47.23,87.35,47.23Zm.14-6.45H84.22v3.67h3.31c1.33,0,2-.61,2-1.86S88.76,40.78,87.49,40.78Z"/><path class="cls-1" d="M103.19,52.29l-1.12-3.18H96.86l-1.12,3.18h-3L98.14,38h2.77l5.42,14.29Zm-3-8.49c-.29-.84-.57-1.69-.72-2.23-.14.54-.42,1.39-.71,2.23l-.91,2.59h3.25Z"/><path class="cls-1" d="M116.61,42.17A2.7,2.7,0,0,0,114,40.62c-2.14,0-3.36,1.87-3.36,4.53s1.24,4.53,3.38,4.53a3,3,0,0,0,2.79-1.82l2.4,1.43a5.43,5.43,0,0,1-5.27,3.23c-3.72,0-6.23-2.86-6.23-7.37,0-4.35,2.61-7.37,6.33-7.37a5.38,5.38,0,0,1,5.22,3.16Z"/><path class="cls-1" d="M122.1,52.29V38H132v2.8h-7v2.47h4.1V46H125v3.45h7.35v2.8Z"/><path class="cls-1" d="M139.88,52.52a6.62,6.62,0,0,1-5.54-2.6l2.06-1.83A4.62,4.62,0,0,0,140,49.72c1.69,0,2.49-.47,2.49-1.55,0-.92-.49-1.33-3.18-1.94s-4.46-1.45-4.46-4.27c0-2.59,2.28-4.18,5.09-4.18A6.78,6.78,0,0,1,145.17,40l-2,2a4.35,4.35,0,0,0-3.24-1.47c-1.53,0-2,.66-2,1.29,0,.9.61,1.18,2.87,1.71s4.77,1.31,4.77,4.41C145.48,50.68,143.77,52.52,139.88,52.52Z"/></svg>
