<?xml version="1.0" encoding="utf-8"?>
<svg version="1.1" id="CodeReady_Workspaces" xmlns="http://www.w3.org/2000/svg" xmlns:xlink="http://www.w3.org/1999/xlink"
	 x="0px" y="0px" viewBox="0 0 150 54" style="enable-background:new 0 0 150 54;" xml:space="preserve">
<title>Red Hat CodeReady Workspaces</title>
<path d="M15.3,15.6L13,10.9h-1.6v4.8H7.6V1.5h6.3c0.8,0,1.5,0.1,2.2,0.2c0.6,0.1,1.2,0.4,1.7,0.8C18.4,2.9,18.8,3.4,19,4
	c0.3,0.7,0.4,1.4,0.4,2.1c0,0.9-0.2,1.8-0.7,2.6c-0.5,0.7-1.1,1.2-1.9,1.5l2.8,5.4L15.3,15.6z M15.1,5.1c-0.4-0.3-0.8-0.5-1.3-0.4
	h-2.4v3.1h2.3c0.5,0.1,1-0.1,1.4-0.4c0.3-0.3,0.4-0.7,0.4-1.2C15.5,5.8,15.4,5.4,15.1,5.1z"/>
<path d="M22,15.6V1.5h10.8v3.3h-6.9v1.9h4.2v3.2h-4.2v2.4H33v3.3L22,15.6z"/>
<path d="M47.2,11.9c-0.3,0.8-0.8,1.6-1.5,2.2c-0.7,0.6-1.5,1-2.4,1.2c-1.1,0.3-2.2,0.4-3.3,0.4h-4.6V1.5h4.9c1,0,2,0.1,3,0.3
	C44.2,2.1,45,2.4,45.7,3c0.6,0.6,1.1,1.3,1.5,2.2c0.4,1.1,0.5,2.2,0.5,3.3C47.7,9.6,47.5,10.8,47.2,11.9z M43.5,6.9
	c-0.1-0.4-0.3-0.8-0.5-1.2c-0.3-0.3-0.6-0.5-1-0.7c-0.5-0.2-1-0.2-1.5-0.2h-1v7.4h0.8c0.5,0,1-0.1,1.5-0.2c0.4-0.1,0.8-0.3,1.1-0.6
	c0.3-0.3,0.5-0.7,0.6-1.1c0.1-0.6,0.2-1.2,0.2-1.8C43.6,8,43.6,7.4,43.5,6.9L43.5,6.9z"/>
<path d="M64.2,15.6v-5.6h-4.4v5.6h-4V1.5h4v5.2h4.4V1.5h4v14.1H64.2z"/>
<path d="M80.2,15.6l-0.8-2.5h-4.2l-0.8,2.5h-4.2l5.1-14.1h4l5.1,14.1H80.2z M78.2,9.1c-0.1-0.5-0.2-0.9-0.3-1.2S77.7,7.3,77.6,7
	s-0.2-0.5-0.2-0.7s-0.1-0.4-0.1-0.7c0,0.2-0.1,0.5-0.1,0.7S77,6.8,76.9,7S76.8,7.6,76.7,8s-0.2,0.7-0.3,1.2l-0.3,0.9h2.3L78.2,9.1z"
	/>
<path d="M91.8,4.9v10.7h-3.9V4.9h-3.9V1.5h11.8v3.4H91.8z"/>
<path d="M100.3,3.5c-0.1,0.2-0.2,0.3-0.3,0.5c-0.1,0.1-0.3,0.2-0.4,0.3c-0.4,0.1-0.8,0.1-1.1,0c-0.2-0.1-0.3-0.2-0.4-0.3
	c-0.1-0.1-0.2-0.3-0.3-0.5c-0.1-0.2-0.1-0.4-0.1-0.6c0-0.2,0-0.4,0.1-0.6C97.8,2.2,97.9,2,98,1.9c0.1-0.1,0.3-0.2,0.4-0.3
	c0.4-0.1,0.8-0.1,1.1,0c0.2,0.1,0.3,0.2,0.4,0.3c0.1,0.1,0.2,0.3,0.3,0.5c0.1,0.2,0.1,0.4,0.1,0.6C100.4,3.1,100.4,3.3,100.3,3.5z
	 M100.1,2.5c-0.1-0.1-0.1-0.3-0.2-0.4c-0.4-0.3-0.9-0.4-1.3-0.2c-0.1,0.1-0.3,0.1-0.4,0.2c-0.1,0.1-0.2,0.2-0.2,0.4
	c-0.1,0.1-0.1,0.3-0.1,0.5c0,0.2,0,0.3,0.1,0.5c0.1,0.1,0.1,0.3,0.2,0.4c0.1,0.1,0.2,0.2,0.4,0.2c0.3,0.1,0.6,0.1,0.9,0
	c0.1-0.1,0.3-0.1,0.4-0.2c0.1-0.1,0.2-0.2,0.2-0.4c0.1-0.1,0.1-0.3,0.1-0.5C100.2,2.8,100.1,2.6,100.1,2.5L100.1,2.5z M99.5,2.9
	c-0.1,0.1-0.1,0.1-0.2,0.2l0.3,0.6h-0.3L99,3.1h-0.3v0.6h-0.3V2.1h0.7h0.2c0.1,0,0.1,0,0.2,0.1c0.1,0,0.1,0.1,0.1,0.2
	c0,0.1,0,0.1,0,0.2C99.6,2.7,99.6,2.8,99.5,2.9L99.5,2.9z M99.3,2.5c-0.1,0-0.1-0.1-0.2-0.1h-0.4v0.4h0.4c0.1,0,0.1,0,0.2,0
	c0.1,0,0.1-0.1,0.1-0.2C99.4,2.6,99.4,2.5,99.3,2.5L99.3,2.5z"/>
<path d="M15.7,23.9c-0.5-1-1.5-1.6-2.6-1.5c-2.1,0-3.4,1.9-3.4,4.5s1.2,4.5,3.4,4.5c1.2,0,2.3-0.7,2.8-1.8l2.4,1.4
	c-0.9,2.1-3,3.4-5.3,3.2c-3.7,0-6.2-2.9-6.2-7.4c0-4.4,2.6-7.4,6.3-7.4c2.2-0.1,4.3,1.1,5.2,3.2L15.7,23.9z"/>
<path d="M26.1,34.2c-3.9,0-6.2-3-6.2-7.4s2.3-7.4,6.2-7.4s6.2,3,6.2,7.4S30,34.2,26.1,34.2z M26.1,22.3c-2.3,0-3.2,2-3.2,4.5
	s1,4.5,3.2,4.5s3.3-2,3.3-4.5S28.4,22.3,26.1,22.3z"/>
<path d="M39.5,34h-4.3V19.7h4.5c4.1,0,7.1,1.9,7.1,7.1C46.8,31.9,43.1,34,39.5,34z M39.6,22.5h-1.5v8.7h1.4c3,0,4.3-1.8,4.3-4.4
	C43.8,23.9,42.6,22.5,39.6,22.5z"/>
<path d="M49.6,34V19.7h9.9v2.8h-7V25h4.1v2.8h-4.1v3.4h7.3V34H49.6z"/>
<path d="M71.1,34l-2.5-5.1h-2.9V34h-2.8V19.7h6.6c2.7,0,4.9,1.5,4.9,4.5c0.2,1.9-1,3.6-2.7,4.2l2.7,5.6H71.1z M69.4,22.5h-3.7v3.7
	h3.7c1.3,0,2-0.6,2-1.9S70.7,22.5,69.4,22.5z"/>
<path d="M77.4,34V19.7h9.9v2.8h-7V25h4.1v2.8h-4.1v3.4h7.3V34H77.4z"/>
<path d="M100.1,34L99,30.8h-5.2L92.7,34h-3.1L95,19.7h2.8l5.4,14.3H100.1z M97.1,25.5c-0.3-0.8-0.6-1.7-0.7-2.2
	c-0.2,0.5-0.4,1.4-0.7,2.2l-0.9,2.6H98L97.1,25.5z"/>
<path d="M110.1,34h-4.3V19.7h4.5c4.1,0,7.1,1.9,7.1,7.1C117.4,31.9,113.8,34,110.1,34z M110.2,22.5h-1.5v8.7h1.4
	c3,0,4.4-1.8,4.4-4.4C114.5,23.9,113.2,22.5,110.2,22.5z"/>
<path d="M126.1,28.3V34h-2.8v-5.6l-5.4-8.7h3.3l2,3.4c0.5,0.9,1.3,2.3,1.5,2.8c0.3-0.5,1-1.9,1.6-2.8l2-3.4h3.2L126.1,28.3z"/>
<path d="M19.5,52.3h-2.8L15,44.9c-0.2-0.8-0.4-1.9-0.5-2.5c-0.1,0.5-0.3,1.6-0.5,2.5l-1.8,7.3H9.6L6.6,38h3l1.2,7
	c0.1,0.7,0.3,1.8,0.3,2.3c0.1-0.6,0.3-1.7,0.5-2.3l1.7-7h2.5l1.7,7c0.2,0.7,0.4,1.8,0.5,2.3c0.1-0.6,0.2-1.7,0.3-2.3l1.2-7h2.9
	L19.5,52.3z"/>
<path d="M30.4,52.5c-3.9,0-6.2-3-6.2-7.4s2.3-7.4,6.2-7.4s6.2,3,6.2,7.4S34.3,52.5,30.4,52.5z M30.4,40.6c-2.3,0-3.3,2-3.3,4.5
	s1,4.5,3.3,4.5s3.3-2,3.3-4.5S32.7,40.6,30.4,40.6z"/>
<path d="M47.7,52.3l-2.5-5.1h-2.9v5.1h-2.8V38h6.6c2.7,0,4.9,1.5,4.9,4.5c0.2,1.9-1,3.6-2.7,4.2l2.7,5.6H47.7z M46,40.8h-3.7v3.7H46
	c1.3,0,2-0.6,2-1.9S47.3,40.8,46,40.8z"/>
<path d="M63,52.3l-3.9-6.9l-2.3,2.7v4.2H54V38h2.8v4.1c0,0.5,0,1.8,0,2.3c0.3-0.5,0.7-1,1.1-1.5l4-4.9h3.4l-4.2,4.9l5.2,9.4H63z"/>
<path d="M72.8,52.5c-2.2,0.1-4.2-0.9-5.5-2.6l2-1.8c0.9,1.1,2.2,1.7,3.7,1.6c1.7,0,2.5-0.5,2.5-1.5c0-0.9-0.5-1.3-3.2-1.9
	s-4.4-1.5-4.4-4.2c0-2.6,2.3-4.2,5.1-4.2c2-0.1,3.9,0.7,5.2,2.2L76,42c-0.8-0.9-2-1.5-3.2-1.5c-1.5,0-2,0.7-2,1.3
	c0,0.9,0.6,1.2,2.9,1.7s4.8,1.3,4.8,4.4C78.3,50.7,76.6,52.5,72.8,52.5z"/>
<path d="M87.3,47.2h-3.1v5.1h-2.8V38h6.2c2.7,0,4.9,1.5,4.9,4.5C92.5,45.8,90.3,47.2,87.3,47.2z M87.5,40.8h-3.3v3.7h3.3
	c1.3,0,2-0.6,2-1.9S88.8,40.8,87.5,40.8z"/>
<path d="M103.2,52.3l-1.1-3.2h-5.2l-1.1,3.2h-3L98.1,38h2.8l5.4,14.3H103.2z M100.2,43.8c-0.3-0.8-0.6-1.7-0.7-2.2
	c-0.1,0.5-0.4,1.4-0.7,2.2l-0.9,2.6h3.2L100.2,43.8z"/>
<path d="M116.6,42.2c-0.5-1-1.5-1.6-2.6-1.5c-2.1,0-3.4,1.9-3.4,4.5s1.2,4.5,3.4,4.5c1.2,0,2.3-0.7,2.8-1.8l2.4,1.4
	c-0.9,2.1-3,3.4-5.3,3.2c-3.7,0-6.2-2.9-6.2-7.4c0-4.3,2.6-7.4,6.3-7.4c2.2-0.1,4.3,1.1,5.2,3.2L116.6,42.2z"/>
<path d="M122.1,52.3V38h9.9v2.8h-7v2.5h4.1V46H125v3.5h7.4v2.8L122.1,52.3z"/>
<path d="M139.9,52.5c-2.2,0.1-4.2-0.9-5.5-2.6l2.1-1.8c0.9,1.1,2.2,1.7,3.6,1.6c1.7,0,2.5-0.5,2.5-1.5c0-0.9-0.5-1.3-3.2-1.9
	s-4.5-1.5-4.5-4.3c0-2.6,2.3-4.2,5.1-4.2c2-0.1,3.9,0.8,5.2,2.2l-2,2c-0.8-0.9-2-1.5-3.2-1.5c-1.5,0-2,0.7-2,1.3
	c0,0.9,0.6,1.2,2.9,1.7s4.8,1.3,4.8,4.4C145.5,50.7,143.8,52.5,139.9,52.5z"/>
</svg>
