<?xml version="1.0" encoding="utf-8"?>
<!--

    Copyright (c) 2019 Red Hat, Inc.
    This program and the accompanying materials are made
    available under the terms of the Eclipse Public License 2.0
    which is available at https://www.eclipse.org/legal/epl-2.0/

    SPDX-License-Identifier: EPL-2.0

    Contributors:
      Red Hat, Inc. - initial API and implementation

-->
<!-- Generator: Adobe Illustrator 23.0.1, SVG Export Plug-In . SVG Version: 6.00 Build 0)  -->
<svg version="1.1" id="logo" xmlns="http://www.w3.org/2000/svg" xmlns:xlink="http://www.w3.org/1999/xlink" x="0px" y="0px"
	 viewBox="0 0 293.312 144.339" enable-background="new 0 0 293.312 144.339" xml:space="preserve">
<g>
	<path d="M43.325,50.496l-2.743-5.664h-1.877v5.664h-4.56v-16.8h7.512c0.976,0,1.868,0.1,2.676,0.3c0.808,0.2,1.5,0.516,2.076,0.948
		c0.576,0.432,1.02,0.996,1.332,1.692c0.312,0.696,0.468,1.54,0.468,2.532c0,1.264-0.272,2.296-0.818,3.096
		c-0.545,0.8-1.283,1.408-2.213,1.824l3.367,6.408H43.325z M43.107,37.992c-0.313-0.336-0.84-0.504-1.579-0.504h-2.822v3.672h2.75
		c0.771,0,1.317-0.16,1.64-0.48c0.321-0.32,0.482-0.784,0.482-1.392C43.577,38.76,43.421,38.328,43.107,37.992z"/>
	<path d="M52.049,50.496v-16.8h12.864v3.912h-8.256v2.256h4.968v3.84h-4.968v2.88h8.424v3.912H52.049z"/>
	<path d="M82.721,45.996c-0.384,1.08-0.96,1.952-1.729,2.616c-0.768,0.664-1.716,1.144-2.844,1.44s-2.436,0.444-3.924,0.444h-5.448
		v-16.8h5.88c1.312,0,2.504,0.136,3.576,0.408c1.072,0.272,1.98,0.732,2.724,1.38c0.744,0.648,1.32,1.5,1.729,2.556
		s0.612,2.376,0.612,3.96S83.105,44.916,82.721,45.996z M78.317,40.08c-0.136-0.56-0.356-1.016-0.66-1.368
		c-0.304-0.352-0.704-0.612-1.2-0.78s-1.104-0.252-1.823-0.252h-1.152v8.832h1.008c0.721,0,1.336-0.076,1.849-0.228
		c0.512-0.152,0.932-0.4,1.26-0.744c0.327-0.344,0.563-0.8,0.708-1.368c0.144-0.567,0.216-1.268,0.216-2.1
		C78.521,41.304,78.452,40.64,78.317,40.08z"/>
	<path d="M105.449,50.496v-6.624h-5.232v6.624h-4.752v-16.8h4.752v6.12h5.232v-6.12h4.752v16.8H105.449z"/>
	<path d="M125.176,50.496l-0.912-2.952h-5.04l-0.911,2.952h-4.992l6.096-16.8h4.704l6.096,16.8H125.176z M122.824,42.744
		c-0.145-0.544-0.272-1.016-0.384-1.416c-0.112-0.4-0.213-0.76-0.301-1.08c-0.088-0.32-0.164-0.612-0.228-0.876
		c-0.064-0.264-0.12-0.54-0.168-0.828c-0.048,0.288-0.104,0.568-0.168,0.84c-0.064,0.272-0.141,0.568-0.229,0.888
		c-0.088,0.32-0.188,0.68-0.3,1.08c-0.112,0.4-0.24,0.864-0.384,1.392l-0.312,1.104h2.784L122.824,42.744z"/>
	<path d="M139.721,37.752v12.744h-4.656V37.752h-4.704v-4.056h14.064v4.056H139.721z"/>
	<path d="M150.661,36.604c-0.109,0.264-0.262,0.493-0.456,0.687c-0.193,0.194-0.423,0.346-0.687,0.456
		c-0.265,0.11-0.55,0.165-0.858,0.165c-0.308,0-0.594-0.055-0.857-0.165c-0.265-0.11-0.493-0.262-0.688-0.456
		c-0.194-0.194-0.346-0.423-0.456-0.687c-0.11-0.264-0.165-0.55-0.165-0.858s0.055-0.594,0.165-0.858s0.262-0.493,0.456-0.687
		s0.423-0.346,0.688-0.456c0.264-0.11,0.55-0.165,0.857-0.165c0.309,0,0.594,0.055,0.858,0.165c0.264,0.11,0.493,0.262,0.687,0.456
		c0.194,0.194,0.347,0.423,0.456,0.687c0.11,0.264,0.165,0.55,0.165,0.858S150.772,36.34,150.661,36.604z M150.341,35.029
		c-0.093-0.222-0.221-0.415-0.385-0.579s-0.356-0.292-0.579-0.384c-0.222-0.092-0.461-0.138-0.717-0.138
		c-0.26,0-0.5,0.046-0.72,0.138c-0.22,0.092-0.412,0.22-0.576,0.384s-0.292,0.357-0.384,0.579c-0.092,0.222-0.138,0.461-0.138,0.717
		c0,0.26,0.046,0.5,0.138,0.72c0.092,0.22,0.22,0.412,0.384,0.576c0.164,0.164,0.356,0.292,0.576,0.384
		c0.22,0.092,0.46,0.138,0.72,0.138c0.256,0,0.495-0.046,0.717-0.138c0.223-0.092,0.415-0.22,0.579-0.384
		c0.164-0.164,0.292-0.356,0.385-0.576c0.092-0.22,0.138-0.46,0.138-0.72C150.479,35.49,150.433,35.251,150.341,35.029z
		 M149.507,35.692c-0.092,0.116-0.214,0.196-0.366,0.24l0.486,0.954h-0.473l-0.46-0.912h-0.454v0.912h-0.402v-2.364h1.035
		c0.104,0,0.202,0.014,0.296,0.042c0.094,0.028,0.176,0.071,0.245,0.129s0.126,0.132,0.167,0.222
		c0.042,0.09,0.063,0.197,0.063,0.321C149.645,35.424,149.599,35.576,149.507,35.692z M149.135,34.996
		c-0.072-0.056-0.162-0.084-0.271-0.084h-0.624v0.672h0.624c0.108,0,0.198-0.027,0.271-0.081c0.071-0.054,0.107-0.139,0.107-0.255
		C149.242,35.136,149.206,35.052,149.135,34.996z"/>
	<path d="M48.077,79.74c-1.368,0.768-2.977,1.152-4.824,1.152c-1.536,0-2.934-0.33-4.193-0.99c-1.261-0.66-2.335-1.566-3.223-2.718
		s-1.572-2.52-2.052-4.104c-0.48-1.584-0.72-3.3-0.72-5.148c0-1.872,0.252-3.605,0.756-5.202c0.504-1.596,1.206-2.97,2.106-4.122
		c0.899-1.152,1.985-2.058,3.258-2.718c1.271-0.66,2.664-0.99,4.176-0.99c3.407,0,6.084,1.345,8.028,4.032l-2.232,1.692
		c-0.816-1.104-1.656-1.908-2.52-2.412c-0.864-0.504-1.98-0.756-3.349-0.756c-1.08,0-2.076,0.258-2.988,0.774
		c-0.912,0.517-1.691,1.23-2.34,2.142c-0.647,0.913-1.158,2.004-1.529,3.276c-0.373,1.272-0.559,2.677-0.559,4.212
		c0,1.537,0.186,2.947,0.559,4.23c0.371,1.284,0.894,2.388,1.565,3.312c0.672,0.924,1.464,1.645,2.376,2.16
		c0.912,0.517,1.896,0.774,2.952,0.774c1.368,0,2.544-0.288,3.528-0.864c0.983-0.576,1.884-1.392,2.7-2.448l1.943,1.692
		C50.585,77.964,49.446,78.972,48.077,79.74z"/>
	<path d="M75.15,73.098c-0.504,1.596-1.219,2.97-2.143,4.122c-0.924,1.152-2.034,2.052-3.33,2.7s-2.724,0.972-4.283,0.972
		c-1.561,0-2.982-0.318-4.267-0.954s-2.382-1.53-3.294-2.682c-0.912-1.152-1.614-2.52-2.105-4.104
		c-0.492-1.584-0.738-3.324-0.738-5.22c0-1.896,0.252-3.642,0.756-5.238s1.212-2.97,2.124-4.122c0.912-1.152,2.016-2.052,3.312-2.7
		c1.297-0.648,2.724-0.972,4.284-0.972c1.56,0,2.982,0.318,4.267,0.954c1.283,0.636,2.381,1.53,3.294,2.682
		c0.911,1.152,1.62,2.52,2.124,4.104s0.756,3.324,0.756,5.22C75.906,69.756,75.654,71.502,75.15,73.098z M72.503,63.63
		c-0.396-1.283-0.942-2.388-1.638-3.312c-0.696-0.923-1.512-1.631-2.448-2.124c-0.936-0.492-1.956-0.738-3.06-0.738
		c-1.08,0-2.083,0.247-3.006,0.738c-0.925,0.492-1.723,1.188-2.395,2.088s-1.2,1.992-1.584,3.276
		c-0.384,1.284-0.576,2.718-0.576,4.302c0,1.584,0.198,3.019,0.594,4.302c0.396,1.284,0.937,2.388,1.62,3.312
		c0.685,0.924,1.494,1.632,2.431,2.124c0.936,0.492,1.955,0.738,3.06,0.738c1.08,0,2.088-0.246,3.024-0.738
		c0.936-0.492,1.739-1.188,2.412-2.088c0.671-0.9,1.199-1.992,1.584-3.276c0.383-1.283,0.575-2.718,0.575-4.302
		S72.9,64.914,72.503,63.63z"/>
	<path d="M98.675,73.566c-0.612,1.62-1.458,2.947-2.538,3.978c-1.08,1.032-2.353,1.782-3.816,2.25
		c-1.464,0.468-3.036,0.702-4.716,0.702h-6.156v-25.2h6.66c1.656,0,3.187,0.24,4.59,0.72c1.404,0.48,2.616,1.23,3.637,2.25
		c1.02,1.021,1.817,2.31,2.394,3.87s0.864,3.42,0.864,5.58C99.593,69.996,99.286,71.946,98.675,73.566z M94.517,60.408
		c-1.512-1.704-3.721-2.556-6.624-2.556h-3.636V77.94h3.708c1.367,0,2.592-0.186,3.672-0.558s2.003-0.966,2.771-1.782
		c0.769-0.815,1.355-1.866,1.765-3.15c0.407-1.284,0.611-2.826,0.611-4.626C96.784,64.584,96.029,62.112,94.517,60.408z"/>
	<path d="M105.136,80.496v-25.2h15.229v2.556h-12.42v7.92h7.2v2.556h-7.2v9.612h12.96v2.556H105.136z"/>
	<path d="M142.468,67.173c-1.08,1.2-2.52,1.992-4.319,2.375l5.544,10.947h-3.24l-5.4-10.728h-5.976v10.728h-2.809v-25.2h9.973
		c1.104,0,2.136,0.144,3.096,0.432s1.788,0.726,2.484,1.314c0.695,0.588,1.247,1.326,1.655,2.213s0.612,1.943,0.612,3.167
		C144.088,64.39,143.548,65.974,142.468,67.173z M139.966,59.017c-0.876-0.777-2.154-1.166-3.834-1.166h-7.056v9.36h6.696
		c1.872,0,3.258-0.388,4.157-1.166c0.9-0.776,1.351-1.954,1.351-3.532C141.281,60.96,140.842,59.795,139.966,59.017z"/>
	<path d="M149.667,80.496v-25.2h15.229v2.556h-12.42v7.92h7.2v2.556h-7.2v9.612h12.96v2.556H149.667z"/>
	<path d="M187.035,80.496l-2.16-6.408h-10.403l-2.196,6.408h-2.88l8.748-25.2h3.096l8.748,25.2H187.035z M181.24,63.252
		c-0.144-0.408-0.294-0.852-0.45-1.332c-0.156-0.479-0.306-0.941-0.45-1.386c-0.144-0.444-0.27-0.864-0.378-1.26
		c-0.107-0.396-0.197-0.726-0.27-0.99c-0.072,0.264-0.162,0.588-0.271,0.972c-0.107,0.384-0.233,0.805-0.378,1.26
		c-0.144,0.456-0.3,0.93-0.468,1.422c-0.168,0.492-0.324,0.954-0.468,1.386l-2.772,8.208h8.677L181.24,63.252z"/>
	<path d="M212.434,73.566c-0.612,1.62-1.458,2.947-2.538,3.978c-1.08,1.032-2.353,1.782-3.816,2.25
		c-1.464,0.468-3.036,0.702-4.716,0.702h-6.156v-25.2h6.66c1.656,0,3.187,0.24,4.59,0.72c1.404,0.48,2.616,1.23,3.637,2.25
		c1.02,1.021,1.817,2.31,2.394,3.87s0.864,3.42,0.864,5.58C213.352,69.996,213.046,71.946,212.434,73.566z M208.276,60.408
		c-1.512-1.704-3.721-2.556-6.624-2.556h-3.636V77.94h3.708c1.368,0,2.592-0.186,3.672-0.558s2.004-0.966,2.772-1.782
		c0.768-0.815,1.355-1.866,1.764-3.15c0.407-1.284,0.612-2.826,0.612-4.626C210.544,64.584,209.787,62.112,208.276,60.408z"/>
	<path d="M227.175,70.488v10.008h-2.808v-9.972l-8.64-15.228h3.204l4.031,7.236c0.504,0.912,1.014,1.854,1.53,2.826
		c0.516,0.972,0.954,1.831,1.314,2.574c0.359-0.744,0.797-1.602,1.313-2.574c0.516-0.972,1.026-1.914,1.53-2.826l4.032-7.236h3.132
		L227.175,70.488z"/>
	<path d="M54.558,110.496H51.39l-3.96-16.128c-0.097-0.407-0.205-0.864-0.324-1.368c-0.12-0.504-0.234-1.008-0.342-1.512
		c-0.108-0.504-0.211-1.002-0.307-1.494c-0.096-0.492-0.18-0.93-0.252-1.314c-0.072,0.384-0.156,0.816-0.252,1.296
		c-0.096,0.48-0.198,0.972-0.306,1.476c-0.108,0.504-0.223,1.008-0.342,1.512c-0.121,0.504-0.229,0.973-0.324,1.404l-3.96,16.128
		h-3.097l-5.04-25.2h2.809l2.952,16.2c0.071,0.408,0.149,0.876,0.233,1.404s0.168,1.05,0.252,1.565
		c0.084,0.517,0.168,1.008,0.252,1.477c0.084,0.468,0.15,0.858,0.198,1.17c0.048-0.312,0.12-0.696,0.216-1.152
		c0.096-0.455,0.198-0.941,0.307-1.458c0.107-0.516,0.222-1.031,0.342-1.548c0.12-0.516,0.228-0.978,0.324-1.386l3.996-16.272h3.023
		l3.996,16.272c0.096,0.408,0.204,0.87,0.324,1.386c0.12,0.517,0.233,1.032,0.342,1.548c0.108,0.517,0.21,1.003,0.306,1.458
		c0.096,0.456,0.168,0.841,0.217,1.152c0.048-0.312,0.113-0.702,0.197-1.17c0.084-0.469,0.168-0.96,0.252-1.477
		c0.084-0.516,0.168-1.037,0.252-1.565s0.162-0.996,0.234-1.404l2.952-16.2h2.736L54.558,110.496z"/>
	<path d="M83.61,103.097c-0.504,1.597-1.219,2.971-2.143,4.122c-0.924,1.152-2.034,2.053-3.33,2.7
		c-1.296,0.648-2.724,0.973-4.283,0.973c-1.561,0-2.982-0.319-4.267-0.954c-1.284-0.636-2.382-1.53-3.294-2.683
		c-0.912-1.151-1.614-2.52-2.105-4.104c-0.492-1.584-0.738-3.324-0.738-5.22s0.252-3.642,0.756-5.238
		c0.504-1.596,1.212-2.97,2.124-4.122c0.912-1.152,2.016-2.052,3.312-2.7c1.297-0.648,2.724-0.972,4.284-0.972
		c1.56,0,2.982,0.318,4.267,0.954c1.283,0.636,2.381,1.53,3.294,2.682c0.911,1.152,1.62,2.52,2.124,4.104
		c0.504,1.584,0.756,3.325,0.756,5.22C84.366,99.757,84.114,101.502,83.61,103.097z M80.963,93.63
		c-0.396-1.283-0.942-2.388-1.638-3.312c-0.696-0.923-1.512-1.631-2.448-2.124c-0.936-0.492-1.956-0.738-3.06-0.738
		c-1.08,0-2.083,0.247-3.006,0.738c-0.925,0.492-1.723,1.188-2.395,2.088s-1.2,1.992-1.584,3.276
		c-0.384,1.285-0.576,2.718-0.576,4.302s0.198,3.019,0.594,4.302c0.396,1.284,0.937,2.389,1.62,3.312
		c0.685,0.925,1.494,1.633,2.431,2.124c0.936,0.492,1.955,0.738,3.06,0.738c1.08,0,2.088-0.246,3.024-0.738
		c0.936-0.491,1.739-1.188,2.412-2.088c0.671-0.899,1.199-1.991,1.584-3.275c0.383-1.284,0.575-2.718,0.575-4.302
		S81.36,94.914,80.963,93.63z"/>
	<path d="M106.109,97.173c-1.08,1.2-2.52,1.992-4.32,2.376l5.545,10.946h-3.24l-5.4-10.728h-5.976v10.728h-2.809v-25.2h9.973
		c1.104,0,2.136,0.144,3.096,0.432s1.788,0.726,2.484,1.314c0.695,0.588,1.247,1.326,1.655,2.213s0.612,1.943,0.612,3.167
		C107.729,94.39,107.189,95.974,106.109,97.173z M103.607,89.017c-0.876-0.777-2.154-1.166-3.834-1.166h-7.056v9.36h6.695
		c1.872,0,3.259-0.388,4.158-1.165c0.9-0.776,1.351-1.954,1.351-3.533C104.921,90.96,104.483,89.795,103.607,89.017z"/>
	<path d="M128.358,110.496l-7.452-13.428l-4.788,6.191v7.236h-2.809v-25.2h2.809v10.98v3.384c0.168-0.239,0.401-0.569,0.702-0.99
		c0.3-0.419,0.63-0.869,0.989-1.35c0.36-0.479,0.714-0.948,1.062-1.404c0.348-0.455,0.653-0.852,0.918-1.188l7.308-9.433h3.061
		l-7.38,9.469l8.784,15.731H128.358z"/>
	<path d="M150.263,106.644c-0.373,0.863-0.918,1.607-1.639,2.231c-0.72,0.624-1.596,1.116-2.628,1.477
		c-1.032,0.359-2.208,0.54-3.527,0.54c-1.729,0-3.318-0.331-4.771-0.99c-1.452-0.66-2.682-1.494-3.689-2.502l1.871-2.088
		c0.96,0.912,1.992,1.644,3.097,2.195c1.104,0.553,2.304,0.828,3.6,0.828c1.68,0,3.006-0.384,3.979-1.151
		c0.972-0.769,1.458-1.824,1.458-3.169c0-0.575-0.097-1.104-0.288-1.584c-0.192-0.479-0.522-0.923-0.99-1.332
		c-0.468-0.407-1.086-0.81-1.854-1.205c-0.768-0.396-1.728-0.798-2.88-1.206c-1.368-0.479-2.514-0.966-3.438-1.458
		c-0.925-0.492-1.669-1.02-2.232-1.584c-0.563-0.563-0.972-1.193-1.224-1.891c-0.252-0.696-0.378-1.5-0.378-2.412
		c0-1.008,0.191-1.908,0.576-2.7c0.383-0.792,0.918-1.47,1.602-2.034c0.684-0.563,1.512-0.99,2.484-1.278
		c0.972-0.288,2.046-0.432,3.222-0.432c1.68,0,3.114,0.24,4.302,0.72c1.188,0.48,2.31,1.14,3.366,1.98l-1.8,2.196
		c-0.912-0.768-1.83-1.35-2.754-1.746c-0.925-0.396-2.022-0.594-3.294-0.594c-0.864,0-1.608,0.103-2.232,0.306
		c-0.624,0.204-1.134,0.474-1.53,0.81c-0.396,0.336-0.684,0.726-0.863,1.17c-0.181,0.444-0.271,0.918-0.271,1.422
		c0,0.528,0.072,1.002,0.216,1.422c0.145,0.42,0.433,0.828,0.864,1.225c0.432,0.396,1.038,0.786,1.818,1.17
		c0.779,0.384,1.806,0.805,3.078,1.26c1.392,0.504,2.556,1.008,3.491,1.512c0.937,0.504,1.687,1.057,2.25,1.656
		c0.564,0.6,0.966,1.26,1.206,1.979c0.24,0.721,0.36,1.549,0.36,2.484C150.821,104.856,150.634,105.78,150.263,106.644z"/>
	<path d="M173.483,96.15c-0.42,0.972-1.002,1.788-1.745,2.448c-0.745,0.66-1.645,1.158-2.7,1.493
		c-1.057,0.337-2.209,0.504-3.456,0.504h-6.12v9.9h-2.809v-25.2h9.433c1.152,0,2.214,0.15,3.186,0.45
		c0.973,0.3,1.818,0.762,2.538,1.386c0.721,0.624,1.284,1.41,1.692,2.358c0.407,0.948,0.612,2.058,0.612,3.33
		C174.114,94.068,173.903,95.178,173.483,96.15z M169.937,89.166c-0.912-0.876-2.231-1.314-3.96-1.314h-6.516V98.04h6.156
		c3.791,0,5.688-1.703,5.688-5.112C171.305,91.296,170.849,90.042,169.937,89.166z"/>
	<path d="M193.013,110.496l-2.16-6.408h-10.403l-2.196,6.408h-2.88l8.748-25.2h3.096l8.748,25.2H193.013z M187.217,93.252
		c-0.144-0.408-0.294-0.852-0.45-1.332c-0.156-0.479-0.306-0.941-0.45-1.386c-0.144-0.444-0.27-0.864-0.378-1.26
		c-0.107-0.396-0.197-0.726-0.27-0.99c-0.072,0.264-0.162,0.588-0.271,0.972c-0.107,0.384-0.233,0.805-0.378,1.26
		c-0.144,0.456-0.3,0.93-0.468,1.422c-0.168,0.492-0.324,0.954-0.468,1.386l-2.772,8.208h8.677L187.217,93.252z"/>
	<path d="M214.433,109.74c-1.368,0.768-2.977,1.152-4.824,1.152c-1.536,0-2.934-0.331-4.194-0.99
		c-1.26-0.66-2.334-1.566-3.222-2.718c-0.888-1.152-1.572-2.521-2.052-4.104c-0.48-1.584-0.72-3.3-0.72-5.147
		c0-1.872,0.252-3.605,0.756-5.203c0.504-1.596,1.206-2.97,2.105-4.122c0.9-1.152,1.986-2.058,3.258-2.718
		c1.272-0.66,2.664-0.99,4.177-0.99c3.407,0,6.084,1.345,8.027,4.032l-2.231,1.692c-0.816-1.104-1.656-1.908-2.521-2.412
		c-0.863-0.504-1.979-0.756-3.348-0.756c-1.08,0-2.076,0.258-2.988,0.774c-0.912,0.517-1.691,1.23-2.34,2.142
		c-0.647,0.913-1.158,2.004-1.53,3.276c-0.372,1.272-0.558,2.677-0.558,4.212c0,1.536,0.186,2.946,0.558,4.229
		c0.372,1.284,0.895,2.389,1.566,3.312s1.464,1.644,2.376,2.16c0.912,0.516,1.896,0.773,2.952,0.773
		c1.368,0,2.543-0.288,3.527-0.864c0.984-0.575,1.885-1.392,2.7-2.447l1.944,1.691C216.941,107.964,215.801,108.972,214.433,109.74z
		"/>
	<path d="M223.108,110.496v-25.2h15.229v2.556h-12.42v7.92h7.2v2.556h-7.2v9.612h12.96v2.556H223.108z"/>
	<path d="M258.731,106.644c-0.373,0.863-0.918,1.607-1.639,2.231c-0.72,0.624-1.596,1.116-2.628,1.477
		c-1.032,0.359-2.208,0.54-3.527,0.54c-1.729,0-3.318-0.331-4.771-0.99c-1.452-0.66-2.682-1.494-3.689-2.502l1.871-2.088
		c0.96,0.912,1.992,1.644,3.097,2.195c1.104,0.553,2.304,0.828,3.6,0.828c1.68,0,3.006-0.384,3.979-1.151
		c0.972-0.769,1.458-1.824,1.458-3.169c0-0.575-0.097-1.104-0.288-1.584c-0.192-0.479-0.522-0.923-0.99-1.332
		c-0.468-0.407-1.086-0.81-1.854-1.205c-0.768-0.396-1.728-0.798-2.88-1.206c-1.368-0.479-2.514-0.966-3.438-1.458
		c-0.925-0.492-1.669-1.02-2.232-1.584c-0.563-0.563-0.972-1.193-1.224-1.891c-0.252-0.696-0.378-1.5-0.378-2.412
		c0-1.008,0.191-1.908,0.576-2.7c0.383-0.792,0.918-1.47,1.602-2.034c0.684-0.563,1.512-0.99,2.484-1.278
		c0.972-0.288,2.046-0.432,3.222-0.432c1.68,0,3.114,0.24,4.302,0.72c1.188,0.48,2.31,1.14,3.366,1.98l-1.8,2.196
		c-0.912-0.768-1.83-1.35-2.754-1.746c-0.925-0.396-2.022-0.594-3.294-0.594c-0.864,0-1.608,0.103-2.232,0.306
		c-0.624,0.204-1.134,0.474-1.53,0.81c-0.396,0.336-0.684,0.726-0.863,1.17c-0.181,0.444-0.271,0.918-0.271,1.422
		c0,0.528,0.072,1.002,0.216,1.422c0.145,0.42,0.433,0.828,0.864,1.225c0.432,0.396,1.038,0.786,1.818,1.17
		c0.779,0.384,1.806,0.805,3.078,1.26c1.392,0.504,2.556,1.008,3.491,1.512c0.937,0.504,1.687,1.057,2.25,1.656
		c0.564,0.6,0.966,1.26,1.206,1.979c0.24,0.721,0.36,1.549,0.36,2.484C259.288,104.856,259.102,105.78,258.731,106.644z"/>
</g>
</svg>
