<?xml version="1.0" encoding="utf-8"?>
<!--

    Copyright (c) 2019 Red Hat, Inc.
    This program and the accompanying materials are made
    available under the terms of the Eclipse Public License 2.0
    which is available at https://www.eclipse.org/legal/epl-2.0/

    SPDX-License-Identifier: EPL-2.0

    Contributors:
      Red Hat, Inc. - initial API and implementation

-->
<!-- Generator: Adobe Illustrator 23.0.1, SVG Export Plug-In . SVG Version: 6.00 Build 0)  -->
<svg xmlns="http://www.w3.org/2000/svg" xmlns:xlink="http://www.w3.org/1999/xlink" version="1.1" id="logo-top-left" 
  width="150" viewBox="0 0 310 125" xml:space="preserve" height="125" class="ng-scope">
<g>
  <path fill="#FFFFFF" d="M43.325,50.496l-2.743-5.664h-1.877v5.664h-4.56V33.695h7.512c0.976,0,1.868,0.101,2.676,0.301
    c0.808,0.199,1.5,0.516,2.076,0.947c0.576,0.432,1.02,0.996,1.332,1.692s0.468,1.54,0.468,2.532c0,1.264-0.273,2.296-0.818,3.096
    c-0.545,0.801-1.283,1.408-2.213,1.824l3.368,6.408H43.325z M43.107,37.992c-0.313-0.336-0.84-0.504-1.58-0.504h-2.822v3.672h2.75
    c0.771,0,1.318-0.16,1.64-0.48s0.483-0.783,0.483-1.393C43.578,38.76,43.421,38.328,43.107,37.992z"/>
  <path fill="#FFFFFF" d="M52.049,50.496V33.695h12.864v3.912h-8.256v2.256h4.968v3.84h-4.968v2.881h8.424v3.912H52.049z"/>
  <path fill="#FFFFFF" d="M82.721,45.996c-0.384,1.08-0.96,1.951-1.728,2.615s-1.716,1.145-2.844,1.44s-2.436,0.444-3.924,0.444
    h-5.448V33.695h5.88c1.312,0,2.504,0.137,3.576,0.408c1.072,0.272,1.98,0.732,2.724,1.38c0.744,0.648,1.32,1.5,1.728,2.556
    c0.408,1.057,0.612,2.377,0.612,3.961S83.105,44.916,82.721,45.996z M78.317,40.08c-0.136-0.561-0.356-1.016-0.66-1.369
    c-0.304-0.352-0.704-0.611-1.2-0.779s-1.104-0.252-1.824-0.252h-1.152v8.832h1.008c0.72,0,1.336-0.076,1.848-0.229
    c0.512-0.151,0.932-0.399,1.26-0.744c0.328-0.344,0.564-0.799,0.708-1.367s0.216-1.268,0.216-2.1
    C78.521,41.304,78.453,40.64,78.317,40.08z"/>
  <path fill="#FFFFFF" d="M105.448,50.496v-6.625h-5.232v6.625h-4.752V33.695h4.752v6.12h5.232v-6.12h4.752v16.801H105.448z"/>
  <path fill="#FFFFFF" d="M125.176,50.496l-0.912-2.953h-5.04l-0.911,2.953h-4.992l6.096-16.801h4.704l6.096,16.801H125.176z
     M122.824,42.744c-0.145-0.545-0.272-1.017-0.384-1.416c-0.112-0.4-0.213-0.76-0.301-1.08s-0.164-0.612-0.228-0.877
    c-0.064-0.264-0.12-0.539-0.168-0.828c-0.048,0.289-0.104,0.568-0.168,0.841c-0.064,0.272-0.141,0.567-0.229,0.888
    s-0.188,0.68-0.3,1.08s-0.24,0.864-0.384,1.393l-0.312,1.104h2.784L122.824,42.744z"/>
  <path fill="#FFFFFF" d="M139.721,37.752v12.744h-4.656V37.752h-4.704v-4.057h14.064v4.057H139.721z"/>
  <path fill="#FFFFFF" d="M150.661,36.604c-0.109,0.264-0.262,0.493-0.456,0.688c-0.193,0.193-0.423,0.346-0.687,0.455
    c-0.265,0.11-0.55,0.166-0.858,0.166c-0.308,0-0.594-0.056-0.857-0.166c-0.265-0.109-0.493-0.262-0.688-0.455
    c-0.194-0.194-0.346-0.424-0.456-0.688s-0.165-0.55-0.165-0.857c0-0.309,0.055-0.594,0.165-0.858s0.262-0.493,0.456-0.687
    c0.194-0.194,0.423-0.346,0.688-0.457c0.264-0.109,0.55-0.164,0.857-0.164c0.309,0,0.594,0.055,0.858,0.164
    c0.264,0.111,0.493,0.263,0.687,0.457c0.194,0.193,0.347,0.422,0.456,0.687c0.11,0.265,0.165,0.55,0.165,0.858
    C150.826,36.054,150.771,36.34,150.661,36.604z M150.341,35.029c-0.093-0.223-0.221-0.416-0.385-0.58s-0.356-0.291-0.579-0.383
    c-0.222-0.093-0.461-0.139-0.717-0.139c-0.26,0-0.5,0.046-0.72,0.139c-0.22,0.092-0.412,0.219-0.576,0.383s-0.292,0.357-0.384,0.58
    c-0.092,0.221-0.138,0.461-0.138,0.717c0,0.26,0.046,0.5,0.138,0.72s0.22,0.412,0.384,0.575c0.164,0.164,0.356,0.293,0.576,0.385
    s0.46,0.138,0.72,0.138c0.256,0,0.495-0.046,0.717-0.138c0.223-0.092,0.415-0.221,0.579-0.385c0.164-0.163,0.292-0.355,0.385-0.575
    c0.092-0.22,0.138-0.46,0.138-0.72C150.479,35.49,150.433,35.25,150.341,35.029z M149.507,35.692
    c-0.092,0.116-0.214,0.196-0.366,0.24l0.486,0.954h-0.473l-0.46-0.912h-0.454v0.912h-0.402v-2.364h1.035
    c0.104,0,0.202,0.014,0.296,0.042s0.176,0.071,0.245,0.13c0.069,0.058,0.126,0.131,0.167,0.221
    c0.042,0.091,0.063,0.197,0.063,0.322C149.645,35.424,149.599,35.576,149.507,35.692z M149.135,34.996
    c-0.072-0.057-0.162-0.084-0.271-0.084h-0.624v0.672h0.624c0.108,0,0.198-0.027,0.271-0.081c0.071-0.054,0.107-0.14,0.107-0.255
    C149.242,35.136,149.206,35.052,149.135,34.996z"/>
  <path fill="#FFFFFF" d="M48.078,79.74c-1.368,0.768-2.977,1.151-4.824,1.151c-1.536,0-2.934-0.33-4.194-0.99
    c-1.26-0.659-2.334-1.565-3.222-2.718c-0.888-1.152-1.572-2.52-2.052-4.104c-0.48-1.584-0.72-3.301-0.72-5.148
    c0-1.872,0.252-3.605,0.756-5.202c0.504-1.596,1.206-2.97,2.106-4.122c0.9-1.152,1.985-2.058,3.258-2.718
    c1.272-0.659,2.664-0.99,4.176-0.99c3.408,0,6.084,1.345,8.028,4.032l-2.232,1.691c-0.816-1.104-1.656-1.907-2.52-2.412
    c-0.864-0.504-1.98-0.756-3.348-0.756c-1.08,0-2.076,0.259-2.988,0.774c-0.912,0.517-1.692,1.23-2.34,2.142
    c-0.648,0.913-1.158,2.005-1.53,3.276c-0.373,1.272-0.558,2.677-0.558,4.212c0,1.537,0.186,2.947,0.558,4.23
    c0.372,1.284,0.894,2.389,1.566,3.312c0.671,0.925,1.463,1.645,2.376,2.16c0.912,0.517,1.896,0.774,2.952,0.774
    c1.368,0,2.543-0.289,3.528-0.864c0.984-0.576,1.884-1.392,2.7-2.448l1.944,1.692C50.585,77.964,49.445,78.972,48.078,79.74z"/>
  <path fill="#FFFFFF" d="M75.149,73.098c-0.504,1.596-1.218,2.97-2.142,4.122c-0.924,1.151-2.034,2.052-3.33,2.7
    c-1.296,0.647-2.724,0.972-4.284,0.972c-1.561,0-2.982-0.318-4.266-0.954c-1.284-0.636-2.382-1.529-3.294-2.682
    c-0.913-1.152-1.615-2.52-2.106-4.104c-0.492-1.584-0.738-3.323-0.738-5.22c0-1.896,0.252-3.642,0.756-5.238
    c0.504-1.596,1.212-2.97,2.124-4.121c0.912-1.152,2.016-2.053,3.312-2.701c1.296-0.647,2.724-0.972,4.284-0.972
    c1.56,0,2.982,0.318,4.266,0.954c1.284,0.637,2.381,1.53,3.294,2.682c0.912,1.152,1.62,2.521,2.124,4.104s0.756,3.324,0.756,5.22
    C75.905,69.756,75.653,71.502,75.149,73.098z M72.503,63.629c-0.396-1.283-0.942-2.387-1.638-3.312
    c-0.696-0.923-1.512-1.632-2.448-2.124c-0.936-0.491-1.957-0.738-3.06-0.738c-1.08,0-2.083,0.247-3.006,0.738
    c-0.924,0.492-1.723,1.188-2.394,2.088c-0.672,0.9-1.201,1.992-1.584,3.276c-0.384,1.284-0.576,2.718-0.576,4.302
    s0.198,3.019,0.594,4.303c0.396,1.283,0.936,2.388,1.62,3.312c0.684,0.925,1.494,1.632,2.43,2.124s1.956,0.738,3.06,0.738
    c1.08,0,2.088-0.246,3.024-0.738s1.74-1.188,2.412-2.088c0.671-0.9,1.2-1.992,1.584-3.276c0.383-1.283,0.576-2.718,0.576-4.302
    S72.899,64.914,72.503,63.629z"/>
  <path fill="#FFFFFF" d="M98.675,73.566c-0.612,1.62-1.458,2.946-2.538,3.978c-1.08,1.033-2.353,1.783-3.816,2.25
    c-1.464,0.469-3.037,0.703-4.716,0.703h-6.156V55.295h6.66c1.656,0,3.186,0.24,4.59,0.721s2.616,1.23,3.636,2.25
    c1.02,1.021,1.818,2.311,2.394,3.87c0.576,1.56,0.864,3.42,0.864,5.58C99.593,69.996,99.287,71.945,98.675,73.566z M94.517,60.408
    c-1.512-1.705-3.72-2.557-6.624-2.557h-3.636V77.94h3.708c1.368,0,2.592-0.186,3.672-0.558s2.003-0.966,2.772-1.782
    c0.768-0.815,1.355-1.865,1.764-3.15c0.408-1.283,0.612-2.826,0.612-4.625C96.785,64.584,96.029,62.111,94.517,60.408z"/>
  <path fill="#FFFFFF" d="M105.136,80.496V55.295h15.229v2.557h-12.42v7.92h7.2v2.557h-7.2v9.611h12.96v2.557H105.136z"/>
  <path fill="#FFFFFF" d="M142.468,67.174c-1.08,1.199-2.52,1.991-4.319,2.375l5.544,10.947h-3.24l-5.4-10.729h-5.976v10.729h-2.809
    V55.295h9.973c1.104,0,2.136,0.145,3.096,0.433s1.788,0.726,2.484,1.313c0.695,0.588,1.247,1.326,1.655,2.214
    s0.612,1.943,0.612,3.167C144.088,64.39,143.548,65.974,142.468,67.174z M139.966,59.018c-0.876-0.777-2.154-1.166-3.834-1.166
    h-7.056v9.359h6.696c1.872,0,3.258-0.388,4.157-1.165c0.9-0.776,1.351-1.954,1.351-3.532
    C141.28,60.96,140.842,59.795,139.966,59.018z"/>
  <path fill="#FFFFFF" d="M149.667,80.496V55.295h15.229v2.557h-12.42v7.92h7.2v2.557h-7.2v9.611h12.96v2.557H149.667z"/>
  <path fill="#FFFFFF" d="M187.035,80.496l-2.16-6.408h-10.403l-2.196,6.408h-2.88l8.748-25.201h3.096l8.748,25.201H187.035z
     M181.239,63.252c-0.144-0.408-0.294-0.852-0.45-1.332s-0.306-0.941-0.45-1.387c-0.144-0.443-0.27-0.863-0.378-1.26
    c-0.107-0.396-0.197-0.726-0.27-0.99c-0.072,0.265-0.162,0.589-0.271,0.973c-0.107,0.384-0.233,0.805-0.378,1.26
    c-0.144,0.456-0.3,0.93-0.468,1.422s-0.324,0.954-0.468,1.387l-2.772,8.207h8.677L181.239,63.252z"/>
  <path fill="#FFFFFF" d="M212.434,73.566c-0.612,1.62-1.458,2.946-2.538,3.978c-1.08,1.033-2.353,1.783-3.816,2.25
    c-1.464,0.469-3.036,0.703-4.716,0.703h-6.156V55.295h6.66c1.656,0,3.187,0.24,4.59,0.721c1.404,0.48,2.616,1.23,3.637,2.25
    c1.02,1.021,1.817,2.311,2.394,3.87s0.864,3.42,0.864,5.58C213.352,69.996,213.046,71.945,212.434,73.566z M208.275,60.408
    c-1.512-1.705-3.721-2.557-6.624-2.557h-3.636V77.94h3.708c1.368,0,2.592-0.186,3.672-0.558s2.004-0.966,2.772-1.782
    c0.768-0.815,1.355-1.865,1.764-3.15c0.407-1.283,0.612-2.826,0.612-4.625C210.544,64.584,209.787,62.111,208.275,60.408z"/>
  <path fill="#FFFFFF" d="M227.175,70.488v10.008h-2.808v-9.973l-8.64-15.229h3.204l4.031,7.236c0.504,0.912,1.014,1.854,1.53,2.826
    c0.516,0.973,0.954,1.83,1.314,2.574c0.359-0.744,0.797-1.602,1.313-2.574c0.516-0.972,1.026-1.914,1.53-2.826l4.032-7.236h3.132
    L227.175,70.488z"/>
  <path fill="#FFFFFF" d="M54.558,110.496H51.39l-3.96-16.129c-0.096-0.407-0.205-0.863-0.324-1.367
    c-0.12-0.504-0.234-1.008-0.342-1.512c-0.108-0.505-0.21-1.002-0.306-1.494c-0.096-0.492-0.18-0.93-0.252-1.314
    c-0.072,0.385-0.156,0.816-0.252,1.296c-0.096,0.48-0.198,0.972-0.306,1.476s-0.222,1.008-0.342,1.512
    c-0.121,0.505-0.229,0.973-0.324,1.404l-3.96,16.129h-3.096l-5.04-25.201h2.808l2.952,16.201c0.072,0.408,0.149,0.875,0.234,1.404
    c0.084,0.527,0.168,1.049,0.252,1.564c0.084,0.518,0.168,1.008,0.252,1.477s0.15,0.859,0.198,1.17
    c0.048-0.311,0.12-0.695,0.216-1.152c0.096-0.455,0.198-0.941,0.306-1.457s0.222-1.031,0.342-1.549
    c0.12-0.516,0.228-0.977,0.324-1.385l3.996-16.273h3.024l3.996,16.273c0.096,0.408,0.204,0.869,0.324,1.385
    c0.12,0.518,0.234,1.033,0.342,1.549c0.108,0.516,0.209,1.002,0.306,1.457c0.096,0.457,0.168,0.842,0.216,1.152
    c0.048-0.311,0.113-0.701,0.198-1.17c0.084-0.469,0.168-0.959,0.252-1.477c0.084-0.516,0.168-1.037,0.252-1.564
    c0.084-0.529,0.162-0.996,0.234-1.404l2.952-16.201h2.736L54.558,110.496z"/>
  <path fill="#FFFFFF" d="M83.609,103.098c-0.504,1.596-1.218,2.971-2.142,4.121c-0.924,1.152-2.034,2.053-3.33,2.701
    s-2.724,0.973-4.284,0.973c-1.561,0-2.982-0.32-4.266-0.955c-1.284-0.635-2.382-1.529-3.294-2.682
    c-0.913-1.152-1.615-2.52-2.106-4.104c-0.492-1.584-0.738-3.324-0.738-5.221c0-1.896,0.252-3.642,0.756-5.238
    c0.504-1.596,1.212-2.97,2.124-4.121c0.912-1.152,2.016-2.053,3.312-2.701c1.296-0.647,2.724-0.972,4.284-0.972
    c1.56,0,2.982,0.318,4.266,0.954c1.284,0.637,2.381,1.53,3.294,2.682c0.912,1.152,1.62,2.521,2.124,4.104s0.756,3.324,0.756,5.22
    C84.365,99.756,84.113,101.502,83.609,103.098z M80.963,93.629c-0.396-1.283-0.942-2.387-1.638-3.312
    c-0.696-0.923-1.512-1.632-2.448-2.124c-0.936-0.491-1.957-0.738-3.06-0.738c-1.08,0-2.083,0.247-3.006,0.738
    c-0.924,0.492-1.723,1.188-2.394,2.088c-0.672,0.9-1.201,1.992-1.584,3.276c-0.384,1.284-0.576,2.718-0.576,4.302
    s0.198,3.02,0.594,4.303s0.936,2.389,1.62,3.311c0.684,0.926,1.494,1.633,2.43,2.125s1.956,0.738,3.06,0.738
    c1.08,0,2.088-0.246,3.024-0.738s1.74-1.188,2.412-2.088c0.671-0.9,1.2-1.992,1.584-3.275c0.383-1.285,0.576-2.719,0.576-4.303
    S81.359,94.914,80.963,93.629z"/>
  <path fill="#FFFFFF" d="M106.108,97.174c-1.08,1.199-2.52,1.991-4.32,2.375l5.545,10.947h-3.24l-5.4-10.729h-5.976v10.729h-2.808
    V85.295h9.972c1.104,0,2.136,0.145,3.096,0.433s1.788,0.726,2.484,1.313c0.695,0.588,1.247,1.326,1.655,2.214
    s0.612,1.943,0.612,3.167C107.729,94.39,107.188,95.974,106.108,97.174z M103.606,89.018c-0.876-0.777-2.154-1.166-3.834-1.166
    h-7.056v9.359h6.696c1.872,0,3.258-0.388,4.158-1.165c0.9-0.776,1.351-1.954,1.351-3.532
    C104.921,90.96,104.482,89.795,103.606,89.018z"/>
  <path fill="#FFFFFF" d="M128.357,110.496l-7.452-13.429l-4.788,6.192v7.236h-2.809V85.295h2.809v10.98v3.385
    c0.168-0.24,0.401-0.57,0.702-0.99c0.3-0.42,0.63-0.87,0.989-1.35c0.36-0.48,0.714-0.949,1.062-1.404
    c0.348-0.456,0.653-0.852,0.918-1.188l7.308-9.433h3.061l-7.38,9.469l8.784,15.732H128.357z"/>
  <path fill="#FFFFFF" d="M150.263,106.645c-0.373,0.863-0.918,1.607-1.639,2.23c-0.72,0.625-1.596,1.117-2.628,1.477
    s-2.208,0.541-3.527,0.541c-1.729,0-3.318-0.332-4.771-0.99c-1.452-0.66-2.682-1.494-3.689-2.502l1.871-2.088
    c0.96,0.912,1.992,1.643,3.097,2.195c1.104,0.553,2.304,0.828,3.6,0.828c1.68,0,3.006-0.385,3.979-1.152
    c0.972-0.768,1.458-1.824,1.458-3.168c0-0.576-0.097-1.104-0.288-1.584c-0.192-0.48-0.522-0.924-0.99-1.332
    s-1.086-0.811-1.854-1.205c-0.768-0.396-1.728-0.799-2.88-1.207c-1.368-0.479-2.514-0.966-3.438-1.458
    c-0.925-0.491-1.669-1.02-2.232-1.584c-0.563-0.563-0.972-1.193-1.224-1.89s-0.378-1.5-0.378-2.412c0-1.008,0.191-1.908,0.576-2.7
    c0.383-0.792,0.918-1.47,1.602-2.034c0.684-0.563,1.512-0.99,2.484-1.277c0.972-0.289,2.046-0.433,3.222-0.433
    c1.68,0,3.114,0.24,4.302,0.72c1.188,0.48,2.31,1.141,3.366,1.98l-1.8,2.195c-0.912-0.768-1.83-1.35-2.754-1.745
    c-0.925-0.396-2.022-0.595-3.294-0.595c-0.864,0-1.608,0.104-2.232,0.307c-0.624,0.204-1.134,0.475-1.53,0.811
    c-0.396,0.336-0.684,0.726-0.863,1.17c-0.181,0.443-0.271,0.918-0.271,1.422c0,0.527,0.072,1.002,0.216,1.422
    c0.145,0.42,0.433,0.828,0.864,1.224s1.038,0.786,1.818,1.17c0.779,0.384,1.806,0.805,3.078,1.261
    c1.392,0.504,2.556,1.008,3.491,1.512c0.937,0.504,1.687,1.057,2.25,1.656c0.564,0.6,0.966,1.26,1.206,1.979
    c0.24,0.721,0.36,1.549,0.36,2.484C150.82,104.856,150.634,105.779,150.263,106.645z"/>
  <path fill="#FFFFFF" d="M173.482,96.15c-0.42,0.972-1.002,1.788-1.745,2.448c-0.745,0.66-1.645,1.158-2.7,1.494
    c-1.057,0.336-2.209,0.504-3.456,0.504h-6.12v9.9h-2.809V85.295h9.433c1.152,0,2.214,0.15,3.186,0.451
    c0.973,0.3,1.818,0.762,2.538,1.386c0.721,0.624,1.284,1.41,1.692,2.358c0.407,0.947,0.612,2.058,0.612,3.33
    C174.113,94.068,173.902,95.178,173.482,96.15z M169.937,89.166c-0.912-0.877-2.231-1.314-3.96-1.314h-6.516v10.188h6.156
    c3.791,0,5.688-1.703,5.688-5.111C171.305,91.296,170.849,90.042,169.937,89.166z"/>
  <path fill="#FFFFFF" d="M193.013,110.496l-2.16-6.408h-10.403l-2.196,6.408h-2.88l8.748-25.201h3.096l8.748,25.201H193.013z
     M187.217,93.252c-0.144-0.408-0.294-0.852-0.45-1.332s-0.306-0.941-0.45-1.387c-0.144-0.443-0.27-0.863-0.378-1.26
    c-0.107-0.396-0.197-0.726-0.27-0.99c-0.072,0.265-0.162,0.589-0.271,0.973c-0.107,0.384-0.233,0.805-0.378,1.26
    c-0.144,0.456-0.3,0.93-0.468,1.422s-0.324,0.954-0.468,1.387l-2.772,8.207h8.677L187.217,93.252z"/>
  <path fill="#FFFFFF" d="M214.433,109.74c-1.368,0.768-2.977,1.152-4.824,1.152c-1.536,0-2.934-0.332-4.194-0.99
    c-1.26-0.66-2.334-1.566-3.222-2.719s-1.572-2.52-2.052-4.104c-0.48-1.584-0.72-3.301-0.72-5.148c0-1.872,0.252-3.605,0.756-5.202
    c0.504-1.596,1.206-2.97,2.105-4.122c0.9-1.152,1.986-2.058,3.258-2.718c1.272-0.659,2.664-0.99,4.177-0.99
    c3.407,0,6.084,1.345,8.027,4.032l-2.231,1.691c-0.816-1.104-1.656-1.907-2.521-2.412c-0.863-0.504-1.979-0.756-3.348-0.756
    c-1.08,0-2.076,0.259-2.988,0.774c-0.912,0.517-1.691,1.23-2.34,2.142c-0.647,0.913-1.158,2.005-1.53,3.276
    c-0.372,1.272-0.558,2.677-0.558,4.212c0,1.537,0.186,2.947,0.558,4.23s0.895,2.389,1.566,3.312s1.464,1.643,2.376,2.16
    c0.912,0.516,1.896,0.773,2.952,0.773c1.368,0,2.543-0.289,3.527-0.865c0.984-0.574,1.885-1.391,2.7-2.447l1.944,1.691
    C216.94,107.963,215.801,108.973,214.433,109.74z"/>
  <path fill="#FFFFFF" d="M223.107,110.496V85.295h15.229v2.557h-12.42v7.92h7.2v2.557h-7.2v9.611h12.96v2.557H223.107z"/>
  <path fill="#FFFFFF" d="M258.73,106.645c-0.373,0.863-0.918,1.607-1.639,2.23c-0.72,0.625-1.596,1.117-2.628,1.477
    s-2.208,0.541-3.527,0.541c-1.729,0-3.318-0.332-4.771-0.99c-1.452-0.66-2.682-1.494-3.689-2.502l1.871-2.088
    c0.96,0.912,1.992,1.643,3.097,2.195c1.104,0.553,2.304,0.828,3.6,0.828c1.68,0,3.006-0.385,3.979-1.152
    c0.972-0.768,1.458-1.824,1.458-3.168c0-0.576-0.097-1.104-0.288-1.584c-0.192-0.48-0.522-0.924-0.99-1.332
    s-1.086-0.811-1.854-1.205c-0.768-0.396-1.728-0.799-2.88-1.207c-1.368-0.479-2.514-0.966-3.438-1.458
    c-0.925-0.491-1.669-1.02-2.232-1.584c-0.563-0.563-0.972-1.193-1.224-1.89s-0.378-1.5-0.378-2.412c0-1.008,0.191-1.908,0.576-2.7
    c0.383-0.792,0.918-1.47,1.602-2.034c0.684-0.563,1.512-0.99,2.484-1.277c0.972-0.289,2.046-0.433,3.222-0.433
    c1.68,0,3.114,0.24,4.302,0.72c1.188,0.48,2.31,1.141,3.366,1.98l-1.8,2.195c-0.912-0.768-1.83-1.35-2.754-1.745
    c-0.925-0.396-2.022-0.595-3.294-0.595c-0.864,0-1.608,0.104-2.232,0.307c-0.624,0.204-1.134,0.475-1.53,0.811
    c-0.396,0.336-0.684,0.726-0.863,1.17c-0.181,0.443-0.271,0.918-0.271,1.422c0,0.527,0.072,1.002,0.216,1.422
    c0.145,0.42,0.433,0.828,0.864,1.224s1.038,0.786,1.818,1.17c0.779,0.384,1.806,0.805,3.078,1.261
    c1.392,0.504,2.556,1.008,3.491,1.512c0.937,0.504,1.687,1.057,2.25,1.656c0.564,0.6,0.966,1.26,1.206,1.979
    c0.24,0.721,0.36,1.549,0.36,2.484C259.288,104.856,259.102,105.779,258.73,106.645z"/>
</g>
</svg>
