<?xml version="1.0" encoding="UTF-8" standalone="no"?>
<!--

    Copyright (c) 2019 Red Hat, Inc.
    This program and the accompanying materials are made
    available under the terms of the Eclipse Public License 2.0
    which is available at https://www.eclipse.org/legal/epl-2.0/

    SPDX-License-Identifier: EPL-2.0

    Contributors:
      Red Hat, Inc. - initial API and implementation

-->
<svg
   xmlns:dc="http://purl.org/dc/elements/1.1/"
   xmlns:cc="http://creativecommons.org/ns#"
   xmlns:svg="http://www.w3.org/2000/svg"
   xmlns="http://www.w3.org/2000/svg"
   enable-background="new"
   height="54"
   width="147.10211"
   version="1.1"
   viewBox="0 0 147.10211 54"
   data-name="Red Hat CodeReady Workspaces"
   id="CodeReady_Workspaces">
  <defs
     id="defs144">
    <style
       id="style142">.cls-1{fill:#fff;}</style>
    <filter
       id="filter344"
       style="color-interpolation-filters:sRGB">
      <feBlend
         id="feBlend346"
         in2="BackgroundImage"
         mode="darken" />
    </filter>
  </defs>
  <title
     id="title146">Red Hat CodeReady Workspaces</title>
  <g
     style="display:inline;opacity:1;filter:url(#filter344)"
     id="layer1" />
  <g
     id="g123"
     transform="matrix(0.72080962,0,0,0.72080962,13.990536,7.212006)"
     style="display:inline;opacity:1;filter:url(#filter344)">
    <path
       d="M 15.3,15.6 13,10.9 h -1.6 v 4.8 H 7.6 V 1.5 h 6.3 c 0.8,0 1.5,0.1 2.2,0.2 0.6,0.1 1.2,0.4 1.7,0.8 0.6,0.4 1,0.9 1.2,1.5 0.3,0.7 0.4,1.4 0.4,2.1 0,0.9 -0.2,1.8 -0.7,2.6 -0.5,0.7 -1.1,1.2 -1.9,1.5 l 2.8,5.4 z M 15.1,5.1 C 14.7,4.8 14.3,4.6 13.8,4.7 h -2.4 v 3.1 h 2.3 c 0.5,0.1 1,-0.1 1.4,-0.4 0.3,-0.3 0.4,-0.7 0.4,-1.2 0,-0.4 -0.1,-0.8 -0.4,-1.1 z"
       id="path4" />
    <path
       d="M 22,15.6 V 1.5 h 10.8 v 3.3 h -6.9 v 1.9 h 4.2 v 3.2 h -4.2 v 2.4 H 33 v 3.3 z"
       id="path6" />
    <path
       d="m 47.2,11.9 c -0.3,0.8 -0.8,1.6 -1.5,2.2 -0.7,0.6 -1.5,1 -2.4,1.2 -1.1,0.3 -2.2,0.4 -3.3,0.4 H 35.4 V 1.5 h 4.9 c 1,0 2,0.1 3,0.3 0.9,0.3 1.7,0.6 2.4,1.2 0.6,0.6 1.1,1.3 1.5,2.2 0.4,1.1 0.5,2.2 0.5,3.3 0,1.1 -0.2,2.3 -0.5,3.4 z m -3.7,-5 C 43.4,6.5 43.2,6.1 43,5.7 42.7,5.4 42.4,5.2 42,5 41.5,4.8 41,4.8 40.5,4.8 h -1 v 7.4 h 0.8 c 0.5,0 1,-0.1 1.5,-0.2 0.4,-0.1 0.8,-0.3 1.1,-0.6 0.3,-0.3 0.5,-0.7 0.6,-1.1 C 43.6,9.7 43.7,9.1 43.7,8.5 43.6,8 43.6,7.4 43.5,6.9 Z"
       id="path8" />
    <path
       d="M 64.2,15.6 V 10 h -4.4 v 5.6 h -4 V 1.5 h 4 v 5.2 h 4.4 V 1.5 h 4 v 14.1 z"
       id="path10" />
    <path
       d="m 80.2,15.6 -0.8,-2.5 h -4.2 l -0.8,2.5 H 70.2 L 75.3,1.5 h 4 l 5.1,14.1 z m -2,-6.5 C 78.1,8.6 78,8.2 77.9,7.9 77.8,7.6 77.7,7.3 77.6,7 77.5,6.7 77.4,6.5 77.4,6.3 c 0,-0.2 -0.1,-0.4 -0.1,-0.7 0,0.2 -0.1,0.5 -0.1,0.7 0,0.2 -0.2,0.5 -0.3,0.7 -0.1,0.2 -0.1,0.6 -0.2,1 -0.1,0.4 -0.2,0.7 -0.3,1.2 l -0.3,0.9 h 2.3 z"
       id="path12" />
    <path
       d="M 91.8,4.9 V 15.6 H 87.9 V 4.9 H 84 V 1.5 h 11.8 v 3.4 z"
       id="path14" />
    <path
       d="M 100.3,3.5 C 100.2,3.7 100.1,3.8 100,4 99.9,4.1 99.7,4.2 99.6,4.3 99.2,4.4 98.8,4.4 98.5,4.3 98.3,4.2 98.2,4.1 98.1,4 98,3.9 97.9,3.7 97.8,3.5 97.7,3.3 97.7,3.1 97.7,2.9 c 0,-0.2 0,-0.4 0.1,-0.6 0,-0.1 0.1,-0.3 0.2,-0.4 0.1,-0.1 0.3,-0.2 0.4,-0.3 0.4,-0.1 0.8,-0.1 1.1,0 0.2,0.1 0.3,0.2 0.4,0.3 0.1,0.1 0.2,0.3 0.3,0.5 0.1,0.2 0.1,0.4 0.1,0.6 0.1,0.1 0.1,0.3 0,0.5 z m -0.2,-1 C 100,2.4 100,2.2 99.9,2.1 99.5,1.8 99,1.7 98.6,1.9 98.5,2 98.3,2 98.2,2.1 98.1,2.2 98,2.3 98,2.5 97.9,2.6 97.9,2.8 97.9,3 c 0,0.2 0,0.3 0.1,0.5 0.1,0.1 0.1,0.3 0.2,0.4 0.1,0.1 0.2,0.2 0.4,0.2 0.3,0.1 0.6,0.1 0.9,0 0.1,-0.1 0.3,-0.1 0.4,-0.2 0.1,-0.1 0.2,-0.2 0.2,-0.4 0.1,-0.1 0.1,-0.3 0.1,-0.5 0,-0.2 -0.1,-0.4 -0.1,-0.5 z M 99.5,2.9 C 99.4,3 99.4,3 99.3,3.1 l 0.3,0.6 H 99.3 L 99,3.1 H 98.7 V 3.7 H 98.4 V 2.1 h 0.7 0.2 c 0.1,0 0.1,0 0.2,0.1 0.1,0 0.1,0.1 0.1,0.2 0,0.1 0,0.1 0,0.2 0,0.1 0,0.2 -0.1,0.3 z M 99.3,2.5 c -0.1,0 -0.1,-0.1 -0.2,-0.1 h -0.4 v 0.4 h 0.4 c 0.1,0 0.1,0 0.2,0 0.1,0 0.1,-0.1 0.1,-0.2 0,0 0,-0.1 -0.1,-0.1 z"
       id="path16" />
    <path
       d="m 15.7,23.9 c -0.5,-1 -1.5,-1.6 -2.6,-1.5 -2.1,0 -3.4,1.9 -3.4,4.5 0,2.6 1.2,4.5 3.4,4.5 1.2,0 2.3,-0.7 2.8,-1.8 l 2.4,1.4 c -0.9,2.1 -3,3.4 -5.3,3.2 -3.7,0 -6.2,-2.9 -6.2,-7.4 0,-4.4 2.6,-7.4 6.3,-7.4 2.2,-0.1 4.3,1.1 5.2,3.2 z"
       id="path18" />
    <path
       d="m 26.1,34.2 c -3.9,0 -6.2,-3 -6.2,-7.4 0,-4.4 2.3,-7.4 6.2,-7.4 3.9,0 6.2,3 6.2,7.4 0,4.4 -2.3,7.4 -6.2,7.4 z m 0,-11.9 c -2.3,0 -3.2,2 -3.2,4.5 0,2.5 1,4.5 3.2,4.5 2.2,0 3.3,-2 3.3,-4.5 0,-2.5 -1,-4.5 -3.3,-4.5 z"
       id="path20" />
    <path
       d="M 39.5,34 H 35.2 V 19.7 h 4.5 c 4.1,0 7.1,1.9 7.1,7.1 0,5.1 -3.7,7.2 -7.3,7.2 z m 0.1,-11.5 h -1.5 v 8.7 h 1.4 c 3,0 4.3,-1.8 4.3,-4.4 0,-2.9 -1.2,-4.3 -4.2,-4.3 z"
       id="path22" />
    <path
       d="M 49.6,34 V 19.7 h 9.9 v 2.8 h -7 V 25 h 4.1 v 2.8 h -4.1 v 3.4 h 7.3 V 34 Z"
       id="path24" />
    <path
       d="M 71.1,34 68.6,28.9 H 65.7 V 34 H 62.9 V 19.7 h 6.6 c 2.7,0 4.9,1.5 4.9,4.5 0.2,1.9 -1,3.6 -2.7,4.2 L 74.4,34 Z M 69.4,22.5 h -3.7 v 3.7 h 3.7 c 1.3,0 2,-0.6 2,-1.9 0,-1.3 -0.7,-1.8 -2,-1.8 z"
       id="path26" />
    <path
       d="M 77.4,34 V 19.7 h 9.9 v 2.8 h -7 V 25 h 4.1 v 2.8 h -4.1 v 3.4 h 7.3 V 34 Z"
       id="path28" />
    <path
       d="M 100.1,34 99,30.8 H 93.8 L 92.7,34 H 89.6 L 95,19.7 h 2.8 l 5.4,14.3 z m -3,-8.5 c -0.3,-0.8 -0.6,-1.7 -0.7,-2.2 -0.2,0.5 -0.4,1.4 -0.7,2.2 l -0.9,2.6 H 98 Z"
       id="path30" />
    <path
       d="m 110.1,34 h -4.3 V 19.7 h 4.5 c 4.1,0 7.1,1.9 7.1,7.1 0,5.1 -3.6,7.2 -7.3,7.2 z m 0.1,-11.5 h -1.5 v 8.7 h 1.4 c 3,0 4.4,-1.8 4.4,-4.4 0,-2.9 -1.3,-4.3 -4.3,-4.3 z"
       id="path32" />
    <path
       d="M 126.1,28.3 V 34 h -2.8 v -5.6 l -5.4,-8.7 h 3.3 l 2,3.4 c 0.5,0.9 1.3,2.3 1.5,2.8 0.3,-0.5 1,-1.9 1.6,-2.8 l 2,-3.4 h 3.2 z"
       id="path34" />
    <path
       d="M 19.5,52.3 H 16.7 L 15,44.9 C 14.8,44.1 14.6,43 14.5,42.4 14.4,42.9 14.2,44 14,44.9 l -1.8,7.3 H 9.6 L 6.6,38 h 3 l 1.2,7 c 0.1,0.7 0.3,1.8 0.3,2.3 0.1,-0.6 0.3,-1.7 0.5,-2.3 l 1.7,-7 h 2.5 l 1.7,7 c 0.2,0.7 0.4,1.8 0.5,2.3 0.1,-0.6 0.2,-1.7 0.3,-2.3 l 1.2,-7 h 2.9 z"
       id="path36" />
    <path
       d="m 30.4,52.5 c -3.9,0 -6.2,-3 -6.2,-7.4 0,-4.4 2.3,-7.4 6.2,-7.4 3.9,0 6.2,3 6.2,7.4 0,4.4 -2.3,7.4 -6.2,7.4 z m 0,-11.9 c -2.3,0 -3.3,2 -3.3,4.5 0,2.5 1,4.5 3.3,4.5 2.3,0 3.3,-2 3.3,-4.5 0,-2.5 -1,-4.5 -3.3,-4.5 z"
       id="path38" />
    <path
       d="m 47.7,52.3 -2.5,-5.1 h -2.9 v 5.1 H 39.5 V 38 h 6.6 c 2.7,0 4.9,1.5 4.9,4.5 0.2,1.9 -1,3.6 -2.7,4.2 L 51,52.3 Z M 46,40.8 h -3.7 v 3.7 H 46 c 1.3,0 2,-0.6 2,-1.9 0,-1.3 -0.7,-1.8 -2,-1.8 z"
       id="path40" />
    <path
       d="m 63,52.3 -3.9,-6.9 -2.3,2.7 v 4.2 H 54 V 38 h 2.8 v 4.1 c 0,0.5 0,1.8 0,2.3 0.3,-0.5 0.7,-1 1.1,-1.5 l 4,-4.9 h 3.4 l -4.2,4.9 5.2,9.4 z"
       id="path42" />
    <path
       d="m 72.8,52.5 c -2.2,0.1 -4.2,-0.9 -5.5,-2.6 l 2,-1.8 c 0.9,1.1 2.2,1.7 3.7,1.6 1.7,0 2.5,-0.5 2.5,-1.5 0,-0.9 -0.5,-1.3 -3.2,-1.9 -2.7,-0.6 -4.4,-1.5 -4.4,-4.2 0,-2.6 2.3,-4.2 5.1,-4.2 2,-0.1 3.9,0.7 5.2,2.2 L 76,42 c -0.8,-0.9 -2,-1.5 -3.2,-1.5 -1.5,0 -2,0.7 -2,1.3 0,0.9 0.6,1.2 2.9,1.7 2.3,0.5 4.8,1.3 4.8,4.4 -0.2,2.8 -1.9,4.6 -5.7,4.6 z"
       id="path44" />
    <path
       d="m 87.3,47.2 h -3.1 v 5.1 H 81.4 V 38 h 6.2 c 2.7,0 4.9,1.5 4.9,4.5 0,3.3 -2.2,4.7 -5.2,4.7 z m 0.2,-6.4 h -3.3 v 3.7 h 3.3 c 1.3,0 2,-0.6 2,-1.9 0,-1.3 -0.7,-1.8 -2,-1.8 z"
       id="path46" />
    <path
       d="m 103.2,52.3 -1.1,-3.2 h -5.2 l -1.1,3.2 h -3 L 98.1,38 h 2.8 l 5.4,14.3 z m -3,-8.5 C 99.9,43 99.6,42.1 99.5,41.6 99.4,42.1 99.1,43 98.8,43.8 l -0.9,2.6 h 3.2 z"
       id="path48" />
    <path
       d="m 116.6,42.2 c -0.5,-1 -1.5,-1.6 -2.6,-1.5 -2.1,0 -3.4,1.9 -3.4,4.5 0,2.6 1.2,4.5 3.4,4.5 1.2,0 2.3,-0.7 2.8,-1.8 l 2.4,1.4 c -0.9,2.1 -3,3.4 -5.3,3.2 -3.7,0 -6.2,-2.9 -6.2,-7.4 0,-4.3 2.6,-7.4 6.3,-7.4 2.2,-0.1 4.3,1.1 5.2,3.2 z"
       id="path50" />
    <path
       d="M 122.1,52.3 V 38 h 9.9 v 2.8 h -7 v 2.5 h 4.1 V 46 H 125 v 3.5 h 7.4 v 2.8 z"
       id="path52" />
    <path
       d="m 139.9,52.5 c -2.2,0.1 -4.2,-0.9 -5.5,-2.6 l 2.1,-1.8 c 0.9,1.1 2.2,1.7 3.6,1.6 1.7,0 2.5,-0.5 2.5,-1.5 0,-0.9 -0.5,-1.3 -3.2,-1.9 -2.7,-0.6 -4.5,-1.5 -4.5,-4.3 0,-2.6 2.3,-4.2 5.1,-4.2 2,-0.1 3.9,0.8 5.2,2.2 l -2,2 c -0.8,-0.9 -2,-1.5 -3.2,-1.5 -1.5,0 -2,0.7 -2,1.3 0,0.9 0.6,1.2 2.9,1.7 2.3,0.5 4.8,1.3 4.8,4.4 -0.2,2.8 -1.9,4.6 -5.8,4.6 z"
       id="path54" />
  </g>
</svg>
